<svg width="184" height="210" fill="none" xmlns="http://www.w3.org/2000/svg"><path d="M29.583 124.534c-7.152-6.479-20.15-5.331-21.407-5.203-.065.007-.328 11.099 7.194 17.911 7.521 6.813 19.85-.795 19.85-.795-.535-3.942-1.994-8.614-5.637-11.913zm11.836 0c7.153-6.479 20.15-5.331 21.408-5.203.065.007.328 11.099-7.194 17.911-7.522 6.813-19.851-.795-19.851-.795.536-3.942 1.995-8.614 5.637-11.913z" fill="#E24E74"/><path d="M29.583 124.534c-7.152-6.479-20.15-5.331-21.407-5.203-.065.007-.328 11.099 7.194 17.911 7.521 6.813 19.85-.795 19.85-.795-.535-3.942-1.994-8.614-5.637-11.913zm11.836 0c7.153-6.479 20.15-5.331 21.408-5.203.065.007.328 11.099-7.194 17.911-7.522 6.813-19.851-.795-19.851-.795.536-3.942 1.995-8.614 5.637-11.913z" fill="url(#paint0_linear_1129_3178)"/><path d="M62.926 119.342l-.1-.011c-.536 3.94-1.992 8.607-5.633 11.904-7.171 6.495-20.5 5.202-21.692 5.202-1.21 0-14.521 1.293-21.692-5.202-3.641-3.297-5.098-7.964-5.634-11.904l-.098.011s-1.79 12.666 5.732 19.478c5.363 4.858 14.008 5.427 18.53 5.354v18.917a3.164 3.164 0 001.951 2.92 3.157 3.157 0 004.37-2.92v-18.917c4.522.073 13.17-.496 18.533-5.354 7.522-6.812 5.733-19.478 5.733-19.478z" fill="#E24E74"/><path d="M62.926 119.342l-.1-.011c-.536 3.94-1.992 8.607-5.633 11.904-7.171 6.495-20.5 5.202-21.692 5.202-1.21 0-14.521 1.293-21.692-5.202-3.641-3.297-5.098-7.964-5.634-11.904l-.098.011s-1.79 12.666 5.732 19.478c5.363 4.858 14.008 5.427 18.53 5.354v18.917a3.164 3.164 0 001.951 2.92 3.157 3.157 0 004.37-2.92v-18.917c4.522.073 13.17-.496 18.533-5.354 7.522-6.812 5.733-19.478 5.733-19.478z" fill="url(#paint1_linear_1129_3178)"/><path d="M58.24 177.266l5.673 3.911-4.732 21.426a8.429 8.429 0 01-8.23 6.61h-30.9a8.435 8.435 0 01-8.23-6.611l-4.732-21.425 5.672-3.911h45.48z" fill="#C24040"/><path d="M65.588 169.42H5.414v4.172l1.676 7.585h56.823l1.675-7.585v-4.172z" fill="url(#paint2_linear_1129_3178)"/><path d="M66.769 168.281H4.234a3.544 3.544 0 01-3.545-3.545v-1.795a3.544 3.544 0 013.545-3.544h62.535a3.544 3.544 0 013.544 3.544v1.795a3.547 3.547 0 01-3.544 3.545z" fill="url(#paint3_linear_1129_3178)"/><path d="M66.769 166.515H4.234a3.548 3.548 0 01-3.545-3.545v7.077a3.546 3.546 0 003.545 3.545h62.535a3.548 3.548 0 003.544-3.545v-7.077a3.547 3.547 0 01-3.544 3.545z" fill="url(#paint4_linear_1129_3178)"/><path d="M150.569.251c-6.882.364-13.107 3.359-18.128 6.863l-1.156 5.233 4.256 3.902 7.097-.414c2.675-1.496 5.605-2.58 8.61-2.739 4.656-.246 8.97 1.849 13.187 6.405 4.748 5.13 5.548 11.427 4.33 17.742l.926 5.573 5.468 4.715 4.448-1.293c5.982-17.402.485-28.757-5.732-35.475-6.877-7.43-14.718-10.966-23.306-10.512z" fill="#E0DFDF"/><path d="M150.569.251c-6.882.364-13.107 3.359-18.128 6.863l-1.156 5.233 4.256 3.902 7.097-.414c2.675-1.496 5.605-2.58 8.61-2.739 4.656-.246 8.97 1.849 13.187 6.405 4.748 5.13 5.548 11.427 4.33 17.742l.926 5.573 5.468 4.715 4.448-1.293c5.982-17.402.485-28.757-5.732-35.475-6.877-7.43-14.718-10.966-23.306-10.512z" fill="url(#paint5_linear_1129_3178)"/><path d="M176.142 54.408c1.433-2.861 2.574-5.582 3.464-8.17l-10.844-8.996c-.581 3.014-1.619 6.032-2.909 8.929v8.446h10.182l.107-.21zM125.586 12.77v8.273h9.973c2.032-1.849 4.521-3.8 7.271-5.312l-10.389-8.618c-2.581 1.801-4.843 3.736-6.715 5.517l-.14.14z" fill="#E0DFDF"/><path d="M176.142 54.408c1.433-2.861 2.574-5.582 3.464-8.17l-10.844-8.996c-.581 3.014-1.619 6.032-2.909 8.929v8.446h10.182l.107-.21zM125.586 12.77v8.273h9.973c2.032-1.849 4.521-3.8 7.271-5.312l-10.389-8.618c-2.581 1.801-4.843 3.736-6.715 5.517l-.14.14z" fill="url(#paint6_linear_1129_3178)"/><path d="M75.34 56.482s-9.283-19.044.853-33.829c.135-.197.352-.31.557-.4a1.693 1.693 0 011.875.353l18.548 18.548-4.495 12.12-12.29 4.664-5.048-1.456z" fill="url(#paint7_linear_1129_3178)"/><path d="M104.902 110.19l-55.91-12.735-3.23-4.246-4.171-4.208 5.06-5.391 39.465-5.047L102.573 89l7.422 18.349-5.093 2.84z" fill="#E0DFDF"/><path d="M104.902 110.19l-55.91-12.735-3.23-4.246-4.171-4.208 5.06-5.391 39.465-5.047L102.573 89l7.422 18.349-5.093 2.84z" fill="url(#paint8_linear_1129_3178)"/><path d="M43.618 98.696l2.143-5.487.889-9.599s-2.356-7.33-14.01-9.134a2.114 2.114 0 00-2.435 1.876L28 98.914l1.691 4.638 13.926-4.856z" fill="url(#paint9_linear_1129_3178)"/><path d="M28 98.914l-.507 5.198a2.11 2.11 0 001.913 2.304c3.778.342 11.678.174 15.722-6.368l3.863-2.593-3.23-4.246c-5.393 7.859-16.497 5.952-17.76 5.705z" fill="url(#paint10_linear_1129_3178)"/><path d="M45.128 100.048l73.125 17.257.456-6.354-8.714-3.601-64.234-14.14-.633 6.838z" fill="#E0DFDF"/><path d="M45.128 100.048l73.125 17.257.456-6.354-8.714-3.601-64.234-14.14-.633 6.838z" fill="url(#paint11_linear_1129_3178)"/><path d="M76.9 22.204c-.27.086-.514.24-.707.45-17.318 18.973-2.025 41.505-2.025 41.505h5.895l.326-6.22c-3.034-6.641-10.786-23.302-3.489-35.735z" fill="url(#paint12_linear_1129_3178)"/><path d="M179.6 75.837l-36.666 36.666-2.944 2.988c-5.356 5.356-14.159 4.947-18.995-.884L80.389 65.459l-.02-7.502 45.201-45.2 53.146 44.085c5.831 4.836 6.24 13.639.884 18.995z" fill="#E0DFDF"/><path d="M179.6 75.837l-36.666 36.666-2.944 2.988c-5.356 5.356-14.159 4.947-18.995-.884L80.389 65.459l-.02-7.502 45.201-45.2 53.146 44.085c5.831 4.836 6.24 13.639.884 18.995z" fill="url(#paint13_linear_1129_3178)"/><path d="M124.469 111.119L80.384 57.973l-6.216 6.186 44.085 53.146c4.836 5.83 13.639 6.24 18.995.883l5.686-5.685c-5.392 4.823-13.785 4.258-18.465-1.384z" fill="#E0DFDF"/><path d="M124.469 111.119L80.384 57.973l-6.216 6.186 44.085 53.146c4.836 5.83 13.639 6.24 18.995.883l5.686-5.685c-5.392 4.823-13.785 4.258-18.465-1.384z" fill="url(#paint14_linear_1129_3178)"/><defs><linearGradient id="paint0_linear_1129_3178" x1="46.526" y1="132.003" x2="8.302" y2="128.201" gradientUnits="userSpaceOnUse"><stop stop-color="#C3DC2B"/><stop offset="1" stop-color="#6DB84A"/></linearGradient><linearGradient id="paint1_linear_1129_3178" x1="49.15" y1="162.943" x2="48.199" y2="128.558" gradientUnits="userSpaceOnUse"><stop stop-color="#D4F700"/><stop offset="1" stop-color="#C4DD2C"/></linearGradient><linearGradient id="paint2_linear_1129_3178" x1="6.236" y1="175.278" x2="58.281" y2="196.936" gradientUnits="userSpaceOnUse"><stop stop-color="#FF8357"/><stop offset="1" stop-color="#D56C74"/></linearGradient><linearGradient id="paint3_linear_1129_3178" x1="35.501" y1="159.397" x2="35.501" y2="168.281" gradientUnits="userSpaceOnUse"><stop stop-color="#FFC69D"/><stop offset="1" stop-color="#EC9354"/></linearGradient><linearGradient id="paint4_linear_1129_3178" x1="35.501" y1="162.97" x2="35.501" y2="173.592" gradientUnits="userSpaceOnUse"><stop stop-color="#FFC69D"/><stop offset="1" stop-color="#FFF0E6"/></linearGradient><linearGradient id="paint5_linear_1129_3178" x1="166.995" y1="29.254" x2="131.127" y2="27.787" gradientUnits="userSpaceOnUse"><stop stop-color="#D7A4FF"/><stop offset="1" stop-color="#F372BF"/></linearGradient><linearGradient id="paint6_linear_1129_3178" x1="163.487" y1="36.269" x2="125.426" y2="34.624" gradientUnits="userSpaceOnUse"><stop stop-color="#D7A4FF"/><stop offset="1" stop-color="#F372BF"/></linearGradient><linearGradient id="paint7_linear_1129_3178" x1="84.314" y1="22.11" x2="84.314" y2="57.938" gradientUnits="userSpaceOnUse"><stop stop-color="#6BD9E7"/><stop offset="1" stop-color="#A8F5FF"/></linearGradient><linearGradient id="paint8_linear_1129_3178" x1="89.584" y1="97.974" x2="41.622" y2="94.03" gradientUnits="userSpaceOnUse"><stop stop-color="#D7A4FF"/><stop offset="1" stop-color="#F372BF"/></linearGradient><linearGradient id="paint9_linear_1129_3178" x1="37.325" y1="74.45" x2="37.325" y2="103.552" gradientUnits="userSpaceOnUse"><stop stop-color="#6BD9E7"/><stop offset="1" stop-color="#A8F5FF"/></linearGradient><linearGradient id="paint10_linear_1129_3178" x1="38.237" y1="93.209" x2="38.237" y2="106.517" gradientUnits="userSpaceOnUse"><stop stop-color="#6BD9E7"/><stop offset="1" stop-color="#A8F5FF"/></linearGradient><linearGradient id="paint11_linear_1129_3178" x1="96.753" y1="107.998" x2="45.504" y2="102.048" gradientUnits="userSpaceOnUse"><stop stop-color="#D7A4FF"/><stop offset="1" stop-color="#F372BF"/></linearGradient><linearGradient id="paint12_linear_1129_3178" x1="74.161" y1="22.204" x2="74.161" y2="64.159" gradientUnits="userSpaceOnUse"><stop stop-color="#6BD9E7"/><stop offset="1" stop-color="#A8F5FF"/></linearGradient><linearGradient id="paint13_linear_1129_3178" x1="152.633" y1="78.123" x2="80.026" y2="75.453" gradientUnits="userSpaceOnUse"><stop stop-color="#D7A4FF"/><stop offset="1" stop-color="#F372BF"/></linearGradient><linearGradient id="paint14_linear_1129_3178" x1="122.415" y1="97.243" x2="73.955" y2="95.262" gradientUnits="userSpaceOnUse"><stop stop-color="#D7A4FF"/><stop offset="1" stop-color="#F372BF"/></linearGradient></defs></svg>