<svg width="178" height="218" fill="none" xmlns="http://www.w3.org/2000/svg"><path d="M127.629 172.359c-1.792-8.127-9.835-13.263-17.96-11.472-8.13 1.791-13.266 9.83-11.475 17.96l4.761 21.594 15.459 5.32 14.021-11.611-4.806-21.791zm-77.946 0c1.79-8.127 9.835-13.263 17.96-11.472 8.13 1.791 13.267 9.83 11.477 17.96l-4.764 21.594-15.458 5.32-14.02-11.611 4.805-21.791zm-9.93-31.271c14.882-8.107 32.395-12.159 38.949-13.142l-4.139-27.678c-1.184.177-24.22 3.738-46.142 15.145l11.333 25.675zm97.805 0c-14.882-8.107-32.394-12.159-38.947-13.142l4.137-27.678c1.185.177 24.221 3.738 46.144 15.145l-11.334 25.675z" fill="url(#paint0_linear_1125_2914)"/><path d="M127.629 172.359c-1.792-8.125-9.835-13.263-17.96-11.472-8.13 1.793-13.266 9.831-11.475 17.961l3.638 16.5a136.169 136.169 0 0029.487-6.259l-3.69-16.73zm-59.987-11.472c-8.124-1.791-16.168 3.346-17.959 11.472l-3.69 16.73a136.174 136.174 0 0029.486 6.259l3.639-16.5c1.792-8.13-3.346-16.17-11.476-17.961z" fill="url(#paint1_linear_1125_2914)"/><path d="M141.731 165.36c-5.159-30.199-21.637-53.345-21.637-53.345H57.218S40.74 135.162 35.582 165.36a9.41 9.41 0 005.567 10.236c8.758 3.741 25.738 9.48 47.507 9.48s38.751-5.739 47.507-9.48a9.411 9.411 0 005.569-10.236h-.001z" fill="#E0DFDF"/><path d="M141.731 165.36c-5.159-30.199-21.637-53.345-21.637-53.345H57.218S40.74 135.162 35.582 165.36a9.41 9.41 0 005.567 10.236c8.758 3.741 25.738 9.48 47.507 9.48s38.751-5.739 47.507-9.48a9.411 9.411 0 005.569-10.236h-.001z" fill="url(#paint2_linear_1125_2914)"/><path d="M11.021 144.188a13.977 13.977 0 0011.179 5.561c3.04.001 5.998-.993 8.421-2.83 2.83-2.141 5.922-4.078 9.134-5.826v-.005c-.247-11.858-6.7-20.776-11.334-25.675-5.041 2.626-10.023 5.661-14.669 9.17-6.168 4.661-7.39 13.435-2.73 19.605zm155.27 0a13.976 13.976 0 01-11.178 5.561c-3.041.001-6-.993-8.423-2.83-2.828-2.141-5.919-4.078-9.132-5.826v-.005c.245-11.858 6.7-20.776 11.332-25.675 5.043 2.626 10.026 5.661 14.671 9.17 6.167 4.661 7.39 13.435 2.73 19.605z" fill="url(#paint3_linear_1125_2914)"/><path d="M155.533 30.62c.874 0 2.922 2.33 3.522 2.85 11.108 9.668 18.861 24.404 18.22 40.122-.736 18.047-14.335 32.377-31.847 25.622-.925-.356-7.025-2.642-7.025-3.595V60.565l8.599-29.946h8.531zm-133.752 0c-.875 0-2.923 2.33-3.522 2.85C7.149 43.139-.604 57.875.037 73.593.774 91.64 14.373 105.97 31.884 99.215c.926-.356 7.026-2.642 7.026-3.595V60.565l-8.598-29.946H21.78z" fill="url(#paint4_linear_1125_2914)"/><path d="M104.803 120.484c0 8.919-7.229 16.147-16.147 16.147-8.917 0-16.147-7.228-16.147-16.147 0-8.917 7.23-16.147 16.147-16.147 8.918 0 16.147 7.23 16.147 16.147z" fill="#FFDDCB"/><path d="M149.644 53.235c.284 2.36.427 4.736.427 7.114 0 33.21-27.497 60.135-61.415 60.135S27.242 93.56 27.242 60.35c0-2.408.145-4.78.425-7.115l60.989-37.728 60.988 37.728z" fill="url(#paint5_linear_1125_2914)"/><path opacity=".2" d="M40.349 60.35c0-2.408.147-9.151.427-11.484l54.031-29.554-6.151-3.806-60.989 37.729a59.709 59.709 0 00-.425 7.114c0 33.21 27.496 60.135 61.414 60.135 2.215 0 4.4-.117 6.554-.341-30.836-3.203-54.861-28.75-54.861-59.794z" fill="url(#paint6_linear_1125_2914)"/><path d="M119.076 70.849a3.28 3.28 0 01-3.277-3.278v-5.915a3.272 3.272 0 012.023-3.028 3.279 3.279 0 014.531 3.028v5.915a3.275 3.275 0 01-3.277 3.278z" fill="#3A3C4C"/><path d="M123.104 79.541h-8.057a3.276 3.276 0 01-2.317-5.594 3.276 3.276 0 012.317-.96h8.057a3.277 3.277 0 110 6.554z" fill="#FFB4B4"/><path d="M58.237 70.849a3.277 3.277 0 01-3.277-3.278v-5.915a3.277 3.277 0 116.554 0v5.915a3.277 3.277 0 01-3.277 3.278z" fill="#3A3C4C"/><path d="M62.264 79.541H54.21a3.274 3.274 0 01-3.277-3.276 3.275 3.275 0 013.277-3.278h8.054a3.277 3.277 0 110 6.554z" fill="#FFB4B4"/><path d="M88.656 79.207c-3.067 0-5.948-1.286-7.908-3.527a3.275 3.275 0 01.311-4.625 3.277 3.277 0 014.625.312c.713.816 1.797 1.286 2.972 1.286 1.174 0 2.258-.47 2.974-1.286a3.277 3.277 0 014.934 4.313c-1.959 2.241-4.841 3.527-7.908 3.527z" fill="#3A3C4C"/><path d="M155.829 27.924c0 6.86-5.56 12.418-12.418 12.418-6.859 0-12.419-5.559-12.419-12.418 0-6.857 5.56-12.417 12.419-12.417 6.858 0 12.418 5.56 12.418 12.417zm-109.51 0c0 6.86-5.56 12.418-12.417 12.418-6.86 0-12.418-5.559-12.418-12.418 0-6.857 5.559-12.417 12.418-12.417 6.858 0 12.418 5.56 12.418 12.417z" fill="url(#paint7_linear_1125_2914)"/><path d="M149.644 53.235s-39.243-3.005-60.988-26.688C66.912 50.23 27.667 53.235 27.667 53.235 31.263 23.375 57.197.212 88.656.212c31.459 0 57.394 23.163 60.988 53.023z" fill="url(#paint8_linear_1125_2914)"/><path d="M122.04 217.019a15.101 15.101 0 01-3.255.353c-6.919 0-13.155-4.793-14.704-11.828l-1.126-5.103 29.48-6.291 1.08 4.905c1.791 8.129-3.345 16.173-11.475 17.964zm-66.767 0a15.13 15.13 0 003.255.353c6.92 0 13.154-4.793 14.705-11.828l1.123-5.103-29.478-6.291-1.08 4.905c-1.791 8.129 3.345 16.173 11.475 17.964z" fill="#C24040"/><defs><linearGradient id="paint0_linear_1125_2914" x1="115.135" y1="142.403" x2="6.556" y2="121.966" gradientUnits="userSpaceOnUse"><stop stop-color="#E24E74"/><stop offset=".49" stop-color="#FF5473" stop-opacity=".78"/><stop offset="1" stop-color="#FF7134" stop-opacity=".38"/></linearGradient><linearGradient id="paint1_linear_1125_2914" x1="88.656" y1="160.531" x2="88.656" y2="195.348" gradientUnits="userSpaceOnUse"><stop stop-color="#FFC69D"/><stop offset="1" stop-color="#FFF0E6"/></linearGradient><linearGradient id="paint2_linear_1125_2914" x1="110.111" y1="156.856" x2="35.221" y2="152.709" gradientUnits="userSpaceOnUse"><stop stop-color="#D7A4FF"/><stop offset="1" stop-color="#F372BF"/></linearGradient><linearGradient id="paint3_linear_1125_2914" x1="88.656" y1="115.413" x2="88.656" y2="149.749" gradientUnits="userSpaceOnUse"><stop stop-color="#FFC69D"/><stop offset="1" stop-color="#FFF0E6"/></linearGradient><linearGradient id="paint4_linear_1125_2914" x1="127.628" y1="58.697" x2="-13.458" y2=".043" gradientUnits="userSpaceOnUse"><stop stop-color="#E24E74"/><stop offset=".49" stop-color="#FF5473" stop-opacity=".78"/><stop offset="1" stop-color="#FF7134" stop-opacity=".38"/></linearGradient><linearGradient id="paint5_linear_1125_2914" x1="88.657" y1="15.507" x2="88.657" y2="120.484" gradientUnits="userSpaceOnUse"><stop stop-color="#FFC69D"/><stop offset="1" stop-color="#FFF0E6"/></linearGradient><linearGradient id="paint6_linear_1125_2914" x1="61.226" y1="15.507" x2="61.226" y2="120.484" gradientUnits="userSpaceOnUse"><stop stop-color="#FFC69D"/><stop offset="1" stop-color="#EC9354"/></linearGradient><linearGradient id="paint7_linear_1125_2914" x1="88.656" y1="15.507" x2="88.656" y2="40.342" gradientUnits="userSpaceOnUse"><stop stop-color="#FEDF30"/><stop offset="1" stop-color="#FFF1A0" stop-opacity=".74"/></linearGradient><linearGradient id="paint8_linear_1125_2914" x1="115.465" y1="21.39" x2="15.943" y2="-16.346" gradientUnits="userSpaceOnUse"><stop stop-color="#E24E74"/><stop offset=".49" stop-color="#FF5473" stop-opacity=".78"/><stop offset="1" stop-color="#FF7134" stop-opacity=".38"/></linearGradient></defs></svg>