<svg width="144" height="205" fill="none" xmlns="http://www.w3.org/2000/svg"><path d="M22.957 70.69C16.353 70.69 11 76.041 11 82.645v10.867c0 6.604 5.353 11.957 11.957 11.957l47.667 5.466 7.56-22.856-7.56-17.39H22.957z" fill="url(#paint0_linear_1125_2980)"/><path d="M130.248 93.513V82.646c0-6.604-5.353-11.957-11.956-11.957H70.624v40.247l47.668-5.466c6.603 0 11.956-5.353 11.956-11.957z" fill="#3481C6"/><path d="M130.248 93.513V82.646c0-6.604-5.353-11.957-11.956-11.957H70.624v40.247l47.668-5.466c6.603 0 11.956-5.353 11.956-11.957z" fill="url(#paint1_linear_1125_2980)"/><path d="M20.928 21.027l-.631.085a28.208 28.208 0 00-4.47.977c-2.115.645-3.459 2.635-3.617 4.84l-1.112 15.493a6 6 0 00.326 2.426L16.592 59.5c.735 2.083 2.554 3.646 4.761 3.709a28.45 28.45 0 004.574-.24l.632-.085c3.105-.417 6.454 1.393 6.872 4.498l5.517 41.015a6.001 6.001 0 006.746 5.147l2.88-.388a6 6 0 005.147-6.746l-9.049-67.27c-1.555-11.558-12.185-19.667-23.744-18.113z" fill="#F5F5FC"/><path d="M2.414 30.877c-.84.986-1.158 2.301-.985 3.586l2.773 20.616c.173 1.285.826 2.47 1.898 3.199a28.463 28.463 0 005.257 2.823c3.09 1.262 5.982-1.536 5.537-4.845l-3.536-26.282c-.445-3.31-3.973-5.244-6.62-3.21a28.455 28.455 0 00-4.324 4.113z" fill="#EBEBF5"/><path d="M123.291 5.75l.615.168a28.1 28.1 0 014.304 1.555c2.011.917 3.082 3.066 2.949 5.272l-.931 15.506a5.992 5.992 0 01-.642 2.361l-7.047 13.848c-1.002 1.968-3.01 3.279-5.207 3.05a28.427 28.427 0 01-4.502-.837l-.615-.167c-3.024-.822-6.582.533-7.403 3.557L93.958 89.998a6 6 0 01-7.364 4.217l-2.804-.763a6 6 0 01-4.216-7.363L97.375 20.59c3.059-11.254 14.662-17.898 25.916-14.84z" fill="#F5F5FC"/><path d="M140.353 17.945c.703 1.089.845 2.434.505 3.685l-5.455 20.073c-.34 1.251-1.144 2.34-2.302 2.922a28.424 28.424 0 01-5.582 2.109c-3.23.846-5.728-2.308-4.853-5.53l6.955-25.59c.876-3.223 4.627-4.678 6.985-2.313a28.467 28.467 0 013.747 4.644z" fill="#EBEBF5"/><path d="M22.957 105.47c-6.604 0-11.957 5.353-11.957 11.957v52.916c0 19.054 15.447 34.501 34.5 34.501h25.124l7.592-49.687-7.592-49.687H22.957z" fill="url(#paint2_linear_1125_2980)"/><path d="M130.248 170.343v-52.916c0-6.604-5.353-11.957-11.956-11.957H70.624v99.374h25.124c19.054 0 34.5-15.447 34.5-34.501z" fill="url(#paint3_linear_1125_2980)"/><defs><linearGradient id="paint0_linear_1125_2980" x1="21.906" y1="91.76" x2="79.54" y2="86.606" gradientUnits="userSpaceOnUse"><stop offset=".14" stop-color="#DEECF1"/><stop offset="1" stop-color="#74DAFF" stop-opacity=".52"/></linearGradient><linearGradient id="paint1_linear_1125_2980" x1="100.436" y1="70.689" x2="100.436" y2="110.936" gradientUnits="userSpaceOnUse"><stop stop-color="#DEECF1"/><stop offset="1" stop-color="#74DAFF"/></linearGradient><linearGradient id="paint2_linear_1125_2980" x1="44.608" y1="105.47" x2="44.608" y2="204.844" gradientUnits="userSpaceOnUse"><stop stop-color="#DEECF1"/><stop offset="1" stop-color="#74DAFF" stop-opacity=".52"/></linearGradient><linearGradient id="paint3_linear_1125_2980" x1="100.436" y1="105.47" x2="100.436" y2="204.844" gradientUnits="userSpaceOnUse"><stop stop-color="#DEECF1"/><stop offset="1" stop-color="#74DAFF"/></linearGradient></defs></svg>