<svg width="90" height="81" fill="none" xmlns="http://www.w3.org/2000/svg"><path d="M41.749 10.676c-2.99-3.896-7.365-7.127-10.016-6.18-3.308 1.181-4.454 9.046-3.218 14.551-3.188-1.197-6.429-1.532-7.808-.175-1.355 1.333-1.05 4.438.114 7.523-5.015-.34-10.502.842-11.506 3.474-.849 2.224 1.412 5.74 4.55 8.58-1.807 1.184-3.042 2.573-3.042 3.913 0 1.015.709 2.058 1.837 3.018-2.95 2.733-5.014 6.011-4.225 8.151 1.073 2.913 7.581 4.118 12.942 3.472-1.598 3.482-2.22 7.324-.67 8.85.96.944 2.82 1.07 4.938.655-.112 3.972.785 7.704 2.866 8.658 2.559 1.175 7.24-1.685 10.578-5.324 1.395 3.15 3.488 5.742 5.476 5.742 1.626 0 3.322-1.733 4.649-4.087 2.903 3.329 6.651 5.829 9.025 4.981 2.522-.9 3.784-5.692 3.694-10.356 2.73.813 5.301.9 6.49-.27 1.214-1.193 1.099-3.803.227-6.549 4.925.683 10.37-.076 11.561-2.594 1.173-2.48-1.617-6.98-5.224-10.253 1.958-1.22 3.322-2.684 3.322-4.094 0-1.547-1.644-3.159-3.912-4.445 4.33-2.925 8.182-7.675 7.152-10.476-1.042-2.833-7.228-4.052-12.499-3.521.467-2.163.361-4.077-.626-5.05-.89-.875-2.554-1.046-4.48-.735.941-5.074.242-11.076-2.482-12.327-3.032-1.392-9.04 2.866-12.265 7.388-1.324-2.338-3.011-4.057-4.63-4.057-.944 0-1.913.585-2.818 1.537z" fill="#FCEF7A"/><path d="M63.434 57.877c-5.283-2.436-26.313-16.102-24.399-20.132 1.915-4.03 26.052 3.098 31.334 5.533 5.282 2.435 11.494 9.936 9.842 13.43-1.652 3.495-11.495 3.603-16.777 1.17z" fill="url(#paint0_linear_1097_2415)"/><path d="M27.323 58.647c2.474-5.203 16.355-25.908 20.45-24.023 4.095 1.885-3.147 25.65-5.623 30.852-2.477 5.202-10.094 11.317-13.64 9.69-3.545-1.627-3.654-11.317-1.187-16.52z" fill="url(#paint1_linear_1097_2415)"/><path d="M62.653 22.326C60.182 27.53 46.3 48.235 42.203 46.35c-4.094-1.885 3.15-25.64 5.62-30.854 2.472-5.212 10.092-11.317 13.64-9.688 3.547 1.629 3.66 11.317 1.19 16.518z" fill="url(#paint2_linear_1097_2415)"/><path d="M45.542 65.626c-1.99-5.4-7.044-29.707-2.794-31.223 4.25-1.515 16.196 20.336 18.185 25.727 1.988 5.392.995 15.03-2.694 16.348-3.69 1.318-10.701-5.453-12.697-10.852z" fill="url(#paint3_linear_1097_2415)"/><path d="M44.438 15.348c1.988 5.4 7.042 29.708 2.79 31.223-4.25 1.515-16.194-20.328-18.19-25.727-1.995-5.399-.994-15.03 2.695-16.348 3.689-1.317 10.715 5.453 12.705 10.852z" fill="url(#paint4_linear_1097_2415)"/><path d="M19.457 41.03c5.483-1.957 30.173-6.934 31.712-2.749 1.54 4.186-20.654 15.945-26.13 17.902-5.476 1.958-15.266.98-16.604-2.652-1.338-3.632 5.539-10.543 11.022-12.5z" fill="url(#paint5_linear_1097_2415)"/><path d="M25.946 27.402c5.462 2.016 27.519 14.014 25.933 18.182-1.586 4.168-26.222-1.073-31.68-3.089-5.459-2.016-12.26-9.018-10.884-12.626 1.376-3.607 11.17-4.49 16.631-2.466z" fill="url(#paint6_linear_1097_2415)"/><path d="M70.527 39.943c-5.483 1.96-30.173 6.934-31.712 2.752-1.54-4.182 20.654-15.947 26.132-17.906 5.477-1.96 15.266-.98 16.602 2.652 1.336 3.633-5.542 10.545-11.022 12.502z" fill="url(#paint7_linear_1097_2415)"/><path d="M65.557 49.356c-5.06 0-26.696-3.132-26.696-6.994 0-3.862 21.635-6.993 26.696-6.993 5.062 0 12.752 3.646 12.752 6.993 0 3.348-7.69 6.994-12.752 6.994z" fill="url(#paint8_linear_1097_2415)"/><path d="M23.575 35.369c5.061 0 26.695 3.13 26.695 6.993 0 3.864-21.634 6.994-26.695 6.994s-12.752-3.65-12.752-6.994c0-3.343 7.69-6.993 12.752-6.993z" fill="url(#paint9_linear_1097_2415)"/><path d="M37.462 63.029c0-4.984 3.18-26.283 7.105-26.283 3.924 0 7.102 21.3 7.102 26.282 0 4.984-3.706 12.556-7.104 12.556s-7.103-7.572-7.103-12.556z" fill="url(#paint10_linear_1097_2415)"/><path d="M51.669 21.694c0 4.983-3.181 26.284-7.104 26.284-3.922 0-7.103-21.3-7.103-26.284 0-4.983 3.707-12.555 7.105-12.555 3.398 0 7.102 7.576 7.102 12.555z" fill="url(#paint11_linear_1097_2415)"/><path d="M54.386 61.922c-3.58-3.526-16.628-20.805-13.853-23.531 2.775-2.727 20.32 10.116 23.9 13.64 3.58 3.525 6.396 11.456 3.99 13.821-2.404 2.366-10.458-.408-14.037-3.93z" fill="url(#paint12_linear_1097_2415)"/><path d="M34.745 22.803c3.58 3.523 16.627 20.799 13.854 23.53-2.773 2.73-20.32-10.117-23.9-13.64-3.579-3.522-6.395-11.457-3.992-13.82 2.403-2.365 10.46.406 14.038 3.93z" fill="url(#paint13_linear_1097_2415)"/><path d="M24.7 52.031c3.579-3.524 21.124-16.372 23.9-13.64 2.774 2.732-10.276 20.005-13.855 23.53-3.58 3.527-11.635 6.296-14.038 3.932-2.403-2.365.415-10.3 3.992-13.822z" fill="url(#paint14_linear_1097_2415)"/><path d="M64.433 32.693c-3.581 3.523-21.127 16.371-23.9 13.64-2.773-2.733 10.274-20.007 13.853-23.53 3.58-3.522 11.637-6.297 14.038-3.933 2.401 2.365-.411 10.299-3.99 13.823z" fill="url(#paint15_linear_1097_2415)"/><path d="M44.484 52.737c-2.174 0-4.3-.634-6.108-1.823a10.862 10.862 0 01-4.05-4.858 10.669 10.669 0 01-.626-6.253 10.777 10.777 0 013.008-5.543 11.048 11.048 0 015.63-2.962 11.153 11.153 0 016.351.615 10.958 10.958 0 014.934 3.987 10.706 10.706 0 011.853 6.013 10.74 10.74 0 01-3.22 7.653 11.081 11.081 0 01-7.772 3.171z" fill="#FCEF7A"/><defs><linearGradient id="paint0_linear_1097_2415" x1="44.645" y1="42.011" x2="66.57" y2="78.12" gradientUnits="userSpaceOnUse"><stop stop-color="#B77ADD"/><stop offset=".49" stop-color="#B77ADD" stop-opacity=".78"/><stop offset="1" stop-color="#70D9D2" stop-opacity=".38"/></linearGradient><linearGradient id="paint1_linear_1097_2415" x1="28.858" y1="44.245" x2="64.862" y2="62.98" gradientUnits="userSpaceOnUse"><stop stop-color="#B77ADD"/><stop offset=".49" stop-color="#B77ADD" stop-opacity=".78"/><stop offset="1" stop-color="#70D9D2" stop-opacity=".38"/></linearGradient><linearGradient id="paint2_linear_1097_2415" x1="44.172" y1="46.208" x2="37.248" y2="-1.752" gradientUnits="userSpaceOnUse"><stop stop-color="#B77ADD"/><stop offset=".49" stop-color="#D680FF" stop-opacity=".78"/><stop offset="1" stop-color="#70D9D2" stop-opacity=".38"/></linearGradient><linearGradient id="paint3_linear_1097_2415" x1="43.969" y1="44.4" x2="77.934" y2="59.648" gradientUnits="userSpaceOnUse"><stop stop-color="#B77ADD"/><stop offset=".49" stop-color="#B77ADD" stop-opacity=".78"/><stop offset="1" stop-color="#70D9D2" stop-opacity=".38"/></linearGradient><linearGradient id="paint4_linear_1097_2415" x1="43.896" y1="39.956" x2="10.974" y2="18.947" gradientUnits="userSpaceOnUse"><stop stop-color="#B77ADD"/><stop offset=".49" stop-color="#B77ADD" stop-opacity=".78"/><stop offset="1" stop-color="#70D9D2" stop-opacity=".38"/></linearGradient><linearGradient id="paint5_linear_1097_2415" x1="39.202" y1="44.849" x2="3.364" y2="32.477" gradientUnits="userSpaceOnUse"><stop stop-color="#B77ADD"/><stop offset=".49" stop-color="#B77ADD" stop-opacity=".78"/><stop offset="1" stop-color="#70D9D2" stop-opacity=".38"/></linearGradient><linearGradient id="paint6_linear_1097_2415" x1="38.098" y1="41.315" x2="21.008" y2="11.637" gradientUnits="userSpaceOnUse"><stop stop-color="#B77ADD"/><stop offset=".49" stop-color="#B77ADD" stop-opacity=".78"/><stop offset="1" stop-color="#70D9D2" stop-opacity=".38"/></linearGradient><linearGradient id="paint7_linear_1097_2415" x1="42.239" y1="43.218" x2="81.556" y2="54.707" gradientUnits="userSpaceOnUse"><stop stop-color="#B77ADD"/><stop offset=".49" stop-color="#B77ADD" stop-opacity=".78"/><stop offset="1" stop-color="#70D9D2" stop-opacity=".38"/></linearGradient><linearGradient id="paint8_linear_1097_2415" x1="44.301" y1="38.698" x2="54.453" y2="64.796" gradientUnits="userSpaceOnUse"><stop stop-color="#B77ADD"/><stop offset="1" stop-color="#70D9D2" stop-opacity=".38"/></linearGradient><linearGradient id="paint9_linear_1097_2415" x1="16.263" y1="38.698" x2="26.416" y2="64.795" gradientUnits="userSpaceOnUse"><stop stop-color="#B77ADD"/><stop offset="1" stop-color="#70D9D2" stop-opacity=".38"/></linearGradient><linearGradient id="paint10_linear_1097_2415" x1="39.421" y1="45.99" x2="64.455" y2="54.336" gradientUnits="userSpaceOnUse"><stop stop-color="#B77ADD"/><stop offset="1" stop-color="#70D9D2" stop-opacity=".38"/></linearGradient><linearGradient id="paint11_linear_1097_2415" x1="39.421" y1="18.383" x2="64.455" y2="26.73" gradientUnits="userSpaceOnUse"><stop stop-color="#B77ADD"/><stop offset="1" stop-color="#70D9D2" stop-opacity=".38"/></linearGradient><linearGradient id="paint12_linear_1097_2415" x1="44.172" y1="44.849" x2="74.927" y2="73.322" gradientUnits="userSpaceOnUse"><stop stop-color="#B77ADD"/><stop offset="1" stop-color="#70D9D2" stop-opacity=".38"/></linearGradient><linearGradient id="paint13_linear_1097_2415" x1="23.835" y1="24.827" x2="54.589" y2="53.301" gradientUnits="userSpaceOnUse"><stop stop-color="#B77ADD"/><stop offset="1" stop-color="#70D9D2" stop-opacity=".38"/></linearGradient><linearGradient id="paint14_linear_1097_2415" x1="23.835" y1="44.848" x2="54.592" y2="73.321" gradientUnits="userSpaceOnUse"><stop stop-color="#B77ADD"/><stop offset="1" stop-color="#70D9D2" stop-opacity=".38"/></linearGradient><linearGradient id="paint15_linear_1097_2415" x1="44.172" y1="24.826" x2="74.927" y2="53.297" gradientUnits="userSpaceOnUse"><stop stop-color="#B77ADD"/><stop offset="1" stop-color="#70D9D2" stop-opacity=".38"/></linearGradient></defs></svg>