<svg width="63" height="57" fill="none" xmlns="http://www.w3.org/2000/svg"><path d="M29.224 7.513c-2.093-2.742-5.155-5.015-7.011-4.35-2.315.832-3.118 6.367-2.252 10.24-2.232-.842-4.5-1.077-5.466-.123-.949.939-.736 3.123.08 5.295-3.51-.24-7.352.592-8.055 2.444-.593 1.565.989 4.039 3.185 6.038-1.264.833-2.129 1.81-2.129 2.754 0 .714.496 1.448 1.286 2.123-2.065 1.923-3.51 4.23-2.958 5.736.751 2.05 5.307 2.898 9.06 2.443-1.119 2.45-1.554 5.154-.47 6.228.673.664 1.976.752 3.458.46-.079 2.796.55 5.422 2.005 6.094 1.792.826 5.069-1.186 7.405-3.747.977 2.216 2.442 4.04 3.834 4.04 1.138 0 2.325-1.219 3.254-2.875 2.032 2.342 4.656 4.101 6.317 3.505 1.766-.634 2.65-4.006 2.586-7.288 1.91.573 3.711.634 4.544-.19.849-.84.768-2.676.158-4.608 3.448.48 7.26-.054 8.093-1.826.82-1.745-1.132-4.911-3.657-7.215 1.37-.859 2.325-1.888 2.325-2.88 0-1.09-1.15-2.224-2.738-3.128 3.03-2.06 5.728-5.402 5.006-7.372-.73-1.994-5.06-2.852-8.749-2.479.327-1.521.253-2.869-.438-3.553-.623-.616-1.788-.736-3.136-.517.659-3.571.17-7.795-1.737-8.675-2.123-.98-6.329 2.017-8.586 5.2-.927-1.646-2.108-2.856-3.24-2.856-.662 0-1.34.412-1.974 1.082z" fill="#FFB773"/><path d="M44.404 40.729c-3.699-1.715-18.42-11.332-17.08-14.168 1.341-2.835 18.237 2.18 21.934 3.894 3.698 1.714 8.046 6.992 6.89 9.451-1.157 2.459-8.046 2.535-11.744.823z" fill="url(#paint0_linear_1097_2414)"/><path d="M19.127 41.27c1.73-3.661 11.448-18.231 14.314-16.905 2.867 1.327-2.202 18.05-3.936 21.71-1.734 3.662-7.066 7.965-9.547 6.82-2.482-1.145-2.559-7.964-.831-11.625z" fill="url(#paint1_linear_1097_2414)"/><path d="M43.857 15.71c-1.73 3.663-11.448 18.233-14.314 16.907-2.867-1.327 2.204-18.044 3.934-21.712 1.73-3.668 7.064-7.964 9.547-6.818 2.483 1.146 2.562 7.964.833 11.624z" fill="url(#paint2_linear_1097_2414)"/><path d="M31.88 46.181c-1.393-3.8-4.931-20.905-1.956-21.971 2.974-1.067 11.337 14.31 12.729 18.104 1.392 3.794.696 10.577-1.886 11.504-2.582.927-7.49-3.837-8.887-7.637z" fill="url(#paint3_linear_1097_2414)"/><path d="M31.107 10.8c1.391 3.8 4.93 20.906 1.953 21.972-2.976 1.067-11.336-14.305-12.733-18.104-1.397-3.8-.696-10.577 1.886-11.504 2.582-.927 7.5 3.837 8.893 7.636z" fill="url(#paint4_linear_1097_2414)"/><path d="M13.62 28.874c3.838-1.378 21.121-4.88 22.199-1.935 1.077 2.945-14.458 11.22-18.292 12.597-3.833 1.378-10.686.69-11.623-1.866-.936-2.556 3.878-7.419 7.716-8.796z" fill="url(#paint5_linear_1097_2414)"/><path d="M18.162 19.283c3.823 1.419 19.263 9.862 18.153 12.795-1.11 2.933-18.355-.756-22.176-2.174-3.82-1.419-8.582-6.346-7.619-8.885.963-2.538 7.819-3.16 11.642-1.736z" fill="url(#paint6_linear_1097_2414)"/><path d="M49.369 28.108c-3.838 1.38-21.121 4.88-22.199 1.937-1.077-2.943 14.458-11.222 18.293-12.6 3.834-1.38 10.686-.69 11.621 1.866.936 2.556-3.88 7.42-7.715 8.797z" fill="url(#paint7_linear_1097_2414)"/><path d="M45.89 34.732c-3.543 0-18.687-2.204-18.687-4.921 0-2.718 15.144-4.922 18.687-4.922 3.543 0 8.926 2.566 8.926 4.922 0 2.355-5.383 4.921-8.926 4.921z" fill="url(#paint8_linear_1097_2414)"/><path d="M16.503 24.89c3.543 0 18.686 2.202 18.686 4.92 0 2.72-15.143 4.922-18.686 4.922-3.543 0-8.927-2.568-8.927-4.921 0-2.354 5.383-4.922 8.927-4.922z" fill="url(#paint9_linear_1097_2414)"/><path d="M26.224 44.353c0-3.506 2.226-18.495 4.973-18.495s4.971 14.989 4.971 18.495c0 3.507-2.593 8.835-4.972 8.835-2.379 0-4.973-5.328-4.973-8.835z" fill="url(#paint10_linear_1097_2414)"/><path d="M36.168 15.266c0 3.507-2.226 18.497-4.972 18.497-2.746 0-4.973-14.99-4.973-18.497 0-3.506 2.595-8.835 4.974-8.835s4.971 5.331 4.971 8.835z" fill="url(#paint11_linear_1097_2414)"/><path d="M38.07 43.574c-2.505-2.48-11.639-14.64-9.697-16.558 1.943-1.92 14.224 7.119 16.73 9.599 2.506 2.48 4.477 8.06 2.794 9.726-1.684 1.665-7.321-.288-9.827-2.767z" fill="url(#paint12_linear_1097_2414)"/><path d="M24.321 16.047c2.506 2.478 11.64 14.636 9.698 16.557-1.94 1.921-14.224-7.119-16.73-9.598-2.505-2.478-4.476-8.062-2.794-9.726 1.682-1.663 7.322.287 9.826 2.767z" fill="url(#paint13_linear_1097_2414)"/><path d="M17.29 36.615c2.505-2.48 14.787-11.522 16.73-9.6 1.942 1.923-7.193 14.078-9.699 16.56-2.505 2.48-8.144 4.43-9.826 2.766-1.682-1.664.29-7.248 2.795-9.726z" fill="url(#paint14_linear_1097_2414)"/><path d="M45.103 23.006c-2.507 2.48-14.789 11.52-16.73 9.598-1.94-1.922 7.192-14.078 9.697-16.557 2.506-2.48 8.146-4.431 9.827-2.768 1.68 1.664-.288 7.247-2.794 9.727z" fill="url(#paint15_linear_1097_2414)"/><path d="M31.14 37.111a7.752 7.752 0 01-4.277-1.283 7.634 7.634 0 01-2.834-3.418 7.544 7.544 0 01-.439-4.4 7.593 7.593 0 012.106-3.9 7.72 7.72 0 013.94-2.086 7.77 7.77 0 014.447.433 7.68 7.68 0 013.453 2.806 7.562 7.562 0 011.297 4.231c0 2.02-.81 3.958-2.253 5.386a7.736 7.736 0 01-5.44 2.231z" fill="#FFB773"/><defs><linearGradient id="paint0_linear_1097_2414" x1="31.252" y1="29.563" x2="46.718" y2="54.901" gradientUnits="userSpaceOnUse"><stop stop-color="#E24E74"/><stop offset=".49" stop-color="#FF5473" stop-opacity=".78"/><stop offset="1" stop-color="#FF7134" stop-opacity=".38"/></linearGradient><linearGradient id="paint1_linear_1097_2414" x1="20.201" y1="31.135" x2="45.46" y2="44.21" gradientUnits="userSpaceOnUse"><stop stop-color="#E24E74"/><stop offset=".49" stop-color="#FF5473" stop-opacity=".78"/><stop offset="1" stop-color="#FF7134" stop-opacity=".38"/></linearGradient><linearGradient id="paint2_linear_1097_2414" x1="30.92" y1="32.517" x2="26.023" y2="-1.225" gradientUnits="userSpaceOnUse"><stop stop-color="#E24E74"/><stop offset=".49" stop-color="#FF5473" stop-opacity=".78"/><stop offset="1" stop-color="#FF7134" stop-opacity=".38"/></linearGradient><linearGradient id="paint3_linear_1097_2414" x1="30.779" y1="31.244" x2="54.596" y2="41.881" gradientUnits="userSpaceOnUse"><stop stop-color="#E24E74"/><stop offset=".49" stop-color="#FF5473" stop-opacity=".78"/><stop offset="1" stop-color="#FF7134" stop-opacity=".38"/></linearGradient><linearGradient id="paint4_linear_1097_2414" x1="30.727" y1="28.117" x2="7.612" y2="13.444" gradientUnits="userSpaceOnUse"><stop stop-color="#E24E74"/><stop offset=".49" stop-color="#FF5473" stop-opacity=".78"/><stop offset="1" stop-color="#FF7134" stop-opacity=".38"/></linearGradient><linearGradient id="paint5_linear_1097_2414" x1="27.442" y1="31.56" x2="2.327" y2="22.936" gradientUnits="userSpaceOnUse"><stop stop-color="#E24E74"/><stop offset=".49" stop-color="#FF5473" stop-opacity=".78"/><stop offset="1" stop-color="#FF7134" stop-opacity=".38"/></linearGradient><linearGradient id="paint6_linear_1097_2414" x1="26.669" y1="29.074" x2="14.611" y2="8.244" gradientUnits="userSpaceOnUse"><stop stop-color="#E24E74"/><stop offset=".49" stop-color="#FF5473" stop-opacity=".78"/><stop offset="1" stop-color="#FF7134" stop-opacity=".38"/></linearGradient><linearGradient id="paint7_linear_1097_2414" x1="29.568" y1="30.413" x2="57.112" y2="38.419" gradientUnits="userSpaceOnUse"><stop stop-color="#E24E74"/><stop offset=".49" stop-color="#FF5473" stop-opacity=".78"/><stop offset="1" stop-color="#FF7134" stop-opacity=".38"/></linearGradient><linearGradient id="paint8_linear_1097_2414" x1="31.011" y1="27.232" x2="38.183" y2="45.571" gradientUnits="userSpaceOnUse"><stop stop-color="#E24E74"/><stop offset="1" stop-color="#E24E74" stop-opacity=".38"/></linearGradient><linearGradient id="paint9_linear_1097_2414" x1="11.384" y1="27.232" x2="18.556" y2="45.571" gradientUnits="userSpaceOnUse"><stop stop-color="#E24E74"/><stop offset="1" stop-color="#E24E74" stop-opacity=".38"/></linearGradient><linearGradient id="paint10_linear_1097_2414" x1="27.595" y1="32.363" x2="45.137" y2="38.181" gradientUnits="userSpaceOnUse"><stop stop-color="#E24E74"/><stop offset="1" stop-color="#E24E74" stop-opacity=".38"/></linearGradient><linearGradient id="paint11_linear_1097_2414" x1="27.595" y1="12.936" x2="45.137" y2="18.754" gradientUnits="userSpaceOnUse"><stop stop-color="#E24E74"/><stop offset="1" stop-color="#E24E74" stop-opacity=".38"/></linearGradient><linearGradient id="paint12_linear_1097_2414" x1="30.92" y1="31.56" x2="52.554" y2="51.483" gradientUnits="userSpaceOnUse"><stop stop-color="#E24E74"/><stop offset="1" stop-color="#E24E74" stop-opacity=".38"/></linearGradient><linearGradient id="paint13_linear_1097_2414" x1="16.685" y1="17.471" x2="38.317" y2="37.394" gradientUnits="userSpaceOnUse"><stop stop-color="#E24E74"/><stop offset="1" stop-color="#E24E74" stop-opacity=".38"/></linearGradient><linearGradient id="paint14_linear_1097_2414" x1="16.685" y1="31.56" x2="38.319" y2="51.483" gradientUnits="userSpaceOnUse"><stop stop-color="#E24E74"/><stop offset="1" stop-color="#E24E74" stop-opacity=".38"/></linearGradient><linearGradient id="paint15_linear_1097_2414" x1="30.92" y1="17.471" x2="52.554" y2="37.392" gradientUnits="userSpaceOnUse"><stop stop-color="#E24E74"/><stop offset="1" stop-color="#E24E74" stop-opacity=".38"/></linearGradient></defs></svg>