<svg width="113" height="113" fill="none" xmlns="http://www.w3.org/2000/svg"><path d="M84.561 83.317c-8.043-3.76-40.055-24.849-37.14-31.068 2.914-6.22 39.655 4.78 47.696 8.538 8.041 3.758 17.497 15.334 14.982 20.726-2.515 5.392-17.497 5.559-25.538 1.804z" fill="url(#paint0_linear_1097_2590)"/><path d="M29.593 84.504c3.764-8.028 24.895-39.98 31.128-37.072 6.234 2.91-4.79 39.583-8.56 47.611-3.77 8.028-15.365 17.465-20.761 14.954-5.397-2.51-5.564-17.465-1.807-25.493z" fill="url(#paint1_linear_1097_2590)"/><path d="M83.372 28.453c-3.762 8.031-24.895 39.984-31.129 37.075-6.233-2.91 4.793-39.569 8.555-47.614C64.56 9.87 76.16.45 81.559 2.963c5.4 2.513 5.572 17.465 1.813 25.49z" fill="url(#paint2_linear_1097_2590)"/><path d="M57.326 95.275c-3.03-8.334-10.723-45.845-4.254-48.184 6.468-2.338 24.654 31.382 27.68 39.703 3.027 8.32 1.516 23.195-4.1 25.228-5.616 2.033-16.289-8.416-19.326-16.747z" fill="url(#paint3_linear_1097_2590)"/><path d="M55.644 17.685c3.027 8.334 10.72 45.845 4.249 48.184-6.471 2.338-24.652-31.371-27.69-39.703-3.037-8.33-1.514-23.195 4.101-25.228 5.616-2.033 16.311 8.416 19.34 16.747z" fill="url(#paint4_linear_1097_2590)"/><path d="M17.618 57.32c8.347-3.022 45.93-10.703 48.273-4.244 2.343 6.459-31.44 24.606-39.776 27.627-8.336 3.02-23.239 1.512-25.276-4.094-2.036-5.605 8.432-16.269 16.779-19.29z" fill="url(#paint5_linear_1097_2590)"/><path d="M27.495 36.288c8.314 3.11 41.89 21.626 39.476 28.058-2.414 6.432-39.916-1.656-48.224-4.767C10.438 56.468.085 45.66 2.179 40.095c2.094-5.567 17.003-6.929 25.317-3.807z" fill="url(#paint6_linear_1097_2590)"/><path d="M95.358 55.64c-8.347 3.024-45.93 10.7-48.274 4.247-2.343-6.454 31.44-24.609 39.78-27.632 8.338-3.024 23.238-1.512 25.272 4.093 2.034 5.605-8.437 16.272-16.778 19.293z" fill="url(#paint7_linear_1097_2590)"/><path d="M87.793 70.167c-7.704 0-40.638-4.833-40.638-10.793 0-5.96 32.934-10.793 40.638-10.793 7.704 0 19.411 5.627 19.411 10.793 0 5.166-11.707 10.793-19.411 10.793z" fill="url(#paint8_linear_1097_2590)"/><path d="M23.887 48.581c7.704 0 40.634 4.83 40.634 10.793 0 5.962-32.93 10.793-40.634 10.793-7.705 0-19.411-5.633-19.411-10.793 0-5.16 11.704-10.793 19.41-10.793z" fill="url(#paint9_linear_1097_2590)"/><path d="M45.026 91.266c0-7.69 4.841-40.559 10.815-40.559 5.974 0 10.81 32.87 10.81 40.56 0 7.69-5.64 19.374-10.813 19.374-5.172 0-10.812-11.685-10.812-19.375z" fill="url(#paint10_linear_1097_2590)"/><path d="M66.651 27.479c0 7.69-4.842 40.562-10.813 40.562-5.97 0-10.812-32.872-10.812-40.562 0-7.69 5.642-19.375 10.815-19.375 5.173 0 10.81 11.69 10.81 19.375z" fill="url(#paint11_linear_1097_2590)"/><path d="M70.788 89.558c-5.45-5.442-25.311-32.105-21.087-36.313 4.224-4.208 30.932 15.612 36.38 21.05 5.45 5.439 9.736 17.678 6.075 21.33-3.66 3.65-15.92-.631-21.368-6.067z" fill="url(#paint12_linear_1097_2590)"/><path d="M40.89 29.19c5.448 5.436 25.31 32.097 21.089 36.31-4.221 4.214-30.932-15.612-36.38-21.047-5.45-5.436-9.736-17.68-6.078-21.33 3.658-3.648 15.922.628 21.368 6.067z" fill="url(#paint13_linear_1097_2590)"/><path d="M25.598 74.295c5.449-5.438 32.157-25.266 36.38-21.05 4.225 4.216-15.64 30.872-21.089 36.313-5.449 5.441-17.71 9.715-21.369 6.066-3.657-3.648.632-15.893 6.078-21.329z" fill="url(#paint14_linear_1097_2590)"/><path d="M86.082 44.453C80.63 49.888 53.922 69.716 49.7 65.5c-4.221-4.216 15.638-30.874 21.087-36.31 5.449-5.436 17.713-9.717 21.368-6.069 3.656 3.649-.626 15.893-6.075 21.332z" fill="url(#paint15_linear_1097_2590)"/><path d="M55.715 75.384c-3.31 0-6.545-.978-9.298-2.814a16.71 16.71 0 01-6.164-7.495 16.674 16.674 0 013.626-18.204 16.764 16.764 0 0118.238-3.622 16.727 16.727 0 017.51 6.152 16.68 16.68 0 01-2.08 21.09 16.75 16.75 0 01-11.832 4.893z" fill="#FCEF7A"/><defs><linearGradient id="paint0_linear_1097_2590" x1="55.96" y1="58.832" x2="90.006" y2="114.142" gradientUnits="userSpaceOnUse"><stop stop-color="#B77ADD"/><stop offset=".49" stop-color="#B77ADD" stop-opacity=".78"/><stop offset="1" stop-color="#70D9D2" stop-opacity=".38"/></linearGradient><linearGradient id="paint1_linear_1097_2590" x1="31.928" y1="62.279" x2="87.051" y2="90.572" gradientUnits="userSpaceOnUse"><stop stop-color="#B77ADD"/><stop offset=".49" stop-color="#B77ADD" stop-opacity=".78"/><stop offset="1" stop-color="#70D9D2" stop-opacity=".38"/></linearGradient><linearGradient id="paint2_linear_1097_2590" x1="55.239" y1="65.309" x2="44.413" y2="-8.662" gradientUnits="userSpaceOnUse"><stop stop-color="#B77ADD"/><stop offset=".49" stop-color="#FF5473" stop-opacity=".78"/><stop offset="1" stop-color="#70D9D2" stop-opacity=".38"/></linearGradient><linearGradient id="paint3_linear_1097_2590" x1="54.931" y1="62.518" x2="106.869" y2="85.518" gradientUnits="userSpaceOnUse"><stop stop-color="#B77ADD"/><stop offset=".49" stop-color="#B77ADD" stop-opacity=".78"/><stop offset="1" stop-color="#70D9D2" stop-opacity=".38"/></linearGradient><linearGradient id="paint4_linear_1097_2590" x1="54.819" y1="55.661" x2="4.31" y2="23.867" gradientUnits="userSpaceOnUse"><stop stop-color="#B77ADD"/><stop offset=".49" stop-color="#B77ADD" stop-opacity=".78"/><stop offset="1" stop-color="#70D9D2" stop-opacity=".38"/></linearGradient><linearGradient id="paint5_linear_1097_2590" x1="47.675" y1="63.211" x2="-7.037" y2="44.581" gradientUnits="userSpaceOnUse"><stop stop-color="#B77ADD"/><stop offset=".49" stop-color="#B77ADD" stop-opacity=".78"/><stop offset="1" stop-color="#70D9D2" stop-opacity=".38"/></linearGradient><linearGradient id="paint6_linear_1097_2590" x1="45.994" y1="57.758" x2="19.44" y2="12.273" gradientUnits="userSpaceOnUse"><stop stop-color="#B77ADD"/><stop offset=".49" stop-color="#B77ADD" stop-opacity=".78"/><stop offset="1" stop-color="#70D9D2" stop-opacity=".38"/></linearGradient><linearGradient id="paint7_linear_1097_2590" x1="52.297" y1="60.695" x2="112.274" y2="77.982" gradientUnits="userSpaceOnUse"><stop stop-color="#B77ADD"/><stop offset=".49" stop-color="#B77ADD" stop-opacity=".78"/><stop offset="1" stop-color="#70D9D2" stop-opacity=".38"/></linearGradient><linearGradient id="paint8_linear_1097_2590" x1="55.436" y1="53.719" x2="71.262" y2="93.847" gradientUnits="userSpaceOnUse"><stop stop-color="#B77ADD"/><stop offset="1" stop-color="#70D9D2" stop-opacity=".38"/></linearGradient><linearGradient id="paint9_linear_1097_2590" x1="12.756" y1="53.719" x2="28.582" y2="93.846" gradientUnits="userSpaceOnUse"><stop stop-color="#B77ADD"/><stop offset="1" stop-color="#70D9D2" stop-opacity=".38"/></linearGradient><linearGradient id="paint10_linear_1097_2590" x1="48.008" y1="64.972" x2="86.218" y2="77.538" gradientUnits="userSpaceOnUse"><stop stop-color="#B77ADD"/><stop offset="1" stop-color="#70D9D2" stop-opacity=".38"/></linearGradient><linearGradient id="paint11_linear_1097_2590" x1="48.008" y1="22.369" x2="86.219" y2="34.935" gradientUnits="userSpaceOnUse"><stop stop-color="#B77ADD"/><stop offset="1" stop-color="#70D9D2" stop-opacity=".38"/></linearGradient><linearGradient id="paint12_linear_1097_2590" x1="55.239" y1="63.211" x2="102.647" y2="106.504" gradientUnits="userSpaceOnUse"><stop stop-color="#B77ADD"/><stop offset="1" stop-color="#70D9D2" stop-opacity=".38"/></linearGradient><linearGradient id="paint13_linear_1097_2590" x1="24.283" y1="32.314" x2="71.688" y2="75.607" gradientUnits="userSpaceOnUse"><stop stop-color="#B77ADD"/><stop offset="1" stop-color="#70D9D2" stop-opacity=".38"/></linearGradient><linearGradient id="paint14_linear_1097_2590" x1="24.283" y1="63.21" x2="71.692" y2="106.503" gradientUnits="userSpaceOnUse"><stop stop-color="#B77ADD"/><stop offset="1" stop-color="#70D9D2" stop-opacity=".38"/></linearGradient><linearGradient id="paint15_linear_1097_2590" x1="55.239" y1="32.313" x2="102.647" y2="75.602" gradientUnits="userSpaceOnUse"><stop stop-color="#B77ADD"/><stop offset="1" stop-color="#70D9D2" stop-opacity=".38"/></linearGradient></defs></svg>