<svg width="81" height="74" fill="none" xmlns="http://www.w3.org/2000/svg"><path d="M37.574 9.753c-2.691-3.56-6.628-6.51-9.014-5.646-2.977 1.08-4.009 8.265-2.896 13.294-2.87-1.094-5.787-1.4-7.028-.16-1.22 1.218-.945 4.054.103 6.873-4.513-.31-9.452.769-10.356 3.174-.763 2.032 1.271 5.243 4.095 7.838-1.626 1.082-2.737 2.351-2.737 3.575 0 .927.637 1.88 1.653 2.758-2.655 2.496-4.512 5.49-3.803 7.446.966 2.66 6.824 3.762 11.648 3.172-1.438 3.18-1.998 6.691-.603 8.084.864.863 2.539.978 4.445.6-.101 3.628.706 7.037 2.579 7.91 2.303 1.072 6.516-1.54 9.52-4.865 1.255 2.877 3.14 5.246 4.929 5.246 1.463 0 2.99-1.584 4.183-3.733 2.613 3.04 5.987 5.324 8.123 4.55 2.27-.823 3.406-5.2 3.325-9.462 2.456.744 4.77.824 5.841-.245 1.092-1.091.988-3.475.203-5.984 4.434.624 9.334-.07 10.406-2.37 1.056-2.266-1.455-6.376-4.701-9.367 1.761-1.115 2.99-2.452 2.99-3.74 0-1.414-1.48-2.886-3.522-4.06 3.897-2.673 7.364-7.013 6.437-9.571-.938-2.588-6.505-3.702-11.249-3.217.42-1.976.325-3.725-.564-4.613-.8-.8-2.298-.956-4.03-.672.846-4.636.216-10.12-2.235-11.262-2.729-1.272-8.136 2.618-11.038 6.75-1.192-2.136-2.71-3.706-4.167-3.706-.85 0-1.722.534-2.537 1.403z" fill="#FCEF7A"/><path d="M57.091 52.876c-4.755-2.226-23.682-14.711-21.96-18.393 1.724-3.681 23.447 2.83 28.201 5.055 4.754 2.225 10.345 9.078 8.858 12.27s-10.345 3.29-15.099 1.068z" fill="url(#paint0_linear_1097_2990)"/><path d="M24.591 53.578c2.226-4.752 14.72-23.668 18.405-21.946 3.685 1.722-2.832 23.433-5.061 28.186-2.23 4.752-9.085 10.339-12.275 8.852-3.191-1.486-3.29-10.339-1.069-15.092z" fill="url(#paint1_linear_1097_2990)"/><path d="M56.388 20.396c-2.224 4.755-14.72 23.67-18.405 21.948-3.685-1.722 2.834-23.424 5.058-28.187 2.224-4.762 9.083-10.339 12.275-8.85 3.193 1.487 3.294 10.338 1.072 15.09z" fill="url(#paint2_linear_1097_2990)"/><path d="M40.988 59.955c-1.79-4.934-6.34-27.14-2.515-28.525 3.825-1.384 14.577 18.578 16.366 23.504 1.79 4.925.896 13.731-2.424 14.935-3.32 1.204-9.631-4.982-11.427-9.914z" fill="url(#paint3_linear_1097_2990)"/><path d="M39.994 14.022c1.79 4.933 6.338 27.14 2.512 28.524-3.826 1.385-14.575-18.571-16.371-23.503-1.796-4.932-.896-13.732 2.424-14.936 3.32-1.203 9.644 4.983 11.435 9.915z" fill="url(#paint4_linear_1097_2990)"/><path d="M17.511 37.485c4.935-1.788 27.156-6.336 28.541-2.512 1.386 3.824-18.588 14.567-23.517 16.355-4.928 1.788-13.74.895-14.944-2.423-1.204-3.318 4.985-9.632 9.92-11.42z" fill="url(#paint5_linear_1097_2990)"/><path d="M23.351 25.034c4.916 1.842 24.767 12.803 23.34 16.61-1.427 3.809-23.6-.98-28.512-2.821-4.912-1.842-11.034-8.24-9.796-11.535 1.238-3.296 10.053-4.102 14.968-2.254z" fill="url(#paint6_linear_1097_2990)"/><path d="M63.474 36.492c-4.935 1.79-27.156 6.334-28.54 2.513-1.386-3.82 18.588-14.568 23.518-16.358 4.93-1.79 13.74-.895 14.942 2.423 1.203 3.318-4.988 9.633-9.92 11.422z" fill="url(#paint7_linear_1097_2990)"/><path d="M59.002 45.09c-4.556 0-24.027-2.86-24.027-6.389 0-3.528 19.471-6.389 24.027-6.389 4.555 0 11.476 3.331 11.476 6.39 0 3.058-6.921 6.389-11.476 6.389z" fill="url(#paint8_linear_1097_2990)"/><path d="M21.218 32.312c4.555 0 24.025 2.86 24.025 6.39s-19.47 6.389-24.025 6.389S9.74 41.756 9.74 38.7c0-3.054 6.92-6.389 11.477-6.389z" fill="url(#paint9_linear_1097_2990)"/><path d="M33.716 57.582c0-4.553 2.863-24.011 6.395-24.011 3.531 0 6.39 19.458 6.39 24.01 0 4.553-3.334 11.47-6.392 11.47-3.058 0-6.393-6.917-6.393-11.47z" fill="url(#paint10_linear_1097_2990)"/><path d="M46.502 19.82c0 4.552-2.863 24.012-6.393 24.012s-6.393-19.46-6.393-24.012c0-4.553 3.336-11.47 6.395-11.47 3.058 0 6.39 6.92 6.39 11.47z" fill="url(#paint11_linear_1097_2990)"/><path d="M48.947 56.57c-3.22-3.22-14.964-19.006-12.467-21.497 2.497-2.491 18.288 9.242 21.51 12.462 3.22 3.22 5.756 10.465 3.59 12.627-2.164 2.161-9.412-.374-12.634-3.592z" fill="url(#paint12_linear_1097_2990)"/><path d="M31.27 20.832c3.222 3.218 14.965 19.002 12.47 21.496-2.496 2.494-18.289-9.242-21.51-12.46-3.222-3.218-5.756-10.467-3.594-12.627 2.163-2.16 9.414.372 12.634 3.591z" fill="url(#paint13_linear_1097_2990)"/><path d="M22.23 47.535c3.221-3.22 19.012-14.958 21.51-12.462 2.497 2.496-9.248 18.276-12.47 21.497-3.221 3.222-10.471 5.752-12.634 3.592-2.162-2.16.374-9.409 3.594-12.627z" fill="url(#paint14_linear_1097_2990)"/><path d="M57.99 29.868c-3.223 3.218-19.014 14.956-21.51 12.46-2.496-2.496 9.246-18.278 12.467-21.496 3.222-3.218 10.473-5.752 12.634-3.592 2.162 2.16-.37 9.408-3.591 12.628z" fill="url(#paint15_linear_1097_2990)"/><path d="M40.036 48.18a9.897 9.897 0 01-9.142-6.104A9.883 9.883 0 0133.038 31.3a9.896 9.896 0 0116.89 6.992 9.885 9.885 0 01-2.897 6.992 9.897 9.897 0 01-6.995 2.896z" fill="#FCEF7A"/><defs><linearGradient id="paint0_linear_1097_2990" x1="40.181" y1="38.381" x2="60.348" y2="71.101" gradientUnits="userSpaceOnUse"><stop stop-color="#8DDD7A"/><stop offset=".49" stop-color="#8DDD7A" stop-opacity=".78"/><stop offset="1" stop-color="#FF6A3C" stop-opacity=".38"/></linearGradient><linearGradient id="paint1_linear_1097_2990" x1="25.972" y1="40.421" x2="58.581" y2="57.137" gradientUnits="userSpaceOnUse"><stop stop-color="#8DDD7A"/><stop offset=".49" stop-color="#8DDD7A" stop-opacity=".78"/><stop offset="1" stop-color="#FF6A3C" stop-opacity=".38"/></linearGradient><linearGradient id="paint2_linear_1097_2990" x1="39.755" y1="42.215" x2="33.338" y2="-1.573" gradientUnits="userSpaceOnUse"><stop stop-color="#8DDD7A"/><stop offset=".49" stop-color="#8DDD7A" stop-opacity=".78"/><stop offset="1" stop-color="#FF6A3C" stop-opacity=".38"/></linearGradient><linearGradient id="paint3_linear_1097_2990" x1="39.572" y1="40.563" x2="70.293" y2="54.15" gradientUnits="userSpaceOnUse"><stop stop-color="#8DDD7A"/><stop offset=".49" stop-color="#8DDD7A" stop-opacity=".78"/><stop offset="1" stop-color="#FF6A3C" stop-opacity=".38"/></linearGradient><linearGradient id="paint4_linear_1097_2990" x1="39.506" y1="36.503" x2="9.622" y2="17.716" gradientUnits="userSpaceOnUse"><stop stop-color="#8DDD7A"/><stop offset=".49" stop-color="#8DDD7A" stop-opacity=".78"/><stop offset="1" stop-color="#FF6A3C" stop-opacity=".38"/></linearGradient><linearGradient id="paint5_linear_1097_2990" x1="35.282" y1="40.973" x2="2.926" y2="29.969" gradientUnits="userSpaceOnUse"><stop stop-color="#8DDD7A"/><stop offset=".49" stop-color="#8DDD7A" stop-opacity=".78"/><stop offset="1" stop-color="#FF6A3C" stop-opacity=".38"/></linearGradient><linearGradient id="paint6_linear_1097_2990" x1="34.288" y1="37.745" x2="18.559" y2="10.835" gradientUnits="userSpaceOnUse"><stop stop-color="#8DDD7A"/><stop offset=".49" stop-color="#8DDD7A" stop-opacity=".78"/><stop offset="1" stop-color="#FF6A3C" stop-opacity=".38"/></linearGradient><linearGradient id="paint7_linear_1097_2990" x1="38.015" y1="39.483" x2="73.483" y2="49.693" gradientUnits="userSpaceOnUse"><stop stop-color="#8DDD7A"/><stop offset=".49" stop-color="#8DDD7A" stop-opacity=".78"/><stop offset="1" stop-color="#FF6A3C" stop-opacity=".38"/></linearGradient><linearGradient id="paint8_linear_1097_2990" x1="39.871" y1="35.353" x2="49.248" y2="59.101" gradientUnits="userSpaceOnUse"><stop stop-color="#8DDD7A"/><stop offset="1" stop-color="#FF6A3C" stop-opacity=".38"/></linearGradient><linearGradient id="paint9_linear_1097_2990" x1="14.637" y1="35.353" x2="24.015" y2="59.101" gradientUnits="userSpaceOnUse"><stop stop-color="#8DDD7A"/><stop offset="1" stop-color="#FF6A3C" stop-opacity=".38"/></linearGradient><linearGradient id="paint10_linear_1097_2990" x1="35.479" y1="42.015" x2="58.076" y2="49.438" gradientUnits="userSpaceOnUse"><stop stop-color="#8DDD7A"/><stop offset="1" stop-color="#FF6A3C" stop-opacity=".38"/></linearGradient><linearGradient id="paint11_linear_1097_2990" x1="35.479" y1="16.795" x2="58.077" y2="24.217" gradientUnits="userSpaceOnUse"><stop stop-color="#8DDD7A"/><stop offset="1" stop-color="#FF6A3C" stop-opacity=".38"/></linearGradient><linearGradient id="paint12_linear_1097_2990" x1="39.755" y1="40.973" x2="67.817" y2="66.567" gradientUnits="userSpaceOnUse"><stop stop-color="#8DDD7A"/><stop offset="1" stop-color="#FF6A3C" stop-opacity=".38"/></linearGradient><linearGradient id="paint13_linear_1097_2990" x1="21.452" y1="22.682" x2="49.512" y2="48.276" gradientUnits="userSpaceOnUse"><stop stop-color="#8DDD7A"/><stop offset="1" stop-color="#FF6A3C" stop-opacity=".38"/></linearGradient><linearGradient id="paint14_linear_1097_2990" x1="21.452" y1="40.972" x2="49.515" y2="66.566" gradientUnits="userSpaceOnUse"><stop stop-color="#8DDD7A"/><stop offset="1" stop-color="#FF6A3C" stop-opacity=".38"/></linearGradient><linearGradient id="paint15_linear_1097_2990" x1="39.755" y1="22.681" x2="67.817" y2="48.273" gradientUnits="userSpaceOnUse"><stop stop-color="#8DDD7A"/><stop offset="1" stop-color="#FF6A3C" stop-opacity=".38"/></linearGradient></defs></svg>