<svg width="116" height="115" fill="none" xmlns="http://www.w3.org/2000/svg"><path d="M86.676 84.746c-8.22-3.82-40.932-25.246-37.954-31.565 2.978-6.319 40.524 4.857 48.74 8.675 8.217 3.818 17.881 15.579 15.311 21.057-2.57 5.479-17.88 5.648-26.097 1.833z" fill="url(#paint0_linear_1097_2552)"/><path d="M30.503 85.952c3.847-8.156 25.44-40.62 31.81-37.664 6.37 2.955-4.894 40.215-8.747 48.372-3.852 8.157-15.701 17.744-21.216 15.193-5.515-2.551-5.686-17.744-1.847-25.9z" fill="url(#paint1_linear_1097_2552)"/><path d="M85.46 29.005c-3.844 8.16-25.44 40.623-31.81 37.667-6.37-2.955 4.898-40.202 8.742-48.375C66.236 10.124 78.09.553 83.608 3.107c5.518 2.553 5.694 17.744 1.852 25.897z" fill="url(#paint2_linear_1097_2552)"/><path d="M58.844 96.895c-3.096-8.467-10.958-46.578-4.347-48.954 6.61-2.376 25.194 31.884 28.287 40.337 3.093 8.454 1.548 23.567-4.19 25.632-5.74 2.066-16.646-8.55-19.75-17.015z" fill="url(#paint3_linear_1097_2552)"/><path d="M57.126 18.064c3.092 8.467 10.954 46.579 4.341 48.955-6.613 2.376-25.192-31.873-28.296-40.338-3.104-8.464-1.547-23.566 4.191-25.632C43.101-1.016 54.03 9.6 57.126 18.064z" fill="url(#paint4_linear_1097_2552)"/><path d="M18.266 58.332c8.53-3.069 46.937-10.874 49.33-4.311 2.395 6.563-32.128 25-40.647 28.07-8.518 3.068-23.747 1.535-25.828-4.16-2.082-5.694 8.616-16.53 17.145-19.599z" fill="url(#paint5_linear_1097_2552)"/><path d="M28.36 36.965c8.496 3.16 42.807 21.972 40.34 28.507-2.467 6.534-40.79-1.683-49.28-4.844-8.49-3.16-19.07-14.14-16.93-19.796 2.14-5.656 17.374-7.04 25.87-3.867z" fill="url(#paint6_linear_1097_2552)"/><path d="M97.709 56.627c-8.53 3.072-46.937 10.871-49.33 4.314-2.395-6.557 32.128-25.002 40.65-28.074 8.52-3.072 23.747-1.536 25.825 4.159 2.079 5.694-8.621 16.532-17.145 19.601z" fill="url(#paint7_linear_1097_2552)"/><path d="M89.978 71.385c-7.873 0-41.527-4.91-41.527-10.965s33.654-10.965 41.527-10.965c7.873 0 19.836 5.717 19.836 10.965S97.851 71.385 89.978 71.385z" fill="url(#paint8_linear_1097_2552)"/><path d="M24.672 49.455c7.873 0 41.525 4.907 41.525 10.965S32.545 71.385 24.672 71.385c-7.872 0-19.836-5.722-19.836-10.965 0-5.243 11.96-10.965 19.837-10.965z" fill="url(#paint9_linear_1097_2552)"/><path d="M46.274 92.823c0-7.813 4.948-41.208 11.053-41.208 6.104 0 11.047 33.395 11.047 41.208 0 7.813-5.764 19.684-11.05 19.684-5.286 0-11.05-11.871-11.05-19.684z" fill="url(#paint10_linear_1097_2552)"/><path d="M68.374 28.015c0 7.813-4.948 41.21-11.05 41.21s-11.05-33.397-11.05-41.21c0-7.813 5.767-19.685 11.053-19.685 5.286 0 11.047 11.877 11.047 19.685z" fill="url(#paint11_linear_1097_2552)"/><path d="M72.6 91.087c-5.567-5.529-25.865-32.619-21.548-36.894 4.316-4.275 31.61 15.862 37.177 21.387 5.568 5.526 9.949 17.96 6.208 21.67-3.74 3.71-16.268-.64-21.836-6.163z" fill="url(#paint12_linear_1097_2552)"/><path d="M42.047 29.753c5.568 5.523 25.865 32.61 21.552 36.891-4.314 4.281-31.61-15.861-37.177-21.384-5.569-5.523-9.95-17.963-6.211-21.67 3.738-3.707 16.271.637 21.836 6.163z" fill="url(#paint13_linear_1097_2552)"/><path d="M26.422 75.58c5.568-5.525 32.86-25.67 37.177-21.387 4.316 4.284-15.983 31.365-21.552 36.894-5.568 5.528-18.098 9.87-21.836 6.163-3.738-3.707.645-16.147 6.21-21.67z" fill="url(#paint14_linear_1097_2552)"/><path d="M88.23 45.26c-5.572 5.523-32.865 25.668-37.178 21.384-4.314-4.283 15.98-31.368 21.548-36.89 5.569-5.524 18.102-9.874 21.837-6.167 3.735 3.707-.64 16.147-6.208 21.673z" fill="url(#paint15_linear_1097_2552)"/><path d="M57.198 76.686a17.2 17.2 0 01-9.501-2.858 17 17 0 01-6.3-7.616 16.85 16.85 0 01-.974-9.805 16.931 16.931 0 014.68-8.69 17.142 17.142 0 018.755-4.646 17.223 17.223 0 019.881.966 17.073 17.073 0 017.675 6.25 16.879 16.879 0 012.882 9.429c0 4.5-1.8 8.816-5.007 11.999a17.168 17.168 0 01-12.09 4.971z" fill="#FFB773"/><defs><linearGradient id="paint0_linear_1097_2552" x1="57.448" y1="59.869" x2="91.948" y2="116.243" gradientUnits="userSpaceOnUse"><stop stop-color="#E24E74"/><stop offset=".49" stop-color="#FF5473" stop-opacity=".78"/><stop offset="1" stop-color="#FF7134" stop-opacity=".38"/></linearGradient><linearGradient id="paint1_linear_1097_2552" x1="32.89" y1="63.372" x2="89.084" y2="92.382" gradientUnits="userSpaceOnUse"><stop stop-color="#E24E74"/><stop offset=".49" stop-color="#FF5473" stop-opacity=".78"/><stop offset="1" stop-color="#FF7134" stop-opacity=".38"/></linearGradient><linearGradient id="paint2_linear_1097_2552" x1="56.712" y1="66.45" x2="45.773" y2="-8.722" gradientUnits="userSpaceOnUse"><stop stop-color="#E24E74"/><stop offset=".49" stop-color="#FF5473" stop-opacity=".78"/><stop offset="1" stop-color="#FF7134" stop-opacity=".38"/></linearGradient><linearGradient id="paint3_linear_1097_2552" x1="56.397" y1="63.614" x2="109.371" y2="87.209" gradientUnits="userSpaceOnUse"><stop stop-color="#E24E74"/><stop offset=".49" stop-color="#FF5473" stop-opacity=".78"/><stop offset="1" stop-color="#FF7134" stop-opacity=".38"/></linearGradient><linearGradient id="paint4_linear_1097_2552" x1="56.282" y1="56.648" x2="4.838" y2="24.076" gradientUnits="userSpaceOnUse"><stop stop-color="#E24E74"/><stop offset=".49" stop-color="#FF5473" stop-opacity=".78"/><stop offset="1" stop-color="#FF7134" stop-opacity=".38"/></linearGradient><linearGradient id="paint5_linear_1097_2552" x1="48.982" y1="64.319" x2="-6.86" y2="45.193" gradientUnits="userSpaceOnUse"><stop stop-color="#E24E74"/><stop offset=".49" stop-color="#FF5473" stop-opacity=".78"/><stop offset="1" stop-color="#FF7134" stop-opacity=".38"/></linearGradient><linearGradient id="paint6_linear_1097_2552" x1="47.264" y1="58.779" x2="20.363" y2="12.43" gradientUnits="userSpaceOnUse"><stop stop-color="#E24E74"/><stop offset=".49" stop-color="#FF5473" stop-opacity=".78"/><stop offset="1" stop-color="#FF7134" stop-opacity=".38"/></linearGradient><linearGradient id="paint7_linear_1097_2552" x1="53.706" y1="61.762" x2="114.94" y2="79.514" gradientUnits="userSpaceOnUse"><stop stop-color="#E24E74"/><stop offset=".49" stop-color="#FF5473" stop-opacity=".78"/><stop offset="1" stop-color="#FF7134" stop-opacity=".38"/></linearGradient><linearGradient id="paint8_linear_1097_2552" x1="56.913" y1="54.674" x2="72.924" y2="95.508" gradientUnits="userSpaceOnUse"><stop stop-color="#E24E74"/><stop offset="1" stop-color="#E24E74" stop-opacity=".38"/></linearGradient><linearGradient id="paint9_linear_1097_2552" x1="13.298" y1="54.674" x2="29.309" y2="95.507" gradientUnits="userSpaceOnUse"><stop stop-color="#E24E74"/><stop offset="1" stop-color="#E24E74" stop-opacity=".38"/></linearGradient><linearGradient id="paint10_linear_1097_2552" x1="49.322" y1="66.107" x2="88.325" y2="79.009" gradientUnits="userSpaceOnUse"><stop stop-color="#E24E74"/><stop offset="1" stop-color="#E24E74" stop-opacity=".38"/></linearGradient><linearGradient id="paint11_linear_1097_2552" x1="49.322" y1="22.823" x2="88.325" y2="35.724" gradientUnits="userSpaceOnUse"><stop stop-color="#E24E74"/><stop offset="1" stop-color="#E24E74" stop-opacity=".38"/></linearGradient><linearGradient id="paint12_linear_1097_2552" x1="56.712" y1="64.319" x2="104.902" y2="108.582" gradientUnits="userSpaceOnUse"><stop stop-color="#E24E74"/><stop offset="1" stop-color="#E24E74" stop-opacity=".38"/></linearGradient><linearGradient id="paint13_linear_1097_2552" x1="25.077" y1="32.927" x2="73.265" y2="77.191" gradientUnits="userSpaceOnUse"><stop stop-color="#E24E74"/><stop offset="1" stop-color="#E24E74" stop-opacity=".38"/></linearGradient><linearGradient id="paint14_linear_1097_2552" x1="25.078" y1="64.317" x2="73.27" y2="108.581" gradientUnits="userSpaceOnUse"><stop stop-color="#E24E74"/><stop offset="1" stop-color="#E24E74" stop-opacity=".38"/></linearGradient><linearGradient id="paint15_linear_1097_2552" x1="56.712" y1="32.925" x2="104.902" y2="77.185" gradientUnits="userSpaceOnUse"><stop stop-color="#E24E74"/><stop offset="1" stop-color="#E24E74" stop-opacity=".38"/></linearGradient></defs></svg>