<svg width="220" height="220" fill="none" xmlns="http://www.w3.org/2000/svg"><path d="M41.58 62.984c2.034 8.473 20.535 23.57 37.44 33.808-18.404-4.791-41.24-7.317-50.44-2.886-11.345 5.452.338 17.65.338 17.65s-10.69 11.615.337 17.646c5.99 3.278 21.79 1.78 37.457-1.753-13.06 8.084-24.957 17.805-27.964 25.144-4.772 11.632 12.077 12.882 12.077 12.882s-.173 15.793 12.052 12.886c7.453-1.775 20.08-16.322 30-31.308-4.649 16.603-7.22 35.023-3.835 43.317 4.756 11.643 17.612.727 17.612.727s10.939 11.379 17.624.724c4.273-6.801 2.776-27.534-1.016-45.809 8.728 15.652 20.784 31.653 29.471 35.195 11.639 4.748 12.836-12.094 12.836-12.094s15.788.133 12.855-12.097c-2.034-8.476-20.544-23.578-37.451-33.814 18.406 4.794 41.254 7.322 50.456 2.888 11.324-5.448-.338-17.646-.338-17.646s10.686-11.615-.337-17.646c-5.994-3.28-21.801-1.778-37.472 1.757 13.066-8.085 24.969-17.809 27.979-25.148 4.768-11.635-12.077-12.902-12.077-12.902s.173-15.772-12.052-12.866c-7.455 1.775-20.083 16.33-30.005 31.318 4.65-16.606 7.224-35.031 3.84-43.327-4.752-11.643-17.616-.727-17.616-.727s-10.939-11.378-17.62-.724c-4.273 6.8-2.777 27.533 1.015 45.809-8.727-15.654-20.782-31.657-29.47-35.199-11.639-4.74-12.84 12.098-12.84 12.098s-15.788-.133-12.855 12.097z" fill="#E33F69"/><path d="M130.965 29.632c6.914 16.95-11.044 76.195-20.775 75.793-9.73-.402-22.626-64.25-14.463-77.245 6.681-10.654 17.621.724 17.621.724s12.864-10.915 17.617.728z" fill="#E24E74"/><path d="M130.965 29.632c6.914 16.95-11.044 76.195-20.775 75.793-9.73-.402-22.626-64.25-14.463-77.245 6.681-10.654 17.621.724 17.621.724s12.864-10.915 17.617.728z" fill="url(#paint0_linear_1097_2407)"/><path d="M89.038 190.368c-6.918-16.95 11.044-76.195 20.775-75.789 9.73.406 22.626 64.246 14.463 77.24-6.686 10.655-17.625-.723-17.625-.723s-12.856 10.915-17.613-.728z" fill="#E24E74"/><path d="M89.038 190.368c-6.918-16.95 11.044-76.195 20.775-75.789 9.73.406 22.626 64.246 14.463 77.24-6.686 10.655-17.625-.723-17.625-.723s-12.856 10.915-17.613-.728z" fill="url(#paint1_linear_1097_2407)"/><path d="M181.26 67.408c-6.946 16.938-61.263 46.576-67.92 39.46-6.657-7.116 28.894-61.681 43.791-65.227 12.225-2.907 12.052 12.865 12.052 12.865s16.846 1.267 12.077 12.902z" fill="#E24E74"/><path d="M181.26 67.408c-6.946 16.938-61.263 46.576-67.92 39.46-6.657-7.116 28.894-61.681 43.791-65.227 12.225-2.907 12.052 12.865 12.052 12.865s16.846 1.267 12.077 12.902z" fill="url(#paint2_linear_1097_2407)"/><path d="M38.743 152.592c6.942-16.942 61.259-46.58 67.92-39.46 6.661 7.12-28.894 61.681-43.791 65.227-12.225 2.907-12.053-12.885-12.053-12.885s-16.85-1.251-12.076-12.882z" fill="#E24E74"/><path d="M38.743 152.592c6.942-16.942 61.259-46.58 67.92-39.46 6.661 7.12-28.894 61.681-43.791 65.227-12.225 2.907-12.053-12.885-12.053-12.885s-16.85-1.251-12.076-12.882z" fill="url(#paint3_linear_1097_2407)"/><path d="M152.732 181.205c-16.942-6.907-46.692-61.19-39.597-67.868 7.095-6.678 61.709 28.762 65.289 43.678 2.932 12.23-12.856 12.097-12.856 12.097s-1.198 16.842-12.836 12.093z" fill="url(#paint4_linear_1097_2407)"/><path d="M67.271 38.79c16.942 6.907 46.688 61.195 39.597 67.877-7.091 6.682-61.713-28.766-65.293-43.682-2.933-12.23 12.856-12.097 12.856-12.097s1.201-16.838 12.84-12.097z" fill="#E24E74"/><path d="M67.271 38.79c16.942 6.907 46.688 61.195 39.597 67.877-7.091 6.682-61.713-28.766-65.293-43.682-2.933-12.23 12.856-12.097 12.856-12.097s1.201-16.838 12.84-12.097z" fill="url(#paint5_linear_1097_2407)"/><path d="M191.428 126.09c-16.471 7.936-76.666-6.433-76.851-16.178-.184-9.746 62.722-26.475 76.176-19.114 11.024 6.031.338 17.646.338 17.646s11.663 12.198.337 17.646z" fill="#E24E74"/><path d="M191.428 126.09c-16.471 7.936-76.666-6.433-76.851-16.178-.184-9.746 62.722-26.475 76.176-19.114 11.024 6.031.338 17.646.338 17.646s11.663 12.198.337 17.646z" fill="url(#paint6_linear_1097_2407)"/><path d="M28.574 93.906c16.472-7.932 76.663 6.433 76.851 16.182.189 9.75-62.725 26.475-76.176 19.113-11.028-6.03-.337-17.645-.337-17.645s-11.683-12.198-.338-17.65z" fill="#E24E74"/><path d="M28.574 93.906c16.472-7.932 76.663 6.433 76.851 16.182.189 9.75-62.725 26.475-76.176 19.113-11.028-6.03-.337-17.645-.337-17.645s-11.683-12.198-.338-17.65z" fill="url(#paint7_linear_1097_2407)"/><path d="M119.435 110.217a10.569 10.569 0 01-12.632 10.366 10.57 10.57 0 01-8.298-8.311 10.582 10.582 0 014.497-10.853 10.561 10.561 0 0115.63 4.751 10.6 10.6 0 01.803 4.047z" fill="#FFE6CF"/><defs><linearGradient id="paint0_linear_1097_2407" x1="109.42" y1="87.972" x2="112.818" y2="31.264" gradientUnits="userSpaceOnUse"><stop stop-color="#E33F69"/><stop offset="1" stop-color="#EEC280"/></linearGradient><linearGradient id="paint1_linear_1097_2407" x1="107.101" y1="149.999" x2="107.177" y2="196.374" gradientUnits="userSpaceOnUse"><stop stop-color="#E33F69"/><stop offset="1" stop-color="#EEC280"/></linearGradient><linearGradient id="paint2_linear_1097_2407" x1="112.898" y1="108.261" x2="174.321" y2="53.018" gradientUnits="userSpaceOnUse"><stop stop-color="#E33F69"/><stop offset="1" stop-color="#EEC280"/></linearGradient><linearGradient id="paint3_linear_1097_2407" x1="98.351" y1="116.899" x2="49.704" y2="164.506" gradientUnits="userSpaceOnUse"><stop stop-color="#E33F69"/><stop offset="1" stop-color="#EEC280"/></linearGradient><linearGradient id="paint4_linear_1097_2407" x1="145.424" y1="112.508" x2="145.424" y2="182.049" gradientUnits="userSpaceOnUse"><stop stop-color="#E33F69"/><stop offset="1" stop-color="#EEC280"/></linearGradient><linearGradient id="paint5_linear_1097_2407" x1="108.26" y1="111.739" x2="48.492" y2="54.626" gradientUnits="userSpaceOnUse"><stop stop-color="#E33F69"/><stop offset="1" stop-color="#EEC280"/></linearGradient><linearGradient id="paint6_linear_1097_2407" x1="132.028" y1="111.739" x2="196.374" y2="105.945" gradientUnits="userSpaceOnUse"><stop stop-color="#E33F69"/><stop offset="1" stop-color="#EEC280"/></linearGradient><linearGradient id="paint7_linear_1097_2407" x1="81.015" y1="115.797" x2="23.625" y2="111.268" gradientUnits="userSpaceOnUse"><stop stop-color="#E33F69"/><stop offset="1" stop-color="#EEC280"/></linearGradient></defs></svg>