<svg width="166" height="166" fill="none" xmlns="http://www.w3.org/2000/svg"><g filter="url(#filter0_d_1097_2406)"><path d="M31.375 47.525c1.534 6.393 15.494 17.784 28.249 25.51-13.887-3.616-31.117-5.522-38.059-2.179-8.56 4.114.255 13.318.255 13.318s-8.066 8.764.255 13.315c4.52 2.474 16.44 1.343 28.262-1.323-9.855 6.1-18.83 13.435-21.1 18.973-3.6 8.776 9.113 9.719 9.113 9.719s-.13 11.917 9.093 9.723c5.625-1.339 15.151-12.315 22.638-23.623-3.509 12.528-5.449 26.427-2.895 32.685 3.59 8.785 13.29.549 13.29.549s8.254 8.585 13.298.546c3.224-5.132 2.094-20.776-.767-34.565 6.585 11.81 15.682 23.883 22.237 26.556 8.782 3.583 9.685-9.125 9.685-9.125s11.913.1 9.7-9.128c-1.534-6.396-15.501-17.791-28.259-25.515 13.889 3.618 31.128 5.525 38.072 2.18 8.545-4.11-.255-13.315-.255-13.315s8.063-8.764-.255-13.315c-4.522-2.474-16.449-1.341-28.274 1.326 9.859-6.1 18.84-13.438 21.111-18.975 3.599-8.78-9.112-9.735-9.112-9.735s.131-11.901-9.094-9.708c-5.625 1.339-15.154 12.32-22.64 23.63 3.51-12.53 5.451-26.432 2.898-32.692-3.586-8.785-13.293-.549-13.293-.549s-8.254-8.585-13.295-.546c-3.224 5.132-2.095 20.776.767 34.565-6.586-11.811-15.682-23.886-22.237-26.559-8.782-3.577-9.688 9.128-9.688 9.128s-11.913-.1-9.7 9.129z" fill="#E33F69"/></g><path d="M98.819 22.359c5.217 12.79-8.334 57.492-15.675 57.189-7.343-.303-17.073-48.48-10.914-58.285 5.042-8.039 13.296.547 13.296.547s9.707-8.237 13.293.549z" fill="#E24E74"/><path d="M98.819 22.359c5.217 12.79-8.334 57.492-15.675 57.189-7.343-.303-17.073-48.48-10.914-58.285 5.042-8.039 13.296.547 13.296.547s9.707-8.237 13.293.549z" fill="url(#paint0_linear_1097_2406)"/><path d="M67.183 143.641c-5.22-12.789 8.333-57.492 15.675-57.186 7.343.307 17.073 48.477 10.913 58.281-5.044 8.039-13.298-.546-13.298-.546s-9.7 8.237-13.29-.549z" fill="#E24E74"/><path d="M67.183 143.641c-5.22-12.789 8.333-57.492 15.675-57.186 7.343.307 17.073 48.477 10.913 58.281-5.044 8.039-13.298-.546-13.298-.546s-9.7 8.237-13.29-.549z" fill="url(#paint1_linear_1097_2406)"/><path d="M136.769 50.862c-5.241 12.78-46.226 35.144-51.249 29.775-5.023-5.37 21.802-46.541 33.042-49.217 9.225-2.193 9.095 9.707 9.095 9.707s12.71.956 9.112 9.735z" fill="#E24E74"/><path d="M136.769 50.862c-5.241 12.78-46.226 35.144-51.249 29.775-5.023-5.37 21.802-46.541 33.042-49.217 9.225-2.193 9.095 9.707 9.095 9.707s12.71.956 9.112 9.735z" fill="url(#paint2_linear_1097_2406)"/><path d="M29.233 115.138c5.238-12.784 46.223-35.147 51.249-29.775 5.026 5.373-21.802 46.542-33.042 49.217-9.225 2.193-9.094-9.722-9.094-9.722s-12.714-.944-9.113-9.72z" fill="#E24E74"/><path d="M29.233 115.138c5.238-12.784 46.223-35.147 51.249-29.775 5.026 5.373-21.802 46.542-33.042 49.217-9.225 2.193-9.094-9.722-9.094-9.722s-12.714-.944-9.113-9.72z" fill="url(#paint3_linear_1097_2406)"/><path d="M115.243 136.728c-12.783-5.212-35.23-46.171-29.877-51.21 5.353-5.039 46.562 21.702 49.263 32.957 2.213 9.228-9.701 9.128-9.701 9.128s-.903 12.707-9.685 9.125z" fill="url(#paint4_linear_1097_2406)"/><path d="M50.76 29.27c12.782 5.21 35.227 46.173 29.877 51.215-5.35 5.042-46.566-21.705-49.267-32.96-2.213-9.228 9.7-9.128 9.7-9.128s.907-12.704 9.69-9.128z" fill="#E24E74"/><path d="M50.76 29.27c12.782 5.21 35.227 46.173 29.877 51.215-5.35 5.042-46.566-21.705-49.267-32.96-2.213-9.228 9.7-9.128 9.7-9.128s.907-12.704 9.69-9.128z" fill="url(#paint5_linear_1097_2406)"/><path d="M144.441 95.14c-12.428 5.989-57.848-4.853-57.987-12.207-.14-7.353 47.326-19.976 57.478-14.421 8.318 4.55.255 13.314.255 13.314s8.8 9.204.254 13.314z" fill="#E24E74"/><path d="M144.441 95.14c-12.428 5.989-57.848-4.853-57.987-12.207-.14-7.353 47.326-19.976 57.478-14.421 8.318 4.55.255 13.314.255 13.314s8.8 9.204.254 13.314z" fill="url(#paint6_linear_1097_2406)"/><path d="M21.56 70.857c12.43-5.986 57.846 4.853 57.988 12.21.143 7.356-47.329 19.976-57.478 14.421-8.321-4.55-.255-13.314-.255-13.314S13 74.97 21.561 70.857z" fill="#E24E74"/><path d="M21.56 70.857c12.43-5.986 57.846 4.853 57.988 12.21.143 7.356-47.329 19.976-57.478 14.421-8.321-4.55-.255-13.314-.255-13.314S13 74.97 21.561 70.857z" fill="url(#paint7_linear_1097_2406)"/><path d="M90.119 83.164a7.982 7.982 0 01-4.925 7.369 7.968 7.968 0 01-8.687-1.733 7.98 7.98 0 015.642-13.617 7.968 7.968 0 017.364 4.927c.4.969.606 2.006.606 3.054z" fill="#FFE6CF"/><defs><linearGradient id="paint0_linear_1097_2406" x1="82.562" y1="66.379" x2="85.126" y2="23.59" gradientUnits="userSpaceOnUse"><stop stop-color="#C3DC2B"/><stop offset="1" stop-color="#6DB84A"/></linearGradient><linearGradient id="paint1_linear_1097_2406" x1="80.812" y1="113.181" x2="80.87" y2="148.173" gradientUnits="userSpaceOnUse"><stop stop-color="#C3DC2B"/><stop offset="1" stop-color="#6DB84A"/></linearGradient><linearGradient id="paint2_linear_1097_2406" x1="85.187" y1="81.688" x2="131.533" y2="40.005" gradientUnits="userSpaceOnUse"><stop stop-color="#C3DC2B"/><stop offset="1" stop-color="#6DB84A"/></linearGradient><linearGradient id="paint3_linear_1097_2406" x1="74.21" y1="88.206" x2="37.504" y2="124.127" gradientUnits="userSpaceOnUse"><stop stop-color="#C3DC2B"/><stop offset="1" stop-color="#6DB84A"/></linearGradient><linearGradient id="paint4_linear_1097_2406" x1="109.729" y1="84.893" x2="109.729" y2="137.364" gradientUnits="userSpaceOnUse"><stop stop-color="#C3DC2B"/><stop offset="1" stop-color="#6DB84A"/></linearGradient><linearGradient id="paint5_linear_1097_2406" x1="81.687" y1="84.312" x2="36.59" y2="41.217" gradientUnits="userSpaceOnUse"><stop stop-color="#C3DC2B"/><stop offset="1" stop-color="#6DB84A"/></linearGradient><linearGradient id="paint6_linear_1097_2406" x1="99.621" y1="84.312" x2="148.173" y2="79.94" gradientUnits="userSpaceOnUse"><stop stop-color="#C3DC2B"/><stop offset="1" stop-color="#6DB84A"/></linearGradient><linearGradient id="paint7_linear_1097_2406" x1="61.129" y1="87.374" x2="17.826" y2="83.957" gradientUnits="userSpaceOnUse"><stop stop-color="#C3DC2B"/><stop offset="1" stop-color="#6DB84A"/></linearGradient></defs></svg>