<svg width="102" height="102" fill="none" xmlns="http://www.w3.org/2000/svg"><path d="M19.278 29.202c.943 3.928 9.52 10.928 17.358 15.674-8.532-2.221-19.12-3.392-23.385-1.338-5.26 2.528.156 8.183.156 8.183s-4.956 5.386.157 8.182c2.777 1.52 10.102.825 17.366-.813-6.055 3.748-11.57 8.255-12.965 11.658-2.213 5.392 5.6 5.972 5.6 5.972s-.081 7.322 5.587 5.975c3.456-.823 9.31-7.568 13.91-14.516-2.156 7.698-3.348 16.238-1.779 20.083 2.205 5.399 8.166.338 8.166.338s5.072 5.275 8.17.335c1.982-3.153 1.288-12.766-.47-21.238 4.046 7.256 9.636 14.675 13.664 16.317 5.396 2.202 5.95-5.607 5.95-5.607s7.32.062 5.961-5.609c-.943-3.93-9.525-10.931-17.364-15.677 8.534 2.223 19.127 3.395 23.393 1.339 5.25-2.526-.156-8.181-.156-8.181s4.954-5.386-.157-8.182c-2.778-1.52-10.107-.824-17.373.815 6.058-3.749 11.577-8.257 12.972-11.66 2.21-5.394-5.599-5.982-5.599-5.982s.08-7.312-5.588-5.965c-3.456.823-9.311 7.571-13.911 14.52 2.156-7.699 3.349-16.241 1.78-20.087-2.203-5.399-8.167-.338-8.167-.338s-5.072-5.275-8.17-.335c-1.98 3.153-1.287 12.765.471 21.238-4.046-7.257-9.636-14.677-13.663-16.319-5.396-2.198-5.953 5.609-5.953 5.609s-7.32-.062-5.96 5.609z" fill="#E33F69"/><path d="M60.72 13.738c3.206 7.86-5.12 35.327-9.632 35.14-4.511-.186-10.49-29.788-6.706-35.813 3.098-4.94 8.17.336 8.17.336s5.964-5.06 8.168.337z" fill="#E0DFDF"/><path d="M60.72 13.738c3.206 7.86-5.12 35.327-9.632 35.14-4.511-.186-10.49-29.788-6.706-35.813 3.098-4.94 8.17.336 8.17.336s5.964-5.06 8.168.337z" fill="url(#paint0_linear_1097_2410)"/><path d="M41.281 88.262c-3.207-7.86 5.12-35.327 9.632-35.139 4.511.188 10.49 29.787 6.706 35.812-3.1 4.94-8.172-.336-8.172-.336s-5.96 5.06-8.166-.337z" fill="#E0DFDF"/><path d="M41.281 88.262c-3.207-7.86 5.12-35.327 9.632-35.139 4.511.188 10.49 29.787 6.706 35.812-3.1 4.94-8.172-.336-8.172-.336s-5.96 5.06-8.166-.337z" fill="url(#paint1_linear_1097_2410)"/><path d="M84.039 31.253c-3.22 7.853-28.404 21.594-31.49 18.295-3.087-3.3 13.396-28.598 20.303-30.242 5.668-1.347 5.587 5.965 5.587 5.965s7.81.587 5.6 5.982z" fill="#E0DFDF"/><path d="M84.039 31.253c-3.22 7.853-28.404 21.594-31.49 18.295-3.087-3.3 13.396-28.598 20.303-30.242 5.668-1.347 5.587 5.965 5.587 5.965s7.81.587 5.6 5.982z" fill="url(#paint2_linear_1097_2410)"/><path d="M17.962 70.747c3.22-7.855 28.402-21.596 31.49-18.295 3.089 3.301-13.396 28.598-20.302 30.242-5.668 1.347-5.588-5.974-5.588-5.974s-7.812-.58-5.6-5.973z" fill="#E0DFDF"/><path d="M17.962 70.747c3.22-7.855 28.402-21.596 31.49-18.295 3.089 3.301-13.396 28.598-20.302 30.242-5.668 1.347-5.588-5.974-5.588-5.974s-7.812-.58-5.6-5.973z" fill="url(#paint3_linear_1097_2410)"/><path d="M70.812 84.013c-7.855-3.202-21.648-28.37-18.358-31.466 3.289-3.096 28.61 13.335 30.27 20.25 1.36 5.671-5.96 5.61-5.96 5.61s-.556 7.808-5.952 5.606z" fill="url(#paint4_linear_1097_2410)"/><path d="M31.19 17.985c7.854 3.202 21.645 28.372 18.358 31.47-3.288 3.098-28.613-13.337-30.272-20.253-1.36-5.67 5.96-5.609 5.96-5.609s.557-7.806 5.953-5.608z" fill="#E0DFDF"/><path d="M31.19 17.985c7.854 3.202 21.645 28.372 18.358 31.47-3.288 3.098-28.613-13.337-30.272-20.253-1.36-5.67 5.96-5.609 5.96-5.609s.557-7.806 5.953-5.608z" fill="url(#paint5_linear_1097_2410)"/><path d="M88.753 58.46c-7.637 3.68-35.545-2.983-35.63-7.501-.087-4.518 29.08-12.275 35.317-8.862 5.111 2.797.157 8.182.157 8.182s5.407 5.655.156 8.18z" fill="#E0DFDF"/><path d="M88.753 58.46c-7.637 3.68-35.545-2.983-35.63-7.501-.087-4.518 29.08-12.275 35.317-8.862 5.111 2.797.157 8.182.157 8.182s5.407 5.655.156 8.18z" fill="url(#paint6_linear_1097_2410)"/><path d="M13.248 43.538c7.637-3.677 35.544 2.983 35.631 7.503.088 4.52-29.082 12.275-35.318 8.862-5.113-2.797-.156-8.182-.156-8.182s-5.417-5.655-.157-8.183z" fill="#E0DFDF"/><path d="M13.248 43.538c7.637-3.677 35.544 2.983 35.631 7.503.088 4.52-29.082 12.275-35.318 8.862-5.113-2.797-.156-8.182-.156-8.182s-5.417-5.655-.157-8.183z" fill="url(#paint7_linear_1097_2410)"/><path d="M55.374 51.1a4.905 4.905 0 01-3.026 4.529 4.895 4.895 0 01-5.338-1.065 4.903 4.903 0 015.342-7.994 4.9 4.9 0 013.022 4.53z" fill="#DF7FEF"/><defs><linearGradient id="paint0_linear_1097_2410" x1="50.731" y1="40.787" x2="52.306" y2="14.495" gradientUnits="userSpaceOnUse"><stop stop-color="#D7A4FF"/><stop offset="1" stop-color="#F372BF"/></linearGradient><linearGradient id="paint1_linear_1097_2410" x1="49.656" y1="69.545" x2="49.691" y2="91.046" gradientUnits="userSpaceOnUse"><stop stop-color="#D7A4FF"/><stop offset="1" stop-color="#F372BF"/></linearGradient><linearGradient id="paint2_linear_1097_2410" x1="52.343" y1="50.194" x2="80.822" y2="24.581" gradientUnits="userSpaceOnUse"><stop stop-color="#D7A4FF"/><stop offset="1" stop-color="#F372BF"/></linearGradient><linearGradient id="paint3_linear_1097_2410" x1="45.599" y1="54.199" x2="23.045" y2="76.271" gradientUnits="userSpaceOnUse"><stop stop-color="#D7A4FF"/><stop offset="1" stop-color="#F372BF"/></linearGradient><linearGradient id="paint4_linear_1097_2410" x1="67.424" y1="52.163" x2="67.424" y2="84.405" gradientUnits="userSpaceOnUse"><stop stop-color="#D7A4FF"/><stop offset="1" stop-color="#F372BF"/></linearGradient><linearGradient id="paint5_linear_1097_2410" x1="50.193" y1="51.806" x2="22.483" y2="25.326" gradientUnits="userSpaceOnUse"><stop stop-color="#D7A4FF"/><stop offset="1" stop-color="#F372BF"/></linearGradient><linearGradient id="paint6_linear_1097_2410" x1="61.213" y1="51.806" x2="91.046" y2="49.12" gradientUnits="userSpaceOnUse"><stop stop-color="#D7A4FF"/><stop offset="1" stop-color="#F372BF"/></linearGradient><linearGradient id="paint7_linear_1097_2410" x1="37.561" y1="53.688" x2="10.953" y2="51.588" gradientUnits="userSpaceOnUse"><stop stop-color="#D7A4FF"/><stop offset="1" stop-color="#F372BF"/></linearGradient></defs></svg>