<svg width="287" height="202" fill="none" xmlns="http://www.w3.org/2000/svg"><path d="M223.05 196.378l-117.968-32.5a20.718 20.718 0 01-13.623-11.906 20.715 20.715 0 01.836-18.073L119.6 83.397l132.199 36.422-2.412 57.359a20.713 20.713 0 01-8.538 15.951 20.712 20.712 0 01-17.798 3.249z" fill="#E0DFDF"/><path d="M223.05 196.378l-117.968-32.5a20.718 20.718 0 01-13.623-11.906 20.715 20.715 0 01.836-18.073L119.6 83.397l132.199 36.422-2.412 57.359a20.713 20.713 0 01-8.538 15.951 20.712 20.712 0 01-17.798 3.249z" fill="url(#paint0_linear_1201_3476)"/><path d="M231.131 105.562a4.806 4.806 0 01-3.357-5.91l5.276-19.148c5.865-21.288-6.683-43.378-27.97-49.243-21.288-5.865-43.378 6.683-49.243 27.97l-5.276 19.15a4.805 4.805 0 11-9.265-2.553l5.275-19.15c7.273-26.396 34.665-41.955 61.061-34.682 26.397 7.272 41.956 34.664 34.683 61.06l-5.275 19.149a4.806 4.806 0 01-5.909 3.357z" fill="url(#paint1_linear_1201_3476)"/><path d="M197.907 142.93l-43.857-12.083c-26.396-7.272-41.955-34.664-34.683-61.06a4.806 4.806 0 015.909-3.357l130.336 35.908a4.805 4.805 0 013.356 5.909c-7.272 26.397-34.664 41.955-61.061 34.683z" fill="url(#paint2_linear_1201_3476)"/><path d="M201.522 122.544c-3.935-6.928-12.009-10.064-19.368-8.071-5.299-5.48-13.84-6.922-20.768-2.987-8.209 4.663-11.094 15.135-6.431 23.344l12.166 21.419a4.804 4.804 0 006.551 1.805l21.419-12.166c8.209-4.663 11.094-15.135 6.431-23.344z" fill="url(#paint3_linear_1201_3476)"/><path d="M34.721 123.611s-7.667 9.582-11.476 18.466a5.591 5.591 0 002.551 7.16 5.532 5.532 0 007.491-2.413c2.57-5.054 7.018-12.869 12.45-18.578l-1.833-7.031-9.183 2.396zm131.074-34.194s11.371 4.615 19.034 10.506a5.592 5.592 0 011.272 7.494 5.533 5.533 0 01-7.716 1.554c-4.71-3.154-12.409-7.8-19.939-10.128l-1.834-7.03 9.183-2.396z" fill="#FFA101"/><path d="M175.669 39.223c-6.345-11.783-53.344 15.479-69.853 32.769a5.142 5.142 0 01-3.363 1.59l-.108.008a56.484 56.484 0 00-19.99 5.215l-.099.046a5.143 5.143 0 01-3.711.255c-22.852-7.022-77.18-7.85-76.96 5.53.228 13.77 34.216 53.764 66.492 43.808C95.792 119.895 91.895 98.248 90.24 92.3a1.96 1.96 0 01.103-1.335c.19-.418.52-.756.934-.953 3.013-1.43 5.255-2.044 8.753-2.283.457-.031.911.1 1.281.373.37.271.633.665.743 1.112 1.46 5.994 8.632 26.795 36.996 20.715 33.027-7.079 43.147-58.58 36.619-70.706z" fill="#FFA101"/><path d="M175.669 39.223c-2.299-4.27-9.94-3.408-19.531.244 3.833-.322 6.643.483 7.886 2.794 6.05 11.238-2.132 55.169-29.733 68.463 1.517-.18 3.101-.44 4.76-.796 33.026-7.078 43.146-58.58 36.618-70.705z" fill="#FFA101"/><path d="M64.258 117.844l-4.878 1.701c-11.802.099-23.54-8.245-30.993-17.929-3.033-3.94-2.208-9.219 1.073-12.18l5.33-1.491s38.393-1.522 40.715 3.032c5.605 10.995-11.247 26.867-11.247 26.867z" fill="#C24040"/><path d="M64.017 119.044a23.689 23.689 0 01-4.637.501c10.345-5.309 12.395-15.265 8.344-24.765a4.715 4.715 0 00-2.954-2.64c-9.85-3.054-22.851-3.875-35.31-2.704a8.714 8.714 0 014.51-2.138c14.454-2.306 30.703-1.84 42.457 1.808a4.7 4.7 0 012.939 2.633c4.843 11.351.974 23.357-15.349 27.305zm74.091-20.36s17.517-16.09 17.875-29.933c.276-10.689-13.936-8.686-13.936-8.686-11.423 5.061-22.397 12.144-29.489 19.607a4.716 4.716 0 00-1.29 3.743c1.106 10.277 7.746 17.969 19.38 17.538l7.46-2.269z" fill="#C24040"/><path d="M160.577 67.133c-2.006 13.695-9.58 28.538-22.575 32.61-2.639.738-5.089 1.128-7.354 1.21 10.381-5.661 16.511-18.672 18.284-30.783.721-4.92-2.576-9.125-6.885-10.105a110.771 110.771 0 016.664-2.7c6.348-2.331 12.85 3.05 11.866 9.768z" fill="#C24040"/><defs><linearGradient id="paint0_linear_1201_3476" x1="204.301" y1="158.583" x2="95.67" y2="119.512" gradientUnits="userSpaceOnUse"><stop stop-color="#D7A4FF"/><stop offset="1" stop-color="#F372BF"/></linearGradient><linearGradient id="paint1_linear_1201_3476" x1="207.632" y1="21.996" x2="187.891" y2="93.649" gradientUnits="userSpaceOnUse"><stop stop-color="#D2A0F5"/><stop offset="1" stop-color="#FF67D4" stop-opacity=".5"/></linearGradient><linearGradient id="paint2_linear_1201_3476" x1="190.444" y1="84.384" x2="175.979" y2="136.889" gradientUnits="userSpaceOnUse"><stop stop-color="#FF3888"/><stop offset="1" stop-color="#FFB9D5" stop-opacity=".39"/></linearGradient><linearGradient id="paint3_linear_1201_3476" x1="159.29" y1="131.807" x2="202.884" y2="141.159" gradientUnits="userSpaceOnUse"><stop offset=".14" stop-color="#DEECF1"/><stop offset="1" stop-color="#74DAFF" stop-opacity=".52"/></linearGradient></defs></svg>