<svg width="117" height="56" fill="none" xmlns="http://www.w3.org/2000/svg"><path d="M87.17 9.51c-7.093-.507-37.075-7.105-36.683-12.594.392-5.49 31.013-7.798 38.102-7.293 7.089.506 17.481 6.455 17.15 11.212-.331 4.756-11.482 9.178-18.57 8.675z" fill="url(#paint0_linear_1084_3963)"/><path d="M46.425 26.166c.508-7.087 7.126-37.058 12.62-36.67 5.495.39 7.787 30.993 7.275 38.082-.513 7.09-6.469 17.476-11.224 17.146-4.754-.33-9.173-11.473-8.671-18.558z" fill="url(#paint1_linear_1084_3963)"/><path d="M70.525-31.203c-.506 7.089-7.126 37.06-12.62 36.672-5.495-.39-7.781-30.984-7.28-38.083.502-7.099 6.467-17.475 11.225-17.143 4.757.332 9.18 11.47 8.675 18.554z" fill="url(#paint2_linear_1084_3963)"/><path d="M70.246 26.27C65.59 20.903 49.066-4.96 53.23-8.565c4.163-3.605 27.44 16.411 32.091 21.77 4.652 5.357 7.793 16.922 4.18 20.054-3.614 3.132-14.592-1.625-19.255-6.989z" fill="url(#paint3_linear_1084_3963)"/><path d="M46.708-31.307C51.363-25.939 67.886-.077 63.72 3.53c-4.166 3.606-27.435-16.404-32.098-21.767-4.663-5.363-7.793-16.922-4.18-20.054 3.614-3.132 14.608 1.619 19.265 6.984z" fill="url(#paint4_linear_1084_3963)"/><path d="M29.668 9.259c5.37-4.655 31.256-21.184 34.862-17.023 3.606 4.162-16.433 27.431-21.796 32.083-5.363 4.652-16.935 7.797-20.067 4.187-3.132-3.61 1.63-14.593 7-19.247z" fill="url(#paint5_linear_1084_3963)"/><path d="M31.01-9.312C38.119-9.37 68.53-5.146 68.575.36c.042 5.505-30.31 10.21-37.414 10.265-7.103.056-17.945-5.06-17.978-9.827C13.148-3.968 23.9-9.264 31.01-9.312z" fill="url(#paint6_linear_1084_3963)"/><path d="M87.29-14.297C81.92-9.64 56.035 6.885 52.43 2.728 48.824-1.43 68.861-24.706 74.225-29.36c5.364-4.654 16.935-7.797 20.065-4.186 3.13 3.61-1.633 14.596-7 19.25z" fill="url(#paint7_linear_1084_3963)"/><path d="M85.808-1.257c-5.758 2.21-31.762 8.04-33.473 3.58-1.712-4.46 21.516-17.522 27.274-19.732 5.759-2.21 16.125-1.358 17.608 2.508 1.484 3.865-5.65 11.434-11.409 13.644z" fill="url(#paint8_linear_1084_3963)"/><path d="M31.844.922c5.758-2.21 31.759-8.042 33.47-3.58 1.713 4.462-21.513 17.522-27.271 19.732-5.759 2.21-16.126 1.353-17.608-2.508C18.953 10.704 26.083 3.132 31.844.922z" fill="url(#paint9_linear_1084_3963)"/><path d="M59.902 26.8c-2.209-5.755-8.029-31.74-3.564-33.453 4.465-1.714 17.52 21.494 19.727 27.249 2.209 5.754 1.349 16.116-2.517 17.6-3.867 1.483-11.438-5.643-13.646-11.397z" fill="url(#paint10_linear_1084_3963)"/><path d="M57.747-27.136c2.209 5.755 8.03 31.741 3.567 33.454-4.463 1.713-17.522-21.496-19.73-27.25-2.209-5.755-1.347-16.117 2.52-17.601 3.866-1.484 11.437 5.647 13.643 11.397z" fill="url(#paint11_linear_1084_3963)"/><path d="M78.667 18.131C73.03 15.622 50.529 1.367 52.477-2.993c1.949-4.36 27.603 2.81 33.238 5.316C91.349 4.83 98.068 12.76 96.38 16.541c-1.687 3.782-12.08 4.095-17.713 1.59z" fill="url(#paint12_linear_1084_3963)"/><path d="M38.983-18.466C44.617-15.96 67.12-1.708 65.173 2.656 63.23 7.019 37.572-.154 31.938-2.66 26.304-5.163 19.583-13.096 21.27-16.875c1.686-3.78 12.08-4.098 17.713-1.59z" fill="url(#paint13_linear_1084_3963)"/><path d="M40.508 19.673c2.51-5.633 16.778-28.131 21.146-26.188 4.368 1.943-2.825 27.588-5.335 33.222-2.51 5.635-10.447 12.35-14.229 10.67-3.782-1.682-4.092-12.075-1.583-17.704z" fill="url(#paint14_linear_1084_3963)"/><path d="M77.144-20.008c-2.513 5.631-16.781 28.13-21.147 26.186-4.366-1.944 2.822-27.59 5.333-33.22 2.512-5.63 10.45-12.352 14.229-10.67 3.78 1.681 4.096 12.072 1.585 17.704z" fill="url(#paint15_linear_1084_3963)"/><path d="M63.33 11.848a13.405 13.405 0 01-7.757.562A13.39 13.39 0 0145.33 1.62a13.4 13.4 0 0113.557-15.655A13.395 13.395 0 0171.04-5.45a13.386 13.386 0 01-.271 10.243 13.402 13.402 0 01-7.438 7.055z" fill="#FFC58E"/><defs><linearGradient id="paint0_linear_1084_3963" x1="74.927" y1=".253" x2="114.656" y2="25.4" gradientUnits="userSpaceOnUse"><stop stop-color="#FF7B00"/><stop offset=".49" stop-color="#FFD570" stop-opacity=".53"/><stop offset="1" stop-color="#F5C58B" stop-opacity=".38"/></linearGradient><linearGradient id="paint1_linear_1084_3963" x1="41.788" y1="8.865" x2="91.119" y2="14.179" gradientUnits="userSpaceOnUse"><stop stop-color="#FF7B00"/><stop offset=".49" stop-color="#FFD570" stop-opacity=".53"/><stop offset="1" stop-color="#F5C58B" stop-opacity=".38"/></linearGradient><linearGradient id="paint2_linear_1084_3963" x1="46.404" y1="-31.279" x2="95.734" y2="-25.966" gradientUnits="userSpaceOnUse"><stop stop-color="#FF7B00"/><stop offset=".49" stop-color="#FFD570" stop-opacity=".53"/><stop offset="1" stop-color="#F5C58B" stop-opacity=".38"/></linearGradient><linearGradient id="paint3_linear_1084_3963" x1="59.05" y1="2.446" x2="115.056" y2="9.534" gradientUnits="userSpaceOnUse"><stop offset=".246" stop-color="#FF7B00"/><stop offset=".49" stop-color="#FFC793" stop-opacity=".78"/><stop offset="1" stop-color="#FFBA68" stop-opacity=".38"/></linearGradient><linearGradient id="paint4_linear_1084_3963" x1="48.754" y1="-13.909" x2="7.338" y2="-20.376" gradientUnits="userSpaceOnUse"><stop stop-color="#FF7B00"/><stop offset=".49" stop-color="#FFD570" stop-opacity=".53"/><stop offset="1" stop-color="#F5C58B" stop-opacity=".38"/></linearGradient><linearGradient id="paint5_linear_1084_3963" x1="23.902" y1="12.142" x2="60.232" y2="43.731" gradientUnits="userSpaceOnUse"><stop stop-color="#FF7B00"/><stop offset=".49" stop-color="#FFD570" stop-opacity=".53"/><stop offset="1" stop-color="#F5C58B" stop-opacity=".38"/></linearGradient><linearGradient id="paint6_linear_1084_3963" x1="46.179" y1="-2.14" x2="10.229" y2="-29.231" gradientUnits="userSpaceOnUse"><stop stop-color="#FF7B00"/><stop offset=".547" stop-color="#FFD570" stop-opacity=".53"/><stop offset="1" stop-color="#F5C58B" stop-opacity=".38"/></linearGradient><linearGradient id="paint7_linear_1084_3963" x1="52.876" y1="-16.007" x2="89.211" y2="15.583" gradientUnits="userSpaceOnUse"><stop stop-color="#FF7B00"/><stop offset=".49" stop-color="#FFD570" stop-opacity=".53"/><stop offset="1" stop-color="#F5C58B" stop-opacity=".38"/></linearGradient><linearGradient id="paint8_linear_1084_3963" x1="56.9" y1="-4.284" x2="80.272" y2="21.186" gradientUnits="userSpaceOnUse"><stop stop-color="#FFBA68"/><stop offset="1" stop-color="#E24E74" stop-opacity=".38"/></linearGradient><linearGradient id="paint9_linear_1084_3963" x1="25" y1="7.959" x2="48.372" y2="33.428" gradientUnits="userSpaceOnUse"><stop stop-color="#FFBA68"/><stop offset="1" stop-color="#E24E74" stop-opacity=".38"/></linearGradient><linearGradient id="paint10_linear_1084_3963" x1="54.58" y1="6.268" x2="86.747" y2="4.689" gradientUnits="userSpaceOnUse"><stop stop-color="#FFBA68"/><stop offset="1" stop-color="#E24E74" stop-opacity=".38"/></linearGradient><linearGradient id="paint11_linear_1084_3963" x1="42.345" y1="-25.612" x2="74.513" y2="-27.191" gradientUnits="userSpaceOnUse"><stop stop-color="#FFBA68"/><stop offset="1" stop-color="#E24E74" stop-opacity=".38"/></linearGradient><linearGradient id="paint12_linear_1084_3963" x1="59.479" y1="2.876" x2="107.367" y2="21.618" gradientUnits="userSpaceOnUse"><stop stop-color="#FFBA68"/><stop offset="1" stop-color="#E24E74" stop-opacity=".38"/></linearGradient><linearGradient id="paint13_linear_1084_3963" x1="27.468" y1="-11.365" x2="75.355" y2="7.378" gradientUnits="userSpaceOnUse"><stop stop-color="#FFBA68"/><stop offset="1" stop-color="#E24E74" stop-opacity=".38"/></linearGradient><linearGradient id="paint14_linear_1084_3963" x1="36.341" y1="11.755" x2="84.23" y2="30.497" gradientUnits="userSpaceOnUse"><stop stop-color="#FFBA68"/><stop offset="1" stop-color="#E24E74" stop-opacity=".38"/></linearGradient><linearGradient id="paint15_linear_1084_3963" x1="50.606" y1="-20.245" x2="98.493" y2="-1.506" gradientUnits="userSpaceOnUse"><stop stop-color="#FFBA68"/><stop offset="1" stop-color="#E24E74" stop-opacity=".38"/></linearGradient></defs></svg>