<svg width="1282" height="99" fill="none" xmlns="http://www.w3.org/2000/svg"><path opacity=".2" d="M1282 99c-130.89-43.916-304.988-79.998-460.544-84.563a964.54 964.54 0 00-85.213 1.2c-3.879.3-12.31.877-15.972 1.166-14.016 1.244-28.088 2.744-41.852 4.595-79.613 10.534-152.025 31.494-228.793 46.023-53.903 10.248-111.021 16.313-168.37 14.506-1.684 0-3.383-.088-5.081-.155l-5.096-.193-5.096-.192-2.552-.1-2.544-.13C181.49 77.36 100.682 66.1 32.303 43.928c-4.362-1.481-8.724-2.962-12.848-4.598l-.455.28c12.911 6.173 27.451 11.338 42.264 16.13 26.926 8.56 55.685 15.498 85.282 21.008 33.106 6.1 67.209 10.562 101.87 13.329 6.34.492 14.68 1.11 20.852 1.48 5.711.42 15.197.845 21.09 1.093 3.53.196 7.081.233 10.625.311 3.544.078 7.263.2 10.653.185a778.96 778.96 0 0042.642-.922c4.802-.207 11.044-.688 15.882-.98a874.683 874.683 0 0057.32-6.21c83.675-11.919 160.163-34.412 243.425-46.686a969.875 969.875 0 0139.181-4.935c4.823-.482 9.982-.926 14.819-1.389 3.817-.289 11.108-.818 14.841-1.11 40.054-2.448 80.857-2.063 120.932.088 78.041 4.214 154.872 14.377 229.372 27.359 12.49 2.203 26.56 4.742 38.95 7.138 51.73 9.464 103.52 22.327 153 33.5z" fill="#EB7864"/><path d="M1263 85C1132.11 41.084 958.012 5.002 802.456.437a964.557 964.557 0 00-85.213 1.2c-3.879.3-12.31.877-15.972 1.166-14.016 1.244-28.088 2.744-41.852 4.595-79.613 10.534-152.025 31.494-228.793 46.023-53.903 10.248-111.021 16.313-168.37 14.506-1.684 0-3.383-.088-5.081-.155l-5.096-.193-5.096-.192-2.552-.1-2.544-.13C162.49 63.36 81.682 52.1 13.303 29.928 8.94 28.447 4.579 26.966.454 25.329L0 25.611c12.911 6.172 27.451 11.337 42.264 16.128 26.926 8.56 55.685 15.5 85.282 21.009 33.106 6.1 67.209 10.562 101.87 13.329 6.34.492 14.68 1.11 20.852 1.48 5.711.42 15.197.845 21.09 1.093 3.53.196 7.081.233 10.625.311 3.544.078 7.263.2 10.653.185a778.96 778.96 0 0042.642-.922c4.802-.207 11.044-.688 15.882-.98a874.683 874.683 0 0057.32-6.21c83.675-11.919 160.163-34.412 243.425-46.686a969.875 969.875 0 0139.181-4.935c4.823-.482 9.982-.926 14.819-1.389 3.817-.289 11.108-.818 14.841-1.11 40.054-2.448 80.857-2.063 120.932.088 78.041 4.214 154.871 14.377 229.372 27.359 12.49 2.203 26.56 4.742 38.95 7.138 51.73 9.464 103.52 22.327 153 33.5z" fill="#EB7864"/></svg>