<svg width="176" height="172" fill="none" xmlns="http://www.w3.org/2000/svg"><g opacity=".5" filter="url(#filter0_d_1129_4656)"><path d="M49.77 83.434c-5.51 2.869-10.474 7.589-9.84 11.065.79 4.336 10.414 7.418 17.575 7.057-2.167 3.685-3.263 7.618-1.85 9.61 1.39 1.956 5.345 2.237 9.458 1.452-1.473 6.123-1.138 13.153 1.954 14.951 2.612 1.519 7.49-.529 11.708-3.803 1.107 2.482 2.592 4.302 4.272 4.586 1.272.215 2.728-.439 4.168-1.629 2.81 4.223 6.49 7.466 9.338 6.946 3.876-.709 6.746-8.494 7.055-15.254 4.032 2.711 8.72 4.294 10.956 2.702 1.384-.985 1.93-3.258 1.852-5.962 4.958.98 9.824.662 11.455-1.706 2.007-2.913-.602-9.302-4.468-14.196 4.24-1.056 7.927-3.094 8.342-5.55.34-2.008-1.479-4.47-4.153-6.608 4.779-2.882 8.696-6.983 8.129-10.095-.603-3.307-6.348-5.881-12.215-6.758 1.59-3.2 2.236-6.358 1.017-8.076-1.244-1.751-4.54-2.161-8.165-1.666 1.884-5.94 2.069-12.828-.841-14.833-2.865-1.974-9.088.52-13.945 4.282-1.123-2.677-2.672-4.672-4.44-4.971-1.941-.328-4.305 1.362-6.39 3.892-2.766-5.97-7.917-11.735-11.644-11.056-3.77.688-6.59 8.072-7.024 14.696-2.614-1.035-5.037-1.31-6.462-.296-1.283.913-1.845 2.933-1.857 5.378-6.166-2.236-13.839-2.644-15.975.456-2.379 3.45 1.707 11.776 6.704 16.717-3.208 1.14-5.715 2.862-6.053 4.861-.197 1.167.334 2.487 1.338 3.808z" fill="#FFDAB7" fill-opacity=".5" shape-rendering="crispEdges"/></g><path d="M112.632 65.95c-4.211 6.323-25.514 30.877-29.611 27.83-4.097-3.046 10.559-32.544 14.768-38.865 4.209-6.32 14.467-13.042 18.022-10.41 3.554 2.632 1.028 15.124-3.179 21.445z" fill="url(#paint0_linear_1129_4656)"/><path d="M105.99 112.123c-5.593-4.113-26.704-25.833-23.257-30.955 3.448-5.123 30.153 8.292 35.746 12.41 5.592 4.117 10.825 15.192 7.847 19.628-2.979 4.435-14.741 3.023-20.336-1.083z" fill="url(#paint1_linear_1129_4656)"/><path d="M69.66 59.37c5.596 4.11 26.707 25.832 23.259 30.955-3.448 5.122-30.142-8.294-35.749-12.406-5.606-4.112-10.826-15.19-7.845-19.628 2.982-4.437 14.742-3.03 20.334 1.078z" fill="url(#paint2_linear_1129_4656)"/><path d="M118.616 90.486c-7.135 1.783-38.134 4.596-38.761-1.329-.628-5.924 29.356-18.346 36.48-20.129 7.124-1.782 18.56 1.108 19.107 6.251.546 5.144-9.691 13.415-16.826 15.207z" fill="url(#paint3_linear_1129_4656)"/><path d="M57.037 81.002c7.135-1.781 38.134-4.594 38.76 1.333.627 5.926-29.347 18.344-36.481 20.135-7.135 1.791-18.56-1.107-19.106-6.25-.547-5.144 9.694-13.434 16.827-15.218z" fill="url(#paint4_linear_1129_4656)"/><path d="M83.296 118.036c-.757-7.228.183-39.183 5.335-40.487 5.152-1.302 12.561 28.539 13.319 35.757.759 7.219-2.958 19.437-7.43 20.571-4.47 1.134-10.467-8.614-11.224-15.841z" fill="url(#paint5_linear_1129_4656)"/><path d="M68.294 107.177c3.744-6.594 23.24-32.63 27.544-29.987 4.305 2.644-8.214 32.976-11.957 39.565-3.743 6.589-13.5 14.112-17.226 11.82-3.725-2.292-2.113-14.805 1.64-21.398z" fill="url(#paint6_linear_1129_4656)"/><path d="M92.358 53.447c.758 7.228-.185 39.184-5.334 40.487-5.148 1.304-12.562-28.539-13.323-35.76-.76-7.22 2.959-19.437 7.43-20.568 4.47-1.132 10.469 8.618 11.227 15.841z" fill="url(#paint7_linear_1129_4656)"/><path d="M102.579 61.651c-1.319 6.36-10.425 33.066-14.703 32.477-4.278-.589-2.11-28.25-.791-34.61 1.318-6.359 7.36-15.466 11.069-14.955 3.708.51 5.743 10.729 4.425 17.088z" fill="url(#paint8_linear_1129_4656)"/><path d="M77.6 111.678c1.319-6.359 10.422-33.064 14.702-32.474 4.28.589 2.11 28.247.792 34.607-1.319 6.359-7.365 15.466-11.07 14.956-3.704-.51-5.743-10.727-4.424-17.089z" fill="url(#paint9_linear_1129_4656)"/><path d="M113.757 100.403c-6.104-.824-31.276-8.68-30.145-14.026 1.13-5.347 28.134-6.155 34.238-5.331 6.103.824 14.311 7.124 13.332 11.754-.979 4.63-11.321 8.427-17.425 7.603z" fill="url(#paint10_linear_1129_4656)"/><path d="M66.42 72.928c6.103.824 31.277 8.68 30.147 14.025-1.13 5.344-28.137 6.156-34.24 5.333-6.104-.824-14.31-7.127-13.332-11.757.979-4.63 11.325-8.424 17.424-7.6z" fill="url(#paint11_linear_1129_4656)"/><path d="M115.965 78.167c-5.168 4.065-29.243 18.192-31.697 14.186-2.454-4.006 17.625-24.628 22.791-28.693 5.166-4.066 15.334-6.457 17.464-2.985 2.13 3.472-3.394 13.426-8.558 17.492z" fill="url(#paint12_linear_1129_4656)"/><path d="M64.213 95.165c5.164-4.066 29.237-18.193 31.696-14.188 2.459 4.004-17.625 24.627-22.79 28.693-5.163 4.066-15.335 6.456-17.464 2.987-2.128-3.47 3.393-13.429 8.558-17.492z" fill="url(#paint13_linear_1129_4656)"/><path d="M97.416 113.804c-3.173-5.169-13.493-29.811-9.489-32.963 4.005-3.152 20.811 16.385 23.987 21.554 3.176 5.169 4.211 15.992.745 18.722-3.466 2.73-12.07-2.147-15.243-7.313z" fill="url(#paint14_linear_1129_4656)"/><path d="M82.762 59.526c3.172 5.17 13.492 29.813 9.487 32.962-4.004 3.15-20.813-16.382-23.985-21.55-3.172-5.17-4.212-15.996-.747-18.724 3.466-2.727 12.072 2.143 15.245 7.312z" fill="url(#paint15_linear_1129_4656)"/><path d="M102.316 88.364a16.814 16.814 0 01-3.857 7.594c-1.91 2.146-4.303 3.7-6.874 4.463-2.572.765-5.208.705-7.574-.17-2.367-.876-4.358-2.528-5.721-4.748-1.364-2.22-2.038-4.908-1.94-7.725.1-2.816.969-5.633 2.497-8.097 1.528-2.462 3.648-4.46 6.09-5.74 2.442-1.28 5.098-1.784 7.631-1.449 3.396.45 6.331 2.374 8.159 5.35 1.828 2.977 2.4 6.762 1.589 10.522z" fill="#FFC58E"/><defs><linearGradient id="paint0_linear_1129_4656" x1="98.784" y1="72.767" x2="142.543" y2="54.682" gradientUnits="userSpaceOnUse"><stop stop-color="#FF7B00"/><stop offset=".49" stop-color="#FFD570" stop-opacity=".53"/><stop offset="1" stop-color="#F5C58B" stop-opacity=".38"/></linearGradient><linearGradient id="paint1_linear_1129_4656" x1="88.994" y1="107.774" x2="123.65" y2="64.468" gradientUnits="userSpaceOnUse"><stop stop-color="#FF7B00"/><stop offset=".49" stop-color="#FFD570" stop-opacity=".53"/><stop offset="1" stop-color="#F5C58B" stop-opacity=".38"/></linearGradient><linearGradient id="paint2_linear_1129_4656" x1="55.877" y1="82.689" x2="90.533" y2="39.382" gradientUnits="userSpaceOnUse"><stop stop-color="#FF7B00"/><stop offset=".49" stop-color="#FFD570" stop-opacity=".53"/><stop offset="1" stop-color="#F5C58B" stop-opacity=".38"/></linearGradient><linearGradient id="paint3_linear_1129_4656" x1="92.358" y1="89.146" x2="133.159" y2="40.525" gradientUnits="userSpaceOnUse"><stop offset=".246" stop-color="#FF7B00"/><stop offset=".49" stop-color="#FFC793" stop-opacity=".78"/><stop offset="1" stop-color="#FFBA68" stop-opacity=".38"/></linearGradient><linearGradient id="paint4_linear_1129_4656" x1="72.71" y1="87.968" x2="41.306" y2="122.977" gradientUnits="userSpaceOnUse"><stop stop-color="#FF7B00"/><stop offset=".49" stop-color="#FFD570" stop-opacity=".53"/><stop offset="1" stop-color="#F5C58B" stop-opacity=".38"/></linearGradient><linearGradient id="paint5_linear_1129_4656" x1="82.467" y1="124.764" x2="128.063" y2="113.669" gradientUnits="userSpaceOnUse"><stop stop-color="#FF7B00"/><stop offset=".49" stop-color="#FFD570" stop-opacity=".53"/><stop offset="1" stop-color="#F5C58B" stop-opacity=".38"/></linearGradient><linearGradient id="paint6_linear_1129_4656" x1="81.958" y1="96.66" x2="39.641" y2="110.109" gradientUnits="userSpaceOnUse"><stop stop-color="#FF7B00"/><stop offset=".547" stop-color="#FFD570" stop-opacity=".53"/><stop offset="1" stop-color="#F5C58B" stop-opacity=".38"/></linearGradient><linearGradient id="paint7_linear_1129_4656" x1="72.709" y1="84.395" x2="118.31" y2="73.295" gradientUnits="userSpaceOnUse"><stop stop-color="#FF7B00"/><stop offset=".49" stop-color="#FFD570" stop-opacity=".53"/><stop offset="1" stop-color="#F5C58B" stop-opacity=".38"/></linearGradient><linearGradient id="paint8_linear_1129_4656" x1="85.234" y1="86.734" x2="117.386" y2="82.571" gradientUnits="userSpaceOnUse"><stop stop-color="#FFBA68"/><stop offset="1" stop-color="#E24E74" stop-opacity=".38"/></linearGradient><linearGradient id="paint9_linear_1129_4656" x1="79.382" y1="121.373" x2="111.534" y2="117.209" gradientUnits="userSpaceOnUse"><stop stop-color="#FFBA68"/><stop offset="1" stop-color="#E24E74" stop-opacity=".38"/></linearGradient><linearGradient id="paint10_linear_1129_4656" x1="93.451" y1="94.917" x2="111.294" y2="62.41" gradientUnits="userSpaceOnUse"><stop stop-color="#FFBA68"/><stop offset="1" stop-color="#E24E74" stop-opacity=".38"/></linearGradient><linearGradient id="paint11_linear_1129_4656" x1="58.835" y1="89.069" x2="76.678" y2="56.562" gradientUnits="userSpaceOnUse"><stop stop-color="#FFBA68"/><stop offset="1" stop-color="#E24E74" stop-opacity=".38"/></linearGradient><linearGradient id="paint12_linear_1129_4656" x1="92.922" y1="88.67" x2="138.091" y2="57.717" gradientUnits="userSpaceOnUse"><stop stop-color="#FFBA68"/><stop offset="1" stop-color="#E24E74" stop-opacity=".38"/></linearGradient><linearGradient id="paint13_linear_1129_4656" x1="63.572" y1="109.554" x2="108.741" y2="78.603" gradientUnits="userSpaceOnUse"><stop stop-color="#FFBA68"/><stop offset="1" stop-color="#E24E74" stop-opacity=".38"/></linearGradient><linearGradient id="paint14_linear_1129_4656" x1="88.676" y1="113.794" x2="133.846" y2="82.84" gradientUnits="userSpaceOnUse"><stop stop-color="#FFBA68"/><stop offset="1" stop-color="#E24E74" stop-opacity=".38"/></linearGradient><linearGradient id="paint15_linear_1129_4656" x1="67.816" y1="84.429" x2="112.982" y2="53.475" gradientUnits="userSpaceOnUse"><stop stop-color="#FFBA68"/><stop offset="1" stop-color="#E24E74" stop-opacity=".38"/></linearGradient><filter id="filter0_d_1129_4656" x="39.875" y="37.76" width="103.901" height="103.964" filterUnits="userSpaceOnUse" color-interpolation-filters="sRGB"><feFlood flood-opacity="0" result="BackgroundImageFix"/><feColorMatrix in="SourceAlpha" values="0 0 0 0 0 0 0 0 0 0 0 0 0 0 0 0 0 0 127 0" result="hardAlpha"/><feOffset dx="4" dy="4"/><feGaussianBlur stdDeviation="2"/><feComposite in2="hardAlpha" operator="out"/><feColorMatrix values="0 0 0 0 0 0 0 0 0 0 0 0 0 0 0 0 0 0 0.25 0"/><feBlend in2="BackgroundImageFix" result="effect1_dropShadow_1129_4656"/><feBlend in="SourceGraphic" in2="effect1_dropShadow_1129_4656" result="shape"/></filter></defs></svg>