<svg width="195" height="217" fill="none" xmlns="http://www.w3.org/2000/svg"><path d="M93.36 56.227h22.406a11.202 11.202 0 0111.203 11.203v59.75H82.156V67.43A11.203 11.203 0 0193.36 56.227z" fill="url(#paint0_linear_1125_2828)"/><path d="M97.28 56.227h-3.92A11.203 11.203 0 0082.155 67.43v59.75h44.813V94.69A44.788 44.788 0 0197.28 56.227z" fill="url(#paint1_linear_1125_2828)"/><path d="M93.36 41.29h22.406v14.937H93.359V41.289zm3.734-14.938h14.937v14.937H97.094V26.352zM82.156 74.898h44.813v14.938H82.156V74.898z" fill="#FFA101"/><path d="M103.136 74.898h-20.98v14.938h34.999a45.02 45.02 0 01-14.019-14.938zm5.161-26.14a11.17 11.17 0 01-10.516-7.469h-4.422v14.938h22.407v-7.47h-7.469zm-7.469-22.406h-3.734v14.937h14.937v-3.734a11.204 11.204 0 01-11.203-11.203z" fill="url(#paint2_linear_1125_2828)"/><path d="M190.446 1.216a7.471 7.471 0 012.737 10.198L101.691 169.88l-12.94-7.469L180.247 3.945a7.467 7.467 0 0110.206-2.73h-.007z" fill="#FFA101"/><path d="M191.349 1.858l-48.576 84.135a14.9 14.9 0 01-14.154 7.376l-39.86 69.048 12.936 7.469 91.492-158.472a7.448 7.448 0 00-1.838-9.556z" fill="url(#paint3_linear_1125_2828)"/><path d="M27.873 67.16l19.404-11.202L58.48 75.362 39.077 86.565 27.873 67.16z" fill="#E9F1F2"/><path d="M52.513 66.026a11.204 11.204 0 01-15.311-4.108l-.067-.116-9.27 5.351 11.204 19.42 19.419-11.204-5.535-9.586-.44.243z" fill="#D0D8DA"/><path d="M105.026 126.108L59.75 152.249 33.045 93.074a11.203 11.203 0 014.609-14.31l14.78-8.533a11.203 11.203 0 0114.699 3.163l37.893 52.714z" fill="#FFA101"/><path d="M0 48.758l7.469 12.936a14.938 14.938 0 0120.404 5.467l19.42-11.203-7.47-12.936 6.468-3.734-7.468-12.936L0 48.758z" fill="#84D2F4"/><path d="M38.804 26.352l12.936-7.47 7.468 12.937-12.935 7.469-7.47-12.936z" fill="url(#paint4_linear_1125_2828)"/><path d="M77.369 87.633A22.406 22.406 0 0145.832 77.4l-1.203-2.666-6.975 4.03a11.203 11.203 0 00-4.609 14.31l26.705 59.175 45.276-26.141-27.657-38.475z" fill="url(#paint5_linear_1125_2828)"/><path d="M25.808 50.304a14.938 14.938 0 00-7.136-1.815 15.449 15.449 0 01-10.83-3.955l-.201-.194L0 48.758l7.469 12.936a14.937 14.937 0 0120.404 5.467l19.42-11.203-3.918-6.786-6.513 2.33a13.542 13.542 0 01-11.054-1.198z" fill="url(#paint6_linear_1125_2828)"/><path d="M56.479 28.084a7.469 7.469 0 01-10.203-2.733l-1.434-2.483-6.034 3.484 7.468 12.936 12.936-7.47-2.3-3.973-.433.24z" fill="url(#paint7_linear_1125_2828)"/><path d="M130.703 216.805H41.078l-14.937-97.094h119.5l-14.938 97.094z" fill="url(#paint8_linear_1125_2828)"/><path d="M14.938 104.773h141.906v14.938H14.938v-14.938z" fill="url(#paint9_linear_1125_2828)"/><path opacity=".2" d="M122.275 201.867a75.18 75.18 0 0012.163-9.231l2.035-13.224a67.407 67.407 0 01-30.932 22.168 59.688 59.688 0 01-38.023-18.568 13.105 13.105 0 003.857-1.99 13.132 13.132 0 0114.631-.747 6.168 6.168 0 006.578-.152 6.168 6.168 0 002.695-6.002l-6.722-46.941h55.933l1.151-7.469h-119.5l14.937 97.094h89.625L133 201.867h-10.725z" fill="url(#paint10_linear_1125_2828)"/><path d="M37.344 112.242a11.162 11.162 0 01-10.516-7.469h-11.89v14.938h141.906v-7.469h-119.5z" fill="url(#paint11_linear_1125_2828)"/><path d="M156.844 130.914h-12.929l-1.146 7.469h10.225c-2.054 33.273-31.369 59.75-67.103 59.75-35.735 0-65.05-26.477-67.103-59.75h10.224l-1.146-7.469H14.938a3.736 3.736 0 00-3.735 3.734c0 39.126 33.505 70.954 74.688 70.954 41.182 0 74.687-31.828 74.687-70.954a3.735 3.735 0 00-3.734-3.734z" fill="url(#paint12_linear_1125_2828)"/><path d="M76.555 95.438a7.925 7.925 0 01-11.203 0 7.925 7.925 0 00-11.204 0 23.769 23.769 0 00-6.721 13.443l-10.083 70.58 11.102-6.662a13.134 13.134 0 0114.631.747 13.12 13.12 0 0015.752 0 13.132 13.132 0 0114.631-.747 6.167 6.167 0 009.273-6.154l-8.253-57.764a23.77 23.77 0 00-6.722-13.443 7.924 7.924 0 00-11.203 0z" fill="#84D2F4"/><path d="M81.14 129.443l-.455-4.564a23.76 23.76 0 00-5.998-13.57 7.983 7.983 0 00-11.203-.717 7.926 7.926 0 01-11.102-.176 8.925 8.925 0 00-4.705-2.498c-.06.325-.168.635-.217.963l-10.116 70.58 11.102-6.662a13.134 13.134 0 0114.631.747 13.12 13.12 0 0015.752 0 13.132 13.132 0 0114.631-.747 6.167 6.167 0 009.273-6.154l-1.281-8.963a34.764 34.764 0 01-20.311-28.239z" fill="url(#paint13_linear_1125_2828)"/><defs><linearGradient id="paint0_linear_1125_2828" x1="89.431" y1="93.374" x2="128.137" y2="92.064" gradientUnits="userSpaceOnUse"><stop offset=".14" stop-color="#DEECF1"/><stop offset="1" stop-color="#74DAFF" stop-opacity=".52"/></linearGradient><linearGradient id="paint1_linear_1125_2828" x1="104.562" y1="56.227" x2="104.563" y2="127.18" gradientUnits="userSpaceOnUse"><stop stop-color="#DEECF1"/><stop offset="1" stop-color="#74DAFF" stop-opacity=".52"/></linearGradient><linearGradient id="paint2_linear_1125_2828" x1="99.656" y1="26.352" x2="99.656" y2="89.836" gradientUnits="userSpaceOnUse"><stop stop-color="#FAC600"/><stop offset="1" stop-color="#F90"/></linearGradient><linearGradient id="paint3_linear_1125_2828" x1="141.469" y1="1.858" x2="141.469" y2="169.886" gradientUnits="userSpaceOnUse"><stop stop-color="#FAC600"/><stop offset="1" stop-color="#F90"/></linearGradient><linearGradient id="paint4_linear_1125_2828" x1="49.006" y1="18.883" x2="49.006" y2="39.288" gradientUnits="userSpaceOnUse"><stop stop-color="#FAC600"/><stop offset="1" stop-color="#F90"/></linearGradient><linearGradient id="paint5_linear_1125_2828" x1="68.54" y1="74.734" x2="68.54" y2="152.249" gradientUnits="userSpaceOnUse"><stop stop-color="#FAC600"/><stop offset="1" stop-color="#F90"/></linearGradient><linearGradient id="paint6_linear_1125_2828" x1="7.677" y1="56.288" x2="48.074" y2="51.803" gradientUnits="userSpaceOnUse"><stop offset=".14" stop-color="#DEECF1"/><stop offset="1" stop-color="#74DAFF" stop-opacity=".52"/></linearGradient><linearGradient id="paint7_linear_1125_2828" x1="49.01" y1="22.867" x2="49.01" y2="39.288" gradientUnits="userSpaceOnUse"><stop stop-color="#FAC600"/><stop offset="1" stop-color="#F90"/></linearGradient><linearGradient id="paint8_linear_1125_2828" x1="112.156" y1="158.491" x2="5.045" y2="136.763" gradientUnits="userSpaceOnUse"><stop stop-color="#E24E74"/><stop offset=".49" stop-color="#FF5473" stop-opacity=".78"/><stop offset="1" stop-color="#FF7134" stop-opacity=".38"/></linearGradient><linearGradient id="paint9_linear_1125_2828" x1="16.875" y1="112.216" x2="107.064" y2="181.876" gradientUnits="userSpaceOnUse"><stop stop-color="#FF8357"/><stop offset="1" stop-color="#D56C74"/></linearGradient><linearGradient id="paint10_linear_1125_2828" x1="27.772" y1="168.085" x2="147.827" y2="180.098" gradientUnits="userSpaceOnUse"><stop stop-color="#882E0E"/><stop offset="1" stop-color="#530006"/></linearGradient><linearGradient id="paint11_linear_1125_2828" x1="117.081" y1="110.74" x2="78.715" y2="50.666" gradientUnits="userSpaceOnUse"><stop stop-color="#E24E74"/><stop offset=".49" stop-color="#FF5473" stop-opacity=".78"/><stop offset="1" stop-color="#FF7134" stop-opacity=".38"/></linearGradient><linearGradient id="paint12_linear_1125_2828" x1="85.891" y1="130.914" x2="85.891" y2="205.602" gradientUnits="userSpaceOnUse"><stop stop-color="#FFC69D"/><stop offset="1" stop-color="#FFF0E6"/></linearGradient><linearGradient id="paint13_linear_1125_2828" x1="47.968" y1="145.374" x2="104.429" y2="142.607" gradientUnits="userSpaceOnUse"><stop offset=".14" stop-color="#DEECF1"/><stop offset="1" stop-color="#74DAFF" stop-opacity=".52"/></linearGradient></defs></svg>