<svg width="155" height="205" fill="none" xmlns="http://www.w3.org/2000/svg"><path d="M86.427 15.256c-2.655 1.583-5.22 5.095-7.638 6.977-.977.76-1.933 1.254-2.859 1.245-4.186-.035-7.806-6.695-10.496-8.252L72.09 2.528A4.272 4.272 0 0175.48.236c1.653-.169 3.387.596 4.278 2.292l6.67 12.728z" fill="#C24040"/><path opacity=".2" d="M86.427 15.256c-2.655 1.583-5.22 5.095-7.638 6.977L75.481.235c1.652-.168 3.386.597 4.277 2.292l6.67 12.73z" fill="#740101"/><path d="M91.475 24.884v80.363H60.374V24.884s7.253-2.159 15.556-1.406c1.142.104 2.124.233 3.067.372 3.166.467 5.852 1.034 12.478 1.034z" fill="#E0DFDF"/><path d="M91.475 24.884v80.363H60.374V24.884s7.253-2.159 15.556-1.406c1.142.104 2.124.233 3.067.372 3.166.467 5.852 1.034 12.478 1.034z" fill="url(#paint0_linear_1125_2935)"/><path opacity=".2" d="M91.475 24.884v80.363H80.113V31.281l-1.116-7.43c3.166.466 5.852 1.033 12.478 1.033z" fill="#675DA5"/><path d="M91.475 24.884c-3.958 3.689-7.802 5.61-11.362 6.397-11.297 2.5-19.74-6.397-19.74-6.397l5.06-9.658c3.15 1.82 7.578 3.486 12.703 2.91 2.608-.29 5.394-1.159 8.291-2.88l5.048 9.628z" fill="url(#paint1_linear_1125_2935)"/><path opacity=".2" d="M91.475 24.884c-3.957 3.689-7.802 5.61-11.362 6.397l-1.977-13.144c2.609-.29 5.394-1.16 8.291-2.88l5.048 9.627z" fill="#772E18"/><path d="M60.167 118.452l-32.257 8.179-24.082-94.98L17.232 16.82l18.853 6.654 24.082 94.979z" fill="url(#paint2_linear_1125_2935)"/><path opacity=".2" d="M60.167 118.452l-10.814 2.742-24.082-94.98L27.954 14.1l8.13 9.373 24.083 94.979z" fill="#FECE85"/><path d="M23.327 3.839L5.69 8.31a7.541 7.541 0 00-5.456 9.163l3.595 14.178 32.257-8.18L32.49 9.296a7.54 7.54 0 00-9.163-5.456z" fill="url(#paint3_linear_1125_2935)"/><path opacity=".2" d="M32.49 9.297l3.595 14.176-10.812 2.741-3.594-14.176a7.544 7.544 0 00-9.164-5.456L23.327 3.84a7.543 7.543 0 019.164 5.457z" fill="#A51C26"/><path d="M105.341 90.584a8.236 8.236 0 009.996-5.978l10.634-42.283-9.556-2.403a6.618 6.618 0 00-8.032 4.804l-9.02 35.865a8.235 8.235 0 005.978 9.995z" fill="url(#paint4_linear_1125_2935)"/><path d="M119.463 47.336l30.552 7.686-23.787 94.561-30.552-7.685 23.787-94.562z" fill="#C8EFFE"/><path d="M151.872 43.48c-.476 3.194-.837 5.148-.837 5.148l-2.451.378-13.869 2.15-11.206-8.455-1.979-1.494s.608-1.892 1.696-4.93c2.27-6.312 6.637-17.576 12.031-27.05 1.26-2.212 3.858-3.3 6.329-2.68l8.177 2.057c2.471.624 4.244 2.807 4.31 5.357.266 10.893-1.212 22.883-2.201 29.52z" fill="url(#paint5_linear_1125_2935)"/><path d="M151.872 43.48c-.476 3.194-.837 5.148-.837 5.148l-2.451.378-25.075-6.305-1.979-1.494s.608-1.892 1.695-4.93l28.647 7.204z" fill="url(#paint6_linear_1125_2935)"/><path d="M147.899 61.102l-29.507-7.42a2.476 2.476 0 01-1.797-3.005l1.929-7.673a2.476 2.476 0 013.004-1.797l16.996 4.273c1.326.334 14.642 4.827 14.309 6.152l-1.93 7.673a2.468 2.468 0 01-2.039 1.846 2.49 2.49 0 01-.965-.049z" fill="url(#paint7_linear_1125_2935)"/><path d="M144.914 110.306l-1.13 14.802-5.161 67.589c-.498 6.497-5.914 11.514-12.428 11.514H29.491c-6.518 0-11.934-5.017-12.427-11.514l-5.166-67.589-1.13-14.802 67.075-12.44 67.071 12.44z" fill="#E24E74"/><path d="M144.914 110.306l-1.13 14.802-5.161 67.589c-.498 6.497-5.914 11.514-12.428 11.514H29.491c-6.518 0-11.934-5.017-12.427-11.514l-5.166-67.589-1.13-14.802 67.075-12.44 67.071 12.44z" fill="url(#paint8_linear_1125_2935)"/><path opacity=".2" d="M144.914 110.306l-1.13 14.802H11.898l-1.13-14.802 67.075-12.44 67.071 12.44z" fill="#252525"/><path d="M144.913 110.306l-6.291 82.391c-.497 6.498-5.914 11.515-12.427 11.515h-23.388c6.518 0 11.93-5.017 12.428-11.515l6.295-82.391-55.38-10.27 11.692-2.17 67.071 12.44z" fill="#E24E74"/><path d="M144.913 110.306l-6.291 82.391c-.497 6.498-5.914 11.515-12.427 11.515h-23.388c6.518 0 11.93-5.017 12.428-11.515l6.295-82.391-55.38-10.27 11.692-2.17 67.071 12.44z" fill="url(#paint9_linear_1125_2935)"/><path d="M147.903 110.307H7.781a6.202 6.202 0 01-6.202-6.202V91.626a6.201 6.201 0 016.202-6.201h140.122a6.2 6.2 0 016.201 6.201v12.479a6.201 6.201 0 01-6.201 6.202z" fill="#E24E74"/><path d="M147.903 110.307H7.781a6.202 6.202 0 01-6.202-6.202V91.626a6.201 6.201 0 016.202-6.201h140.122a6.2 6.2 0 016.201 6.201v12.479a6.201 6.201 0 01-6.201 6.202z" fill="url(#paint10_linear_1125_2935)"/><g opacity=".2"><path d="M154.104 91.625v12.48a6.2 6.2 0 01-6.201 6.202h-28.134a6.203 6.203 0 006.201-6.202v-12.48a6.203 6.203 0 00-6.201-6.202h28.134a6.201 6.201 0 016.201 6.202z" fill="#E24E74"/><path d="M154.104 91.625v12.48a6.2 6.2 0 01-6.201 6.202h-28.134a6.203 6.203 0 006.201-6.202v-12.48a6.203 6.203 0 00-6.201-6.202h28.134a6.201 6.201 0 016.201 6.202z" fill="url(#paint11_linear_1125_2935)"/></g><defs><linearGradient id="paint0_linear_1125_2935" x1="82.194" y1="73.603" x2="60.245" y2="73.286" gradientUnits="userSpaceOnUse"><stop stop-color="#D7A4FF"/><stop offset="1" stop-color="#F372BF"/></linearGradient><linearGradient id="paint1_linear_1125_2935" x1="75.924" y1="15.226" x2="75.924" y2="31.724" gradientUnits="userSpaceOnUse"><stop stop-color="#FFC69D"/><stop offset="1" stop-color="#EC9354"/></linearGradient><linearGradient id="paint2_linear_1125_2935" x1="31.998" y1="16.819" x2="31.998" y2="126.631" gradientUnits="userSpaceOnUse"><stop stop-color="#FAC600"/><stop offset="1" stop-color="#F90"/></linearGradient><linearGradient id="paint3_linear_1125_2935" x1="25.974" y1="14.807" x2="-6.252" y2="7.973" gradientUnits="userSpaceOnUse"><stop stop-color="#E24E74"/><stop offset=".49" stop-color="#FF5473" stop-opacity=".78"/><stop offset="1" stop-color="#FF7134" stop-opacity=".38"/></linearGradient><linearGradient id="paint4_linear_1125_2935" x1="112.542" y1="39.718" x2="112.542" y2="90.835" gradientUnits="userSpaceOnUse"><stop stop-color="#DEECF1"/><stop offset="1" stop-color="#74DAFF" stop-opacity=".52"/></linearGradient><linearGradient id="paint5_linear_1125_2935" x1="137.817" y1="6.375" x2="137.817" y2="51.157" gradientUnits="userSpaceOnUse"><stop stop-color="#DEECF1"/><stop offset="1" stop-color="#74DAFF" stop-opacity=".52"/></linearGradient><linearGradient id="paint6_linear_1125_2935" x1="136.701" y1="36.277" x2="136.701" y2="49.006" gradientUnits="userSpaceOnUse"><stop stop-color="#DEECF1"/><stop offset="1" stop-color="#74DAFF" stop-opacity=".52"/></linearGradient><linearGradient id="paint7_linear_1125_2935" x1="134.68" y1="41.133" x2="134.68" y2="61.177" gradientUnits="userSpaceOnUse"><stop stop-color="#6BD9E7"/><stop offset="1" stop-color="#A8F5FF"/></linearGradient><linearGradient id="paint8_linear_1125_2935" x1="104.885" y1="163.136" x2="10.411" y2="158.605" gradientUnits="userSpaceOnUse"><stop stop-color="#C3DC2B"/><stop offset="1" stop-color="#6DB84A"/></linearGradient><linearGradient id="paint9_linear_1125_2935" x1="125" y1="196.712" x2="121.578" y2="118.868" gradientUnits="userSpaceOnUse"><stop stop-color="#D4F700"/><stop offset="1" stop-color="#C4DD2C"/></linearGradient><linearGradient id="paint10_linear_1125_2935" x1="108.591" y1="100.696" x2="6.473" y2="76.896" gradientUnits="userSpaceOnUse"><stop stop-color="#C3DC2B"/><stop offset="1" stop-color="#6DB84A"/></linearGradient><linearGradient id="paint11_linear_1125_2935" x1="145.423" y1="108.552" x2="144.993" y2="90.313" gradientUnits="userSpaceOnUse"><stop stop-color="#D4F700"/><stop offset="1" stop-color="#C4DD2C"/></linearGradient></defs></svg>