<svg width="591" height="286" fill="none" xmlns="http://www.w3.org/2000/svg"><path d="M590.441 163.328c-.715.54-4.202 6.088-10.461 16.644-11.283 19.325-20.418 30.868-27.403 34.627-1.974 1.071-3.317 1.167-4.032.266-.715-.902-1.072-3.048-1.072-6.441 0-3.222.536-7.517 1.608-12.885 1.79-7.516 5.194-18.257 10.213-32.224 3.399-9.127 5.279-14.942 5.64-17.444 1.078-5.725.004-8.589-3.221-8.592-3.409.177-7.622 4.472-12.64 12.885l-.537.806-.536-2.147c-1.618-6.436-4.392-10.548-8.32-12.336-.898-.357-2.242-.536-4.032-.536a14.027 14.027 0 00-4.298.536c-6.102 2.148-11.296 7.606-15.582 16.373-3.286 6.567-4.985 13.173-5.095 19.818-7.264 11.377-13.089 19.177-17.474 23.401-2.868 2.86-5.107 4.291-6.717 4.294-1.075 0-1.612-1.253-1.612-3.758 0-3.757 1.97-11.631 5.91-23.624 4.649-14.129 6.974-23.433 6.974-27.913 0-2.859-.538-5.008-1.613-6.445-1.435-1.968-3.495-2.415-6.18-1.341-4.836 1.789-11.462 9.036-19.88 21.743-.321.646-.68 1.273-1.077 1.877a10.712 10.712 0 01-1.342 1.611l.806-2.413c1.97-5.367 3.224-10.11 3.762-14.226.357-3.58-.359-6.175-2.149-7.786a3.334 3.334 0 00-1.883-.536c-1.97 0-4.295 1.61-6.974 4.829-3.586 4.477-8.244 12.262-13.974 23.354-3.405 6.442-5.73 10.29-6.974 11.544l-.806.806v-1.881c.174-1.429 1.159-5.544 2.955-12.346 1.253-4.833 1.969-8.317 2.149-10.451 0-1.611-.183-2.774-.536-3.483-.898-1.969-2.152-2.953-3.762-2.953-1.076 0-1.795.632-2.148 1.881-.364.715-1.081 2.861-2.154 6.441a105.775 105.775 0 00-2.881 11.152c-2.513.473-5.056.78-7.61.919-1.613 0-2.598.09-2.955.27h-.806l.536-4.028a31.483 31.483 0 000-5.905c-.361-5.751-2.336-9.605-5.928-11.562-2.511-1.428-5.562-.981-9.153 1.342-2.325 1.611-5.056 4.251-8.194 7.921a84.217 84.217 0 00-6.974 9.345 2.45 2.45 0 00.131-.353 1.082 1.082 0 00-.107-.618 1.08 1.08 0 00-.43-.458c-.216.201-.41.426-.575.671.405-1.189.95-2.661 1.648-4.429 2.862-7.69 6.176-13.238 9.942-16.643 1.429-1.428 1.965-2.367 1.608-2.817-.357-.436-1.255-.31-2.685.405-4.481 2.148-8.868 7.069-13.163 14.762a89.713 89.713 0 00-4.167 8.321 72.436 72.436 0 00-3.356 10.064c-.892 3.341-1.722 6.992-2.489 10.952-10.025 16.547-18.241 26.542-24.648 29.985-1.97 1.071-3.313 1.167-4.027.266-.715-.902-1.077-3.048-1.077-6.441 0-3.222.538-7.517 1.613-12.885 1.787-7.516 5.189-18.257 10.208-32.224 3.402-9.127 5.284-14.942 5.644-17.444 1.072-5.725-.003-8.589-3.225-8.592-3.406.177-7.619 4.472-12.64 12.885l-.536.806-.537-2.147c-1.612-6.445-4.389-10.561-8.329-12.349-.901-.357-2.245-.536-4.032-.536a13.963 13.963 0 00-4.297.536c-6.102 2.148-11.298 7.606-15.587 16.373-3.402 6.802-5.104 13.647-5.104 20.536 0 6.889 1.72 11.853 5.161 14.893 4.478 4.119 9.493 3.582 15.046-1.611 3.94-3.757 8.153-10.467 12.64-20.132.174-.174.71-1.248 1.608-3.222.898-1.974 1.571-3.405 2.018-4.294.445-.894 1.116-2.325 2.014-4.293a32.919 32.919 0 012.415-4.547 166.156 166.156 0 002.419-3.758 24.99 24.99 0 012.685-3.623 8.941 8.941 0 012.419-2.016c1.252-.891 1.878-1.07 1.878-.535 0 .72-1.522 3.493-4.568 8.321-4.649 7.876-8.589 16.823-11.82 26.842-3.231 10.018-4.664 19.146-4.298 27.382.358 8.947 2.418 14.317 6.181 16.112a5.082 5.082 0 003.09.67 11.335 11.335 0 003.626-.94c5.55-3.04 12.805-11.54 21.763-25.501.353-.57.732-1.193 1.129-1.846-.732 4.163-1.557 9.073-2.476 14.731-2.124 12.96-4.207 23.473-6.25 31.541-4.053 4.389-9.402 8.371-16.044 11.944a81.525 81.525 0 01-22.033 8.056 58.401 58.401 0 01-13.442 1.063 48.537 48.537 0 01-16.389-3.223c-13.433-5.19-22.296-15.206-26.587-30.046-1.971-6.439-2.775-13.865-2.415-22.278.537-16.818 5.822-37.933 15.852-63.347 4.115-10.555 11.727-27.555 22.835-51 7.703-15.927 13.256-28.275 16.659-37.045 6.085-15.032 9.309-26.663 9.672-34.893.174-2.86-.095-5.097-.807-6.71a8.778 8.778 0 01-.27-2.553c0-1.16-.178-1.831-.536-2.011-.898-.892-1.614-.623-2.149.805-.717 1.611-1.524 4.385-2.419 8.322-2.868 11.275-8.509 24.07-16.924 38.381-10.409 17.883-24.031 36.847-40.867 56.893-5.196 6.439-11.643 13.865-19.344 22.278-10.208 11.261-17.731 19.761-22.569 25.5-1.072 1.435-2.012 2.596-2.82 3.484-.808.888-1.212 1.247-1.212 1.076l.271-1.881c1.787-9.29 3.444-24.142 4.973-44.557 1.528-20.414 3.453-35.365 5.775-44.852 2.508-11.09 6.358-19.857 11.551-26.302 1.432-1.968 2.866-3.4 4.302-4.298.71-.357 1.028-.579.937-.67-.092-.092-.044-.222.135-.4.892-.358.266-.985-1.879-1.882-2.688-1.071-5.912-1.25-9.672-.536-3.76.715-7.835 2.28-12.226 4.699a73.25 73.25 0 00-12.762 8.992c-5.736 5.19-11.111 11.543-16.127 19.056-6.102 8.953-12.012 20.674-17.731 35.163-1.435 3.586-3.853 10.386-7.253 20.401-6.973 19.161-12.616 33.566-16.929 43.215-10.568 23.446-22.837 41.163-36.808 53.153-11.821 10.198-24.717 16.46-38.688 18.785a50.67 50.67 0 01-12.64 1.076c-10.21-.357-19.525-2.504-27.943-6.441-14.869-7.339-25.257-19.508-31.164-36.509a85.195 85.195 0 01-4.302-20.131 96.39 96.39 0 01.27-21.472 102.326 102.326 0 0111.555-36.239c5.55-10.556 12.445-19.324 20.686-26.306 8.24-6.982 17.103-11.544 26.588-13.687 8.057-1.968 15.848-2.148 23.37-.54 6.451 1.612 11.736 4.207 15.853 7.786 2.15 1.789 4.039 4.384 5.666 7.786 1.965 3.754 3.576 5.274 4.834 4.56 1.252-.894.895-2.951-1.072-6.17a23.59 23.59 0 00-4.302-6.176c-5.911-6.796-14.15-10.732-24.718-11.81a56.028 56.028 0 00-25.524 2.683c-14.332 5.01-26.78 15.026-37.345 30.047a103.26 103.26 0 00-11.55 21.472A114.202 114.202 0 005 170.535a88.509 88.509 0 001.613 16.909c3.045 15.386 9.045 28.001 18.001 37.846 11.457 12.529 26.503 19.51 45.138 20.941a78.217 78.217 0 0037.075-6.445c10.751-4.471 20.827-11.494 30.227-21.072 9.4-9.577 17.775-21.163 25.123-34.758 6.622-12.167 14.95-32.209 24.984-60.128 4.838-13.244 8.69-22.997 11.555-29.259 7.88-18.254 16.836-32.302 26.866-42.143 9.494-8.945 17.823-13.508 24.989-13.691 1.072 0 1.608.048 1.608.135 0 .087-.266.226-.802.405-1.976.714-4.842 3.308-8.6 7.781a50.079 50.079 0 00-5.64 8.056c-5.198 9.665-8.781 21.654-10.748 35.97-1.078 8.052-1.975 18.794-2.689 32.223-.887 20.96-2.226 36.181-4.019 45.663l-.536 2.682-2.153 2.687c-7.701 9.841-12.447 17.089-14.24 21.742-1.072 2.508-1.385 4.52-.937 6.036.447 1.515 1.566 2.187 3.356 2.016 2.508-.177 5.284-2.594 8.329-7.251 3.941-5.904 7.427-13.687 10.461-23.349.18-.897 1.434-2.687 3.762-5.369 6.102-6.967 14.431-16.005 24.988-27.112 10.388-11.095 18.627-20.221 24.718-27.377a409.212 409.212 0 0025.79-34.362l2.689-3.758h.266c-.18.363-.716 1.347-1.608 2.952-6.103 12.35-11.387 23.624-15.853 33.822-15.944 36.869-23.644 67.47-23.101 91.804a91.324 91.324 0 001.609 15.032c3.763 17 12.271 28.99 25.524 35.969 8.601 4.645 18.19 6.703 28.767 6.175 2.15-.183 4.748-.542 7.793-1.076a74.04 74.04 0 0030.894-12.628 64.864 64.864 0 007.026-5.487 91.2 91.2 0 01-1.926 6.022c-5.015 14.669-11.912 24.964-20.691 30.883a40.113 40.113 0 01-8.599 4.564c-1.609.535-2.415.979-2.415 1.341-.02.293.075.582.266.805.54.538 2.332.269 5.374-.805 7.523-2.323 14.24-6.967 20.15-13.935 8.598-10.204 15.046-24.429 19.344-42.675 1.432-6.096 3.314-16.476 5.644-31.139 1.97-11.987 3.269-19.28 3.897-21.878.628-2.598 3.269-6.937 7.924-13.016 6.625-8.764 11.731-12.974 15.316-12.628 1.073 0 1.789.716 2.149 2.147.358 2.148.268 4.832-.27 8.051-.715 4.477-1.431 7.608-2.149 9.393-.18.363-.806.722-1.878 1.076a24.941 24.941 0 00-9.154 6.175 23.42 23.42 0 00-4.703 8.857c-.985 3.402-1.03 6.086-.135 8.051.715 1.612 1.79 2.596 3.226 2.953 4.12 1.077 8.688-1.876 13.703-8.857a47.223 47.223 0 007.789-14.497c.541-1.785.894-2.769 1.077-2.952.183-.183 1.342-.266 3.487-.266a48.164 48.164 0 007.989-1.006c-.581 3.803-.648 6.912-.2 9.328.537 2.508 1.477 4.296 2.82 5.365 1.342 1.068 2.91 1.158 4.703.27a10.04 10.04 0 002.554-2.282 27.812 27.812 0 002.82-4.564c1.072-2.055 2.505-5.141 4.297-9.258 5.376-11.629 9.944-19.862 13.704-24.699l.806-.801c2.151-2.323 3.224-2.86 3.221-1.611 0 .36-.895 2.328-2.685 5.905-3.588 6.801-6.006 12.706-7.252 17.714-2.325 9.307-1.52 14.139 2.414 14.496a3.449 3.449 0 002.69-1.21c.714-.801 2.147-3.082 4.297-6.841 5.925-10.564 11.127-18.353 15.604-23.367a27.184 27.184 0 013.631-3.484 14.536 14.536 0 013.356-2.146c.895-.358 1.523-.358 1.883 0 .352 1.077-.902 6.356-3.761 15.837-8.241 27.562-9.403 42.684-3.487 45.366 1.075.534 2.329.534 3.761 0 1.79-.714 4.029-2.415 6.717-5.103 5.23-5.226 10.648-12.29 16.253-21.194.445 5.295 2.1 9.22 4.965 11.775 4.475 4.119 9.49 3.582 15.046-1.611 3.937-3.757 8.151-10.467 12.64-20.132.174-.174.715-1.249 1.613-3.222.897-1.973 1.564-3.397 2.013-4.294.449-.897 1.116-2.325 2.014-4.293a33.92 33.92 0 012.419-4.564 168.444 168.444 0 002.419-3.758 25.008 25.008 0 012.685-3.623 9.005 9.005 0 012.419-2.016c1.251-.893 1.883-1.071 1.883-.536 0 .72-1.523 3.494-4.568 8.322-4.649 7.876-8.589 16.823-11.821 26.842-3.231 10.018-4.665 19.145-4.302 27.381.358 8.947 2.418 14.318 6.181 16.112a5.091 5.091 0 003.09.671 11.342 11.342 0 003.627-.941c5.55-3.039 12.804-11.539 21.762-25.5 2.325-3.757 5.549-9.303 9.672-16.639 4.124-7.336 6.274-11.363 6.451-12.08a1.089 1.089 0 00-.553-1.067zm-244.756-4.829c-8.061 14.675-14.33 23.085-18.808 25.231-2.147 1.254-3.579 1.075-4.297-.536-.898-1.968-.898-5.101 0-9.397a69.98 69.98 0 013.761-12.084 94.693 94.693 0 015.776-12.076c2.057-3.579 3.893-5.996 5.509-7.25a3.147 3.147 0 012.284-.671c.715.06 1.406.29 2.014.671 2.687 2.323 4.479 5.902 5.374 10.739l.27 1.611-1.883 3.762zm-131.914 29.777c-2.688 6.265-5.286 10.291-7.794 12.079-.719.536-1.072.436-1.072-.27 0-2.322 1.521-5.633 4.564-9.932a461.07 461.07 0 002.419-3.218c1.076-1.433 2.593-3.31 4.567-5.64.166.552-.729 2.879-2.684 6.981zm192.364-5.905c-1.976 4.294-3.946 7.246-5.91 8.857-.898.897-1.613.984-2.149.27s-.719-2.055-.54-4.028c.357-5.545 2.865-9.84 7.523-12.885 3.048-1.968 4.75-2.774 5.108-2.417.537.372-.806 3.778-4.032 10.22v-.017zM544.5 158.499c-8.063 14.675-14.332 23.085-18.807 25.231-2.153 1.254-3.587 1.075-4.302-.536-.898-1.968-.898-5.101 0-9.397a69.98 69.98 0 013.761-12.084 95.19 95.19 0 015.78-12.076c2.054-3.562 3.889-5.977 5.505-7.246a3.146 3.146 0 012.284-.67c.716.06 1.408.29 2.018.67 2.685 2.323 4.475 5.902 5.37 10.739l.27 1.611-1.879 3.758z" fill="url(#paint0_linear_1201_3476)" fill-opacity=".2"/><path d="M585.441 158.328c-.715.54-4.202 6.088-10.461 16.644-11.283 19.325-20.418 30.868-27.403 34.627-1.974 1.071-3.317 1.167-4.032.266-.715-.902-1.072-3.048-1.072-6.441 0-3.222.536-7.517 1.608-12.885 1.79-7.516 5.194-18.257 10.213-32.224 3.399-9.127 5.279-14.942 5.64-17.444 1.078-5.725.004-8.589-3.221-8.592-3.409.177-7.622 4.472-12.64 12.885l-.537.806-.536-2.147c-1.618-6.436-4.392-10.548-8.32-12.336-.898-.357-2.242-.536-4.032-.536a14.027 14.027 0 00-4.298.536c-6.102 2.148-11.296 7.606-15.582 16.373-3.286 6.567-4.985 13.173-5.095 19.818-7.264 11.377-13.089 19.177-17.474 23.401-2.868 2.86-5.107 4.291-6.717 4.294-1.075 0-1.612-1.253-1.612-3.758 0-3.757 1.97-11.631 5.91-23.624 4.649-14.129 6.974-23.433 6.974-27.913 0-2.859-.538-5.008-1.613-6.445-1.435-1.968-3.495-2.415-6.18-1.341-4.836 1.789-11.462 9.036-19.88 21.743-.321.646-.68 1.273-1.077 1.877a10.712 10.712 0 01-1.342 1.611l.806-2.413c1.97-5.367 3.224-10.11 3.762-14.226.357-3.58-.359-6.175-2.149-7.786a3.334 3.334 0 00-1.883-.536c-1.97 0-4.295 1.61-6.974 4.829-3.586 4.477-8.244 12.262-13.974 23.354-3.405 6.442-5.73 10.29-6.974 11.544l-.806.806v-1.881c.174-1.429 1.159-5.544 2.955-12.346 1.253-4.833 1.969-8.317 2.149-10.451 0-1.611-.183-2.774-.536-3.483-.898-1.969-2.152-2.953-3.762-2.953-1.076 0-1.795.632-2.148 1.881-.364.715-1.081 2.861-2.154 6.441a105.775 105.775 0 00-2.881 11.152c-2.513.473-5.056.78-7.61.919-1.613 0-2.598.09-2.955.27h-.806l.536-4.028a31.483 31.483 0 000-5.905c-.361-5.751-2.336-9.605-5.928-11.562-2.511-1.428-5.562-.981-9.153 1.342-2.325 1.611-5.056 4.251-8.194 7.921a84.217 84.217 0 00-6.974 9.345 2.45 2.45 0 00.131-.353 1.082 1.082 0 00-.107-.618 1.08 1.08 0 00-.43-.458c-.216.201-.41.426-.575.671.405-1.189.95-2.661 1.648-4.429 2.862-7.69 6.176-13.238 9.942-16.643 1.429-1.428 1.965-2.367 1.608-2.817-.357-.436-1.255-.31-2.685.405-4.481 2.148-8.868 7.069-13.163 14.762a89.713 89.713 0 00-4.167 8.321 72.436 72.436 0 00-3.356 10.064c-.892 3.341-1.722 6.992-2.489 10.952-10.025 16.547-18.241 26.542-24.648 29.985-1.97 1.071-3.313 1.167-4.027.266-.715-.902-1.077-3.048-1.077-6.441 0-3.222.538-7.517 1.613-12.885 1.787-7.516 5.189-18.257 10.208-32.224 3.402-9.127 5.284-14.942 5.644-17.444 1.072-5.725-.003-8.589-3.225-8.592-3.406.177-7.619 4.472-12.64 12.885l-.536.806-.537-2.147c-1.612-6.445-4.389-10.561-8.329-12.349-.901-.357-2.245-.536-4.032-.536a13.963 13.963 0 00-4.297.536c-6.102 2.148-11.298 7.606-15.587 16.373-3.402 6.802-5.104 13.647-5.104 20.536 0 6.889 1.72 11.853 5.161 14.893 4.478 4.119 9.493 3.582 15.046-1.611 3.94-3.757 8.153-10.467 12.64-20.132.174-.174.71-1.248 1.608-3.222.898-1.974 1.571-3.405 2.018-4.294.445-.894 1.116-2.325 2.014-4.293a32.919 32.919 0 012.415-4.547 166.156 166.156 0 002.419-3.758 24.99 24.99 0 012.685-3.623 8.941 8.941 0 012.419-2.016c1.252-.891 1.878-1.07 1.878-.535 0 .72-1.522 3.493-4.568 8.321-4.649 7.876-8.589 16.823-11.82 26.842-3.231 10.018-4.664 19.146-4.298 27.382.358 8.947 2.418 14.317 6.181 16.112a5.082 5.082 0 003.09.67 11.335 11.335 0 003.626-.94c5.55-3.04 12.805-11.54 21.763-25.501.353-.57.732-1.193 1.129-1.846-.732 4.163-1.557 9.073-2.476 14.731-2.124 12.96-4.207 23.473-6.25 31.541-4.053 4.389-9.402 8.371-16.044 11.944a81.525 81.525 0 01-22.033 8.056 58.401 58.401 0 01-13.442 1.063 48.537 48.537 0 01-16.389-3.223c-13.433-5.19-22.296-15.206-26.587-30.046-1.971-6.439-2.775-13.865-2.415-22.278.537-16.818 5.822-37.933 15.852-63.347 4.115-10.555 11.727-27.555 22.835-51 7.703-15.927 13.256-28.275 16.659-37.045 6.085-15.032 9.309-26.663 9.672-34.893.174-2.86-.095-5.097-.807-6.71a8.778 8.778 0 01-.27-2.553c0-1.16-.178-1.831-.536-2.011-.898-.892-1.614-.623-2.149.805-.717 1.611-1.524 4.385-2.419 8.322-2.868 11.275-8.509 24.07-16.924 38.381-10.409 17.883-24.031 36.847-40.867 56.893-5.196 6.439-11.643 13.865-19.344 22.278-10.208 11.261-17.731 19.761-22.569 25.5-1.072 1.435-2.012 2.596-2.82 3.484-.808.888-1.212 1.247-1.212 1.076l.271-1.881c1.787-9.29 3.444-24.142 4.973-44.557 1.528-20.414 3.453-35.365 5.775-44.852 2.508-11.09 6.358-19.857 11.551-26.302 1.432-1.968 2.866-3.4 4.302-4.298.71-.357 1.028-.579.937-.67-.092-.092-.044-.222.135-.4.892-.358.266-.985-1.879-1.882-2.688-1.071-5.912-1.25-9.672-.536-3.76.715-7.835 2.28-12.226 4.699a73.25 73.25 0 00-12.762 8.992c-5.736 5.19-11.111 11.543-16.127 19.056-6.102 8.953-12.012 20.674-17.731 35.163-1.435 3.586-3.853 10.386-7.253 20.401-6.973 19.161-12.616 33.566-16.929 43.215-10.568 23.446-22.837 41.163-36.808 53.153-11.821 10.198-24.717 16.46-38.688 18.785a50.67 50.67 0 01-12.64 1.076c-10.21-.357-19.525-2.504-27.943-6.441-14.869-7.339-25.257-19.508-31.164-36.509a85.196 85.196 0 01-4.302-20.131 96.39 96.39 0 01.27-21.472 102.326 102.326 0 0111.555-36.239c5.55-10.556 12.445-19.324 20.686-26.306 8.24-6.982 17.103-11.544 26.587-13.687 8.058-1.968 15.849-2.148 23.372-.54 6.45 1.612 11.734 4.207 15.852 7.786 2.15 1.789 4.039 4.384 5.666 7.786 1.965 3.754 3.576 5.274 4.834 4.56 1.252-.894.895-2.951-1.072-6.17a23.59 23.59 0 00-4.302-6.176c-5.911-6.796-14.15-10.732-24.718-11.81a56.028 56.028 0 00-25.524 2.683c-14.332 5.01-26.78 15.026-37.345 30.047a103.259 103.259 0 00-11.55 21.472A114.202 114.202 0 000 165.535a88.509 88.509 0 001.613 16.909c3.045 15.386 9.045 28.001 18.001 37.846 11.457 12.529 26.503 19.51 45.138 20.941a78.217 78.217 0 0037.075-6.445c10.751-4.471 20.827-11.494 30.227-21.072 9.4-9.577 17.775-21.163 25.123-34.758 6.622-12.167 14.95-32.209 24.984-60.128 4.838-13.244 8.69-22.997 11.555-29.259 7.88-18.254 16.836-32.302 26.866-42.143 9.494-8.945 17.823-13.508 24.989-13.691 1.072 0 1.608.048 1.608.135 0 .087-.266.226-.802.405-1.976.714-4.842 3.308-8.6 7.781a50.079 50.079 0 00-5.64 8.056c-5.198 9.665-8.781 21.654-10.748 35.97-1.078 8.052-1.975 18.794-2.689 32.223-.887 20.96-2.226 36.181-4.019 45.663l-.536 2.682-2.153 2.687c-7.701 9.841-12.447 17.089-14.24 21.742-1.072 2.508-1.385 4.52-.937 6.036.447 1.515 1.566 2.187 3.356 2.016 2.508-.177 5.284-2.594 8.329-7.251 3.941-5.904 7.427-13.687 10.461-23.349.18-.897 1.434-2.687 3.762-5.369 6.102-6.967 14.431-16.005 24.988-27.112 10.388-11.095 18.627-20.221 24.718-27.377a409.196 409.196 0 0025.79-34.362l2.689-3.758h.266c-.18.363-.716 1.347-1.608 2.952-6.103 12.35-11.387 23.624-15.853 33.822-15.944 36.869-23.644 67.47-23.101 91.804a91.324 91.324 0 001.609 15.032c3.763 17 12.271 28.99 25.524 35.969 8.601 4.645 18.19 6.703 28.767 6.175 2.15-.183 4.748-.542 7.793-1.076a74.04 74.04 0 0030.894-12.628 64.864 64.864 0 007.026-5.487 91.2 91.2 0 01-1.926 6.022c-5.015 14.669-11.912 24.964-20.691 30.883a40.113 40.113 0 01-8.599 4.564c-1.609.535-2.415.979-2.415 1.341-.02.293.075.582.266.805.54.538 2.332.269 5.374-.805 7.523-2.323 14.24-6.967 20.15-13.935 8.598-10.204 15.046-24.429 19.344-42.675 1.432-6.096 3.314-16.476 5.644-31.139 1.97-11.987 3.269-19.28 3.897-21.878.628-2.598 3.269-6.937 7.924-13.016 6.625-8.764 11.731-12.974 15.316-12.628 1.073 0 1.789.716 2.149 2.147.358 2.148.268 4.832-.27 8.051-.715 4.477-1.431 7.608-2.149 9.393-.18.363-.806.722-1.878 1.076a24.941 24.941 0 00-9.154 6.175 23.42 23.42 0 00-4.703 8.857c-.985 3.402-1.03 6.086-.135 8.051.715 1.612 1.79 2.596 3.226 2.953 4.12 1.077 8.688-1.876 13.703-8.857a47.223 47.223 0 007.789-14.497c.541-1.785.894-2.769 1.077-2.952.183-.183 1.342-.266 3.487-.266a48.164 48.164 0 007.989-1.006c-.581 3.803-.648 6.912-.2 9.328.537 2.508 1.477 4.296 2.82 5.365 1.342 1.068 2.91 1.158 4.703.27a10.04 10.04 0 002.554-2.282 27.812 27.812 0 002.82-4.564c1.072-2.055 2.505-5.141 4.297-9.258 5.376-11.629 9.944-19.862 13.704-24.699l.806-.801c2.151-2.323 3.224-2.86 3.221-1.611 0 .36-.895 2.328-2.685 5.905-3.588 6.801-6.006 12.706-7.252 17.714-2.325 9.307-1.52 14.139 2.414 14.496a3.449 3.449 0 002.69-1.21c.714-.801 2.147-3.082 4.297-6.841 5.925-10.564 11.127-18.353 15.604-23.367a27.184 27.184 0 013.631-3.484 14.536 14.536 0 013.356-2.146c.895-.358 1.523-.358 1.883 0 .352 1.077-.902 6.356-3.761 15.837-8.241 27.562-9.403 42.684-3.487 45.366 1.075.534 2.329.534 3.761 0 1.79-.714 4.029-2.415 6.717-5.103 5.23-5.226 10.648-12.29 16.253-21.194.445 5.295 2.1 9.22 4.965 11.775 4.475 4.119 9.49 3.582 15.046-1.611 3.937-3.757 8.151-10.467 12.64-20.132.174-.174.715-1.249 1.613-3.222.897-1.973 1.564-3.397 2.013-4.294.449-.897 1.116-2.325 2.014-4.293a33.92 33.92 0 012.419-4.564 168.444 168.444 0 002.419-3.758 25.008 25.008 0 012.685-3.623 9.005 9.005 0 012.419-2.016c1.251-.893 1.883-1.071 1.883-.536 0 .72-1.523 3.494-4.568 8.322-4.649 7.876-8.589 16.823-11.821 26.842-3.231 10.018-4.665 19.145-4.302 27.381.358 8.947 2.418 14.318 6.181 16.112a5.091 5.091 0 003.09.671 11.342 11.342 0 003.627-.941c5.55-3.039 12.804-11.539 21.762-25.5 2.325-3.757 5.549-9.303 9.672-16.639 4.124-7.336 6.274-11.363 6.451-12.08a1.089 1.089 0 00-.553-1.067zm-244.756-4.829c-8.061 14.675-14.33 23.085-18.808 25.231-2.147 1.254-3.579 1.075-4.297-.536-.898-1.968-.898-5.101 0-9.397a69.98 69.98 0 013.761-12.084 94.693 94.693 0 015.776-12.076c2.057-3.579 3.893-5.996 5.509-7.25a3.147 3.147 0 012.284-.671c.715.06 1.406.29 2.014.671 2.687 2.323 4.479 5.902 5.374 10.739l.27 1.611-1.883 3.762zm-131.914 29.777c-2.688 6.265-5.286 10.291-7.794 12.079-.719.536-1.072.436-1.072-.27 0-2.322 1.521-5.633 4.564-9.932a461.07 461.07 0 002.419-3.218c1.076-1.433 2.593-3.31 4.567-5.64.166.552-.729 2.879-2.684 6.981zm192.364-5.905c-1.976 4.294-3.946 7.246-5.91 8.857-.898.897-1.613.984-2.149.27s-.719-2.055-.54-4.028c.357-5.545 2.865-9.84 7.523-12.885 3.048-1.968 4.75-2.774 5.108-2.417.537.372-.806 3.778-4.032 10.22v-.017zM539.5 153.499c-8.063 14.675-14.332 23.085-18.807 25.231-2.153 1.254-3.587 1.075-4.302-.536-.898-1.968-.898-5.101 0-9.397a69.98 69.98 0 013.761-12.084 95.19 95.19 0 015.78-12.076c2.054-3.562 3.889-5.977 5.505-7.246a3.146 3.146 0 012.284-.67c.716.06 1.408.29 2.018.67 2.685 2.323 4.475 5.902 5.37 10.739l.27 1.611-1.879 3.758z" fill="url(#paint1_linear_1201_3476)"/><defs><linearGradient id="paint0_linear_1201_3476" x1="13" y1="145" x2="591" y2="243" gradientUnits="userSpaceOnUse"><stop stop-color="#B94C25"/><stop offset="1" stop-color="#A41923"/></linearGradient><linearGradient id="paint1_linear_1201_3476" x1="8" y1="140" x2="586" y2="238" gradientUnits="userSpaceOnUse"><stop stop-color="#FF8357"/><stop offset="1" stop-color="#D56C74"/></linearGradient></defs></svg>