<svg width="218" height="219" fill="none" xmlns="http://www.w3.org/2000/svg"><path d="M64.251 113.956v98.635a5.621 5.621 0 005.622 5.621h45.622l32.801-19.788 17.684 19.788h41.236a5.62 5.62 0 005.621-5.621v-96.442a2.195 2.195 0 00-1.353-2.026 2.204 2.204 0 00-.84-.167H165.98l-27.436 15.45-23.049-15.45H64.251z" fill="#FE7AB6"/><path opacity=".6" d="M211.03 113.956h-13.159a2.2 2.2 0 011.551.643 2.178 2.178 0 01.643 1.55v96.442a5.622 5.622 0 01-5.622 5.621h13.159a5.62 5.62 0 005.621-5.621v-96.442a2.195 2.195 0 00-1.353-2.026 2.204 2.204 0 00-.84-.167z" fill="url(#paint0_linear_1129_3148)"/><path d="M115.495 113.956h50.485v104.256h-50.485V113.956z" fill="#FF992B"/><path d="M192.626 89.256l-10.083 5.301c-2.044 1.075-4.434-.661-4.043-2.937l1.926-11.228a2.786 2.786 0 00-.802-2.466l-8.158-7.952c-1.653-1.612-.741-4.42 1.545-4.753l11.274-1.638a2.789 2.789 0 002.097-1.524l5.042-10.216c1.022-2.071 3.975-2.071 4.997 0l5.042 10.216a2.784 2.784 0 002.098 1.524l4.81.7 5.147 1.377c2.285.332 3.198 3.14 1.545 4.752l-7.72 7.075a2.795 2.795 0 00-.801 2.466l1.487 9.913c.391 2.276-1.999 4.011-4.043 2.937l-4.706-1.412-4.061-2.135a2.787 2.787 0 00-2.593 0z" fill="url(#paint1_linear_1129_3148)"/><path opacity=".5" d="M216.379 69.974c1.654-1.612.741-4.42-1.544-4.753l-6.464-.94a2.74 2.74 0 01-.765 2.622l-8.158 7.952a2.796 2.796 0 00-.801 2.466l1.926 11.228c.209 1.222-.385 2.282-1.293 2.842l6.023 3.166c2.044 1.075 4.433-.661 4.043-2.937l-1.926-11.228a2.796 2.796 0 01.801-2.466l8.158-7.953z" fill="#FFC344"/><path d="M7.258 80.76l23.644-9.34L69.87 96.94l-28.315 11.978c-5.623 5.623-15.124 3.955-18.495-3.248l-2.817-6.02a.412.412 0 00-.663-.115c-4.478 4.478-11.738 4.478-16.217 0-5.836-5.837-3.78-15.743 3.896-18.775z" fill="url(#paint2_linear_1129_3148)"/><path d="M30.902 71.42a10.001 10.001 0 002.541 4.29l23.76 23.762 14.075-14.075-29.41-18.308-10.966 4.331z" fill="#FFC344"/><path d="M57.888 77.784a3.322 3.322 0 01-.556.447l-2.637 1.685-4.195 2.796-6.203 3.853-10.001 6.394a3.29 3.29 0 01-3.545-5.544l8.782-5.615L45 78.23l4.931-3.078 3.856-2.465a3.29 3.29 0 014.101 5.097z" fill="#FF7A00" fill-opacity=".6"/><path d="M80.858 7.78l-.948 1.306L66.877 42.08l20.757 26.961 17.97-24.172c5.623-5.624 3.955-15.124-3.248-18.495l-6.019-2.817a.41.41 0 01-.116-.663c4.478-4.478 4.478-11.74 0-16.217C90.384.84 83.89.104 80.858 7.78z" fill="url(#paint3_linear_1129_3148)"/><path d="M80.548 7.47l-.639 1.615c3.703-.923 7.848-.029 10.89 3.012 4.478 4.479 4.478 11.739 0 16.217a.412.412 0 00.116.663l6.019 2.818c7.203 3.37 8.871 12.871 3.248 18.494l8.523-2.32v-6.202c5.623-5.623 3.955-15.124-3.248-18.495l-6.019-2.817a.41.41 0 01-.116-.663c4.478-4.478 4.478-11.739 0-16.217C93.485-2.262 83.58-.206 80.548 7.47z" fill="#FFC344"/><path d="M78.34 56.897a3.29 3.29 0 01-5.096-4.101l13.96-21.832a3.29 3.29 0 015.543 3.544L78.787 56.34a3.307 3.307 0 01-.447.557zM44.297 86.564l10.398-6.648-4.764-4.764-10.398 6.649 4.764 4.763z" fill="#FF7A00" fill-opacity=".6"/><path d="M49.669 45.28l-7.702 7.703c-3.923 3.923-3.923 10.282 0 14.205l20.658 20.659 25.01-18.806-23.76-23.76c-3.923-3.923-10.283-3.923-14.206 0z" fill="url(#paint4_linear_1129_3148)"/><path d="M52.77 42.179l-8.523 8.523c3.923-3.922 10.283-3.922 14.206 0l23.76 23.76 5.421-11.624-20.658-20.659c-3.923-3.923-10.283-3.923-14.205 0z" fill="#FFC344"/><path d="M160.417 43.086l-40.923 40.922-22.692 11.407-13.006 24.291-44.024 44.024a5.62 5.62 0 01-7.95 0l-18.548-18.548a5.622 5.622 0 010-7.95l44.024-44.024L81.816 80.43l11.18-22.92 40.923-40.922a5.62 5.62 0 017.949 0l18.549 18.55a5.621 5.621 0 010 7.949z" fill="#E0DFDF"/><path d="M160.417 43.086l-40.923 40.922-22.692 11.407-13.006 24.291-44.024 44.024a5.62 5.62 0 01-7.95 0l-18.548-18.548a5.622 5.622 0 010-7.95l44.024-44.024L81.816 80.43l11.18-22.92 40.923-40.922a5.62 5.62 0 017.949 0l18.549 18.55a5.621 5.621 0 010 7.949z" fill="url(#paint5_linear_1129_3148)"/><path opacity=".3" d="M133.523 16.859L125 25.382a5.62 5.62 0 017.949 0l18.549 18.549a5.621 5.621 0 010 7.949l8.523-8.524a5.621 5.621 0 000-7.949L141.472 16.86a5.62 5.62 0 00-7.949 0z" fill="#E41E7F"/><path d="M57.267 93.19L92.96 57.499l26.511 26.51-35.694 35.694-26.51-26.511z" fill="#FF992B"/><defs><linearGradient id="paint0_linear_1129_3148" x1="207.961" y1="155.597" x2="190.451" y2="155.077" gradientUnits="userSpaceOnUse"><stop stop-color="#E24E74"/><stop offset=".49" stop-color="#FF5473" stop-opacity=".78"/><stop offset="1" stop-color="#FF7134" stop-opacity=".38"/></linearGradient><linearGradient id="paint1_linear_1129_3148" x1="193.264" y1="50.29" x2="193.264" y2="94.883" gradientUnits="userSpaceOnUse"><stop stop-color="#FAC600"/><stop offset="1" stop-color="#F90"/></linearGradient><linearGradient id="paint2_linear_1129_3148" x1="34.934" y1="71.421" x2="34.934" y2="112.279" gradientUnits="userSpaceOnUse"><stop stop-color="#FAC600"/><stop offset="1" stop-color="#F90"/></linearGradient><linearGradient id="paint3_linear_1129_3148" x1="87.921" y1="2.16" x2="87.921" y2="69.041" gradientUnits="userSpaceOnUse"><stop stop-color="#FAC600"/><stop offset="1" stop-color="#F90"/></linearGradient><linearGradient id="paint4_linear_1129_3148" x1="63.329" y1="42.338" x2="63.329" y2="87.847" gradientUnits="userSpaceOnUse"><stop stop-color="#FAC600"/><stop offset="1" stop-color="#F90"/></linearGradient><linearGradient id="paint5_linear_1129_3148" x1="117.173" y1="107.271" x2="11.136" y2="103.24" gradientUnits="userSpaceOnUse"><stop stop-color="#D7A4FF"/><stop offset="1" stop-color="#F372BF"/></linearGradient></defs></svg>