<svg width="228" height="222" fill="none" xmlns="http://www.w3.org/2000/svg"><path d="M140.654 65.255a1.853 1.853 0 01-1.45-.08 52.157 52.157 0 01-2.751-1.46l-2.51 45.775.773-.608a4.261 4.261 0 015.62.309l.702.688 2.51-45.775a51.82 51.82 0 01-2.894 1.15z" fill="url(#paint0_linear_1123_2596)"/><path d="M114.97.445a2.448 2.448 0 00-2.451 1.658 52.116 52.116 0 00-2.655 13.84c-1.182 21.541 10.904 40.73 29.132 49.657a2.34 2.34 0 001.818.1c19.095-6.88 33.206-24.634 34.388-46.175.261-4.757-.126-9.4-1.082-13.842a2.715 2.715 0 00-2.507-2.131L114.97.445z" fill="url(#paint1_linear_1123_2596)"/><path d="M125.292 16.788c.265-4.83 1.18-9.47 2.656-13.838a2.447 2.447 0 012.451-1.658L114.97.446a2.445 2.445 0 00-2.45 1.657 52.115 52.115 0 00-2.656 13.839c-1.181 21.542 10.904 40.731 29.132 49.658a2.337 2.337 0 001.818.1 52.201 52.201 0 006.998-3.132c-14.46-9.955-23.551-26.967-22.52-45.78zm32.683 109.04l-17.307-16.976a4.738 4.738 0 00-6.245-.342l-19.06 14.981 42.612 2.337z" fill="#CBE5E8"/><path d="M175.281 137.243a1.857 1.857 0 01-1.359-.511 51.989 51.989 0 01-2.185-2.22l-16.157 42.902.92-.347a4.26 4.26 0 015.267 1.984l.462.867 16.158-42.901a52.895 52.895 0 01-3.106.226z" fill="url(#paint2_linear_1123_2596)"/><path d="M168.565 67.067a52.045 52.045 0 00-7.822 13.888c-7.604 20.19-1.848 42.125 12.853 56.119a2.334 2.334 0 001.704.642c20.28-.82 39.076-13.508 46.68-33.698a52.1 52.1 0 003.149-13.735 2.443 2.443 0 00-1.574-2.505l-54.99-20.71z" fill="url(#paint3_linear_1123_2596)"/><path d="M174.545 86.153a52.046 52.046 0 017.823-13.887l-13.803-5.199a52.045 52.045 0 00-7.822 13.888c-7.604 20.19-1.848 42.125 12.853 56.119a2.334 2.334 0 001.704.642 51.96 51.96 0 007.21-.803c-10.996-13.87-14.657-32.99-7.965-50.76zm-.958 114.069l-11.402-21.395a4.74 4.74 0 00-5.853-2.204l-22.682 8.557 39.937 15.042z" fill="url(#paint4_linear_1123_2596)"/><path d="M98.11 99.902L18.804 80.848a2.722 2.722 0 00-3.314 2.19c-2.224 12.948 1.562 25.706 9.473 35.223l50.663 12.173c11.371-4.884 20.54-14.53 24.442-27.074a2.722 2.722 0 00-1.958-3.458z" fill="url(#paint5_linear_1123_2596)"/><path d="M24.468 117.654l19.918 4.786c-7.574-9.449-11.156-21.942-8.979-34.617a2.722 2.722 0 013.315-2.19l-19.918-4.786a2.721 2.721 0 00-3.314 2.19c-2.177 12.676 1.405 25.169 8.978 34.617z" fill="#C41926"/><path d="M34.95 159.105l42.683-4.052c11.709-8.18 19.08-21.896 18.644-36.975a2.722 2.722 0 00-2.973-2.635l-81.198 7.708a2.722 2.722 0 00-2.424 3.148c2.408 14.891 12.23 26.975 25.268 32.806z" fill="url(#paint6_linear_1123_2596)"/><path d="M34.093 158.71l20.393-1.936c-12.611-5.97-22.056-17.848-24.412-32.411a2.722 2.722 0 012.425-3.148l-20.393 1.936a2.722 2.722 0 00-2.424 3.148c2.355 14.563 11.8 26.441 24.411 32.411z" fill="#C24040"/><path d="M122.269 162.768c2.875-4.614 4.344-10.13 3.878-15.862-.075-.929-.937-1.592-1.859-1.456L1.613 163.547c-.922.136-1.556 1.02-1.36 1.931 1.21 5.622 4.209 10.479 8.294 14.066l113.722-16.776z" fill="url(#paint7_linear_1123_2596)"/><path d="M33.893 175.805c-4.085-3.587-7.084-8.444-8.293-14.066-.197-.911.438-1.795 1.36-1.931l-25.347 3.739c-.922.136-1.556 1.02-1.36 1.931 1.21 5.622 4.209 10.479 8.294 14.066l25.346-3.739z" fill="#FFA101"/><path d="M124.657 178.955c2.875-4.613 4.344-10.129 3.878-15.861-.075-.929-.937-1.591-1.859-1.455L4.001 179.736c-.922.136-1.556 1.019-1.36 1.93 1.21 5.622 4.209 10.479 8.293 14.066l113.723-16.777z" fill="url(#paint8_linear_1123_2596)"/><path d="M31.076 192.76c-4.085-3.586-7.084-8.443-8.293-14.065-.196-.911.438-1.795 1.36-1.931l-20.142 2.972c-.922.136-1.556 1.019-1.36 1.93 1.21 5.622 4.209 10.479 8.293 14.066l20.142-2.972z" fill="#FED402"/><path d="M6.39 195.923c-.922.136-1.557 1.02-1.36 1.931 2.858 13.287 15.687 22.331 29.315 20.32l74.378-10.972c13.629-2.011 23.3-14.374 22.2-27.92-.075-.929-.938-1.592-1.86-1.456L6.389 195.923z" fill="url(#paint9_linear_1123_2596)"/><path d="M25.171 194.883c-.196-.911.438-1.795 1.36-1.931l-20.142 2.971c-.921.136-1.556 1.02-1.36 1.931 2.86 13.287 15.688 22.331 29.316 20.32l20.142-2.971c-13.628 2.01-26.457-7.034-29.316-20.32z" fill="#FFA101"/><defs><linearGradient id="paint0_linear_1123_2596" x1="140.001" y1="63.91" x2="137.49" y2="109.685" gradientUnits="userSpaceOnUse"><stop stop-color="#DEECF1"/><stop offset="1" stop-color="#74DAFF" stop-opacity=".52"/></linearGradient><linearGradient id="paint1_linear_1123_2596" x1="119.5" y1="34.212" x2="176" y2="34.212" gradientUnits="userSpaceOnUse"><stop offset=".14" stop-color="#DEECF1"/><stop offset="1" stop-color="#74DAFF" stop-opacity=".52"/></linearGradient><linearGradient id="paint2_linear_1123_2596" x1="164.358" y1="157.38" x2="170.125" y2="159.498" gradientUnits="userSpaceOnUse"><stop offset=".14" stop-color="#DEECF1"/><stop offset="1" stop-color="#74DAFF" stop-opacity=".52"/></linearGradient><linearGradient id="paint3_linear_1123_2596" x1="164.44" y1="101.277" x2="218.325" y2="118.266" gradientUnits="userSpaceOnUse"><stop offset=".14" stop-color="#DEECF1"/><stop offset="1" stop-color="#74DAFF" stop-opacity=".52"/></linearGradient><linearGradient id="paint4_linear_1123_2596" x1="191.589" y1="75.738" x2="148.294" y2="190.696" gradientUnits="userSpaceOnUse"><stop stop-color="#DEECF1"/><stop offset="1" stop-color="#74DAFF" stop-opacity=".52"/></linearGradient><linearGradient id="paint5_linear_1123_2596" x1="73.789" y1="108.411" x2="12.89" y2="64.451" gradientUnits="userSpaceOnUse"><stop stop-color="#E24E74"/><stop offset=".49" stop-color="#FF5473" stop-opacity=".78"/><stop offset="1" stop-color="#FF7134" stop-opacity=".38"/></linearGradient><linearGradient id="paint6_linear_1123_2596" x1="12.371" y1="142.119" x2="98.804" y2="149.886" gradientUnits="userSpaceOnUse"><stop stop-color="#FF8357"/><stop offset="1" stop-color="#D56C74"/></linearGradient><linearGradient id="paint7_linear_1123_2596" x1="62.95" y1="154.499" x2="65.408" y2="171.156" gradientUnits="userSpaceOnUse"><stop stop-color="#FAC600"/><stop offset="1" stop-color="#F90"/></linearGradient><linearGradient id="paint8_linear_1123_2596" x1="65.339" y1="170.687" x2="67.796" y2="187.344" gradientUnits="userSpaceOnUse"><stop stop-color="#FEDF30"/><stop offset="1" stop-color="#FFF1A0" stop-opacity=".74"/></linearGradient><linearGradient id="paint9_linear_1123_2596" x1="67.726" y1="186.875" x2="71.534" y2="212.688" gradientUnits="userSpaceOnUse"><stop stop-color="#FAC600"/><stop offset="1" stop-color="#F90"/></linearGradient></defs></svg>