<svg width="199" height="211" fill="none" xmlns="http://www.w3.org/2000/svg"><path d="M43.205 115.013c-.562-2.99-.41-6.07.441-8.991 2.99-10.309 13.773-16.243 24.082-13.253a19.44 19.44 0 014.665 2.047c.09-.463.2-.923.33-1.377 2.453-8.459 11.3-13.327 19.76-10.874 5.165 1.498 8.987 5.382 10.626 10.103 4.82-4.226 11.625-5.985 18.239-4.067 5.91 1.715 10.378 5.991 12.555 11.27 3.244-5.312 9.747-8.025 16.012-6.208 1.184.343 2.319.84 3.374 1.477-.008-1.669.223-3.33.688-4.932 2.673-9.216 12.312-14.52 21.528-11.847 9.216 2.672 14.521 12.31 11.848 21.527 0 0-16.938 26.449-79.376 26.449-55.36 0-64.772-11.324-64.772-11.324z" fill="url(#paint0_linear_1129_3089)"/><path d="M19.966 111.861a3.122 3.122 0 01-3.122-3.114l-.215-84.063C16.63 11.187 27.604.212 41.094.212S65.56 11.187 65.56 24.677a3.122 3.122 0 01-6.243 0c0-10.047-8.175-18.22-18.222-18.22s-18.221 8.173-18.221 18.22l.215 84.054a3.121 3.121 0 01-3.114 3.13h-.008z" fill="#C24040"/><path d="M191.864 113.687l-11.034 54.379c-3.337 16.445-16.924 28.264-33.704 28.264H51.348c-16.78 0-30.368-11.819-33.704-28.264L6.609 113.687s29.773 20.559 89.714 20.559c59.94 0 95.541-20.559 95.541-20.559z" fill="url(#paint1_linear_1129_3089)"/><path d="M171.366 122.393l-9.268 45.673c-3.336 16.445-16.924 28.264-33.704 28.264h18.732c16.78 0 30.367-11.819 33.704-28.264l11.034-54.379s-7.175 4.142-20.498 8.706z" fill="url(#paint2_linear_1129_3089)"/><path d="M99.237 136.087c-36.208 0-70.362-8.896-96.17-25.048a6.533 6.533 0 116.934-11.076c24.602 15.399 56.919 23.098 89.236 23.098 32.316 0 64.633-7.699 89.236-23.098a6.528 6.528 0 019.004 2.072 6.533 6.533 0 01-2.072 9.004c-25.807 16.152-59.96 25.048-96.168 25.048zM87.605 35.371L45.05 44.327a.342.342 0 01-.405-.264c-1.722-8.179 3.513-16.204 11.692-17.926l13.607-2.864c8.178-1.72 16.203 3.514 17.925 11.692a.344.344 0 01-.265.406zM9.585 91.53a3.113 3.113 0 01-2.207-.915 3.122 3.122 0 010-4.414l20.327-20.326a3.121 3.121 0 114.415 4.414L11.793 90.616a3.113 3.113 0 01-2.208.915z" fill="#FFA101"/><path d="M29.912 91.531a3.111 3.111 0 01-2.208-.915L7.378 70.29a3.122 3.122 0 114.415-4.414L32.12 86.202a3.121 3.121 0 01-2.208 5.329z" fill="#FFA101"/><path d="M24.972 83.477a7.404 7.404 0 10-10.47-10.47 7.404 7.404 0 0010.47 10.47z" fill="#EED05E"/><path d="M55.928 192.658l9.24-9.239a5.227 5.227 0 017.391 7.391l-12.444 12.444a23.756 23.756 0 01-16.8 6.958H25.512a5.226 5.226 0 110-10.453h14.83a20.548 20.548 0 0014.744-6.234l.842-.867zm86.617 0l-9.24-9.239a5.226 5.226 0 10-7.391 7.391l12.444 12.444a23.758 23.758 0 0016.8 6.958h17.803a5.226 5.226 0 100-10.453h-14.83a20.553 20.553 0 01-14.744-6.234l-.842-.867z" fill="#FFA101"/><path d="M140.38 79.255a8.099 8.099 0 100-16.197 8.099 8.099 0 000 16.197z" fill="url(#paint3_linear_1129_3089)"/><path d="M166.92 58.448a5.98 5.98 0 10-.001-11.96 5.98 5.98 0 00.001 11.96z" fill="url(#paint4_linear_1129_3089)"/><path d="M54.298 113.349a3.116 3.116 0 01-3.072-2.56 3.122 3.122 0 01.073-1.432 12.414 12.414 0 015.974-7.465 12.415 12.415 0 019.503-1.053c1.052.305 2.059.747 2.995 1.314a3.122 3.122 0 01-3.233 5.342 6.25 6.25 0 00-9.243 3.601 3.12 3.12 0 01-2.997 2.253zm67.342-6.294a3.122 3.122 0 01-3.029-2.377 2.458 2.458 0 00-1.394-1.661 2.467 2.467 0 00-1.095-.205c-.375.017-.742.12-1.072.301a3.122 3.122 0 01-3.011-5.47c4.2-2.312 9.496-.775 11.807 3.424.368.668.646 1.38.828 2.12a3.12 3.12 0 01-1.667 3.554 3.126 3.126 0 01-1.367.314z" fill="#F5F5FC"/><defs><linearGradient id="paint0_linear_1129_3089" x1="115.459" y1="77.668" x2="115.459" y2="126.337" gradientUnits="userSpaceOnUse"><stop stop-color="#DEECF1"/><stop offset="1" stop-color="#74DAFF"/></linearGradient><linearGradient id="paint1_linear_1129_3089" x1="99.237" y1="113.687" x2="99.237" y2="196.33" gradientUnits="userSpaceOnUse"><stop stop-color="#FEDF30"/><stop offset="1" stop-color="#FFF1A0" stop-opacity=".74"/></linearGradient><linearGradient id="paint2_linear_1129_3089" x1="160.129" y1="113.687" x2="160.129" y2="196.33" gradientUnits="userSpaceOnUse"><stop stop-color="#FEDF30"/><stop offset="1" stop-color="#FFF1A0" stop-opacity=".74"/></linearGradient><linearGradient id="paint3_linear_1129_3089" x1="140.38" y1="63.058" x2="140.38" y2="79.255" gradientUnits="userSpaceOnUse"><stop stop-color="#DEECF1"/><stop offset="1" stop-color="#74DAFF"/></linearGradient><linearGradient id="paint4_linear_1129_3089" x1="166.92" y1="46.488" x2="166.92" y2="58.448" gradientUnits="userSpaceOnUse"><stop stop-color="#DEECF1"/><stop offset="1" stop-color="#74DAFF"/></linearGradient></defs></svg>