<svg width="230" height="239" fill="none" xmlns="http://www.w3.org/2000/svg"><path d="M161.001 116.881v.005l-11.417 24.725-6.451.417-8.524-1.822 13.511-29.252a37.222 37.222 0 0012.881 5.927zm-25.609 61.258v.005l-11.418 24.725-6.45.417-8.524-1.823 13.511-29.251a37.258 37.258 0 0012.881 5.927z" fill="#FFA101"/><path d="M217.179 60.584l2.486-5.4-11.104-5.11 4.59-9.94 3.239 1.49 2.486-5.401-3.233-1.487 1.531-3.315-3.893-5.976-3.038 6.806-12.162-5.594 4.516-9.78-5.398-2.492-4.519 9.786-12.159-5.596 2.586-5.806h-6.455l-1.534 3.323-3.223-1.483-2.485 5.4 3.216 1.48-4.59 9.941-11.098-5.106-2.485 5.4 11.091 5.103-4.591 9.94-13.541-6.23-2.486 5.402 13.535 6.227-4.591 9.941-11.682-5.375-2.485 5.401 11.679 5.373-4.59 9.942-5.084-2.34-2.484 5.401 5.075 2.336-2.709 5.867 5.398 2.492 2.713-5.874 12.164 5.595-5.694 12.332 5.397 2.492 5.698-12.34 12.161 5.596-2.714 5.879 5.398 2.492 2.717-5.886 5.097 2.345 2.485-5.4-5.089-2.343 4.591-9.941 11.824 5.44 2.485-5.4-11.819-5.438 4.583-9.942 13.541 6.23 2.485-5.4-13.534-6.227 4.591-9.942 11.111 5.112zm-9.429-22.936l-4.59 9.944-12.164-5.596 4.591-9.941 12.163 5.593zm-29.723-13.675l12.164 5.595-4.591 9.942-12.163-5.595 4.59-9.942zm-7.083 15.34l12.164 5.594-4.59 9.942-12.164-5.595 4.59-9.942zm-7.083 15.338l12.164 5.595-4.591 9.942-12.163-5.595 4.59-9.942zm-11.673 25.281l4.591-9.942 12.16 5.596-4.59 9.942-12.161-5.596zm29.723 13.676l-12.163-5.595 4.59-9.943 12.164 5.596-4.591 9.942zm7.084-15.34l-12.164-5.596 4.59-9.942 12.164 5.596-4.59 9.942zm7.082-15.339l-12.164-5.595 4.591-9.942 12.164 5.595-4.591 9.942z" fill="#EBEBF5"/><path d="M218.049 56.964a50.695 50.695 0 00-.765-18.55 39.87 39.87 0 00-3.083-8.559c-3.154-6.31-7.966-11.325-14.257-14.223-.005 0-.005-.005-.009-.005-6.296-2.893-13.245-3.286-20.097-1.575a39.902 39.902 0 00-8.505 3.218h-.005a50.91 50.91 0 00-14.626 11.46 60.84 60.84 0 00-9.309 13.914c-.203.407-.397.824-.591 1.24a61.618 61.618 0 00-4.662 14.568 52.741 52.741 0 00-.339 18.003 41.247 41.247 0 003.736 11.883c3.155 6.31 7.967 11.325 14.257 14.223.005 0 .005.005.01.005 6.285 2.893 13.23 3.29 20.087 1.589v-.004a41.192 41.192 0 0011.49-4.88h.005a53.053 53.053 0 0013.511-11.98 61.57 61.57 0 008.602-14.228 60.66 60.66 0 004.55-16.099zm-12.58-53.297c23.799 10.947 31.63 44.642 17.494 75.26-12.837 27.797-39.374 43.498-61.962 37.959v-.005a37.238 37.238 0 01-12.881-5.926c-18.9-13.54-24.177-43.882-11.34-71.68C150.916 8.659 181.67-7.28 205.469 3.668z" fill="url(#paint0_linear_1201_3477)"/><path d="M131.294 139.498l-9.12 42.52-.208-.044c-1.73-.368-11.069-1.488-13.361-7.511-2.292-6.024-1.696-7.996-.858-14.539.839-6.542 2.017-20.79 18.255-20.978a22.734 22.734 0 015.084.508l.208.044z" fill="url(#paint1_linear_1201_3477)"/><path d="M143.133 142.028l-3.469 16.191-2.312 10.768-3.339 15.565-11.839-2.534 9.12-42.52 3.315.708 8.524 1.822z" fill="url(#paint2_linear_1201_3477)"/><path d="M206.685 206.36a1.96 1.96 0 01-.277 2.584 1.96 1.96 0 01-.823.449l-12.634 3.402c-2.909.785-6.01.423-8.66-1.012l-6.014-3.257-11.805-6.392-26.237-14.209v-.005l-6.222-3.368 3.339-15.565 54.994 19.936a9.413 9.413 0 014.424 3.378l9.915 14.059z" fill="url(#paint3_linear_1201_3477)"/><path d="M216.794 177.559a1.97 1.97 0 01-.509 3.262l-21.807 9.212a9.259 9.259 0 00-2.132-1.11l-54.994-19.936 2.312-10.768 58.182 4.274a9.326 9.326 0 003.193-.325l15.755 15.391z" fill="url(#paint4_linear_1201_3477)"/><path d="M218.597 148.279a1.98 1.98 0 01.796 1.654 1.974 1.974 0 01-.912 1.593l-14.955 9.532a9.226 9.226 0 01-2.487 1.11 9.326 9.326 0 01-3.193.325l-58.182-4.274 3.469-16.191 6.451-.417 50.767-3.276a11.768 11.768 0 017.885 2.273l10.361 7.671z" fill="url(#paint5_linear_1201_3477)"/><path d="M87.676 223.995l-4.697 2.107a5.15 5.15 0 01-6.805-2.59l-3.648-8.131 14.093-6.323 3.647 8.132a5.15 5.15 0 01-2.59 6.805z" fill="#C24040"/><path d="M83.261 195.286l-18.79 8.429-31.87-71.039 18.79-8.43 31.87 71.04z" fill="#E24E74"/><path d="M83.261 195.286l-18.79 8.429-31.87-71.039 18.79-8.43 31.87 71.04z" fill="url(#paint6_linear_1201_3477)"/><path d="M43.336 112.579l-14.093 6.322-3.648-8.132a5.148 5.148 0 012.59-6.805l4.698-2.107a5.147 5.147 0 016.805 2.59l3.648 8.132z" fill="#C24040"/><path d="M49.434 214.222l51.674-23.181 3.734 8.324a5.147 5.147 0 01-2.59 6.805l-42.279 18.967a5.147 5.147 0 01-6.805-2.59l-3.734-8.325z" fill="#E24E74"/><path d="M49.434 214.222l51.674-23.181 3.734 8.324a5.147 5.147 0 01-2.59 6.805l-42.279 18.967a5.147 5.147 0 01-6.805-2.59l-3.734-8.325z" fill="url(#paint7_linear_1201_3477)"/><path d="M94.305 175.877l-51.674 23.181a5.15 5.15 0 00-2.59 6.806l4.215 9.395a5.149 5.149 0 006.805 2.59l51.674-23.182a5.149 5.149 0 002.59-6.805l-4.215-9.395a5.149 5.149 0 00-6.805-2.59z" fill="#E24E74"/><path d="M94.305 175.877l-51.674 23.181a5.15 5.15 0 00-2.59 6.806l4.215 9.395a5.149 5.149 0 006.805 2.59l51.674-23.182a5.149 5.149 0 002.59-6.805l-4.215-9.395a5.149 5.149 0 00-6.805-2.59z" fill="url(#paint8_linear_1201_3477)"/><path d="M13.61 121.789l42.279-18.967a5.152 5.152 0 016.805 2.591l3.734 8.324-51.674 23.181-3.734-8.324a5.149 5.149 0 012.59-6.805z" fill="#E24E74"/><path d="M13.61 121.789l42.279-18.967a5.152 5.152 0 016.805 2.591l3.734 8.324-51.674 23.181-3.734-8.324a5.149 5.149 0 012.59-6.805z" fill="url(#paint9_linear_1201_3477)"/><path d="M64.801 110.11l-51.674 23.182a5.149 5.149 0 00-2.59 6.805l4.215 9.395a5.148 5.148 0 006.805 2.59l51.674-23.181a5.149 5.149 0 002.59-6.805l-4.215-9.396a5.149 5.149 0 00-6.805-2.59z" fill="#E24E74"/><path d="M64.801 110.11l-51.674 23.182a5.149 5.149 0 00-2.59 6.805l4.215 9.395a5.148 5.148 0 006.805 2.59l51.674-23.181a5.149 5.149 0 002.59-6.805l-4.215-9.396a5.149 5.149 0 00-6.805-2.59z" fill="url(#paint10_linear_1201_3477)"/><defs><linearGradient id="paint0_linear_1201_3477" x1="179.871" y1=".213" x2="179.871" y2="117.991" gradientUnits="userSpaceOnUse"><stop stop-color="#FAC600"/><stop offset="1" stop-color="#F90"/></linearGradient><linearGradient id="paint1_linear_1201_3477" x1="119.147" y1="138.944" x2="119.147" y2="182.018" gradientUnits="userSpaceOnUse"><stop stop-color="#FF3888"/><stop offset="1" stop-color="#FFB9D5" stop-opacity=".39"/></linearGradient><linearGradient id="paint2_linear_1201_3477" x1="132.654" y1="139.498" x2="132.654" y2="184.552" gradientUnits="userSpaceOnUse"><stop stop-color="#6BD9E7"/><stop offset="1" stop-color="#A8F5FF"/></linearGradient><linearGradient id="paint3_linear_1201_3477" x1="170.53" y1="168.987" x2="170.53" y2="213.201" gradientUnits="userSpaceOnUse"><stop stop-color="#DEECF1"/><stop offset="1" stop-color="#74DAFF" stop-opacity=".52"/></linearGradient><linearGradient id="paint4_linear_1201_3477" x1="150.354" y1="174.875" x2="218.379" y2="165.7" gradientUnits="userSpaceOnUse"><stop offset=".14" stop-color="#DEECF1"/><stop offset="1" stop-color="#74DAFF" stop-opacity=".52"/></linearGradient><linearGradient id="paint5_linear_1201_3477" x1="179.529" y1="138.301" x2="179.529" y2="162.517" gradientUnits="userSpaceOnUse"><stop stop-color="#DEECF1"/><stop offset="1" stop-color="#74DAFF" stop-opacity=".52"/></linearGradient><linearGradient id="paint6_linear_1201_3477" x1="57.739" y1="185.16" x2="71.466" y2="178.86" gradientUnits="userSpaceOnUse"><stop stop-color="#D4F700"/><stop offset="1" stop-color="#C4DD2C"/></linearGradient><linearGradient id="paint7_linear_1201_3477" x1="57.443" y1="222.317" x2="92.558" y2="200.778" gradientUnits="userSpaceOnUse"><stop stop-color="#D4F700"/><stop offset="1" stop-color="#C4DD2C"/></linearGradient><linearGradient id="paint8_linear_1201_3477" x1="85.954" y1="193.477" x2="41.14" y2="207.278" gradientUnits="userSpaceOnUse"><stop stop-color="#C3DC2B"/><stop offset="1" stop-color="#6DB84A"/></linearGradient><linearGradient id="paint9_linear_1201_3477" x1="16.921" y1="131.991" x2="52.036" y2="110.453" gradientUnits="userSpaceOnUse"><stop stop-color="#D4F700"/><stop offset="1" stop-color="#C4DD2C"/></linearGradient><linearGradient id="paint10_linear_1201_3477" x1="56.45" y1="127.711" x2="11.636" y2="141.512" gradientUnits="userSpaceOnUse"><stop stop-color="#C3DC2B"/><stop offset="1" stop-color="#6DB84A"/></linearGradient></defs></svg>