<svg width="182" height="179" fill="none" xmlns="http://www.w3.org/2000/svg"><path d="M39.73 11.282l-3.075-.736a4.744 4.744 0 00-5.72 3.509L16.574 74.037a4.744 4.744 0 003.509 5.72l3.076.736a4.746 4.746 0 002.99-.26l20.319-8.795 9.943-41.526-14.132-17.044a4.745 4.745 0 00-2.547-1.586zm47.794 116.005l7.562-17.315a4.739 4.739 0 00-4.64 2.524l-4.517 8.676a4.748 4.748 0 00-.108 4.16c.371.814.976 1.471 1.703 1.955zm-3.044 6.97a4.736 4.736 0 00-4.726 2.512l-4.516 8.675a4.749 4.749 0 00-.108 4.16c.383.841 1.015 1.515 1.774 2.002l7.576-17.349z" fill="url(#paint0_linear_1125_2854)"/><path d="M143.562 26.752c-11.411-4.266-23.162-3.684-33.274.526-15.522 6.464-32.724 7.7-49.076 3.784l-4.802-1.15-9.943 41.526 4.796 1.149c16.695 3.998 31.288 13.573 42.721 26.377a44.847 44.847 0 0023.09 13.775c25.875 6.195 51.881-11.281 55.257-38.463 2.534-20.398-9.517-40.325-28.769-47.524z" fill="#FFA101"/><path d="M115.97 117.353a44.81 44.81 0 01-19.602-10.317l-21.172 48.482a4.74 4.74 0 001.394 5.612 4.75 4.75 0 001.849.901l25.377 6.076a4.744 4.744 0 005.453-2.715l20.49-46.921a45.013 45.013 0 01-13.789-1.118z" fill="url(#paint1_linear_1125_2854)"/><path d="M131.806 113.783a45.387 45.387 0 01-3.267.176c-.532.01-1.067-.006-1.602-.015-3.259-.046-6.56-.414-9.863-1.205a44.827 44.827 0 01-18.948-9.73l-1.758 4.027a44.81 44.81 0 0021.458 10.717c2.961.569 4.596 3.765 3.389 6.528l-15.455 35.392a4.741 4.741 0 01-5.453 2.715l-25.36-6.072a4.732 4.732 0 00.35 3.216 4.75 4.75 0 003.142 2.499l25.377 6.076a4.745 4.745 0 005.453-2.715l20.49-46.921 2.047-4.688z" fill="#FFA101"/><path d="M101.757 65.163a26.022 26.022 0 00-.241 4.821l48.794 11.684a25.951 25.951 0 001.969-4.407l-50.522-12.098zm3.074-9.02a25.873 25.873 0 00-1.969 4.406l50.522 12.098c.236-1.621.306-3.231.241-4.821l-48.794-11.684zm-2.607 18.89a26.102 26.102 0 001.903 5.334l39.153 9.375a26.129 26.129 0 004.113-3.894l-45.169-10.816zm5.811 11.148a25.955 25.955 0 0013.459 8.101 25.952 25.952 0 0015.668-1.126l-29.127-6.975zm39.07-34.552a25.948 25.948 0 00-13.458-8.101 25.952 25.952 0 00-15.668 1.127l29.126 6.974zm-35.244-3.56a26.124 26.124 0 00-4.113 3.893l45.169 10.816a26.1 26.1 0 00-1.903-5.334l-39.153-9.376zM51.244 31.114l-5.524 23.07a11.923 11.923 0 01-6.86 8.166l-9.405 4.07a4.744 4.744 0 01-2.99.26 7.907 7.907 0 00-9.531 5.85l-.361 1.507a4.744 4.744 0 003.509 5.72l3.076.736a4.746 4.746 0 002.99-.26l20.319-8.795 9.943-41.526c-1.56-1.881-4.597-1.174-5.166 1.202z" fill="#C24040"/><path d="M166.802 46.77c-1.982-3.5-7.353-1.242-6.262 2.628a44.732 44.732 0 01.434 22.627 45.348 45.348 0 01-2.298 7.021c-10.108 24.027-41.403 31.518-61.292 14.669a17.542 17.542 0 01-1.742-1.672c-11.434-12.804-26.026-22.38-42.72-26.377l-4.798-1.149-1.657 6.921 4.796 1.149c16.695 3.998 31.288 13.573 42.722 26.377 1.421 1.592 4.66 4.483 4.69 4.49a44.723 44.723 0 0020.754 9.783c23.453 4.321 46.728-11.001 52.071-34.243 2.619-11.395.652-22.78-4.698-32.225z" fill="url(#paint2_linear_1125_2854)"/><defs><linearGradient id="paint0_linear_1125_2854" x1="18.337" y1="71.637" x2="100.624" y2="96.091" gradientUnits="userSpaceOnUse"><stop stop-color="#FF8357"/><stop offset="1" stop-color="#D56C74"/></linearGradient><linearGradient id="paint1_linear_1125_2854" x1="108.895" y1="110.036" x2="95.468" y2="166.108" gradientUnits="userSpaceOnUse"><stop stop-color="#FEDF30"/><stop offset="1" stop-color="#FFF1A0" stop-opacity=".74"/></linearGradient><linearGradient id="paint2_linear_1125_2854" x1="118.82" y1="34.139" x2="100.925" y2="108.872" gradientUnits="userSpaceOnUse"><stop stop-color="#FAC600"/><stop offset="1" stop-color="#F90"/></linearGradient></defs></svg>