<svg width="180" height="181" fill="none" xmlns="http://www.w3.org/2000/svg"><mask id="a" style="mask-type:luminance" maskUnits="userSpaceOnUse" x="0" y="0" width="180" height="181"><path d="M0 .212h179.999v180H0v-180z" fill="#fff"/></mask><g mask="url(#a)"><path d="M179.999 136.751c0-8.001-6.485-14.487-14.486-14.487H28.973c-16 0-28.973 12.972-28.973 28.974 0 16.001 12.972 28.974 28.974 28.974h136.539c8.001 0 14.486-6.486 14.486-14.487 0-8.001-6.485-14.487-14.486-14.487 8.001 0 14.486-6.486 14.486-14.487z" fill="#E0DFDF"/><path d="M179.999 136.751c0-8.001-6.485-14.487-14.486-14.487H28.973c-16 0-28.973 12.972-28.973 28.974 0 16.001 12.972 28.974 28.974 28.974h136.539c8.001 0 14.486-6.486 14.486-14.487 0-8.001-6.485-14.487-14.486-14.487 8.001 0 14.486-6.486 14.486-14.487z" fill="url(#paint0_linear_1125_2862)"/><path d="M14.487 78.803c0-8 6.486-14.486 14.487-14.486h107.565c16.001 0 28.974 12.972 28.974 28.974 0 16.001-12.973 28.973-28.974 28.973H28.974c-8.001 0-14.487-6.486-14.487-14.487 0-8 6.486-14.486 14.487-14.486-8.001 0-14.487-6.486-14.487-14.487z" fill="#F5F5FC"/><path d="M122.052 107.777c0-8 6.486-14.486 14.487-14.486H28.974c-8.001 0-14.487 6.486-14.487 14.486 0 8.001 6.486 14.487 14.487 14.487h107.565c-8.001 0-14.487-6.486-14.487-14.487z" fill="#EBEBF5"/><path d="M43.46 165.725c0-8.001-6.485-14.487-14.486-14.487h136.539c8 0 14.486 6.486 14.486 14.487 0 8.001-6.486 14.487-14.486 14.487H28.973c8.002 0 14.488-6.486 14.488-14.487z" fill="url(#paint1_linear_1125_2862)"/><path d="M70.995 39.133c0 16.362 7.387 30.996 19.005 40.757 11.617-9.761 19.004-24.395 19.004-40.757 0-14.579-5.865-27.787-15.363-37.397a5.115 5.115 0 00-7.284 0c-9.496 9.61-15.362 22.818-15.362 37.397z" fill="url(#paint2_linear_1125_2862)"/><path d="M58.08 50.64C64.108 65.193 76.07 75.49 90 79.89c6.737-12.962 7.916-28.7 1.888-43.254C86.516 23.67 76.433 14.082 64.445 9.033a4.923 4.923 0 00-6.479 2.683c-4.907 12.048-5.257 25.956.114 38.924z" fill="url(#paint3_linear_1125_2862)"/><path d="M91.888 36.636a51.069 51.069 0 00-10.756-16.28l-.079.08c-5.223 5.335-12.979 7.266-20.113 5.066a52.26 52.26 0 00-6.274-1.518A50.973 50.973 0 0058.08 50.64C64.108 65.193 76.07 75.488 90 79.89c6.737-12.963 7.915-28.7 1.888-43.254z" fill="url(#paint4_linear_1125_2862)"/><path d="M121.919 50.64c-6.027 14.553-17.989 24.849-31.92 29.25-6.737-12.962-7.915-28.7-1.887-43.254 5.371-12.967 15.454-22.554 27.443-27.603a4.923 4.923 0 016.478 2.683c4.907 12.048 5.258 25.956-.114 38.924z" fill="url(#paint5_linear_1125_2862)"/><path d="M98.868 20.357a51.066 51.066 0 00-10.756 16.28C82.084 51.188 83.262 66.926 90 79.89c13.93-4.402 25.892-14.697 31.919-29.25a50.967 50.967 0 003.415-26.657 52.392 52.392 0 00-6.275 1.518c-7.133 2.2-14.89.27-20.113-5.064l-.078-.08z" fill="url(#paint6_linear_1125_2862)"/><path d="M54.409 66.766c9.744 9.745 22.859 14.06 35.59 12.955 1.106-12.732-3.21-25.847-12.954-35.591-8.683-8.683-20.041-13.055-31.422-13.123a4.308 4.308 0 00-4.337 4.338c.067 11.38 4.44 22.739 13.123 31.421z" fill="url(#paint7_linear_1125_2862)"/><path d="M102.955 44.13C93.211 53.874 88.895 66.989 90 79.721c12.732 1.106 25.847-3.21 35.591-12.955 8.683-8.683 13.056-20.041 13.123-31.42a4.302 4.302 0 00-1.261-3.078 4.316 4.316 0 00-3.077-1.261c-11.38.067-22.739 4.44-31.421 13.123z" fill="url(#paint8_linear_1125_2862)"/><path d="M90 79.721a44.883 44.883 0 0024.079-4.62 29.126 29.126 0 005.217-16.665c0-7.374-3.079-14.808-7.128-21.397a44.863 44.863 0 00-9.214 7.091C93.21 53.874 88.894 66.99 90 79.721z" fill="#FFA1C8"/><path d="M90 79.721c1.105-12.732-3.21-25.847-12.955-35.59a44.85 44.85 0 00-9.214-7.092c-4.049 6.589-7.127 14.023-7.127 21.397a29.13 29.13 0 005.217 16.666A44.885 44.885 0 0090 79.722z" fill="#FFA1C8"/><path d="M90 79.89c11.849 0 21.454-9.605 21.454-21.454 0-12.662-12.481-26.81-18.404-32.812a4.286 4.286 0 00-6.1 0c-5.924 6.001-18.405 20.15-18.405 32.812 0 11.849 9.606 21.454 21.455 21.454z" fill="url(#paint9_linear_1125_2862)"/></g><defs><linearGradient id="paint0_linear_1125_2862" x1="126.288" y1="144.646" x2=".977" y2="159.446" gradientUnits="userSpaceOnUse"><stop stop-color="#D7A4FF"/><stop offset="1" stop-color="#F372BF"/></linearGradient><linearGradient id="paint1_linear_1125_2862" x1="104.487" y1="180.212" x2="104.487" y2="151.238" gradientUnits="userSpaceOnUse"><stop stop-color="#D2A0F5"/><stop offset="1" stop-color="#FF67D4" stop-opacity=".5"/></linearGradient><linearGradient id="paint2_linear_1125_2862" x1="89.999" y1="79.89" x2="89.999" y2=".212" gradientUnits="userSpaceOnUse"><stop stop-color="#FF3888"/><stop offset="1" stop-color="#FFB9D5" stop-opacity=".39"/></linearGradient><linearGradient id="paint3_linear_1125_2862" x1="74.984" y1="79.89" x2="74.984" y2="8.643" gradientUnits="userSpaceOnUse"><stop stop-color="#FF3888"/><stop offset="1" stop-color="#FFB9D5" stop-opacity=".39"/></linearGradient><linearGradient id="paint4_linear_1125_2862" x1="74.985" y1="79.89" x2="74.985" y2="20.357" gradientUnits="userSpaceOnUse"><stop stop-color="#FF3888"/><stop offset="1" stop-color="#FFB9D5" stop-opacity=".39"/></linearGradient><linearGradient id="paint5_linear_1125_2862" x1="105.016" y1="79.89" x2="105.016" y2="8.643" gradientUnits="userSpaceOnUse"><stop stop-color="#FF3888"/><stop offset="1" stop-color="#FFB9D5" stop-opacity=".39"/></linearGradient><linearGradient id="paint6_linear_1125_2862" x1="105.014" y1="79.89" x2="105.014" y2="20.357" gradientUnits="userSpaceOnUse"><stop stop-color="#FF3888"/><stop offset="1" stop-color="#FFB9D5" stop-opacity=".39"/></linearGradient><linearGradient id="paint7_linear_1125_2862" x1="65.727" y1="79.89" x2="65.727" y2="31.007" gradientUnits="userSpaceOnUse"><stop stop-color="#FF3888"/><stop offset="1" stop-color="#FFB9D5" stop-opacity=".39"/></linearGradient><linearGradient id="paint8_linear_1125_2862" x1="114.272" y1="79.89" x2="114.272" y2="31.007" gradientUnits="userSpaceOnUse"><stop stop-color="#FF3888"/><stop offset="1" stop-color="#FFB9D5" stop-opacity=".39"/></linearGradient><linearGradient id="paint9_linear_1125_2862" x1="90" y1="79.89" x2="90" y2="24.349" gradientUnits="userSpaceOnUse"><stop stop-color="#FF3888"/><stop offset="1" stop-color="#FFB9D5" stop-opacity=".39"/></linearGradient></defs></svg>