<svg width="184" height="210" viewBox="0 0 184 210" fill="none" xmlns="http://www.w3.org/2000/svg">
<path d="M29.5831 124.534C22.4306 118.055 9.4334 119.203 8.17572 119.331C8.11082 119.338 7.84794 130.43 15.3695 137.242C22.8911 144.055 35.2208 136.447 35.2208 136.447C34.6845 132.505 33.2259 127.833 29.5831 124.534ZM41.4194 124.534C48.5719 118.055 61.5691 119.203 62.8268 119.331C62.8917 119.338 63.1546 130.43 55.6331 137.242C48.1115 144.055 35.7817 136.447 35.7817 136.447C36.3177 132.505 37.7766 127.833 41.4194 124.534Z" fill="#E24E74"/>
<path d="M29.5831 124.534C22.4306 118.055 9.4334 119.203 8.17572 119.331C8.11082 119.338 7.84794 130.43 15.3695 137.242C22.8911 144.055 35.2208 136.447 35.2208 136.447C34.6845 132.505 33.2259 127.833 29.5831 124.534ZM41.4194 124.534C48.5719 118.055 61.5691 119.203 62.8268 119.331C62.8917 119.338 63.1546 130.43 55.6331 137.242C48.1115 144.055 35.7817 136.447 35.7817 136.447C36.3177 132.505 37.7766 127.833 41.4194 124.534Z" fill="url(#paint0_linear_1129_3178)"/>
<path d="M62.9257 119.342L62.8269 119.331C62.2901 123.271 60.834 127.938 57.1933 131.235C50.022 137.73 36.6933 136.437 35.5009 136.437C34.2918 136.437 20.9799 137.73 13.8086 131.235C10.1678 127.938 8.71136 123.271 8.17498 119.331L8.0766 119.342C8.0766 119.342 6.28704 132.008 13.8086 138.82C19.172 143.678 27.8173 144.247 32.3394 144.174V163.091C32.3394 163.506 32.4211 163.917 32.58 164.301C32.7388 164.684 32.9716 165.033 33.265 165.326C33.5585 165.619 33.9069 165.852 34.2903 166.011C34.6737 166.17 35.0847 166.252 35.4997 166.252C35.9147 166.252 36.3257 166.17 36.7091 166.011C37.0925 165.852 37.4409 165.619 37.7344 165.326C38.0279 165.033 38.2606 164.684 38.4195 164.301C38.5783 163.917 38.66 163.506 38.66 163.091V144.174C43.1817 144.247 51.8291 143.678 57.1929 138.82C64.7152 132.008 62.9257 119.342 62.9257 119.342Z" fill="#E24E74"/>
<path d="M62.9257 119.342L62.8269 119.331C62.2901 123.271 60.834 127.938 57.1933 131.235C50.022 137.73 36.6933 136.437 35.5009 136.437C34.2918 136.437 20.9799 137.73 13.8086 131.235C10.1678 127.938 8.71136 123.271 8.17498 119.331L8.0766 119.342C8.0766 119.342 6.28704 132.008 13.8086 138.82C19.172 143.678 27.8173 144.247 32.3394 144.174V163.091C32.3394 163.506 32.4211 163.917 32.58 164.301C32.7388 164.684 32.9716 165.033 33.265 165.326C33.5585 165.619 33.9069 165.852 34.2903 166.011C34.6737 166.17 35.0847 166.252 35.4997 166.252C35.9147 166.252 36.3257 166.17 36.7091 166.011C37.0925 165.852 37.4409 165.619 37.7344 165.326C38.0279 165.033 38.2606 164.684 38.4195 164.301C38.5783 163.917 38.66 163.506 38.66 163.091V144.174C43.1817 144.247 51.8291 143.678 57.1929 138.82C64.7152 132.008 62.9257 119.342 62.9257 119.342Z" fill="url(#paint1_linear_1129_3178)"/>
<path d="M58.2407 177.266L63.9131 181.177L59.1812 202.603C58.7671 204.477 57.7257 206.154 56.2292 207.355C54.7327 208.557 52.8708 209.213 50.9514 209.213H20.0504C18.1309 209.212 16.269 208.557 14.7725 207.355C13.276 206.153 12.2346 204.476 11.8206 202.602L7.08868 181.177L12.7611 177.266H58.2407V177.266Z" fill="#C24040"/>
<path d="M65.5883 169.42H5.41425V173.592L5.41465 173.592L7.08951 181.177H63.9131L65.5883 173.592H65.5879L65.5883 173.592V169.42Z" fill="url(#paint2_linear_1129_3178)"/>
<path d="M66.7685 168.281H4.23374C3.29359 168.281 2.39195 167.908 1.72716 167.243C1.06238 166.578 0.688904 165.676 0.688904 164.736V162.941C0.688904 162.001 1.06238 161.1 1.72716 160.435C2.39195 159.77 3.29359 159.397 4.23374 159.397H66.7685C67.7086 159.397 68.6103 159.77 69.2751 160.435C69.9398 161.1 70.3133 162.001 70.3133 162.941V164.736C70.3133 165.676 69.9398 166.578 69.2751 167.243C68.6103 167.908 67.7086 168.281 66.7685 168.281Z" fill="url(#paint3_linear_1129_3178)"/>
<path d="M66.7685 166.515H4.23374C3.29359 166.515 2.39195 166.141 1.72716 165.477C1.06238 164.812 0.688904 163.91 0.688904 162.97V170.047C0.688904 170.987 1.06238 171.889 1.72716 172.554C2.39195 173.218 3.29359 173.592 4.23374 173.592H66.7685C67.7086 173.592 68.6103 173.218 69.2751 172.554C69.9398 171.889 70.3133 170.987 70.3133 170.047V162.97C70.3133 163.91 69.9398 164.812 69.2751 165.477C68.6103 166.141 67.7086 166.515 66.7685 166.515Z" fill="url(#paint4_linear_1129_3178)"/>
<path d="M150.569 0.251145C143.687 0.614854 137.462 3.60984 132.441 7.11386L131.285 12.3474L135.541 16.249L142.638 15.8347C145.313 14.3391 148.243 13.2549 151.248 13.0961C155.904 12.8499 160.218 14.9448 164.435 19.5008C169.183 24.6311 169.983 30.9285 168.765 37.243L169.691 42.8157L175.159 47.5309L179.607 46.2381C185.589 28.8364 180.092 17.4814 173.875 10.7632C166.998 3.3339 159.157 -0.202777 150.569 0.251145Z" fill="#E0DFDF"/>
<path d="M150.569 0.251145C143.687 0.614854 137.462 3.60984 132.441 7.11386L131.285 12.3474L135.541 16.249L142.638 15.8347C145.313 14.3391 148.243 13.2549 151.248 13.0961C155.904 12.8499 160.218 14.9448 164.435 19.5008C169.183 24.6311 169.983 30.9285 168.765 37.243L169.691 42.8157L175.159 47.5309L179.607 46.2381C185.589 28.8364 180.092 17.4814 173.875 10.7632C166.998 3.3339 159.157 -0.202777 150.569 0.251145Z" fill="url(#paint5_linear_1129_3178)"/>
<path d="M176.142 54.4079C177.575 51.5468 178.716 48.8257 179.606 46.2373L168.762 37.2421C168.181 40.2563 167.143 43.2742 165.853 46.1708V54.6173H176.035C176.07 54.5471 176.106 54.4781 176.142 54.4079ZM125.586 12.7707V21.0438H135.559C137.591 19.1954 140.08 17.2434 142.83 15.7323L132.441 7.11426C129.86 8.91525 127.598 10.8497 125.726 12.6311L125.586 12.7707Z" fill="#E0DFDF"/>
<path d="M176.142 54.4079C177.575 51.5468 178.716 48.8257 179.606 46.2373L168.762 37.2421C168.181 40.2563 167.143 43.2742 165.853 46.1708V54.6173H176.035C176.07 54.5471 176.106 54.4781 176.142 54.4079ZM125.586 12.7707V21.0438H135.559C137.591 19.1954 140.08 17.2434 142.83 15.7323L132.441 7.11426C129.86 8.91525 127.598 10.8497 125.726 12.6311L125.586 12.7707Z" fill="url(#paint6_linear_1129_3178)"/>
<path d="M75.3404 56.4824C75.3404 56.4824 66.057 37.4381 76.1931 22.653C76.3282 22.4558 76.5446 22.3427 76.7499 22.2525C77.0618 22.116 77.4075 22.0768 77.7421 22.1398C78.0766 22.2029 78.3844 22.3654 78.6252 22.606L97.1731 41.154L92.678 53.2743L80.3886 57.9385L75.3404 56.4824Z" fill="url(#paint7_linear_1129_3178)"/>
<path d="M104.902 110.19L48.9916 97.4546L45.7611 93.2093L41.5909 89.0007L46.6502 83.6096L86.1161 78.5625L102.573 89.0007L109.995 107.35L104.902 110.19Z" fill="#E0DFDF"/>
<path d="M104.902 110.19L48.9916 97.4546L45.7611 93.2093L41.5909 89.0007L46.6502 83.6096L86.1161 78.5625L102.573 89.0007L109.995 107.35L104.902 110.19Z" fill="url(#paint8_linear_1129_3178)"/>
<path d="M43.618 98.696L45.7611 93.2093L46.6497 83.61C46.6497 83.61 44.2936 76.2791 32.6394 74.4756C31.438 74.2899 30.3232 75.1418 30.2048 76.3517L28.0005 98.9143L29.6921 103.552L43.618 98.696Z" fill="url(#paint9_linear_1129_3178)"/>
<path d="M28.0009 98.9139L27.4931 104.112C27.4662 104.389 27.4945 104.668 27.5763 104.935C27.6581 105.201 27.7917 105.448 27.9696 105.662C28.1475 105.877 28.366 106.054 28.6126 106.183C28.8592 106.312 29.129 106.391 29.4064 106.416C33.1835 106.758 41.0839 106.59 45.1279 100.048L48.9912 97.4546L45.7611 93.2093C40.3683 101.068 29.2643 99.1609 28.0009 98.9139Z" fill="url(#paint10_linear_1129_3178)"/>
<path d="M45.128 100.048L118.253 117.305L118.709 110.951L109.995 107.35L45.7611 93.2093L45.128 100.048Z" fill="#E0DFDF"/>
<path d="M45.128 100.048L118.253 117.305L118.709 110.951L109.995 107.35L45.7611 93.2093L45.128 100.048Z" fill="url(#paint11_linear_1129_3178)"/>
<path d="M76.9005 22.2039C76.63 22.2901 76.3864 22.4449 76.1935 22.6533C58.8747 41.6271 74.1684 64.1591 74.1684 64.1591H80.0633L80.389 57.9385C77.3553 51.2978 69.6031 34.6366 76.9005 22.2039Z" fill="url(#paint12_linear_1129_3178)"/>
<path d="M179.6 75.8369L142.934 112.503L139.99 115.491C134.634 120.847 125.831 120.438 120.995 114.607L80.389 65.4588L80.3694 57.9572L125.57 12.7573L178.716 56.8416C184.547 61.678 184.956 70.4805 179.6 75.8369Z" fill="#E0DFDF"/>
<path d="M179.6 75.8369L142.934 112.503L139.99 115.491C134.634 120.847 125.831 120.438 120.995 114.607L80.389 65.4588L80.3694 57.9572L125.57 12.7573L178.716 56.8416C184.547 61.678 184.956 70.4805 179.6 75.8369Z" fill="url(#paint13_linear_1129_3178)"/>
<path d="M124.469 111.119L80.3841 57.9727L74.1684 64.159L118.253 117.305C123.089 123.135 131.892 123.545 137.248 118.188L142.934 112.503C137.542 117.326 129.149 116.761 124.469 111.119Z" fill="#E0DFDF"/>
<path d="M124.469 111.119L80.3841 57.9727L74.1684 64.159L118.253 117.305C123.089 123.135 131.892 123.545 137.248 118.188L142.934 112.503C137.542 117.326 129.149 116.761 124.469 111.119Z" fill="url(#paint14_linear_1129_3178)"/>
<defs>
<linearGradient id="paint0_linear_1129_3178" x1="46.5264" y1="132.003" x2="8.30159" y2="128.201" gradientUnits="userSpaceOnUse">
<stop stop-color="#C3DC2B"/>
<stop offset="1" stop-color="#6DB84A"/>
</linearGradient>
<linearGradient id="paint1_linear_1129_3178" x1="49.1504" y1="162.943" x2="48.1991" y2="128.558" gradientUnits="userSpaceOnUse">
<stop stop-color="#D4F700"/>
<stop offset="1" stop-color="#C4DD2C"/>
</linearGradient>
<linearGradient id="paint2_linear_1129_3178" x1="6.23573" y1="175.278" x2="58.2814" y2="196.936" gradientUnits="userSpaceOnUse">
<stop stop-color="#FF8357"/>
<stop offset="1" stop-color="#D56C74"/>
</linearGradient>
<linearGradient id="paint3_linear_1129_3178" x1="35.5011" y1="159.397" x2="35.5011" y2="168.281" gradientUnits="userSpaceOnUse">
<stop stop-color="#FFC69D"/>
<stop offset="1" stop-color="#EC9354"/>
</linearGradient>
<linearGradient id="paint4_linear_1129_3178" x1="35.5011" y1="162.97" x2="35.5011" y2="173.592" gradientUnits="userSpaceOnUse">
<stop stop-color="#FFC69D"/>
<stop offset="1" stop-color="#FFF0E6"/>
</linearGradient>
<linearGradient id="paint5_linear_1129_3178" x1="166.995" y1="29.2543" x2="131.127" y2="27.7874" gradientUnits="userSpaceOnUse">
<stop stop-color="#D7A4FF"/>
<stop offset="1" stop-color="#F372BF"/>
</linearGradient>
<linearGradient id="paint6_linear_1129_3178" x1="163.487" y1="36.2694" x2="125.426" y2="34.6238" gradientUnits="userSpaceOnUse">
<stop stop-color="#D7A4FF"/>
<stop offset="1" stop-color="#F372BF"/>
</linearGradient>
<linearGradient id="paint7_linear_1129_3178" x1="84.3145" y1="22.1105" x2="84.3145" y2="57.9385" gradientUnits="userSpaceOnUse">
<stop stop-color="#6BD9E7"/>
<stop offset="1" stop-color="#A8F5FF"/>
</linearGradient>
<linearGradient id="paint8_linear_1129_3178" x1="89.5835" y1="97.9741" x2="41.6222" y2="94.0301" gradientUnits="userSpaceOnUse">
<stop stop-color="#D7A4FF"/>
<stop offset="1" stop-color="#F372BF"/>
</linearGradient>
<linearGradient id="paint9_linear_1129_3178" x1="37.3251" y1="74.4502" x2="37.3251" y2="103.552" gradientUnits="userSpaceOnUse">
<stop stop-color="#6BD9E7"/>
<stop offset="1" stop-color="#A8F5FF"/>
</linearGradient>
<linearGradient id="paint10_linear_1129_3178" x1="38.2372" y1="93.2093" x2="38.2372" y2="106.517" gradientUnits="userSpaceOnUse">
<stop stop-color="#6BD9E7"/>
<stop offset="1" stop-color="#A8F5FF"/>
</linearGradient>
<linearGradient id="paint11_linear_1129_3178" x1="96.7527" y1="107.998" x2="45.5037" y2="102.048" gradientUnits="userSpaceOnUse">
<stop stop-color="#D7A4FF"/>
<stop offset="1" stop-color="#F372BF"/>
</linearGradient>
<linearGradient id="paint12_linear_1129_3178" x1="74.1614" y1="22.2039" x2="74.1614" y2="64.1591" gradientUnits="userSpaceOnUse">
<stop stop-color="#6BD9E7"/>
<stop offset="1" stop-color="#A8F5FF"/>
</linearGradient>
<linearGradient id="paint13_linear_1129_3178" x1="152.633" y1="78.1225" x2="80.0264" y2="75.4528" gradientUnits="userSpaceOnUse">
<stop stop-color="#D7A4FF"/>
<stop offset="1" stop-color="#F372BF"/>
</linearGradient>
<linearGradient id="paint14_linear_1129_3178" x1="122.415" y1="97.2425" x2="73.9548" y2="95.2623" gradientUnits="userSpaceOnUse">
<stop stop-color="#D7A4FF"/>
<stop offset="1" stop-color="#F372BF"/>
</linearGradient>
</defs>
</svg>
