<svg width="178" height="218" viewBox="0 0 178 218" fill="none" xmlns="http://www.w3.org/2000/svg">
<path d="M127.629 172.359C125.837 164.232 117.794 159.096 109.669 160.887C101.539 162.678 96.4029 170.717 98.1941 178.847L102.955 200.441L118.414 205.761L132.435 194.15L127.629 172.359ZM49.6831 172.359C51.4738 164.232 59.5176 159.096 67.6424 160.887C75.7723 162.678 80.9104 170.717 79.1196 178.847L74.3561 200.441L58.8979 205.761L44.8784 194.15L49.6831 172.359ZM39.7539 141.088C54.6349 132.981 72.1476 128.929 78.7019 127.946L74.5631 100.268C73.3785 100.445 50.3422 104.006 28.4209 115.413L39.7539 141.088ZM137.558 141.088C122.676 132.981 105.164 128.929 98.6114 127.946L102.748 100.268C103.933 100.445 126.969 104.006 148.892 115.413L137.558 141.088Z" fill="url(#paint0_linear_1125_2914)"/>
<path d="M127.629 172.359C125.837 164.234 117.794 159.096 109.669 160.887C101.539 162.68 96.4029 170.718 98.1941 178.848L101.832 195.348C113.701 194.177 123.77 191.602 131.319 189.089L127.629 172.359ZM67.6424 160.887C59.5176 159.096 51.4742 164.233 49.683 172.359L45.993 189.089C53.5431 191.602 63.6101 194.177 75.4792 195.348L79.1175 178.848C80.9104 170.718 75.7723 162.678 67.6424 160.887Z" fill="url(#paint1_linear_1125_2914)"/>
<path d="M141.731 165.36C136.572 135.161 120.094 112.015 120.094 112.015H57.2179C57.2179 112.015 40.7413 135.162 35.5821 165.36C34.8496 169.646 37.151 173.888 41.1489 175.596C49.9066 179.337 66.887 185.076 88.6556 185.076C110.425 185.076 127.407 179.337 136.163 175.596C140.162 173.888 142.464 169.646 141.732 165.36L141.731 165.36Z" fill="#E0DFDF"/>
<path d="M141.731 165.36C136.572 135.161 120.094 112.015 120.094 112.015H57.2179C57.2179 112.015 40.7413 135.162 35.5821 165.36C34.8496 169.646 37.151 173.888 41.1489 175.596C49.9066 179.337 66.887 185.076 88.6556 185.076C110.425 185.076 127.407 179.337 136.163 175.596C140.162 173.888 142.464 169.646 141.732 165.36L141.731 165.36Z" fill="url(#paint2_linear_1125_2914)"/>
<path d="M11.0214 144.188C13.772 147.828 17.9586 149.749 22.2 149.749C25.2408 149.75 28.1984 148.756 30.6213 146.919C33.4512 144.778 36.5428 142.841 39.7552 141.093V141.088C39.5084 129.23 33.0555 120.312 28.4213 115.413C23.3796 118.039 18.3976 121.074 13.752 124.583C7.58375 129.244 6.36265 138.018 11.0214 144.188ZM166.291 144.188C163.54 147.828 159.355 149.749 155.113 149.749C152.072 149.75 149.113 148.756 146.69 146.919C143.862 144.778 140.771 142.841 137.558 141.093V141.088C137.803 129.23 144.258 120.312 148.89 115.413C153.933 118.039 158.916 121.074 163.561 124.583C169.728 129.244 170.951 138.018 166.291 144.188Z" fill="url(#paint3_linear_1125_2914)"/>
<path d="M155.533 30.6194C156.407 30.6194 158.455 32.9492 159.055 33.4709C170.163 43.1384 177.916 57.8738 177.275 73.592C176.539 91.6392 162.94 105.969 145.428 99.2143C144.503 98.8581 138.403 96.572 138.403 95.6189V60.5646L147.002 30.6194H155.533ZM21.781 30.6194C20.906 30.6194 18.8582 32.9492 18.2585 33.4709C7.14943 43.1384 -0.604272 57.8743 0.0370277 73.592C0.774183 91.6392 14.373 105.969 31.884 99.2143C32.8099 98.8581 38.9103 96.572 38.9103 95.6189V60.5646L30.3117 30.6194H21.781Z" fill="url(#paint4_linear_1125_2914)"/>
<path d="M104.803 120.484C104.803 129.403 97.5744 136.631 88.656 136.631C79.7389 136.631 72.509 129.403 72.509 120.484C72.509 111.567 79.7389 104.337 88.656 104.337C97.5744 104.337 104.803 111.567 104.803 120.484Z" fill="#FFDDCB"/>
<path d="M149.644 53.235C149.928 55.5957 150.071 57.9713 150.071 60.3491C150.071 93.5593 122.574 120.484 88.656 120.484C54.7384 120.484 27.2418 93.5597 27.2418 60.3495C27.2418 57.9417 27.3873 55.5695 27.6672 53.235L88.6556 15.5065L149.644 53.235Z" fill="url(#paint5_linear_1125_2914)"/>
<path opacity="0.2" d="M40.3486 60.3491C40.3486 57.9417 40.4962 51.1987 40.7761 48.8659L94.8073 19.3118L88.6556 15.5065L27.6672 53.235C27.3839 55.5958 27.2418 57.9714 27.2418 60.3491C27.2418 93.5593 54.7379 120.484 88.6556 120.484C90.8709 120.484 93.056 120.367 95.2102 120.143C64.3736 116.94 40.3486 91.3928 40.3486 60.3491Z" fill="url(#paint6_linear_1125_2914)"/>
<path d="M119.076 70.8487C118.646 70.8487 118.22 70.7639 117.822 70.5992C117.424 70.4345 117.063 70.1931 116.759 69.8888C116.455 69.5844 116.213 69.2231 116.049 68.8255C115.884 68.4279 115.799 68.0017 115.799 67.5714V61.6563C115.799 61.2259 115.884 60.7998 116.048 60.4022C116.213 60.0045 116.454 59.6432 116.759 59.3389C117.063 59.0346 117.424 58.7933 117.822 58.6286C118.22 58.464 118.646 58.3793 119.076 58.3794C119.507 58.3793 119.933 58.4641 120.33 58.6287C120.728 58.7934 121.089 59.0347 121.394 59.339C121.698 59.6433 121.939 60.0046 122.104 60.4022C122.269 60.7998 122.353 61.2259 122.353 61.6563V67.5714C122.353 68.4404 122.008 69.2738 121.393 69.8883C120.779 70.5027 119.945 70.8485 119.076 70.8487Z" fill="#3A3C4C"/>
<path d="M123.104 79.5414H115.047C114.178 79.5414 113.344 79.1962 112.73 78.5816C112.115 77.967 111.77 77.1335 111.77 76.2643C111.77 75.3952 112.115 74.5616 112.73 73.9471C113.344 73.3325 114.178 72.9872 115.047 72.9872H123.104C124.915 72.9872 126.381 74.4552 126.381 76.2645C126.381 78.0756 124.913 79.5414 123.104 79.5414Z" fill="#FFB4B4"/>
<path d="M58.2371 70.8487C57.8067 70.8487 57.3805 70.764 56.9829 70.5993C56.5852 70.4347 56.2239 70.1932 55.9196 69.8889C55.6152 69.5846 55.3738 69.2233 55.2091 68.8256C55.0445 68.428 54.9597 68.0018 54.9598 67.5714V61.6563C54.9597 61.2259 55.0444 60.7997 55.209 60.4021C55.3737 60.0044 55.6151 59.6431 55.9195 59.3388C56.2238 59.0345 56.5852 58.7931 56.9828 58.6285C57.3805 58.4639 57.8067 58.3792 58.2371 58.3794C58.6675 58.3793 59.0936 58.464 59.4913 58.6286C59.8889 58.7933 60.2502 59.0346 60.5545 59.3389C60.8588 59.6432 61.1002 60.0045 61.2648 60.4022C61.4295 60.7998 61.5141 61.2259 61.514 61.6563V67.5714C61.514 68.4405 61.1688 69.2739 60.5542 69.8885C59.9397 70.503 59.1062 70.8487 58.2371 70.8487Z" fill="#3A3C4C"/>
<path d="M62.2643 79.5414H54.2099C53.7795 79.5416 53.3533 79.457 52.9556 79.2923C52.5579 79.1277 52.1966 78.8864 51.8922 78.5821C51.5879 78.2777 51.3465 77.9164 51.1818 77.5188C51.0171 77.1211 50.9324 76.6949 50.9326 76.2645C50.9325 75.8341 51.0172 75.4079 51.1819 75.0103C51.3466 74.6126 51.588 74.2513 51.8923 73.947C52.1967 73.6427 52.558 73.4012 52.9556 73.2366C53.3533 73.0719 53.7795 72.9871 54.2099 72.9872H62.2643C64.0754 72.9872 65.5412 74.4552 65.5412 76.2645C65.5413 76.6949 65.4566 77.1211 65.292 77.5187C65.1274 77.9163 64.886 78.2776 64.5817 78.5819C64.2774 78.8862 63.9161 79.1276 63.5185 79.2922C63.1208 79.4569 62.6947 79.5416 62.2643 79.5414Z" fill="#FFB4B4"/>
<path d="M88.6556 79.2068C85.5891 79.2068 82.7079 77.9212 80.7479 75.6796C80.4646 75.3556 80.2479 74.9789 80.1103 74.5711C79.9726 74.1633 79.9166 73.7324 79.9455 73.3029C79.9744 72.8735 80.0876 72.454 80.2788 72.0683C80.4699 71.6826 80.7351 71.3384 81.0593 71.0552C82.4212 69.8643 84.4906 70.0034 85.6837 71.367C86.3975 72.1835 87.4812 72.6526 88.6556 72.6526C89.8305 72.6526 90.9142 72.1835 91.6297 71.367C92.2016 70.7127 93.01 70.3124 93.877 70.2541C94.744 70.1959 95.5987 70.4844 96.253 71.0563C96.9073 71.6282 97.3076 72.4366 97.3659 73.3036C97.4241 74.1707 97.1356 75.0253 96.5637 75.6796C94.6054 77.9212 91.7226 79.2068 88.6556 79.2068Z" fill="#3A3C4C"/>
<path d="M155.829 27.924C155.829 34.7832 150.269 40.3416 143.411 40.3416C136.552 40.3416 130.992 34.7832 130.992 27.924C130.992 21.0665 136.552 15.5065 143.411 15.5065C150.269 15.5065 155.829 21.0665 155.829 27.924ZM46.3196 27.924C46.3196 34.7832 40.7591 40.3416 33.9021 40.3416C27.0429 40.3416 21.4841 34.7832 21.4841 27.924C21.4841 21.0665 27.0429 15.5065 33.9021 15.5065C40.7596 15.5065 46.3196 21.0665 46.3196 27.924Z" fill="url(#paint7_linear_1125_2914)"/>
<path d="M149.644 53.235C149.644 53.235 110.401 50.2295 88.6556 26.5473C66.912 50.2295 27.6672 53.235 27.6672 53.235C31.2626 23.3743 57.1967 0.212402 88.6556 0.212402C120.115 0.212402 146.05 23.3747 149.644 53.235Z" fill="url(#paint8_linear_1125_2914)"/>
<path d="M122.04 217.019C120.971 217.254 119.879 217.373 118.785 217.372C111.866 217.372 105.63 212.579 104.081 205.544L102.955 200.441L132.435 194.15L133.515 199.055C135.306 207.184 130.17 215.228 122.04 217.019ZM55.2728 217.019C56.3616 217.259 57.455 217.372 58.5285 217.372C65.4475 217.372 71.6819 212.579 73.2326 205.544L74.3561 200.441L44.8784 194.15L43.7981 199.055C42.007 207.184 47.1429 215.228 55.2728 217.019Z" fill="#C24040"/>
<defs>
<linearGradient id="paint0_linear_1125_2914" x1="115.135" y1="142.403" x2="6.55649" y2="121.966" gradientUnits="userSpaceOnUse">
<stop stop-color="#E24E74"/>
<stop offset="0.489583" stop-color="#FF5473" stop-opacity="0.78"/>
<stop offset="1" stop-color="#FF7134" stop-opacity="0.38"/>
</linearGradient>
<linearGradient id="paint1_linear_1125_2914" x1="88.6558" y1="160.531" x2="88.6558" y2="195.348" gradientUnits="userSpaceOnUse">
<stop stop-color="#FFC69D"/>
<stop offset="1" stop-color="#FFF0E6"/>
</linearGradient>
<linearGradient id="paint2_linear_1125_2914" x1="110.111" y1="156.856" x2="35.2209" y2="152.709" gradientUnits="userSpaceOnUse">
<stop stop-color="#D7A4FF"/>
<stop offset="1" stop-color="#F372BF"/>
</linearGradient>
<linearGradient id="paint3_linear_1125_2914" x1="88.6563" y1="115.413" x2="88.6563" y2="149.749" gradientUnits="userSpaceOnUse">
<stop stop-color="#FFC69D"/>
<stop offset="1" stop-color="#FFF0E6"/>
</linearGradient>
<linearGradient id="paint4_linear_1125_2914" x1="127.628" y1="58.697" x2="-13.458" y2="0.0432211" gradientUnits="userSpaceOnUse">
<stop stop-color="#E24E74"/>
<stop offset="0.489583" stop-color="#FF5473" stop-opacity="0.78"/>
<stop offset="1" stop-color="#FF7134" stop-opacity="0.38"/>
</linearGradient>
<linearGradient id="paint5_linear_1125_2914" x1="88.6566" y1="15.5065" x2="88.6566" y2="120.484" gradientUnits="userSpaceOnUse">
<stop stop-color="#FFC69D"/>
<stop offset="1" stop-color="#FFF0E6"/>
</linearGradient>
<linearGradient id="paint6_linear_1125_2914" x1="61.226" y1="15.5065" x2="61.226" y2="120.484" gradientUnits="userSpaceOnUse">
<stop stop-color="#FFC69D"/>
<stop offset="1" stop-color="#EC9354"/>
</linearGradient>
<linearGradient id="paint7_linear_1125_2914" x1="88.6564" y1="15.5065" x2="88.6564" y2="40.3416" gradientUnits="userSpaceOnUse">
<stop stop-color="#FEDF30"/>
<stop offset="1" stop-color="#FFF1A0" stop-opacity="0.74"/>
</linearGradient>
<linearGradient id="paint8_linear_1125_2914" x1="115.465" y1="21.3902" x2="15.9429" y2="-16.3455" gradientUnits="userSpaceOnUse">
<stop stop-color="#E24E74"/>
<stop offset="0.489583" stop-color="#FF5473" stop-opacity="0.78"/>
<stop offset="1" stop-color="#FF7134" stop-opacity="0.38"/>
</linearGradient>
</defs>
</svg>
