<svg width="144" height="205" viewBox="0 0 144 205" fill="none" xmlns="http://www.w3.org/2000/svg">
<path d="M22.9566 70.6892C16.3533 70.6892 11 76.0424 11 82.6458V93.5133C11 100.117 16.3533 105.47 22.9566 105.47L70.6242 110.936L78.1831 88.0796L70.6242 70.6892H22.9566Z" fill="url(#paint0_linear_1125_2980)"/>
<path d="M130.248 93.5133V82.6458C130.248 76.0424 124.895 70.6892 118.292 70.6892H70.6242V110.936L118.292 105.47C124.895 105.47 130.248 100.117 130.248 93.5133Z" fill="#3481C6"/>
<path d="M130.248 93.5133V82.6458C130.248 76.0424 124.895 70.6892 118.292 70.6892H70.6242V110.936L118.292 105.47C124.895 105.47 130.248 100.117 130.248 93.5133Z" fill="url(#paint1_linear_1125_2980)"/>
<path d="M20.9284 21.0275L20.2966 21.1125C18.772 21.3175 17.2781 21.6464 15.8262 22.0892C13.712 22.734 12.3683 24.724 12.2101 26.9288L11.0978 42.4223C11.0387 43.2446 11.1498 44.0702 11.424 44.8477L16.5921 59.5002C17.3267 61.5828 19.1459 63.1462 21.3534 63.2086C22.8799 63.2518 24.4094 63.1721 25.9269 62.9693L26.5587 62.8843C29.6637 62.4667 33.0128 64.2771 33.4305 67.3821L38.9475 108.397C39.3893 111.681 42.4097 113.985 45.6938 113.544L48.5739 113.156C51.8581 112.714 54.1623 109.694 53.7205 106.41L44.672 39.1408C43.1172 27.5824 32.4868 19.4727 20.9284 21.0275Z" fill="#F5F5FC"/>
<path d="M2.41387 30.8765C1.57332 31.8633 1.25577 33.1783 1.42858 34.463L4.20168 55.079C4.3745 56.3638 5.02828 57.5481 6.09978 58.2778C7.75177 59.4027 9.51417 60.3481 11.3566 61.1007C14.4477 62.3633 17.3387 59.565 16.8936 56.2558L13.3583 29.9741C12.9132 26.6648 9.38544 24.7299 6.73782 26.7646C5.15976 27.9773 3.70985 29.3549 2.41387 30.8765Z" fill="#EBEBF5"/>
<path d="M123.291 5.75066L123.906 5.91785C125.391 6.32131 126.829 6.84345 128.21 7.47302C130.221 8.38984 131.292 10.539 131.159 12.7454L130.228 28.2509C130.179 29.0738 129.96 29.8777 129.586 30.6125L122.539 44.4597C121.537 46.4279 119.529 47.7388 117.332 47.5109C115.813 47.3534 114.307 47.0735 112.83 46.6733L112.215 46.5061C109.191 45.6844 105.633 47.0395 104.812 50.0628L93.9579 89.9983C93.0888 93.1961 89.792 95.0838 86.5943 94.2147L83.79 93.4525C80.5923 92.5834 78.7046 89.2867 79.5736 86.089L97.3751 20.59C100.434 9.3358 112.037 2.69194 123.291 5.75066Z" fill="#F5F5FC"/>
<path d="M140.353 17.9451C141.056 19.0337 141.198 20.379 140.858 21.6299L135.403 41.7034C135.063 42.9543 134.259 44.0426 133.101 44.6253C131.316 45.5237 129.445 46.2295 127.519 46.7336C124.289 47.5795 121.791 44.4259 122.666 41.2038L129.621 15.6137C130.497 12.3915 134.248 10.9365 136.606 13.3011C138.011 14.7105 139.268 16.2665 140.353 17.9451Z" fill="#EBEBF5"/>
<path d="M22.9566 105.47C16.3533 105.47 11 110.823 11 117.427V170.343C11 189.397 26.4466 204.844 45.5006 204.844H70.6242L78.2164 155.157L70.6242 105.47H22.9566Z" fill="url(#paint2_linear_1125_2980)"/>
<path d="M130.248 170.343V117.427C130.248 110.823 124.895 105.47 118.292 105.47H70.6242V204.844H95.7479C114.802 204.844 130.248 189.397 130.248 170.343Z" fill="url(#paint3_linear_1125_2980)"/>
<defs>
<linearGradient id="paint0_linear_1125_2980" x1="21.9059" y1="91.7602" x2="79.5404" y2="86.606" gradientUnits="userSpaceOnUse">
<stop offset="0.140039" stop-color="#DEECF1"/>
<stop offset="1" stop-color="#74DAFF" stop-opacity="0.52"/>
</linearGradient>
<linearGradient id="paint1_linear_1125_2980" x1="100.436" y1="70.6892" x2="100.436" y2="110.936" gradientUnits="userSpaceOnUse">
<stop stop-color="#DEECF1"/>
<stop offset="1" stop-color="#74DAFF"/>
</linearGradient>
<linearGradient id="paint2_linear_1125_2980" x1="44.6082" y1="105.47" x2="44.6082" y2="204.844" gradientUnits="userSpaceOnUse">
<stop stop-color="#DEECF1"/>
<stop offset="1" stop-color="#74DAFF" stop-opacity="0.52"/>
</linearGradient>
<linearGradient id="paint3_linear_1125_2980" x1="100.436" y1="105.47" x2="100.436" y2="204.844" gradientUnits="userSpaceOnUse">
<stop stop-color="#DEECF1"/>
<stop offset="1" stop-color="#74DAFF"/>
</linearGradient>
</defs>
</svg>
