<svg width="90" height="81" viewBox="0 0 90 81" fill="none" xmlns="http://www.w3.org/2000/svg">
<path d="M41.7486 10.6759C38.7583 6.77954 34.3838 3.54919 31.7328 4.49591C28.4251 5.67709 27.2789 13.5424 28.5155 19.0474C25.3274 17.8499 22.0861 17.5154 20.7069 18.8722C19.3518 20.2054 19.6564 23.3098 20.8215 26.3955C15.8064 26.0554 10.3188 27.2367 9.31473 29.8693C8.46649 32.0935 10.7269 35.6083 13.8643 38.4492C12.0583 39.633 10.8234 41.0222 10.8234 42.3623C10.8234 43.377 11.5316 44.4199 12.6596 45.3804C9.7097 48.113 7.64633 51.391 8.43468 53.531C9.5077 56.4437 16.0163 57.6494 21.3766 57.0033C19.7792 60.4846 19.1568 64.3274 20.7069 65.8525C21.6666 66.7967 23.5277 66.9221 25.6452 66.5077C25.5327 70.4797 26.43 74.2115 28.5107 75.1662C31.07 76.3406 35.7513 73.4805 39.0888 69.8418C40.4836 72.9911 42.5771 75.5835 44.5654 75.5835C46.1909 75.5835 47.8868 73.8506 49.2137 71.4974C52.117 74.8259 55.8653 77.3257 58.2385 76.4782C60.761 75.5774 62.0231 70.7857 61.9333 66.1216C64.6622 66.9354 67.2341 67.0229 68.4238 65.8525C69.637 64.6588 69.5215 62.049 68.6495 59.3031C73.5753 59.9862 79.0202 59.2268 80.2111 56.7086C81.384 54.2284 78.5943 49.7293 74.9874 46.4562C76.9449 45.2351 78.3091 43.7722 78.3091 42.3623C78.3091 40.8146 76.665 39.203 74.3968 37.9174C78.7267 34.9915 82.5793 30.2416 81.5491 27.4414C80.5068 24.6081 74.3209 23.3888 69.0502 23.9197C69.5171 21.7573 69.4114 19.8428 68.4238 18.8704C67.5347 17.9951 65.8703 17.8242 63.9449 18.1349C64.885 13.0609 64.186 7.05851 61.4624 5.80801C58.4302 4.41586 52.4217 8.67404 49.1972 13.1959C47.8734 10.8579 46.1856 9.13943 44.5672 9.13943C43.6228 9.13943 42.6545 9.72429 41.7486 10.6759Z" fill="#FCEF7A"/>
<path d="M63.4344 57.8774C58.1505 55.4407 37.1208 41.7753 39.0354 37.7453C40.95 33.7153 65.0868 40.8434 70.3689 43.2783C75.651 45.7133 81.8634 53.2144 80.2111 56.7086C78.5588 60.2027 68.7165 60.3106 63.4344 57.8774Z" fill="url(#paint0_linear_1097_2415)"/>
<path d="M27.3235 58.6467C29.7967 53.4444 43.6782 32.7393 47.7731 34.6243C51.868 36.5093 44.6265 60.2735 42.1497 65.4759C39.673 70.6782 32.0561 76.793 28.5107 75.1662C24.9654 73.5394 24.8558 63.8491 27.3235 58.6467Z" fill="url(#paint1_linear_1097_2415)"/>
<path d="M62.6532 22.3257C60.1818 27.5298 46.2986 48.2349 42.2036 46.3499C38.1087 44.4649 45.3521 20.7095 47.8234 15.4965C50.2947 10.2836 57.9153 4.1794 61.4624 5.808C65.0096 7.43661 65.1227 17.1251 62.6532 22.3257Z" fill="url(#paint2_linear_1097_2415)"/>
<path d="M45.5424 65.6262C43.5524 60.2258 38.4984 35.9187 42.7478 34.4033C46.9972 32.8878 58.9444 54.7387 60.9326 60.1303C62.9208 65.5219 61.9276 75.1609 58.2385 76.4783C54.5495 77.7956 47.5378 71.0248 45.5424 65.6262Z" fill="url(#paint3_linear_1097_2415)"/>
<path d="M44.4378 15.348C46.4261 20.7484 51.4801 45.0555 47.2289 46.5709C42.9777 48.0864 31.0341 26.2425 29.0387 20.8439C27.0433 15.4452 28.0437 5.8133 31.7328 4.49591C35.4218 3.17852 42.4479 9.94936 44.4378 15.348Z" fill="url(#paint4_linear_1097_2415)"/>
<path d="M19.4569 41.0308C24.9402 39.0733 49.6301 34.0955 51.1693 38.2811C52.7085 42.4667 30.515 54.2259 25.0389 56.1834C19.5629 58.1409 9.77272 57.163 8.43468 53.5309C7.09664 49.8988 13.9736 42.9883 19.4569 41.0308Z" fill="url(#paint5_linear_1097_2415)"/>
<path d="M25.946 27.4025C31.4077 29.4184 53.4647 41.4163 51.8788 45.5842C50.2929 49.7521 25.6568 44.5109 20.1987 42.495C14.7405 40.4791 7.93898 33.4766 9.31473 29.8693C10.6905 26.262 20.4842 25.3796 25.946 27.4025Z" fill="url(#paint6_linear_1097_2415)"/>
<path d="M70.5269 39.9433C65.0437 41.9026 40.3537 46.8769 38.8145 42.6948C37.2753 38.5128 59.4688 26.7483 64.9467 24.789C70.4245 22.8297 80.2129 23.8093 81.5491 27.4414C82.8854 31.0735 76.0066 37.9858 70.5269 39.9433Z" fill="url(#paint7_linear_1097_2415)"/>
<path d="M65.5574 49.356C60.4962 49.356 38.8612 46.2243 38.8612 42.3624C38.8612 38.5004 60.4962 35.3687 65.5574 35.3687C70.6186 35.3687 78.3091 39.015 78.3091 42.3624C78.3091 45.7098 70.6186 49.356 65.5574 49.356Z" fill="url(#paint8_linear_1097_2415)"/>
<path d="M23.5752 35.3687C28.6364 35.3687 50.2695 38.4986 50.2695 42.3624C50.2695 46.2261 28.6364 49.356 23.5752 49.356C18.514 49.356 10.8234 45.7062 10.8234 42.3624C10.8234 39.0185 18.5122 35.3687 23.5752 35.3687Z" fill="url(#paint9_linear_1097_2415)"/>
<path d="M37.462 63.0285C37.462 58.0454 40.6428 36.7462 44.5671 36.7462C48.4914 36.7462 51.6686 58.0454 51.6686 63.0285C51.6686 68.0116 47.9634 75.5835 44.5653 75.5835C41.1672 75.5835 37.462 68.0116 37.462 63.0285Z" fill="url(#paint10_linear_1097_2415)"/>
<path d="M51.6686 21.6944C51.6686 26.6774 48.4878 47.9784 44.5653 47.9784C40.6428 47.9784 37.462 26.6774 37.462 21.6944C37.462 16.7113 41.169 9.1394 44.5671 9.1394C47.9652 9.1394 51.6686 16.7148 51.6686 21.6944Z" fill="url(#paint11_linear_1097_2415)"/>
<path d="M54.386 61.9215C50.8066 58.3955 37.7584 41.1174 40.5333 38.3907C43.3081 35.664 60.8535 48.5072 64.433 52.0314C68.0125 55.5556 70.8287 63.4865 68.4238 65.8524C66.0189 68.2184 57.9655 65.444 54.386 61.9215Z" fill="url(#paint12_linear_1097_2415)"/>
<path d="M34.7447 22.8031C38.3241 26.3256 51.3723 43.6019 48.5992 46.3322C45.8261 49.0625 28.279 36.2157 24.6995 32.6933C21.12 29.1708 18.3038 21.2364 20.7069 18.8722C23.11 16.508 31.167 19.2789 34.7447 22.8031Z" fill="url(#paint13_linear_1097_2415)"/>
<path d="M24.6994 52.0314C28.2789 48.5072 45.8243 35.6587 48.5992 38.3907C51.374 41.1227 38.3241 58.3955 34.7446 61.9215C31.1651 65.4475 23.11 68.2167 20.7069 65.8525C18.3038 63.4882 21.1218 55.5539 24.6994 52.0314Z" fill="url(#paint14_linear_1097_2415)"/>
<path d="M64.4331 32.6933C60.8518 36.2157 43.3064 49.0642 40.5334 46.3322C37.7603 43.6002 50.8066 26.3256 54.3861 22.8031C57.9656 19.2807 66.0226 16.5062 68.4238 18.8704C70.8251 21.2347 68.0126 29.169 64.4331 32.6933Z" fill="url(#paint15_linear_1097_2415)"/>
<path d="M44.4845 52.737C42.3102 52.7373 40.1845 52.1028 38.3764 50.9137C36.5683 49.7246 35.159 48.0343 34.3266 46.0565C33.4943 44.0788 33.2763 41.9024 33.7003 39.8027C34.1243 37.703 35.1712 35.7742 36.7085 34.2603C38.2459 32.7464 40.2048 31.7153 42.3374 31.2975C44.4699 30.8797 46.6805 31.094 48.6894 31.9132C50.6983 32.7323 52.4153 34.1196 53.6234 35.8996C54.8314 37.6796 55.4762 39.7724 55.4762 41.9132C55.4762 44.7835 54.3182 47.5363 52.2569 49.5662C50.1957 51.596 47.3999 52.7365 44.4845 52.737Z" fill="#FCEF7A"/>
<defs>
<linearGradient id="paint0_linear_1097_2415" x1="44.6451" y1="42.0112" x2="66.5697" y2="78.1203" gradientUnits="userSpaceOnUse">
<stop stop-color="#B77ADD"/>
<stop offset="0.489583" stop-color="#B77ADD" stop-opacity="0.78"/>
<stop offset="1" stop-color="#70D9D2" stop-opacity="0.38"/>
</linearGradient>
<linearGradient id="paint1_linear_1097_2415" x1="28.8581" y1="44.2449" x2="64.8618" y2="62.9795" gradientUnits="userSpaceOnUse">
<stop stop-color="#B77ADD"/>
<stop offset="0.489583" stop-color="#B77ADD" stop-opacity="0.78"/>
<stop offset="1" stop-color="#70D9D2" stop-opacity="0.38"/>
</linearGradient>
<linearGradient id="paint2_linear_1097_2415" x1="44.1718" y1="46.208" x2="37.2478" y2="-1.75187" gradientUnits="userSpaceOnUse">
<stop stop-color="#B77ADD"/>
<stop offset="0.489583" stop-color="#D680FF" stop-opacity="0.78"/>
<stop offset="1" stop-color="#70D9D2" stop-opacity="0.38"/>
</linearGradient>
<linearGradient id="paint3_linear_1097_2415" x1="43.9692" y1="44.3996" x2="77.9343" y2="59.6481" gradientUnits="userSpaceOnUse">
<stop stop-color="#B77ADD"/>
<stop offset="0.489583" stop-color="#B77ADD" stop-opacity="0.78"/>
<stop offset="1" stop-color="#70D9D2" stop-opacity="0.38"/>
</linearGradient>
<linearGradient id="paint4_linear_1097_2415" x1="43.8957" y1="39.9564" x2="10.9743" y2="18.9474" gradientUnits="userSpaceOnUse">
<stop stop-color="#B77ADD"/>
<stop offset="0.489583" stop-color="#B77ADD" stop-opacity="0.78"/>
<stop offset="1" stop-color="#70D9D2" stop-opacity="0.38"/>
</linearGradient>
<linearGradient id="paint5_linear_1097_2415" x1="39.2024" y1="44.8489" x2="3.36396" y2="32.4766" gradientUnits="userSpaceOnUse">
<stop stop-color="#B77ADD"/>
<stop offset="0.489583" stop-color="#B77ADD" stop-opacity="0.78"/>
<stop offset="1" stop-color="#70D9D2" stop-opacity="0.38"/>
</linearGradient>
<linearGradient id="paint6_linear_1097_2415" x1="38.0981" y1="41.3154" x2="21.0082" y2="11.6374" gradientUnits="userSpaceOnUse">
<stop stop-color="#B77ADD"/>
<stop offset="0.489583" stop-color="#B77ADD" stop-opacity="0.78"/>
<stop offset="1" stop-color="#70D9D2" stop-opacity="0.38"/>
</linearGradient>
<linearGradient id="paint7_linear_1097_2415" x1="42.2392" y1="43.2181" x2="81.5558" y2="54.7067" gradientUnits="userSpaceOnUse">
<stop stop-color="#B77ADD"/>
<stop offset="0.489583" stop-color="#B77ADD" stop-opacity="0.78"/>
<stop offset="1" stop-color="#70D9D2" stop-opacity="0.38"/>
</linearGradient>
<linearGradient id="paint8_linear_1097_2415" x1="44.3011" y1="38.6977" x2="54.4535" y2="64.7956" gradientUnits="userSpaceOnUse">
<stop stop-color="#B77ADD"/>
<stop offset="1" stop-color="#70D9D2" stop-opacity="0.38"/>
</linearGradient>
<linearGradient id="paint9_linear_1097_2415" x1="16.263" y1="38.6977" x2="26.4157" y2="64.7953" gradientUnits="userSpaceOnUse">
<stop stop-color="#B77ADD"/>
<stop offset="1" stop-color="#70D9D2" stop-opacity="0.38"/>
</linearGradient>
<linearGradient id="paint10_linear_1097_2415" x1="39.4211" y1="45.9896" x2="64.455" y2="54.3363" gradientUnits="userSpaceOnUse">
<stop stop-color="#B77ADD"/>
<stop offset="1" stop-color="#70D9D2" stop-opacity="0.38"/>
</linearGradient>
<linearGradient id="paint11_linear_1097_2415" x1="39.4211" y1="18.3832" x2="64.4552" y2="26.7296" gradientUnits="userSpaceOnUse">
<stop stop-color="#B77ADD"/>
<stop offset="1" stop-color="#70D9D2" stop-opacity="0.38"/>
</linearGradient>
<linearGradient id="paint12_linear_1097_2415" x1="44.1717" y1="44.849" x2="74.927" y2="73.322" gradientUnits="userSpaceOnUse">
<stop stop-color="#B77ADD"/>
<stop offset="1" stop-color="#70D9D2" stop-opacity="0.38"/>
</linearGradient>
<linearGradient id="paint13_linear_1097_2415" x1="23.8352" y1="24.8273" x2="54.5891" y2="53.3008" gradientUnits="userSpaceOnUse">
<stop stop-color="#B77ADD"/>
<stop offset="1" stop-color="#70D9D2" stop-opacity="0.38"/>
</linearGradient>
<linearGradient id="paint14_linear_1097_2415" x1="23.8355" y1="44.848" x2="54.5918" y2="73.3214" gradientUnits="userSpaceOnUse">
<stop stop-color="#B77ADD"/>
<stop offset="1" stop-color="#70D9D2" stop-opacity="0.38"/>
</linearGradient>
<linearGradient id="paint15_linear_1097_2415" x1="44.172" y1="24.8265" x2="74.9272" y2="53.2975" gradientUnits="userSpaceOnUse">
<stop stop-color="#B77ADD"/>
<stop offset="1" stop-color="#70D9D2" stop-opacity="0.38"/>
</linearGradient>
</defs>
</svg>
