<svg width="63" height="57" viewBox="0 0 63 57" fill="none" xmlns="http://www.w3.org/2000/svg">
<path d="M29.2241 7.5127C27.1309 4.77082 24.0688 2.49761 22.213 3.16382C19.8977 3.99502 19.0953 9.52985 19.9609 13.4038C17.7293 12.561 15.4603 12.3257 14.4949 13.2805C13.5463 14.2186 13.7595 16.4032 14.5752 18.5747C11.0645 18.3353 7.22321 19.1666 6.52038 21.0192C5.92662 22.5843 7.50887 25.0577 9.70508 27.0569C8.44091 27.8899 7.57644 28.8675 7.57644 29.8106C7.57644 30.5246 8.07217 31.2585 8.86177 31.9344C6.79686 33.8573 5.3525 36.1641 5.90435 37.67C6.65546 39.7196 11.2115 40.5682 14.9637 40.1134C13.8455 42.5632 13.4098 45.2675 14.4949 46.3407C15.1667 47.0051 16.4695 47.0934 17.9517 46.8017C17.873 49.5968 18.5011 52.2229 19.9575 52.8947C21.7491 53.7212 25.026 51.7086 27.3622 49.148C28.3386 51.3641 29.804 53.1884 31.1958 53.1884C32.3337 53.1884 33.5208 51.969 34.4497 50.313C36.4819 52.6553 39.1058 54.4144 40.767 53.8181C42.5328 53.1841 43.4162 49.8122 43.3534 46.5301C45.2636 47.1027 47.064 47.1643 47.8967 46.3406C48.746 45.5007 48.6651 43.6641 48.0547 41.7318C51.5028 42.2125 55.3142 41.6782 56.1478 39.9061C56.9689 38.1607 55.0161 34.9947 52.4913 32.6914C53.8615 31.8321 54.8165 30.8027 54.8165 29.8106C54.8165 28.7214 53.6656 27.5873 52.0779 26.6827C55.1088 24.6237 57.8056 21.2812 57.0845 19.3107C56.3548 17.3168 52.0247 16.4588 48.3352 16.8324C48.662 15.3107 48.588 13.9635 47.8967 13.2792C47.2744 12.6632 46.1093 12.543 44.7615 12.7616C45.4196 9.19103 44.9303 4.96713 43.0237 4.08715C40.9013 3.10749 36.6953 6.10398 34.4381 9.28606C33.5114 7.64079 32.33 6.43148 31.1971 6.43148C30.536 6.43148 29.8582 6.84305 29.2241 7.5127Z" fill="#FFB773"/>
<path d="M44.4042 40.7286C40.7054 39.0138 25.9846 29.3974 27.3248 26.5615C28.665 23.7256 45.5608 28.7416 49.2583 30.4551C52.9558 32.1686 57.3045 37.4472 56.1478 39.906C54.9912 42.3649 48.1016 42.4408 44.4042 40.7286Z" fill="url(#paint0_linear_1097_2414)"/>
<path d="M19.1266 41.2699C20.8578 37.609 30.5748 23.0388 33.4413 24.3653C36.3077 25.6918 31.2386 42.4147 29.5049 46.0757C27.7712 49.7366 22.4393 54.0396 19.9576 52.8948C17.4758 51.7499 17.3991 44.9308 19.1266 41.2699Z" fill="url(#paint1_linear_1097_2414)"/>
<path d="M43.8573 15.7107C42.1274 19.3729 32.4091 33.9431 29.5426 32.6166C26.6762 31.2901 31.7466 14.5734 33.4765 10.905C35.2064 7.23662 40.5408 2.94108 43.0238 4.08714C45.5068 5.2332 45.586 12.0511 43.8573 15.7107Z" fill="url(#paint2_linear_1097_2414)"/>
<path d="M31.8798 46.1814C30.4868 42.3811 26.949 25.2761 29.9236 24.2097C32.8982 23.1433 41.2612 38.5199 42.6529 42.314C44.0447 46.108 43.3494 52.891 40.7671 53.8181C38.1848 54.7451 33.2766 49.9805 31.8798 46.1814Z" fill="url(#paint3_linear_1097_2414)"/>
<path d="M31.1065 10.8005C32.4983 14.6007 36.0361 31.7057 33.0602 32.7722C30.0844 33.8386 21.7239 18.467 20.3271 14.6679C18.9304 10.8689 19.6306 4.09087 22.213 3.16382C24.7953 2.23677 29.7135 7.00143 31.1065 10.8005Z" fill="url(#paint4_linear_1097_2414)"/>
<path d="M13.6199 28.8736C17.4582 27.496 34.7412 23.9932 35.8186 26.9386C36.896 29.884 21.3606 38.159 17.5273 39.5365C13.6941 40.914 6.84098 40.2259 5.90435 37.6699C4.96772 35.114 9.78161 30.2511 13.6199 28.8736Z" fill="url(#paint5_linear_1097_2414)"/>
<path d="M18.1622 19.2833C21.9854 20.7018 37.4253 29.1448 36.3152 32.0778C35.205 35.0108 17.9598 31.3225 14.1391 29.9039C10.3184 28.4853 5.55731 23.5577 6.52034 21.0192C7.48337 18.4807 14.339 17.8597 18.1622 19.2833Z" fill="url(#paint6_linear_1097_2414)"/>
<path d="M49.369 28.1083C45.5307 29.4871 28.2477 32.9875 27.1702 30.0446C26.0928 27.1017 41.6283 18.8229 45.4628 17.4442C49.2973 16.0654 56.1491 16.7548 57.0845 19.3107C58.0199 21.8666 53.2047 26.7308 49.369 28.1083Z" fill="url(#paint7_linear_1097_2414)"/>
<path d="M45.8902 34.732C42.3473 34.732 27.2029 32.5282 27.2029 29.8106C27.2029 27.0929 42.3473 24.8891 45.8902 24.8891C49.433 24.8891 54.8164 27.455 54.8164 29.8106C54.8164 32.1661 49.433 34.732 45.8902 34.732Z" fill="url(#paint8_linear_1097_2414)"/>
<path d="M16.5027 24.8891C20.0455 24.8891 35.1887 27.0916 35.1887 29.8106C35.1887 32.5295 20.0455 34.732 16.5027 34.732C12.9598 34.732 7.57642 32.1636 7.57642 29.8106C7.57642 27.4575 12.9586 24.8891 16.5027 24.8891Z" fill="url(#paint9_linear_1097_2414)"/>
<path d="M26.2235 44.3534C26.2235 40.8468 28.45 25.8585 31.1971 25.8585C33.9441 25.8585 36.1681 40.8468 36.1681 44.3534C36.1681 47.86 33.5745 53.1884 31.1958 53.1884C28.8172 53.1884 26.2235 47.86 26.2235 44.3534Z" fill="url(#paint10_linear_1097_2414)"/>
<path d="M36.1681 15.2664C36.1681 18.773 33.9416 33.7626 31.1958 33.7626C28.45 33.7626 26.2235 18.773 26.2235 15.2664C26.2235 11.7598 28.8184 6.43146 31.1971 6.43146C33.5757 6.43146 36.1681 11.7623 36.1681 15.2664Z" fill="url(#paint11_linear_1097_2414)"/>
<path d="M38.0703 43.5744C35.5647 41.0932 26.431 28.9345 28.3734 27.0157C30.3158 25.0969 42.5975 34.1347 45.1032 36.6147C47.6088 39.0947 49.5801 44.6757 47.8967 46.3407C46.2133 48.0056 40.5759 46.0532 38.0703 43.5744Z" fill="url(#paint12_linear_1097_2414)"/>
<path d="M24.3213 16.0467C26.827 18.5254 35.9606 30.6828 34.0195 32.6041C32.0784 34.5254 19.7953 25.4851 17.2897 23.0064C14.7841 20.5276 12.8127 14.9441 14.4949 13.2804C16.177 11.6167 21.8169 13.5666 24.3213 16.0467Z" fill="url(#paint13_linear_1097_2414)"/>
<path d="M17.2897 36.6147C19.7954 34.1347 32.0772 25.0932 34.0196 27.0157C35.962 28.9383 26.827 41.0932 24.3214 43.5745C21.8157 46.0557 16.1771 48.0044 14.4949 46.3407C12.8128 44.677 14.7854 39.0935 17.2897 36.6147Z" fill="url(#paint14_linear_1097_2414)"/>
<path d="M45.1031 23.0064C42.5962 25.4852 30.3145 34.5267 28.3733 32.6042C26.4322 30.6816 35.5646 18.5255 38.0703 16.0467C40.5759 13.5679 46.2158 11.6155 47.8967 13.2793C49.5776 14.943 47.6088 20.5264 45.1031 23.0064Z" fill="url(#paint15_linear_1097_2414)"/>
<path d="M31.1392 37.1112C29.6171 37.1115 28.1292 36.665 26.8635 35.8282C25.5978 34.9914 24.6113 33.8019 24.0287 32.4101C23.446 31.0184 23.2934 29.4869 23.5902 28.0093C23.887 26.5317 24.6198 25.1744 25.696 24.1091C26.7722 23.0437 28.1434 22.3182 29.6362 22.0242C31.129 21.7302 32.6763 21.881 34.0826 22.4574C35.4888 23.0339 36.6907 24.0101 37.5364 25.2627C38.382 26.5153 38.8334 27.988 38.8334 29.4945C38.8334 31.5144 38.0228 33.4515 36.5799 34.8799C35.137 36.3083 33.1799 37.1109 31.1392 37.1112Z" fill="#FFB773"/>
<defs>
<linearGradient id="paint0_linear_1097_2414" x1="31.2517" y1="29.5634" x2="46.7175" y2="54.9011" gradientUnits="userSpaceOnUse">
<stop stop-color="#E24E74"/>
<stop offset="0.489583" stop-color="#FF5473" stop-opacity="0.78"/>
<stop offset="1" stop-color="#FF7134" stop-opacity="0.38"/>
</linearGradient>
<linearGradient id="paint1_linear_1097_2414" x1="20.2008" y1="31.1354" x2="45.4599" y2="44.2098" gradientUnits="userSpaceOnUse">
<stop stop-color="#E24E74"/>
<stop offset="0.489583" stop-color="#FF5473" stop-opacity="0.78"/>
<stop offset="1" stop-color="#FF7134" stop-opacity="0.38"/>
</linearGradient>
<linearGradient id="paint2_linear_1097_2414" x1="30.9204" y1="32.5168" x2="26.0232" y2="-1.22546" gradientUnits="userSpaceOnUse">
<stop stop-color="#E24E74"/>
<stop offset="0.489583" stop-color="#FF5473" stop-opacity="0.78"/>
<stop offset="1" stop-color="#FF7134" stop-opacity="0.38"/>
</linearGradient>
<linearGradient id="paint3_linear_1097_2414" x1="30.7786" y1="31.2442" x2="54.5961" y2="41.8807" gradientUnits="userSpaceOnUse">
<stop stop-color="#E24E74"/>
<stop offset="0.489583" stop-color="#FF5473" stop-opacity="0.78"/>
<stop offset="1" stop-color="#FF7134" stop-opacity="0.38"/>
</linearGradient>
<linearGradient id="paint4_linear_1097_2414" x1="30.727" y1="28.1175" x2="7.61178" y2="13.444" gradientUnits="userSpaceOnUse">
<stop stop-color="#E24E74"/>
<stop offset="0.489583" stop-color="#FF5473" stop-opacity="0.78"/>
<stop offset="1" stop-color="#FF7134" stop-opacity="0.38"/>
</linearGradient>
<linearGradient id="paint5_linear_1097_2414" x1="27.4418" y1="31.5604" x2="2.32677" y2="22.9357" gradientUnits="userSpaceOnUse">
<stop stop-color="#E24E74"/>
<stop offset="0.489583" stop-color="#FF5473" stop-opacity="0.78"/>
<stop offset="1" stop-color="#FF7134" stop-opacity="0.38"/>
</linearGradient>
<linearGradient id="paint6_linear_1097_2414" x1="26.6687" y1="29.0738" x2="14.6107" y2="8.2443" gradientUnits="userSpaceOnUse">
<stop stop-color="#E24E74"/>
<stop offset="0.489583" stop-color="#FF5473" stop-opacity="0.78"/>
<stop offset="1" stop-color="#FF7134" stop-opacity="0.38"/>
</linearGradient>
<linearGradient id="paint7_linear_1097_2414" x1="29.5676" y1="30.4128" x2="57.1119" y2="38.4191" gradientUnits="userSpaceOnUse">
<stop stop-color="#E24E74"/>
<stop offset="0.489583" stop-color="#FF5473" stop-opacity="0.78"/>
<stop offset="1" stop-color="#FF7134" stop-opacity="0.38"/>
</linearGradient>
<linearGradient id="paint8_linear_1097_2414" x1="31.0108" y1="27.2317" x2="38.1829" y2="45.5713" gradientUnits="userSpaceOnUse">
<stop stop-color="#E24E74"/>
<stop offset="1" stop-color="#E24E74" stop-opacity="0.38"/>
</linearGradient>
<linearGradient id="paint9_linear_1097_2414" x1="11.3842" y1="27.2317" x2="18.5565" y2="45.5711" gradientUnits="userSpaceOnUse">
<stop stop-color="#E24E74"/>
<stop offset="1" stop-color="#E24E74" stop-opacity="0.38"/>
</linearGradient>
<linearGradient id="paint10_linear_1097_2414" x1="27.5949" y1="32.3631" x2="45.137" y2="38.1811" gradientUnits="userSpaceOnUse">
<stop stop-color="#E24E74"/>
<stop offset="1" stop-color="#E24E74" stop-opacity="0.38"/>
</linearGradient>
<linearGradient id="paint11_linear_1097_2414" x1="27.5949" y1="12.9364" x2="45.1372" y2="18.7542" gradientUnits="userSpaceOnUse">
<stop stop-color="#E24E74"/>
<stop offset="1" stop-color="#E24E74" stop-opacity="0.38"/>
</linearGradient>
<linearGradient id="paint12_linear_1097_2414" x1="30.9203" y1="31.5604" x2="52.5538" y2="51.4832" gradientUnits="userSpaceOnUse">
<stop stop-color="#E24E74"/>
<stop offset="1" stop-color="#E24E74" stop-opacity="0.38"/>
</linearGradient>
<linearGradient id="paint13_linear_1097_2414" x1="16.6847" y1="17.4711" x2="38.3172" y2="37.3941" gradientUnits="userSpaceOnUse">
<stop stop-color="#E24E74"/>
<stop offset="1" stop-color="#E24E74" stop-opacity="0.38"/>
</linearGradient>
<linearGradient id="paint14_linear_1097_2414" x1="16.685" y1="31.5597" x2="38.3192" y2="51.4828" gradientUnits="userSpaceOnUse">
<stop stop-color="#E24E74"/>
<stop offset="1" stop-color="#E24E74" stop-opacity="0.38"/>
</linearGradient>
<linearGradient id="paint15_linear_1097_2414" x1="30.9203" y1="17.4706" x2="52.5538" y2="37.3919" gradientUnits="userSpaceOnUse">
<stop stop-color="#E24E74"/>
<stop offset="1" stop-color="#E24E74" stop-opacity="0.38"/>
</linearGradient>
</defs>
</svg>
