<svg width="113" height="113" viewBox="0 0 113 113" fill="none" xmlns="http://www.w3.org/2000/svg">
<path d="M84.5613 83.317C76.518 79.5566 44.5062 58.468 47.4206 52.2489C50.3349 46.0298 87.0765 57.0298 95.1171 60.7875C103.158 64.5451 112.614 76.121 110.099 81.5132C107.584 86.9054 92.6019 87.0719 84.5613 83.317Z" fill="url(#paint0_linear_1097_2590)"/>
<path d="M29.5925 84.5041C33.3571 76.4758 54.4878 44.5236 60.7212 47.4325C66.9546 50.3415 55.9314 87.0147 52.1612 95.043C48.3911 103.071 36.7964 112.508 31.3996 109.997C26.0028 107.487 25.836 92.5325 29.5925 84.5041Z" fill="url(#paint1_linear_1097_2590)"/>
<path d="M83.3721 28.4533C79.6102 36.4843 58.4767 68.4366 52.2433 65.5276C46.0099 62.6187 57.0359 25.9591 60.7979 17.9144C64.5598 9.86973 76.1599 0.449696 81.5595 2.96298C86.9591 5.47626 87.1313 20.4277 83.3721 28.4533Z" fill="url(#paint2_linear_1097_2590)"/>
<path d="M57.3257 95.2749C54.2965 86.941 46.6031 49.43 53.0716 47.0914C59.5402 44.7528 77.7264 78.4733 80.7529 86.7936C83.7794 95.1139 82.2675 109.989 76.652 112.022C71.0364 114.055 60.3631 103.606 57.3257 95.2749Z" fill="url(#paint3_linear_1097_2590)"/>
<path d="M55.6443 17.6852C58.6708 26.0191 66.3641 63.5301 59.8929 65.8687C53.4216 68.2073 35.2408 34.4977 32.2034 26.1665C29.166 17.8353 30.6888 2.97113 36.3043 0.938131C41.9199 -1.09487 52.6151 9.35394 55.6443 17.6852Z" fill="url(#paint4_linear_1097_2590)"/>
<path d="M17.6178 57.3192C25.9645 54.2983 63.5481 46.6166 65.8911 53.0758C68.2341 59.535 34.4507 77.6819 26.1149 80.7028C17.779 83.7236 2.87628 82.2146 0.839489 76.6095C-1.19731 71.0044 9.271 60.34 17.6178 57.3192Z" fill="url(#paint5_linear_1097_2590)"/>
<path d="M27.4955 36.2879C35.8095 39.3988 69.3851 57.9141 66.971 64.3461C64.557 70.778 27.0553 62.6896 18.7469 59.5787C10.4384 56.4678 0.0848888 45.6615 2.1791 40.0947C4.2733 34.5278 19.1816 33.1661 27.4955 36.2879Z" fill="url(#paint6_linear_1097_2590)"/>
<path d="M95.3577 55.6409C87.0109 58.6645 49.4273 66.3408 47.0843 59.8871C44.7413 53.4333 78.5248 35.2782 86.8633 32.2546C95.2019 29.231 110.102 30.7428 112.136 36.3479C114.17 41.953 103.699 52.6201 95.3577 55.6409Z" fill="url(#paint7_linear_1097_2590)"/>
<path d="M87.7929 70.1666C80.0886 70.1666 47.1554 65.3338 47.1554 59.374C47.1554 53.4141 80.0886 48.5813 87.7929 48.5813C95.4971 48.5813 107.204 54.2082 107.204 59.374C107.204 64.5397 95.4971 70.1666 87.7929 70.1666Z" fill="url(#paint8_linear_1097_2590)"/>
<path d="M23.8866 48.5813C31.5909 48.5813 64.5214 53.4114 64.5214 59.374C64.5214 65.3365 31.5909 70.1666 23.8866 70.1666C16.1824 70.1666 4.47559 64.5342 4.47559 59.374C4.47559 54.2137 16.1796 48.5813 23.8866 48.5813Z" fill="url(#paint9_linear_1097_2590)"/>
<path d="M45.0256 91.2662C45.0256 83.5763 49.8675 50.7072 55.8411 50.7072C61.8148 50.7072 66.6512 83.5763 66.6512 91.2662C66.6512 98.9562 61.0111 110.641 55.8384 110.641C50.6658 110.641 45.0256 98.9562 45.0256 91.2662Z" fill="url(#paint10_linear_1097_2590)"/>
<path d="M66.6512 27.479C66.6512 35.1689 61.8094 68.0408 55.8384 68.0408C49.8675 68.0408 45.0256 35.1689 45.0256 27.479C45.0256 19.7891 50.6685 8.10406 55.8411 8.10406C61.0138 8.10406 66.6512 19.7945 66.6512 27.479Z" fill="url(#paint11_linear_1097_2590)"/>
<path d="M70.7877 89.5579C65.3389 84.1165 45.4767 57.4528 49.7007 53.2449C53.9246 49.037 80.6326 68.8567 86.0814 74.2954C91.5302 79.734 95.817 91.9729 92.1562 95.6242C88.4955 99.2754 76.2364 94.9938 70.7877 89.5579Z" fill="url(#paint12_linear_1097_2590)"/>
<path d="M40.8892 29.19C46.3379 34.6259 66.2001 61.2869 61.9789 65.5003C57.7576 69.7136 31.0469 49.8884 25.5982 44.4526C20.1494 39.0167 15.8626 26.7723 19.5206 23.1238C23.1786 19.4753 35.4431 23.7514 40.8892 29.19Z" fill="url(#paint13_linear_1097_2590)"/>
<path d="M25.5981 74.2954C31.0469 68.8568 57.7549 49.0289 61.9788 53.245C66.2028 57.4611 46.3379 84.1166 40.8891 89.558C35.4404 94.9993 23.1786 99.2727 19.5205 95.6242C15.8625 91.9757 20.1521 79.7313 25.5981 74.2954Z" fill="url(#paint14_linear_1097_2590)"/>
<path d="M86.0815 44.4526C80.63 49.8885 53.922 69.7164 49.7008 65.5003C45.4795 61.2842 65.339 34.626 70.7877 29.1901C76.2365 23.7542 88.501 19.4726 92.1563 23.1211C95.8116 26.7696 91.5302 39.014 86.0815 44.4526Z" fill="url(#paint15_linear_1097_2590)"/>
<path d="M55.7154 75.3842C52.4055 75.3848 49.1698 74.4056 46.4175 72.5705C43.6651 70.7355 41.5198 68.1269 40.2528 65.0748C38.9858 62.0228 38.654 58.6642 39.2994 55.4239C39.9448 52.1836 41.5384 49.207 43.8786 46.8708C46.2189 44.5345 49.2007 42.9434 52.4469 42.2986C55.6932 41.6539 59.0581 41.9845 62.1161 43.2487C65.1741 44.5128 67.7878 46.6538 69.6267 49.4007C71.4657 52.1476 72.4472 55.3771 72.4472 58.6809C72.4472 63.1104 70.6845 67.3586 67.5467 70.491C64.409 73.6234 60.1532 75.3835 55.7154 75.3842Z" fill="#FCEF7A"/>
<defs>
<linearGradient id="paint0_linear_1097_2590" x1="55.9599" y1="58.832" x2="90.006" y2="114.142" gradientUnits="userSpaceOnUse">
<stop stop-color="#B77ADD"/>
<stop offset="0.489583" stop-color="#B77ADD" stop-opacity="0.78"/>
<stop offset="1" stop-color="#70D9D2" stop-opacity="0.38"/>
</linearGradient>
<linearGradient id="paint1_linear_1097_2590" x1="31.9284" y1="62.2792" x2="87.0513" y2="90.5724" gradientUnits="userSpaceOnUse">
<stop stop-color="#B77ADD"/>
<stop offset="0.489583" stop-color="#B77ADD" stop-opacity="0.78"/>
<stop offset="1" stop-color="#70D9D2" stop-opacity="0.38"/>
</linearGradient>
<linearGradient id="paint2_linear_1097_2590" x1="55.2393" y1="65.3087" x2="44.413" y2="-8.66156" gradientUnits="userSpaceOnUse">
<stop stop-color="#B77ADD"/>
<stop offset="0.489583" stop-color="#FF5473" stop-opacity="0.78"/>
<stop offset="1" stop-color="#70D9D2" stop-opacity="0.38"/>
</linearGradient>
<linearGradient id="paint3_linear_1097_2590" x1="54.9309" y1="62.5179" x2="106.869" y2="85.518" gradientUnits="userSpaceOnUse">
<stop stop-color="#B77ADD"/>
<stop offset="0.489583" stop-color="#B77ADD" stop-opacity="0.78"/>
<stop offset="1" stop-color="#70D9D2" stop-opacity="0.38"/>
</linearGradient>
<linearGradient id="paint4_linear_1097_2590" x1="54.819" y1="55.6611" x2="4.31042" y2="23.8671" gradientUnits="userSpaceOnUse">
<stop stop-color="#B77ADD"/>
<stop offset="0.489583" stop-color="#B77ADD" stop-opacity="0.78"/>
<stop offset="1" stop-color="#70D9D2" stop-opacity="0.38"/>
</linearGradient>
<linearGradient id="paint5_linear_1097_2590" x1="47.6748" y1="63.2113" x2="-7.03666" y2="44.5805" gradientUnits="userSpaceOnUse">
<stop stop-color="#B77ADD"/>
<stop offset="0.489583" stop-color="#B77ADD" stop-opacity="0.78"/>
<stop offset="1" stop-color="#70D9D2" stop-opacity="0.38"/>
</linearGradient>
<linearGradient id="paint6_linear_1097_2590" x1="45.9938" y1="57.7584" x2="19.4404" y2="12.2734" gradientUnits="userSpaceOnUse">
<stop stop-color="#B77ADD"/>
<stop offset="0.489583" stop-color="#B77ADD" stop-opacity="0.78"/>
<stop offset="1" stop-color="#70D9D2" stop-opacity="0.38"/>
</linearGradient>
<linearGradient id="paint7_linear_1097_2590" x1="52.2975" y1="60.6946" x2="112.274" y2="77.9817" gradientUnits="userSpaceOnUse">
<stop stop-color="#B77ADD"/>
<stop offset="0.489583" stop-color="#B77ADD" stop-opacity="0.78"/>
<stop offset="1" stop-color="#70D9D2" stop-opacity="0.38"/>
</linearGradient>
<linearGradient id="paint8_linear_1097_2590" x1="55.4361" y1="53.7187" x2="71.2616" y2="93.8467" gradientUnits="userSpaceOnUse">
<stop stop-color="#B77ADD"/>
<stop offset="1" stop-color="#70D9D2" stop-opacity="0.38"/>
</linearGradient>
<linearGradient id="paint9_linear_1097_2590" x1="12.756" y1="53.7187" x2="28.582" y2="93.8462" gradientUnits="userSpaceOnUse">
<stop stop-color="#B77ADD"/>
<stop offset="1" stop-color="#70D9D2" stop-opacity="0.38"/>
</linearGradient>
<linearGradient id="paint10_linear_1097_2590" x1="48.0078" y1="64.9716" x2="86.2182" y2="77.5384" gradientUnits="userSpaceOnUse">
<stop stop-color="#B77ADD"/>
<stop offset="1" stop-color="#70D9D2" stop-opacity="0.38"/>
</linearGradient>
<linearGradient id="paint11_linear_1097_2590" x1="48.0078" y1="22.3692" x2="86.2185" y2="34.9355" gradientUnits="userSpaceOnUse">
<stop stop-color="#B77ADD"/>
<stop offset="1" stop-color="#70D9D2" stop-opacity="0.38"/>
</linearGradient>
<linearGradient id="paint12_linear_1097_2590" x1="55.2392" y1="63.2114" x2="102.647" y2="106.504" gradientUnits="userSpaceOnUse">
<stop stop-color="#B77ADD"/>
<stop offset="1" stop-color="#70D9D2" stop-opacity="0.38"/>
</linearGradient>
<linearGradient id="paint13_linear_1097_2590" x1="24.2826" y1="32.3138" x2="71.6879" y2="75.607" gradientUnits="userSpaceOnUse">
<stop stop-color="#B77ADD"/>
<stop offset="1" stop-color="#70D9D2" stop-opacity="0.38"/>
</linearGradient>
<linearGradient id="paint14_linear_1097_2590" x1="24.283" y1="63.2099" x2="71.692" y2="106.503" gradientUnits="userSpaceOnUse">
<stop stop-color="#B77ADD"/>
<stop offset="1" stop-color="#70D9D2" stop-opacity="0.38"/>
</linearGradient>
<linearGradient id="paint15_linear_1097_2590" x1="55.2395" y1="32.3125" x2="102.647" y2="75.602" gradientUnits="userSpaceOnUse">
<stop stop-color="#B77ADD"/>
<stop offset="1" stop-color="#70D9D2" stop-opacity="0.38"/>
</linearGradient>
</defs>
</svg>
