<svg width="81" height="74" viewBox="0 0 81 74" fill="none" xmlns="http://www.w3.org/2000/svg">
<path d="M37.5737 9.75329C34.8825 6.19366 30.9455 3.24247 28.5595 4.10738C25.5826 5.18648 24.5511 12.3721 25.664 17.4014C22.7947 16.3073 19.8775 16.0017 18.6363 17.2413C17.4167 18.4592 17.6907 21.2954 18.7394 24.1144C14.2258 23.8037 9.28692 24.8829 8.38328 27.288C7.61987 29.32 9.65419 32.531 12.4779 35.1264C10.8525 36.2079 9.74107 37.4771 9.74107 38.7014C9.74107 39.6284 10.3784 40.5812 11.3936 41.4587C8.73875 43.9551 6.88172 46.9498 7.59123 48.9048C8.55695 51.5658 14.4147 52.6674 19.2389 52.0771C17.8013 55.2575 17.2411 58.7683 18.6363 60.1615C19.5 61.0241 21.175 61.1387 23.0807 60.7601C22.9795 64.3888 23.7871 67.7981 25.6596 68.6703C27.9631 69.7432 32.1762 67.1304 35.18 63.8061C36.4353 66.6832 38.3194 69.0516 40.1089 69.0516C41.5719 69.0516 43.0982 67.4685 44.2924 65.3186C46.9053 68.3594 50.2788 70.6433 52.4147 69.869C54.685 69.0461 55.8208 64.6684 55.74 60.4074C58.196 61.1508 60.5107 61.2308 61.5814 60.1615C62.6733 59.071 62.5693 56.6867 61.7845 54.1781C66.2178 54.8022 71.1182 54.1085 72.19 51.8078C73.2456 49.542 70.7349 45.4317 67.4887 42.4415C69.2504 41.3259 70.4782 39.9894 70.4782 38.7014C70.4782 37.2874 68.9985 35.8151 66.9572 34.6406C70.8541 31.9675 74.3214 27.6282 73.3943 25.07C72.4561 22.4815 66.8888 21.3676 62.1452 21.8526C62.5654 19.8771 62.4703 18.128 61.5814 17.2397C60.7813 16.44 59.2833 16.2838 57.5504 16.5677C58.3966 11.9322 57.7674 6.44852 55.3162 5.30609C52.5873 4.03425 47.1796 7.92444 44.2775 12.0556C43.0861 9.91959 41.5671 8.34961 40.1105 8.34961C39.2605 8.34961 38.3891 8.88393 37.5737 9.75329Z" fill="#FCEF7A"/>
<path d="M57.091 52.8757C52.3355 50.6495 33.4088 38.165 35.1319 34.4833C36.855 30.8016 58.5781 37.3137 63.332 39.5382C68.0859 41.7627 73.6771 48.6156 72.19 51.8078C70.7029 55 61.8449 55.0986 57.091 52.8757Z" fill="url(#paint0_linear_1097_2990)"/>
<path d="M24.5912 53.5784C26.817 48.8257 39.3103 29.9099 42.9958 31.6321C46.6812 33.3542 40.1638 55.0647 37.9348 59.8175C35.7057 64.5702 28.8505 70.1566 25.6596 68.6703C22.4688 67.1841 22.3702 58.3312 24.5912 53.5784Z" fill="url(#paint1_linear_1097_2990)"/>
<path d="M56.3879 20.3964C54.1637 25.1508 41.6687 44.0665 37.9833 42.3444C34.2978 40.6223 40.8169 18.9198 43.0411 14.1574C45.2653 9.39491 52.1238 3.81825 55.3162 5.30612C58.5087 6.79398 58.6105 15.6452 56.3879 20.3964Z" fill="url(#paint2_linear_1097_2990)"/>
<path d="M40.9882 59.9548C39.1972 55.0211 34.6486 32.8146 38.473 31.4301C42.2975 30.0457 53.0499 50.0083 54.8393 54.9339C56.6287 59.8595 55.7348 68.6655 52.4147 69.869C49.0945 71.0726 42.784 64.8869 40.9882 59.9548Z" fill="url(#paint3_linear_1097_2990)"/>
<path d="M39.9941 14.0216C41.7835 18.9553 46.3321 41.1618 42.506 42.5463C38.68 43.9308 27.9307 23.9746 26.1349 19.0426C24.339 14.1105 25.2394 5.31092 28.5595 4.10738C31.8797 2.90384 38.2031 9.08954 39.9941 14.0216Z" fill="url(#paint4_linear_1097_2990)"/>
<path d="M17.5112 37.485C22.4462 35.6966 44.6672 31.149 46.0524 34.9729C47.4377 38.7968 27.4635 49.5397 22.5351 51.3281C17.6066 53.1164 8.79547 52.2231 7.59123 48.9049C6.387 45.5867 12.5763 39.2733 17.5112 37.485Z" fill="url(#paint5_linear_1097_2990)"/>
<path d="M23.3514 25.0344C28.267 26.8761 48.1183 37.8372 46.691 41.6449C45.2636 45.4526 23.0912 40.6643 18.1788 38.8226C13.2665 36.981 7.14513 30.5836 8.38331 27.288C9.62149 23.9925 18.4359 23.1863 23.3514 25.0344Z" fill="url(#paint6_linear_1097_2990)"/>
<path d="M63.4743 36.4915C58.5393 38.2814 36.3183 42.8258 34.9331 39.0052C33.5478 35.1845 53.5219 24.4367 58.452 22.6467C63.3821 20.8568 72.1916 21.7518 73.3943 25.07C74.5969 28.3882 68.406 34.7031 63.4743 36.4915Z" fill="url(#paint7_linear_1097_2990)"/>
<path d="M59.0016 45.0906C54.4465 45.0906 34.9751 42.2296 34.9751 38.7014C34.9751 35.1732 54.4465 32.3121 59.0016 32.3121C63.5567 32.3121 70.4782 35.6433 70.4782 38.7014C70.4782 41.7595 63.5567 45.0906 59.0016 45.0906Z" fill="url(#paint8_linear_1097_2990)"/>
<path d="M21.2177 32.3121C25.7728 32.3121 45.2426 35.1715 45.2426 38.7014C45.2426 42.2312 25.7728 45.0906 21.2177 45.0906C16.6626 45.0906 9.74109 41.7563 9.74109 38.7014C9.74109 35.6465 16.661 32.3121 21.2177 32.3121Z" fill="url(#paint9_linear_1097_2990)"/>
<path d="M33.7159 57.5816C33.7159 53.0292 36.5786 33.5706 40.1105 33.5706C43.6424 33.5706 46.5019 53.0292 46.5019 57.5816C46.5019 62.134 43.1672 69.0515 40.1089 69.0515C37.0506 69.0515 33.7159 62.134 33.7159 57.5816Z" fill="url(#paint10_linear_1097_2990)"/>
<path d="M46.5019 19.8196C46.5019 24.372 43.6392 43.8322 40.1089 43.8322C36.5786 43.8322 33.7159 24.372 33.7159 19.8196C33.7159 15.2671 37.0522 8.34961 40.1105 8.34961C43.1688 8.34961 46.5019 15.2704 46.5019 19.8196Z" fill="url(#paint11_linear_1097_2990)"/>
<path d="M48.9475 56.5703C45.7259 53.349 33.9826 37.564 36.48 35.073C38.9774 32.5819 54.7682 44.3152 57.9897 47.5348C61.2113 50.7545 63.7458 58 61.5814 60.1615C59.417 62.323 52.169 59.7883 48.9475 56.5703Z" fill="url(#paint12_linear_1097_2990)"/>
<path d="M31.2702 20.8325C34.4918 24.0505 46.2351 39.8338 43.7393 42.3281C41.2436 44.8225 25.4511 33.0859 22.2296 29.8679C19.0081 26.6498 16.4735 19.4012 18.6363 17.2413C20.799 15.0813 28.0503 17.6128 31.2702 20.8325Z" fill="url(#paint13_linear_1097_2990)"/>
<path d="M22.2296 47.5349C25.4511 44.3153 41.242 32.5771 43.7393 35.0731C46.2367 37.569 34.4918 53.3491 31.2703 56.5703C28.0487 59.7916 20.799 62.3215 18.6363 60.1616C16.4735 58.0017 19.0097 50.753 22.2296 47.5349Z" fill="url(#paint14_linear_1097_2990)"/>
<path d="M57.9897 29.8679C54.7666 33.086 38.9757 44.8241 36.48 42.3282C33.9842 39.8322 45.7259 24.0505 48.9474 20.8325C52.169 17.6144 59.4203 15.0797 61.5814 17.2396C63.7426 19.3996 61.2113 26.6482 57.9897 29.8679Z" fill="url(#paint15_linear_1097_2990)"/>
<path d="M40.0361 48.1794C38.0792 48.1798 36.1661 47.6001 34.5388 46.5137C32.9115 45.4274 31.6431 43.8831 30.894 42.0763C30.1449 40.2695 29.9487 38.2812 30.3303 36.3629C30.7119 34.4446 31.6541 32.6825 33.0377 31.2995C34.4214 29.9164 36.1844 28.9745 38.1037 28.5928C40.023 28.2111 42.0125 28.4068 43.8205 29.1552C45.6285 29.9036 47.1738 31.171 48.2611 32.7972C49.3483 34.4234 49.9287 36.3352 49.9287 38.291C49.9287 40.9133 48.8865 43.4282 47.0313 45.2826C45.1761 47.137 42.6599 48.179 40.0361 48.1794Z" fill="#FCEF7A"/>
<defs>
<linearGradient id="paint0_linear_1097_2990" x1="40.1807" y1="38.3806" x2="60.3476" y2="71.1012" gradientUnits="userSpaceOnUse">
<stop stop-color="#8DDD7A"/>
<stop offset="0.489583" stop-color="#8DDD7A" stop-opacity="0.78"/>
<stop offset="1" stop-color="#FF6A3C" stop-opacity="0.38"/>
</linearGradient>
<linearGradient id="paint1_linear_1097_2990" x1="25.9723" y1="40.4213" x2="58.5806" y2="57.1368" gradientUnits="userSpaceOnUse">
<stop stop-color="#8DDD7A"/>
<stop offset="0.489583" stop-color="#8DDD7A" stop-opacity="0.78"/>
<stop offset="1" stop-color="#FF6A3C" stop-opacity="0.38"/>
</linearGradient>
<linearGradient id="paint2_linear_1097_2990" x1="39.7546" y1="42.2148" x2="33.3376" y2="-1.57325" gradientUnits="userSpaceOnUse">
<stop stop-color="#8DDD7A"/>
<stop offset="0.489583" stop-color="#8DDD7A" stop-opacity="0.78"/>
<stop offset="1" stop-color="#FF6A3C" stop-opacity="0.38"/>
</linearGradient>
<linearGradient id="paint3_linear_1097_2990" x1="39.5723" y1="40.5626" x2="70.2929" y2="54.1495" gradientUnits="userSpaceOnUse">
<stop stop-color="#8DDD7A"/>
<stop offset="0.489583" stop-color="#8DDD7A" stop-opacity="0.78"/>
<stop offset="1" stop-color="#FF6A3C" stop-opacity="0.38"/>
</linearGradient>
<linearGradient id="paint4_linear_1097_2990" x1="39.5062" y1="36.5034" x2="9.62168" y2="17.7159" gradientUnits="userSpaceOnUse">
<stop stop-color="#8DDD7A"/>
<stop offset="0.489583" stop-color="#8DDD7A" stop-opacity="0.78"/>
<stop offset="1" stop-color="#FF6A3C" stop-opacity="0.38"/>
</linearGradient>
<linearGradient id="paint5_linear_1097_2990" x1="35.2822" y1="40.9732" x2="2.92592" y2="29.969" gradientUnits="userSpaceOnUse">
<stop stop-color="#8DDD7A"/>
<stop offset="0.489583" stop-color="#8DDD7A" stop-opacity="0.78"/>
<stop offset="1" stop-color="#FF6A3C" stop-opacity="0.38"/>
</linearGradient>
<linearGradient id="paint6_linear_1097_2990" x1="34.2884" y1="37.745" x2="18.5588" y2="10.8355" gradientUnits="userSpaceOnUse">
<stop stop-color="#8DDD7A"/>
<stop offset="0.489583" stop-color="#8DDD7A" stop-opacity="0.78"/>
<stop offset="1" stop-color="#FF6A3C" stop-opacity="0.38"/>
</linearGradient>
<linearGradient id="paint7_linear_1097_2990" x1="38.0153" y1="39.4832" x2="73.4826" y2="49.693" gradientUnits="userSpaceOnUse">
<stop stop-color="#8DDD7A"/>
<stop offset="0.489583" stop-color="#8DDD7A" stop-opacity="0.78"/>
<stop offset="1" stop-color="#FF6A3C" stop-opacity="0.38"/>
</linearGradient>
<linearGradient id="paint8_linear_1097_2990" x1="39.871" y1="35.3535" x2="49.2485" y2="59.1011" gradientUnits="userSpaceOnUse">
<stop stop-color="#8DDD7A"/>
<stop offset="1" stop-color="#FF6A3C" stop-opacity="0.38"/>
</linearGradient>
<linearGradient id="paint9_linear_1097_2990" x1="14.6368" y1="35.3535" x2="24.0146" y2="59.1008" gradientUnits="userSpaceOnUse">
<stop stop-color="#8DDD7A"/>
<stop offset="1" stop-color="#FF6A3C" stop-opacity="0.38"/>
</linearGradient>
<linearGradient id="paint10_linear_1097_2990" x1="35.4791" y1="42.0152" x2="58.0763" y2="49.4375" gradientUnits="userSpaceOnUse">
<stop stop-color="#8DDD7A"/>
<stop offset="1" stop-color="#FF6A3C" stop-opacity="0.38"/>
</linearGradient>
<linearGradient id="paint11_linear_1097_2990" x1="35.4791" y1="16.7946" x2="58.0765" y2="24.2166" gradientUnits="userSpaceOnUse">
<stop stop-color="#8DDD7A"/>
<stop offset="1" stop-color="#FF6A3C" stop-opacity="0.38"/>
</linearGradient>
<linearGradient id="paint12_linear_1097_2990" x1="39.7546" y1="40.9731" x2="67.8165" y2="66.5665" gradientUnits="userSpaceOnUse">
<stop stop-color="#8DDD7A"/>
<stop offset="1" stop-color="#FF6A3C" stop-opacity="0.38"/>
</linearGradient>
<linearGradient id="paint13_linear_1097_2990" x1="21.4518" y1="22.6817" x2="49.5124" y2="48.2755" gradientUnits="userSpaceOnUse">
<stop stop-color="#8DDD7A"/>
<stop offset="1" stop-color="#FF6A3C" stop-opacity="0.38"/>
</linearGradient>
<linearGradient id="paint14_linear_1097_2990" x1="21.452" y1="40.9723" x2="49.5149" y2="66.566" gradientUnits="userSpaceOnUse">
<stop stop-color="#8DDD7A"/>
<stop offset="1" stop-color="#FF6A3C" stop-opacity="0.38"/>
</linearGradient>
<linearGradient id="paint15_linear_1097_2990" x1="39.7547" y1="22.681" x2="67.8166" y2="48.2725" gradientUnits="userSpaceOnUse">
<stop stop-color="#8DDD7A"/>
<stop offset="1" stop-color="#FF6A3C" stop-opacity="0.38"/>
</linearGradient>
</defs>
</svg>
