<svg width="116" height="115" viewBox="0 0 116 115" fill="none" xmlns="http://www.w3.org/2000/svg">
<path d="M86.6758 84.7461C78.4564 80.9256 45.7436 59.4995 48.7218 53.1809C51.7 46.8623 89.2461 58.0384 97.4627 61.8561C105.679 65.6739 115.343 77.435 112.773 82.9135C110.203 88.392 94.8924 88.5611 86.6758 84.7461Z" fill="url(#paint0_linear_1097_2552)"/>
<path d="M30.5032 85.9523C34.3503 77.7955 55.9437 45.332 62.3136 48.2875C68.6835 51.243 57.4189 88.503 53.5662 96.6597C49.7135 104.817 37.8649 114.404 32.3499 111.853C26.8349 109.302 26.6645 94.109 30.5032 85.9523Z" fill="url(#paint1_linear_1097_2552)"/>
<path d="M85.4604 29.0045C81.6161 37.1641 60.0199 69.6276 53.65 66.6721C47.2801 63.7165 58.5476 26.4704 62.3919 18.297C66.2362 10.1236 78.0904 0.552889 83.6082 3.10638C89.126 5.65988 89.3019 20.8505 85.4604 29.0045Z" fill="url(#paint2_linear_1097_2552)"/>
<path d="M58.8438 96.8954C55.7482 88.4281 47.8864 50.317 54.4966 47.9409C61.1068 45.5649 79.6913 79.825 82.784 88.2784C85.8768 96.7318 84.3318 111.845 78.5933 113.91C72.8548 115.976 61.9477 105.36 58.8438 96.8954Z" fill="url(#paint3_linear_1097_2552)"/>
<path d="M57.1256 18.0642C60.2183 26.5314 68.0801 64.6426 61.4672 67.0186C54.8542 69.3947 36.2753 35.1457 33.1713 26.6812C30.0674 18.2167 31.6236 3.11471 37.3621 1.04917C43.1006 -1.01636 54.03 9.59964 57.1256 18.0642Z" fill="url(#paint4_linear_1097_2552)"/>
<path d="M18.2663 58.3323C26.7958 55.2631 65.2025 47.4584 67.5968 54.021C69.9911 60.5836 35.4678 79.0209 26.9495 82.0901C18.4311 85.1592 3.20203 83.626 1.12064 77.9313C-0.960759 72.2365 9.73677 61.4015 18.2663 58.3323Z" fill="url(#paint5_linear_1097_2552)"/>
<path d="M28.3604 36.9645C36.8564 40.1252 71.1673 58.9368 68.7004 65.4716C66.2334 72.0064 27.9106 63.7887 19.4202 60.628C10.9298 57.4673 0.349587 46.4881 2.48965 40.8322C4.62972 35.1762 19.8644 33.7927 28.3604 36.9645Z" fill="url(#paint6_linear_1097_2552)"/>
<path d="M97.7086 56.6272C89.179 59.6992 50.7724 67.4983 48.3781 60.9413C45.9838 54.3843 80.507 35.9387 89.0282 32.8667C97.5493 29.7947 112.776 31.3307 114.854 37.0255C116.933 42.7202 106.233 53.558 97.7086 56.6272Z" fill="url(#paint7_linear_1097_2552)"/>
<path d="M89.9781 71.3853C82.1052 71.3853 48.4508 66.4752 48.4508 60.42C48.4508 54.3648 82.1052 49.4547 89.9781 49.4547C97.8511 49.4547 109.814 55.1716 109.814 60.42C109.814 65.6684 97.8511 71.3853 89.9781 71.3853Z" fill="url(#paint8_linear_1097_2552)"/>
<path d="M24.6725 49.4547C32.5455 49.4547 66.1971 54.362 66.1971 60.42C66.1971 66.478 32.5455 71.3853 24.6725 71.3853C16.7996 71.3853 4.83643 65.6628 4.83643 60.42C4.83643 55.1771 16.7968 49.4547 24.6725 49.4547Z" fill="url(#paint9_linear_1097_2552)"/>
<path d="M46.2744 92.8225C46.2744 85.0096 51.2223 51.6145 57.3268 51.6145C63.4313 51.6145 68.3735 85.0096 68.3735 92.8225C68.3735 100.636 62.6099 112.507 57.324 112.507C52.0381 112.507 46.2744 100.636 46.2744 92.8225Z" fill="url(#paint10_linear_1097_2552)"/>
<path d="M68.3735 28.0147C68.3735 35.8277 63.4257 69.2255 57.324 69.2255C51.2223 69.2255 46.2744 35.8277 46.2744 28.0147C46.2744 20.2017 52.0409 8.32977 57.3268 8.32977C62.6127 8.32977 68.3735 20.2073 68.3735 28.0147Z" fill="url(#paint11_linear_1097_2552)"/>
<path d="M72.6006 91.0869C67.0325 85.5585 46.7354 58.4681 51.0519 54.1929C55.3683 49.9176 82.6611 70.0545 88.2292 75.5801C93.7973 81.1058 98.178 93.5406 94.4371 97.2502C90.6962 100.96 78.1687 96.6097 72.6006 91.0869Z" fill="url(#paint12_linear_1097_2552)"/>
<path d="M42.0473 29.7531C47.6154 35.2759 67.9125 62.3635 63.5988 66.6443C59.2852 70.9251 31.9896 50.7827 26.4215 45.2598C20.8534 39.7369 16.4727 27.2966 20.2108 23.5898C23.9489 19.8829 36.482 24.2274 42.0473 29.7531Z" fill="url(#paint13_linear_1097_2552)"/>
<path d="M26.4215 75.5802C31.9896 70.0545 59.2824 49.9094 63.5989 54.1929C67.9153 58.4765 47.6155 85.5585 42.0474 91.0869C36.4793 96.6153 23.949 100.957 20.2109 97.2502C16.4727 93.5434 20.8563 81.1031 26.4215 75.5802Z" fill="url(#paint14_linear_1097_2552)"/>
<path d="M88.2292 45.2598C82.6583 50.7827 55.3655 70.9279 51.0518 66.6443C46.7382 62.3608 67.0325 35.276 72.6005 29.7531C78.1686 24.2302 90.7017 19.8801 94.437 23.587C98.1724 27.2939 93.7973 39.7342 88.2292 45.2598Z" fill="url(#paint15_linear_1097_2552)"/>
<path d="M57.1983 76.6864C53.8159 76.6869 50.5093 75.6921 47.6967 73.8277C44.8841 71.9632 42.6918 69.313 41.397 66.212C40.1023 63.1111 39.7632 59.6988 40.4227 56.4067C41.0823 53.1145 42.7108 50.0903 45.1023 47.7167C47.4938 45.343 50.5409 43.7265 53.8582 43.0714C57.1755 42.4164 60.6141 42.7523 63.7391 44.0367C66.864 45.3211 69.535 47.4962 71.4142 50.2871C73.2934 53.078 74.2964 56.3592 74.2964 59.7158C74.2964 64.2162 72.4951 68.5323 69.2887 71.7148C66.0822 74.8973 61.7332 76.6856 57.1983 76.6864Z" fill="#FFB773"/>
<defs>
<linearGradient id="paint0_linear_1097_2552" x1="57.4481" y1="59.8694" x2="91.9484" y2="116.243" gradientUnits="userSpaceOnUse">
<stop stop-color="#E24E74"/>
<stop offset="0.489583" stop-color="#FF5473" stop-opacity="0.78"/>
<stop offset="1" stop-color="#FF7134" stop-opacity="0.38"/>
</linearGradient>
<linearGradient id="paint1_linear_1097_2552" x1="32.8903" y1="63.3717" x2="89.0839" y2="92.3818" gradientUnits="userSpaceOnUse">
<stop stop-color="#E24E74"/>
<stop offset="0.489583" stop-color="#FF5473" stop-opacity="0.78"/>
<stop offset="1" stop-color="#FF7134" stop-opacity="0.38"/>
</linearGradient>
<linearGradient id="paint2_linear_1097_2552" x1="56.7116" y1="66.4496" x2="45.7729" y2="-8.72229" gradientUnits="userSpaceOnUse">
<stop stop-color="#E24E74"/>
<stop offset="0.489583" stop-color="#FF5473" stop-opacity="0.78"/>
<stop offset="1" stop-color="#FF7134" stop-opacity="0.38"/>
</linearGradient>
<linearGradient id="paint3_linear_1097_2552" x1="56.3966" y1="63.6142" x2="109.371" y2="87.2094" gradientUnits="userSpaceOnUse">
<stop stop-color="#E24E74"/>
<stop offset="0.489583" stop-color="#FF5473" stop-opacity="0.78"/>
<stop offset="1" stop-color="#FF7134" stop-opacity="0.38"/>
</linearGradient>
<linearGradient id="paint4_linear_1097_2552" x1="56.2822" y1="56.6477" x2="4.83755" y2="24.0765" gradientUnits="userSpaceOnUse">
<stop stop-color="#E24E74"/>
<stop offset="0.489583" stop-color="#FF5473" stop-opacity="0.78"/>
<stop offset="1" stop-color="#FF7134" stop-opacity="0.38"/>
</linearGradient>
<linearGradient id="paint5_linear_1097_2552" x1="48.9816" y1="64.3187" x2="-6.86042" y2="45.1926" gradientUnits="userSpaceOnUse">
<stop stop-color="#E24E74"/>
<stop offset="0.489583" stop-color="#FF5473" stop-opacity="0.78"/>
<stop offset="1" stop-color="#FF7134" stop-opacity="0.38"/>
</linearGradient>
<linearGradient id="paint6_linear_1097_2552" x1="47.2638" y1="58.7785" x2="20.3625" y2="12.4302" gradientUnits="userSpaceOnUse">
<stop stop-color="#E24E74"/>
<stop offset="0.489583" stop-color="#FF5473" stop-opacity="0.78"/>
<stop offset="1" stop-color="#FF7134" stop-opacity="0.38"/>
</linearGradient>
<linearGradient id="paint7_linear_1097_2552" x1="53.7055" y1="61.7617" x2="114.94" y2="79.5141" gradientUnits="userSpaceOnUse">
<stop stop-color="#E24E74"/>
<stop offset="0.489583" stop-color="#FF5473" stop-opacity="0.78"/>
<stop offset="1" stop-color="#FF7134" stop-opacity="0.38"/>
</linearGradient>
<linearGradient id="paint8_linear_1097_2552" x1="56.9129" y1="54.6742" x2="72.9236" y2="95.5076" gradientUnits="userSpaceOnUse">
<stop stop-color="#E24E74"/>
<stop offset="1" stop-color="#E24E74" stop-opacity="0.38"/>
</linearGradient>
<linearGradient id="paint9_linear_1097_2552" x1="13.2981" y1="54.6742" x2="29.3094" y2="95.5071" gradientUnits="userSpaceOnUse">
<stop stop-color="#E24E74"/>
<stop offset="1" stop-color="#E24E74" stop-opacity="0.38"/>
</linearGradient>
<linearGradient id="paint10_linear_1097_2552" x1="49.3219" y1="66.1072" x2="88.3247" y2="79.009" gradientUnits="userSpaceOnUse">
<stop stop-color="#E24E74"/>
<stop offset="1" stop-color="#E24E74" stop-opacity="0.38"/>
</linearGradient>
<linearGradient id="paint11_linear_1097_2552" x1="49.3219" y1="22.8232" x2="88.325" y2="35.7245" gradientUnits="userSpaceOnUse">
<stop stop-color="#E24E74"/>
<stop offset="1" stop-color="#E24E74" stop-opacity="0.38"/>
</linearGradient>
<linearGradient id="paint12_linear_1097_2552" x1="56.7117" y1="64.3188" x2="104.902" y2="108.582" gradientUnits="userSpaceOnUse">
<stop stop-color="#E24E74"/>
<stop offset="1" stop-color="#E24E74" stop-opacity="0.38"/>
</linearGradient>
<linearGradient id="paint13_linear_1097_2552" x1="25.0771" y1="32.9268" x2="73.2653" y2="77.1906" gradientUnits="userSpaceOnUse">
<stop stop-color="#E24E74"/>
<stop offset="1" stop-color="#E24E74" stop-opacity="0.38"/>
</linearGradient>
<linearGradient id="paint14_linear_1097_2552" x1="25.0776" y1="64.3173" x2="73.2696" y2="108.581" gradientUnits="userSpaceOnUse">
<stop stop-color="#E24E74"/>
<stop offset="1" stop-color="#E24E74" stop-opacity="0.38"/>
</linearGradient>
<linearGradient id="paint15_linear_1097_2552" x1="56.7119" y1="32.9255" x2="104.902" y2="77.1854" gradientUnits="userSpaceOnUse">
<stop stop-color="#E24E74"/>
<stop offset="1" stop-color="#E24E74" stop-opacity="0.38"/>
</linearGradient>
</defs>
</svg>
