<svg width="220" height="220" viewBox="0 0 220 220" fill="none" xmlns="http://www.w3.org/2000/svg">
<path d="M41.5806 62.9843C43.6138 71.457 62.1151 86.5544 79.0196 96.7923C60.6159 92.0006 37.7797 89.4755 28.5804 93.9059C17.2353 99.3577 28.9178 111.556 28.9178 111.556C28.9178 111.556 18.2276 123.171 29.2553 129.202C35.2452 132.48 51.0449 130.982 66.7123 127.449C53.6512 135.533 41.7554 145.254 38.7484 152.593C33.9757 164.225 50.8245 165.475 50.8245 165.475C50.8245 165.475 50.6518 181.268 62.8767 178.361C70.3305 176.586 82.9563 162.039 92.8776 147.053C88.2284 163.656 85.6569 182.076 89.0418 190.37C93.7984 202.013 106.654 191.097 106.654 191.097C106.654 191.097 117.593 202.476 124.278 191.821C128.551 185.02 127.054 164.287 123.262 146.012C131.99 161.664 144.046 177.665 152.733 181.207C164.372 185.955 165.569 169.113 165.569 169.113C165.569 169.113 181.357 169.246 178.424 157.016C176.39 148.54 157.88 133.438 140.973 123.202C159.379 127.996 182.227 130.524 191.429 126.09C202.753 120.642 191.091 108.444 191.091 108.444C191.091 108.444 201.777 96.8289 190.754 90.7981C184.76 87.5187 168.953 89.0202 153.282 92.5553C166.348 84.4702 178.251 74.7462 181.261 67.4068C186.029 55.7715 169.184 54.505 169.184 54.505C169.184 54.505 169.357 38.7326 157.132 41.6394C149.677 43.4141 137.049 57.9681 127.127 72.9575C131.777 56.3511 134.351 37.9256 130.967 29.6302C126.215 17.9868 113.351 28.9025 113.351 28.9025C113.351 28.9025 102.412 17.5245 95.7307 28.1788C91.4581 34.9799 92.9544 55.7124 96.7464 73.9876C88.0188 58.3344 75.9637 42.3312 67.2757 38.789C55.6374 34.0488 54.4362 50.8866 54.4362 50.8866C54.4362 50.8866 38.6479 50.754 41.5806 62.9843Z" fill="#E33F69"/>
<path d="M130.965 29.6319C137.879 46.582 119.921 105.827 110.19 105.425C100.46 105.023 87.5635 41.1745 95.7271 28.1805C102.408 17.5264 113.348 28.9042 113.348 28.9042C113.348 28.9042 126.212 17.9888 130.965 29.6319Z" fill="#E24E74"/>
<path d="M130.965 29.6319C137.879 46.582 119.921 105.827 110.19 105.425C100.46 105.023 87.5635 41.1745 95.7271 28.1805C102.408 17.5264 113.348 28.9042 113.348 28.9042C113.348 28.9042 126.212 17.9888 130.965 29.6319Z" fill="url(#paint0_linear_1097_2407)"/>
<path d="M89.038 190.368C82.1198 173.418 100.082 114.173 109.813 114.579C119.543 114.985 132.439 178.825 124.276 191.819C117.59 202.474 106.651 191.096 106.651 191.096C106.651 191.096 93.7947 202.011 89.038 190.368Z" fill="#E24E74"/>
<path d="M89.038 190.368C82.1198 173.418 100.082 114.173 109.813 114.579C119.543 114.985 132.439 178.825 124.276 191.819C117.59 202.474 106.651 191.096 106.651 191.096C106.651 191.096 93.7947 202.011 89.038 190.368Z" fill="url(#paint1_linear_1097_2407)"/>
<path d="M181.26 67.4077C174.314 84.3457 119.997 113.984 113.34 106.868C106.683 99.752 142.234 45.1869 157.131 41.6409C169.356 38.7341 169.183 54.5062 169.183 54.5062C169.183 54.5062 186.029 55.7726 181.26 67.4077Z" fill="#E24E74"/>
<path d="M181.26 67.4077C174.314 84.3457 119.997 113.984 113.34 106.868C106.683 99.752 142.234 45.1869 157.131 41.6409C169.356 38.7341 169.183 54.5062 169.183 54.5062C169.183 54.5062 186.029 55.7726 181.26 67.4077Z" fill="url(#paint2_linear_1097_2407)"/>
<path d="M38.7427 152.592C45.6849 135.65 100.002 106.012 106.663 113.132C113.324 120.252 77.7688 174.813 62.8719 178.359C50.6466 181.266 50.8193 165.474 50.8193 165.474C50.8193 165.474 33.9699 164.223 38.7427 152.592Z" fill="#E24E74"/>
<path d="M38.7427 152.592C45.6849 135.65 100.002 106.012 106.663 113.132C113.324 120.252 77.7688 174.813 62.8719 178.359C50.6466 181.266 50.8193 165.474 50.8193 165.474C50.8193 165.474 33.9699 164.223 38.7427 152.592Z" fill="url(#paint3_linear_1097_2407)"/>
<path d="M152.732 181.205C135.79 174.298 106.04 120.015 113.135 113.337C120.23 106.659 174.844 142.099 178.424 157.015C181.356 169.245 165.568 169.112 165.568 169.112C165.568 169.112 164.37 185.954 152.732 181.205Z" fill="url(#paint4_linear_1097_2407)"/>
<path d="M67.2711 38.7905C84.213 45.6975 113.959 99.9852 106.868 106.667C99.7768 113.349 45.1547 77.901 41.5751 62.9853C38.6423 50.7552 54.4311 50.8879 54.4311 50.8879C54.4311 50.8879 55.6324 34.0504 67.2711 38.7905Z" fill="#E24E74"/>
<path d="M67.2711 38.7905C84.213 45.6975 113.959 99.9852 106.868 106.667C99.7768 113.349 45.1547 77.901 41.5751 62.9853C38.6423 50.7552 54.4311 50.8879 54.4311 50.8879C54.4311 50.8879 55.6324 34.0504 67.2711 38.7905Z" fill="url(#paint5_linear_1097_2407)"/>
<path d="M191.428 126.09C174.957 134.026 114.762 119.657 114.577 109.912C114.393 100.166 177.299 83.4371 190.753 90.7985C201.777 96.8291 191.091 108.444 191.091 108.444C191.091 108.444 202.754 120.642 191.428 126.09Z" fill="#E24E74"/>
<path d="M191.428 126.09C174.957 134.026 114.762 119.657 114.577 109.912C114.393 100.166 177.299 83.4371 190.753 90.7985C201.777 96.8291 191.091 108.444 191.091 108.444C191.091 108.444 202.754 120.642 191.428 126.09Z" fill="url(#paint6_linear_1097_2407)"/>
<path d="M28.5743 93.9062C45.0461 85.9739 105.237 100.339 105.425 110.088C105.614 119.838 42.6999 136.563 29.2493 129.201C18.2212 123.171 28.9118 111.556 28.9118 111.556C28.9118 111.556 17.2289 99.3579 28.5743 93.9062Z" fill="#E24E74"/>
<path d="M28.5743 93.9062C45.0461 85.9739 105.237 100.339 105.425 110.088C105.614 119.838 42.6999 136.563 29.2493 129.201C18.2212 123.171 28.9118 111.556 28.9118 111.556C28.9118 111.556 17.2289 99.3579 28.5743 93.9062Z" fill="url(#paint7_linear_1097_2407)"/>
<path d="M119.435 110.217C119.434 112.308 118.813 114.352 117.652 116.091C116.49 117.829 114.839 119.184 112.908 119.983C110.977 120.783 108.853 120.992 106.803 120.583C104.754 120.174 102.871 119.166 101.394 117.687C99.9171 116.208 98.9115 114.323 98.5046 112.272C98.0977 110.221 98.3078 108.095 99.1082 106.163C99.9087 104.231 101.264 102.58 103.002 101.419C104.74 100.258 106.783 99.6385 108.872 99.6393C110.26 99.6399 111.634 99.9139 112.916 100.446C114.197 100.978 115.362 101.757 116.343 102.739C117.323 103.721 118.101 104.887 118.632 106.17C119.162 107.453 119.435 108.828 119.435 110.217Z" fill="#FFE6CF"/>
<defs>
<linearGradient id="paint0_linear_1097_2407" x1="109.42" y1="87.9716" x2="112.818" y2="31.2644" gradientUnits="userSpaceOnUse">
<stop stop-color="#E33F69"/>
<stop offset="1" stop-color="#EEC280"/>
</linearGradient>
<linearGradient id="paint1_linear_1097_2407" x1="107.101" y1="149.999" x2="107.177" y2="196.374" gradientUnits="userSpaceOnUse">
<stop stop-color="#E33F69"/>
<stop offset="1" stop-color="#EEC280"/>
</linearGradient>
<linearGradient id="paint2_linear_1097_2407" x1="112.898" y1="108.261" x2="174.321" y2="53.0184" gradientUnits="userSpaceOnUse">
<stop stop-color="#E33F69"/>
<stop offset="1" stop-color="#EEC280"/>
</linearGradient>
<linearGradient id="paint3_linear_1097_2407" x1="98.3506" y1="116.899" x2="49.7043" y2="164.506" gradientUnits="userSpaceOnUse">
<stop stop-color="#E33F69"/>
<stop offset="1" stop-color="#EEC280"/>
</linearGradient>
<linearGradient id="paint4_linear_1097_2407" x1="145.424" y1="112.508" x2="145.424" y2="182.049" gradientUnits="userSpaceOnUse">
<stop stop-color="#E33F69"/>
<stop offset="1" stop-color="#EEC280"/>
</linearGradient>
<linearGradient id="paint5_linear_1097_2407" x1="108.26" y1="111.739" x2="48.4925" y2="54.6255" gradientUnits="userSpaceOnUse">
<stop stop-color="#E33F69"/>
<stop offset="1" stop-color="#EEC280"/>
</linearGradient>
<linearGradient id="paint6_linear_1097_2407" x1="132.028" y1="111.739" x2="196.374" y2="105.945" gradientUnits="userSpaceOnUse">
<stop stop-color="#E33F69"/>
<stop offset="1" stop-color="#EEC280"/>
</linearGradient>
<linearGradient id="paint7_linear_1097_2407" x1="81.0146" y1="115.797" x2="23.625" y2="111.268" gradientUnits="userSpaceOnUse">
<stop stop-color="#E33F69"/>
<stop offset="1" stop-color="#EEC280"/>
</linearGradient>
</defs>
</svg>
