<svg width="166" height="166" viewBox="0 0 166 166" fill="none" xmlns="http://www.w3.org/2000/svg">
<g filter="url(#filter0_d_1097_2406)">
<path d="M31.3745 47.5246C32.9087 53.9176 46.8687 65.3093 59.624 73.0342C45.7375 69.4187 28.5066 67.5134 21.5653 70.8563C13.0049 74.97 21.8199 84.1741 21.8199 84.1741C21.8199 84.1741 13.7536 92.9383 22.0745 97.4888C26.5942 99.9625 38.5158 98.8316 50.3375 96.1663C40.4823 102.266 31.5064 109.601 29.2375 115.139C25.6363 123.915 38.3495 124.858 38.3495 124.858C38.3495 124.858 38.2192 136.775 47.4434 134.581C53.0676 133.242 62.5944 122.266 70.0805 110.958C66.5724 123.486 64.6321 137.385 67.1862 143.643C70.7752 152.428 80.4753 144.192 80.4753 144.192C80.4753 144.192 88.7295 152.777 93.7736 144.738C96.9977 139.606 95.8683 123.962 93.0067 110.173C99.5923 121.983 108.689 134.056 115.244 136.729C124.026 140.312 124.929 127.604 124.929 127.604C124.929 127.604 136.842 127.704 134.629 118.476C133.095 112.08 119.128 100.685 106.37 92.9614C120.259 96.5789 137.498 98.4863 144.442 95.1408C152.987 91.0302 144.187 81.8261 144.187 81.8261C144.187 81.8261 152.25 73.0618 143.932 68.5114C139.41 66.0369 127.483 67.1698 115.658 69.8373C125.517 63.7367 134.498 56.3995 136.769 50.8616C140.368 42.0822 127.657 41.1266 127.657 41.1266C127.657 41.1266 127.788 29.2256 118.563 31.4189C112.938 32.758 103.409 43.7396 95.9231 55.0498C99.4321 42.5195 101.374 28.6167 98.8207 22.3574C95.2347 13.5719 85.5285 21.8083 85.5285 21.8083C85.5285 21.8083 77.2743 13.2231 72.2333 21.2623C69.0094 26.394 70.1384 42.0376 72.9996 55.827C66.4143 44.016 57.3181 31.9409 50.7627 29.2681C41.981 25.6914 41.0746 38.3964 41.0746 38.3964C41.0746 38.3964 29.1617 38.2963 31.3745 47.5246Z" fill="#E33F69"/>
</g>
<path d="M98.8188 22.3586C104.036 35.1482 90.4855 79.8512 83.1435 79.5478C75.8014 79.2445 66.0706 31.0681 72.2304 21.2635C77.2717 13.2245 85.5261 21.8096 85.5261 21.8096C85.5261 21.8096 95.2327 13.5734 98.8188 22.3586Z" fill="#E24E74"/>
<path d="M98.8188 22.3586C104.036 35.1482 90.4855 79.8512 83.1435 79.5478C75.8014 79.2445 66.0706 31.0681 72.2304 21.2635C77.2717 13.2245 85.5261 21.8096 85.5261 21.8096C85.5261 21.8096 95.2327 13.5734 98.8188 22.3586Z" fill="url(#paint0_linear_1097_2406)"/>
<path d="M67.1831 143.641C61.9631 130.852 75.5164 86.1488 82.8585 86.4552C90.2005 86.7616 99.9313 134.932 93.7715 144.736C88.7273 152.775 80.4728 144.19 80.4728 144.19C80.4728 144.19 70.7723 152.427 67.1831 143.641Z" fill="#E24E74"/>
<path d="M67.1831 143.641C61.9631 130.852 75.5164 86.1488 82.8585 86.4552C90.2005 86.7616 99.9313 134.932 93.7715 144.736C88.7273 152.775 80.4728 144.19 80.4728 144.19C80.4728 144.19 70.7723 152.427 67.1831 143.641Z" fill="url(#paint1_linear_1097_2406)"/>
<path d="M136.769 50.8622C131.528 63.6427 90.5432 86.0063 85.5202 80.6368C80.4971 75.2674 107.322 34.0955 118.562 31.4199C127.787 29.2266 127.657 41.1274 127.657 41.1274C127.657 41.1274 140.367 42.083 136.769 50.8622Z" fill="#E24E74"/>
<path d="M136.769 50.8622C131.528 63.6427 90.5432 86.0063 85.5202 80.6368C80.4971 75.2674 107.322 34.0955 118.562 31.4199C127.787 29.2266 127.657 41.1274 127.657 41.1274C127.657 41.1274 140.367 42.083 136.769 50.8622Z" fill="url(#paint2_linear_1097_2406)"/>
<path d="M29.2332 115.138C34.4714 102.354 75.4559 79.9908 80.482 85.3633C85.508 90.7357 58.6801 131.905 47.4397 134.58C38.2152 136.773 38.3455 124.858 38.3455 124.858C38.3455 124.858 25.6319 123.914 29.2332 115.138Z" fill="#E24E74"/>
<path d="M29.2332 115.138C34.4714 102.354 75.4559 79.9908 80.482 85.3633C85.508 90.7357 58.6801 131.905 47.4397 134.58C38.2152 136.773 38.3455 124.858 38.3455 124.858C38.3455 124.858 25.6319 123.914 29.2332 115.138Z" fill="url(#paint3_linear_1097_2406)"/>
<path d="M115.243 136.728C102.46 131.516 80.0121 90.5566 85.3655 85.5178C90.719 80.479 131.928 107.22 134.629 118.475C136.842 127.703 124.928 127.603 124.928 127.603C124.928 127.603 124.025 140.31 115.243 136.728Z" fill="url(#paint4_linear_1097_2406)"/>
<path d="M50.7591 29.2692C63.5425 34.4809 85.987 75.4434 80.6366 80.4852C75.2862 85.527 34.0713 58.7799 31.3703 47.5253C29.1574 38.2971 41.0708 38.3972 41.0708 38.3972C41.0708 38.3972 41.9772 25.6926 50.7591 29.2692Z" fill="#E24E74"/>
<path d="M50.7591 29.2692C63.5425 34.4809 85.987 75.4434 80.6366 80.4852C75.2862 85.527 34.0713 58.7799 31.3703 47.5253C29.1574 38.2971 41.0708 38.3972 41.0708 38.3972C41.0708 38.3972 41.9772 25.6926 50.7591 29.2692Z" fill="url(#paint5_linear_1097_2406)"/>
<path d="M144.441 95.1404C132.013 101.129 86.5932 90.2866 86.4538 82.9332C86.3144 75.5798 133.78 62.9571 143.932 68.5116C152.25 73.0619 144.187 81.826 144.187 81.826C144.187 81.826 152.987 91.0299 144.441 95.1404Z" fill="#E24E74"/>
<path d="M144.441 95.1404C132.013 101.129 86.5932 90.2866 86.4538 82.9332C86.3144 75.5798 133.78 62.9571 143.932 68.5116C152.25 73.0619 144.187 81.826 144.187 81.826C144.187 81.826 152.987 91.0299 144.441 95.1404Z" fill="url(#paint6_linear_1097_2406)"/>
<path d="M21.5606 70.8566C33.9894 64.8713 79.4058 75.7103 79.5483 83.0667C79.6907 90.4232 32.219 103.043 22.0699 97.4884C13.7487 92.938 21.8153 84.174 21.8153 84.174C21.8153 84.174 13 74.9701 21.5606 70.8566Z" fill="#E24E74"/>
<path d="M21.5606 70.8566C33.9894 64.8713 79.4058 75.7103 79.5483 83.0667C79.6907 90.4232 32.219 103.043 22.0699 97.4884C13.7487 92.938 21.8153 84.174 21.8153 84.174C21.8153 84.174 13 74.9701 21.5606 70.8566Z" fill="url(#paint7_linear_1097_2406)"/>
<path d="M90.1188 83.1639C90.1182 84.7418 89.65 86.2842 88.7734 87.5959C87.8969 88.9076 86.6514 89.9297 85.1944 90.533C83.7373 91.1363 82.1343 91.2937 80.5878 90.9853C79.0414 90.6768 77.6211 89.9164 76.5066 88.8002C75.392 87.684 74.6332 86.2621 74.3262 84.7143C74.0191 83.1666 74.1777 81.5625 74.7816 80.1049C75.3856 78.6472 76.408 77.4016 77.7194 76.5254C79.0308 75.6492 80.5724 75.1819 82.1492 75.1825C83.1962 75.1829 84.2328 75.3897 85.2 75.791C86.1671 76.1923 87.0457 76.7803 87.7858 77.5215C88.5258 78.2626 89.1127 79.1423 89.513 80.1105C89.9133 81.0786 90.1192 82.1161 90.1188 83.1639Z" fill="#FFE6CF"/>
<defs>
<linearGradient id="paint0_linear_1097_2406" x1="82.5621" y1="66.3786" x2="85.126" y2="23.5905" gradientUnits="userSpaceOnUse">
<stop stop-color="#C3DC2B"/>
<stop offset="1" stop-color="#6DB84A"/>
</linearGradient>
<linearGradient id="paint1_linear_1097_2406" x1="80.8124" y1="113.181" x2="80.8702" y2="148.173" gradientUnits="userSpaceOnUse">
<stop stop-color="#C3DC2B"/>
<stop offset="1" stop-color="#6DB84A"/>
</linearGradient>
<linearGradient id="paint2_linear_1097_2406" x1="85.1866" y1="81.6878" x2="131.533" y2="40.0048" gradientUnits="userSpaceOnUse">
<stop stop-color="#C3DC2B"/>
<stop offset="1" stop-color="#6DB84A"/>
</linearGradient>
<linearGradient id="paint3_linear_1097_2406" x1="74.21" y1="88.2057" x2="37.5042" y2="124.127" gradientUnits="userSpaceOnUse">
<stop stop-color="#C3DC2B"/>
<stop offset="1" stop-color="#6DB84A"/>
</linearGradient>
<linearGradient id="paint4_linear_1097_2406" x1="109.729" y1="84.8927" x2="109.729" y2="137.364" gradientUnits="userSpaceOnUse">
<stop stop-color="#C3DC2B"/>
<stop offset="1" stop-color="#6DB84A"/>
</linearGradient>
<linearGradient id="paint5_linear_1097_2406" x1="81.6873" y1="84.3122" x2="36.5898" y2="41.2174" gradientUnits="userSpaceOnUse">
<stop stop-color="#C3DC2B"/>
<stop offset="1" stop-color="#6DB84A"/>
</linearGradient>
<linearGradient id="paint6_linear_1097_2406" x1="99.6209" y1="84.3122" x2="148.173" y2="79.9404" gradientUnits="userSpaceOnUse">
<stop stop-color="#C3DC2B"/>
<stop offset="1" stop-color="#6DB84A"/>
</linearGradient>
<linearGradient id="paint7_linear_1097_2406" x1="61.1292" y1="87.3741" x2="17.8261" y2="83.9567" gradientUnits="userSpaceOnUse">
<stop stop-color="#C3DC2B"/>
<stop offset="1" stop-color="#6DB84A"/>
</linearGradient>
</defs>
</svg>
