<svg width="102" height="102" viewBox="0 0 102 102" fill="none" xmlns="http://www.w3.org/2000/svg">
<path d="M19.2783 29.2018C20.2209 33.13 28.7988 40.1297 36.6364 44.8764C28.1037 42.6548 17.516 41.4841 13.2509 43.5382C7.99091 46.0658 13.4073 51.7214 13.4073 51.7214C13.4073 51.7214 8.45098 57.1066 13.5638 59.9027C16.341 61.4227 23.6663 60.7278 30.9302 59.0901C24.8746 62.8381 19.3593 67.3452 17.9651 70.7478C15.7524 76.1405 23.5641 76.7202 23.5641 76.7202C23.5641 76.7202 23.484 84.0422 29.1519 82.6945C32.6077 81.8718 38.4616 75.1271 43.0614 68.1791C40.9059 75.877 39.7137 84.4171 41.283 88.2623C43.4883 93.6606 49.4486 88.5997 49.4486 88.5997C49.4486 88.5997 54.5205 93.875 57.6199 88.9353C59.6009 85.7818 58.907 76.1694 57.1486 67.6966C61.1952 74.9531 66.7847 82.3719 70.8127 84.0142C76.2086 86.2156 76.7637 78.4071 76.7637 78.4071C76.7637 78.4071 84.0837 78.4686 82.724 72.7982C81.781 68.8687 73.199 61.8669 65.3601 57.1208C73.8941 59.3436 84.4869 60.5156 88.7532 58.4599C94.0039 55.9341 88.5968 50.2786 88.5968 50.2786C88.5968 50.2786 93.5513 44.8934 88.4403 42.0973C85.6615 40.5768 78.3327 41.273 71.067 42.912C77.1248 39.1634 82.6436 34.6551 84.039 31.2522C86.2499 25.8577 78.44 25.2705 78.44 25.2705C78.44 25.2705 78.5201 17.9578 72.8522 19.3055C69.3957 20.1284 63.5407 26.8761 58.9407 33.8257C61.0968 26.1264 62.2899 17.5837 60.7211 13.7376C58.5176 8.33934 52.5536 13.4002 52.5536 13.4002C52.5536 13.4002 47.4817 8.12497 44.3842 13.0647C42.4033 16.2179 43.097 25.8303 44.8551 34.3033C40.8087 27.0459 35.2195 19.6263 31.1915 17.984C25.7955 15.7862 25.2386 23.5929 25.2386 23.5929C25.2386 23.5929 17.9186 23.5314 19.2783 29.2018Z" fill="#E33F69"/>
<path d="M60.72 13.7384C63.9256 21.5971 55.5995 49.0651 51.0881 48.8787C46.5767 48.6923 40.5976 19.09 44.3825 13.0655C47.4801 8.12589 52.5522 13.401 52.5522 13.401C52.5522 13.401 58.5164 8.34025 60.72 13.7384Z" fill="#E0DFDF"/>
<path d="M60.72 13.7384C63.9256 21.5971 55.5995 49.0651 51.0881 48.8787C46.5767 48.6923 40.5976 19.09 44.3825 13.0655C47.4801 8.12589 52.5522 13.401 52.5522 13.401C52.5522 13.401 58.5164 8.34025 60.72 13.7384Z" fill="url(#paint0_linear_1097_2410)"/>
<path d="M41.2812 88.2616C38.0737 80.4029 46.4017 52.9348 50.913 53.1231C55.4244 53.3114 61.4036 82.91 57.6186 88.9345C54.5192 93.8741 49.4471 88.5989 49.4471 88.5989C49.4471 88.5989 43.4866 93.6597 41.2812 88.2616Z" fill="#E0DFDF"/>
<path d="M41.2812 88.2616C38.0737 80.4029 46.4017 52.9348 50.913 53.1231C55.4244 53.3114 61.4036 82.91 57.6186 88.9345C54.5192 93.8741 49.4471 88.5989 49.4471 88.5989C49.4471 88.5989 43.4866 93.6597 41.2812 88.2616Z" fill="url(#paint1_linear_1097_2410)"/>
<path d="M84.0387 31.2527C80.8181 39.1058 55.6349 52.8473 52.5484 49.548C49.462 46.2487 65.9447 20.9503 72.8515 19.3063C78.5196 17.9586 78.4395 25.2711 78.4395 25.2711C78.4395 25.2711 86.2497 25.8583 84.0387 31.2527Z" fill="#E0DFDF"/>
<path d="M84.0387 31.2527C80.8181 39.1058 55.6349 52.8473 52.5484 49.548C49.462 46.2487 65.9447 20.9503 72.8515 19.3063C78.5196 17.9586 78.4395 25.2711 78.4395 25.2711C78.4395 25.2711 86.2497 25.8583 84.0387 31.2527Z" fill="url(#paint2_linear_1097_2410)"/>
<path d="M17.9625 70.7474C21.1812 62.8924 46.3644 49.1509 49.4527 52.4521C52.541 55.7533 36.0564 81.0498 29.1497 82.6938C23.4816 84.0415 23.5617 76.7196 23.5617 76.7196C23.5617 76.7196 15.7497 76.1399 17.9625 70.7474Z" fill="#E0DFDF"/>
<path d="M17.9625 70.7474C21.1812 62.8924 46.3644 49.1509 49.4527 52.4521C52.541 55.7533 36.0564 81.0498 29.1497 82.6938C23.4816 84.0415 23.5617 76.7196 23.5617 76.7196C23.5617 76.7196 15.7497 76.1399 17.9625 70.7474Z" fill="url(#paint3_linear_1097_2410)"/>
<path d="M70.8119 84.0134C62.9571 80.8111 49.164 55.6432 52.4535 52.5471C55.743 49.4509 81.0641 65.8822 82.7237 72.7977C84.0834 78.468 76.7632 78.4065 76.7632 78.4065C76.7632 78.4065 76.2081 86.2148 70.8119 84.0134Z" fill="url(#paint4_linear_1097_2410)"/>
<path d="M31.1892 17.9846C39.0441 21.187 52.8353 46.3567 49.5477 49.4547C46.2601 52.5527 20.9352 36.1177 19.2756 29.2022C17.9159 23.5319 25.2361 23.5934 25.2361 23.5934C25.2361 23.5934 25.7931 15.787 31.1892 17.9846Z" fill="#E0DFDF"/>
<path d="M31.1892 17.9846C39.0441 21.187 52.8353 46.3567 49.5477 49.4547C46.2601 52.5527 20.9352 36.1177 19.2756 29.2022C17.9159 23.5319 25.2361 23.5934 25.2361 23.5934C25.2361 23.5934 25.7931 15.787 31.1892 17.9846Z" fill="url(#paint5_linear_1097_2410)"/>
<path d="M88.7531 58.4598C81.1161 62.1393 53.2078 55.4773 53.1221 50.959C53.0365 46.4406 82.2021 38.6845 88.4402 42.0975C93.5513 44.8935 88.5966 50.2786 88.5966 50.2786C88.5966 50.2786 94.0039 55.934 88.7531 58.4598Z" fill="#E0DFDF"/>
<path d="M88.7531 58.4598C81.1161 62.1393 53.2078 55.4773 53.1221 50.959C53.0365 46.4406 82.2021 38.6845 88.4402 42.0975C93.5513 44.8935 88.5966 50.2786 88.5966 50.2786C88.5966 50.2786 94.0039 55.934 88.7531 58.4598Z" fill="url(#paint6_linear_1097_2410)"/>
<path d="M13.248 43.5384C20.885 39.8607 48.7915 46.5208 48.879 51.041C48.9665 55.5612 19.7972 63.3155 13.561 59.9025C8.44796 57.1065 13.4045 51.7214 13.4045 51.7214C13.4045 51.7214 7.98787 46.066 13.248 43.5384Z" fill="#E0DFDF"/>
<path d="M13.248 43.5384C20.885 39.8607 48.7915 46.5208 48.879 51.041C48.9665 55.5612 19.7972 63.3155 13.561 59.9025C8.44796 57.1065 13.4045 51.7214 13.4045 51.7214C13.4045 51.7214 7.98787 46.066 13.248 43.5384Z" fill="url(#paint7_linear_1097_2410)"/>
<path d="M55.3742 51.1006C55.3738 52.0702 55.0861 53.0179 54.5475 53.8239C54.0089 54.6299 53.2436 55.2579 52.3483 55.6287C51.4531 55.9994 50.468 56.0961 49.5178 55.9065C48.5676 55.717 47.6949 55.2498 47.0101 54.5639C46.3252 53.8781 45.859 53.0044 45.6703 52.0533C45.4816 51.1023 45.579 50.1166 45.9502 49.221C46.3213 48.3253 46.9495 47.5599 47.7553 47.0216C48.5611 46.4832 49.5083 46.196 50.4772 46.1964C51.1205 46.1967 51.7575 46.3237 52.3518 46.5703C52.946 46.8169 53.4859 47.1782 53.9407 47.6336C54.3954 48.089 54.756 48.6296 55.002 49.2244C55.2479 49.8193 55.3744 50.4568 55.3742 51.1006Z" fill="#DF7FEF"/>
<defs>
<linearGradient id="paint0_linear_1097_2410" x1="50.7309" y1="40.7868" x2="52.3063" y2="14.4953" gradientUnits="userSpaceOnUse">
<stop stop-color="#D7A4FF"/>
<stop offset="1" stop-color="#F372BF"/>
</linearGradient>
<linearGradient id="paint1_linear_1097_2410" x1="49.6558" y1="69.545" x2="49.6913" y2="91.0461" gradientUnits="userSpaceOnUse">
<stop stop-color="#D7A4FF"/>
<stop offset="1" stop-color="#F372BF"/>
</linearGradient>
<linearGradient id="paint2_linear_1097_2410" x1="52.3434" y1="50.1937" x2="80.8215" y2="24.5813" gradientUnits="userSpaceOnUse">
<stop stop-color="#D7A4FF"/>
<stop offset="1" stop-color="#F372BF"/>
</linearGradient>
<linearGradient id="paint3_linear_1097_2410" x1="45.5989" y1="54.1987" x2="23.0447" y2="76.2709" gradientUnits="userSpaceOnUse">
<stop stop-color="#D7A4FF"/>
<stop offset="1" stop-color="#F372BF"/>
</linearGradient>
<linearGradient id="paint4_linear_1097_2410" x1="67.4238" y1="52.163" x2="67.4238" y2="84.4046" gradientUnits="userSpaceOnUse">
<stop stop-color="#D7A4FF"/>
<stop offset="1" stop-color="#F372BF"/>
</linearGradient>
<linearGradient id="paint5_linear_1097_2410" x1="50.1933" y1="51.8063" x2="22.4828" y2="25.3263" gradientUnits="userSpaceOnUse">
<stop stop-color="#D7A4FF"/>
<stop offset="1" stop-color="#F372BF"/>
</linearGradient>
<linearGradient id="paint6_linear_1097_2410" x1="61.2128" y1="51.8063" x2="91.0461" y2="49.12" gradientUnits="userSpaceOnUse">
<stop stop-color="#D7A4FF"/>
<stop offset="1" stop-color="#F372BF"/>
</linearGradient>
<linearGradient id="paint7_linear_1097_2410" x1="37.5613" y1="53.6877" x2="10.9533" y2="51.5879" gradientUnits="userSpaceOnUse">
<stop stop-color="#D7A4FF"/>
<stop offset="1" stop-color="#F372BF"/>
</linearGradient>
</defs>
</svg>
