<svg width="287" height="202" viewBox="0 0 287 202" fill="none" xmlns="http://www.w3.org/2000/svg">
<path d="M223.05 196.378L105.082 163.878C98.9289 162.182 93.9634 157.843 91.4591 151.972C88.9551 146.101 89.2597 139.514 92.2953 133.899L119.599 83.3969L251.798 119.819L249.386 177.178C249.118 183.555 246.006 189.369 240.848 193.129C235.691 196.889 229.204 198.074 223.05 196.378Z" fill="#E0DFDF"/>
<path d="M223.05 196.378L105.082 163.878C98.9289 162.182 93.9634 157.843 91.4591 151.972C88.9551 146.101 89.2597 139.514 92.2953 133.899L119.599 83.3969L251.798 119.819L249.386 177.178C249.118 183.555 246.006 189.369 240.848 193.129C235.691 196.889 229.204 198.074 223.05 196.378Z" fill="url(#paint0_linear_1201_3476)"/>
<path d="M231.131 105.562C228.572 104.857 227.069 102.211 227.774 99.6528L233.05 80.5039C238.915 59.2163 226.367 37.126 205.08 31.2611C183.792 25.3963 161.702 37.9437 155.837 59.2314L150.561 78.3802C149.856 80.9387 147.211 82.4415 144.652 81.7366C142.094 81.0317 140.591 78.386 141.296 75.8275L146.571 56.6787C153.844 30.282 181.236 14.7232 207.632 21.9956C234.029 29.268 249.588 56.66 242.315 83.0566L237.04 102.205C236.335 104.764 233.689 106.267 231.131 105.562Z" fill="url(#paint1_linear_1201_3476)"/>
<path d="M197.907 142.93L154.05 130.847C127.654 123.575 112.095 96.1828 119.367 69.7861C120.072 67.2276 122.718 65.7248 125.276 66.4297L255.612 102.338C258.17 103.043 259.673 105.688 258.968 108.247C251.696 134.644 224.304 150.202 197.907 142.93Z" fill="url(#paint2_linear_1201_3476)"/>
<path d="M201.522 122.544C197.587 115.616 189.513 112.48 182.154 114.473C176.855 108.993 168.314 107.551 161.386 111.486C153.177 116.149 150.292 126.621 154.955 134.83L167.121 156.249C168.431 158.557 171.365 159.365 173.672 158.054L195.091 145.888C203.3 141.225 206.185 130.753 201.522 122.544Z" fill="url(#paint3_linear_1201_3476)"/>
<path d="M34.7215 123.611C34.7215 123.611 27.0539 133.193 23.245 142.077C22.0935 144.763 23.206 147.889 25.7962 149.237C28.5322 150.661 31.8887 149.574 33.2874 146.824C35.8569 141.77 40.305 133.955 45.7379 128.246L43.9038 121.215L34.7215 123.611Z" fill="#FFA101"/>
<path d="M165.795 89.4171C165.795 89.4171 177.166 94.0321 184.829 99.9232C187.146 101.704 187.702 104.976 186.101 107.417C184.409 109.996 180.95 110.688 178.385 108.971C173.675 105.817 165.976 101.171 158.446 98.843L156.612 91.8126L165.795 89.4171Z" fill="#FFA101"/>
<path d="M175.669 39.223C169.324 27.4397 122.325 54.7017 105.816 71.992C104.932 72.9235 103.733 73.4904 102.453 73.5821L102.345 73.5897C95.4171 74.0844 88.6411 75.8521 82.3542 78.8049L82.2565 78.8509C81.0943 79.399 79.7742 79.4846 78.5448 79.1065C55.693 72.0843 1.36527 71.2565 1.58583 84.6369C1.81274 98.4062 35.8013 138.4 68.0769 128.444C95.7916 119.895 91.8948 98.2475 90.2401 92.2995C90.1168 91.8561 90.1533 91.3835 90.343 90.9651C90.5327 90.5466 90.8635 90.2092 91.2772 90.012C94.29 88.5818 96.5321 87.9683 100.03 87.7289C100.487 87.6978 100.941 87.8298 101.311 88.1015C101.681 88.3732 101.944 88.7671 102.054 89.2139C103.514 95.2076 110.686 116.009 139.05 109.929C172.077 102.85 182.197 51.3488 175.669 39.223Z" fill="#FFA101"/>
<path d="M175.669 39.223C173.37 34.9531 165.729 35.8145 156.138 39.4668C159.971 39.1447 162.781 39.9502 164.024 42.2607C170.074 53.4987 161.892 97.4298 134.291 110.724C135.808 110.544 137.392 110.284 139.051 109.928C172.077 102.85 182.197 51.3488 175.669 39.223Z" fill="#FFA101"/>
<path d="M64.2577 117.844L59.3802 119.545C47.5776 119.644 35.8396 111.3 28.3868 101.616C25.3544 97.6761 26.1788 92.397 29.4603 89.4361L34.7903 87.9447C34.7903 87.9447 73.1832 86.4232 75.505 90.9774C81.1099 101.972 64.2577 117.844 64.2577 117.844Z" fill="#C24040"/>
<path d="M64.017 119.044C62.4918 119.363 60.9387 119.531 59.3802 119.545C69.7251 114.236 71.7752 104.28 67.7238 94.7798C67.1797 93.504 66.0902 92.5488 64.7696 92.1396C54.9204 89.086 41.919 88.2648 29.46 89.4362C30.6568 88.3546 32.1825 87.5835 33.9698 87.2981C48.4236 84.9917 64.6734 85.4585 76.4266 89.1062C77.741 89.5141 78.8242 90.4688 79.366 91.7386C84.2091 103.09 80.3404 115.096 64.017 119.044Z" fill="#C24040"/>
<path d="M138.108 98.6844C138.108 98.6844 155.625 82.5948 155.983 68.751C156.259 58.062 142.047 60.0648 142.047 60.0648C130.624 65.1264 119.65 72.2085 112.558 79.6716C111.607 80.6728 111.12 82.0369 111.268 83.4149C112.374 93.6916 119.014 101.384 130.648 100.953L138.108 98.6844Z" fill="#C24040"/>
<path d="M160.577 67.1327C158.571 80.828 150.997 95.6707 138.002 99.7433C135.363 100.481 132.913 100.871 130.648 100.953C141.029 95.2917 147.159 82.2813 148.932 70.17C149.653 65.2493 146.356 61.0449 142.047 60.0648C144.238 59.093 146.461 58.1924 148.711 57.3646C155.059 55.0339 161.561 60.4158 160.577 67.1327Z" fill="#C24040"/>
<defs>
<linearGradient id="paint0_linear_1201_3476" x1="204.301" y1="158.583" x2="95.6699" y2="119.512" gradientUnits="userSpaceOnUse">
<stop stop-color="#D7A4FF"/>
<stop offset="1" stop-color="#F372BF"/>
</linearGradient>
<linearGradient id="paint1_linear_1201_3476" x1="207.632" y1="21.9956" x2="187.891" y2="93.6493" gradientUnits="userSpaceOnUse">
<stop stop-color="#D2A0F5"/>
<stop offset="1" stop-color="#FF67D4" stop-opacity="0.5"/>
</linearGradient>
<linearGradient id="paint2_linear_1201_3476" x1="190.444" y1="84.3837" x2="175.979" y2="136.889" gradientUnits="userSpaceOnUse">
<stop stop-color="#FF3888"/>
<stop offset="1" stop-color="#FFB9D5" stop-opacity="0.39"/>
</linearGradient>
<linearGradient id="paint3_linear_1201_3476" x1="159.29" y1="131.807" x2="202.884" y2="141.159" gradientUnits="userSpaceOnUse">
<stop offset="0.140039" stop-color="#DEECF1"/>
<stop offset="1" stop-color="#74DAFF" stop-opacity="0.52"/>
</linearGradient>
</defs>
</svg>
