<svg width="176" height="172" viewBox="0 0 176 172" fill="none" xmlns="http://www.w3.org/2000/svg">
<g opacity="0.5" filter="url(#filter0_d_1129_4656)">
<path d="M49.7694 83.4338C44.2596 86.3028 39.2961 91.0228 39.9299 94.4986C40.7207 98.8351 50.3438 101.917 57.5047 101.556C55.3377 105.241 54.2418 109.174 55.6553 111.166C57.0442 113.122 61.0004 113.403 65.1128 112.618C63.6396 118.741 63.9755 125.771 67.0671 127.569C69.6789 129.088 74.5579 127.04 78.775 123.766C79.8824 126.248 81.3666 128.068 83.047 128.352C84.3194 128.567 85.7749 127.913 87.2147 126.723C90.0254 130.946 93.7051 134.189 96.5529 133.669C100.429 132.96 103.299 125.175 103.608 118.415C107.64 121.126 112.328 122.709 114.564 121.117C115.948 120.132 116.494 117.859 116.416 115.155C121.374 116.135 126.24 115.817 127.871 113.449C129.878 110.536 127.269 104.147 123.403 99.2527C127.643 98.1966 131.33 96.1594 131.745 93.703C132.085 91.6947 130.266 89.2326 127.592 87.0948C132.371 84.2131 136.288 80.1118 135.721 77.0003C135.118 73.6931 129.373 71.1189 123.506 70.2418C125.096 67.0429 125.742 63.884 124.523 62.1663C123.279 60.4146 119.983 60.0046 116.358 60.5002C118.242 54.5593 118.427 47.6717 115.517 45.667C112.652 43.6927 106.429 46.1861 101.572 49.9488C100.449 47.2718 98.8995 45.2765 97.1316 44.9779C95.1909 44.65 92.827 46.3398 90.7416 48.8697C87.9764 42.9006 82.8246 37.1348 79.0984 37.8144C75.3281 38.502 72.5082 45.886 72.0739 52.51C69.4599 51.4752 67.0372 51.2002 65.6118 52.2143C64.3287 53.1273 63.767 55.1473 63.7547 57.5919C57.5886 55.3555 49.9163 54.9477 47.7799 58.0477C45.4014 61.4988 49.4868 69.8239 54.4838 74.7654C51.2759 75.9056 48.7688 77.6267 48.431 79.6262C48.2339 80.7929 48.7652 82.1131 49.7694 83.4338Z" fill="#FFDAB7" fill-opacity="0.5" shape-rendering="crispEdges"/>
</g>
<path d="M112.632 65.95C108.421 72.2728 87.118 96.8271 83.0208 93.7805C78.9235 90.7339 93.58 61.2358 97.789 54.9149C101.998 48.5941 112.256 41.8733 115.811 44.5051C119.365 47.1369 116.839 59.6289 112.632 65.95Z" fill="url(#paint0_linear_1129_4656)"/>
<path d="M105.99 112.123C100.397 108.01 79.2855 86.29 82.7332 81.1677C86.1809 76.0454 112.886 89.4599 118.479 93.5776C124.071 97.6953 129.304 108.77 126.326 113.206C123.347 117.641 111.585 116.229 105.99 112.123Z" fill="url(#paint1_linear_1129_4656)"/>
<path d="M69.6595 59.3691C75.2555 63.48 96.3666 85.2023 92.9189 90.3246C89.4712 95.4469 62.7771 82.0313 57.1704 77.9191C51.5636 73.8068 46.3441 62.7292 49.3254 58.2914C52.3068 53.8536 64.0672 55.2612 69.6595 59.3691Z" fill="url(#paint2_linear_1129_4656)"/>
<path d="M118.616 90.4855C111.481 92.2691 80.4821 95.0816 79.8547 89.1574C79.2274 83.2332 109.211 70.8112 116.335 69.0285C123.459 67.2459 134.895 70.136 135.442 75.2793C135.988 80.4225 125.751 88.6944 118.616 90.4855Z" fill="url(#paint3_linear_1129_4656)"/>
<path d="M57.0372 81.0018C64.1717 79.2207 95.1705 76.4083 95.7973 82.3347C96.4242 88.2611 66.4502 100.679 59.3157 102.47C52.1812 104.261 40.7564 101.363 40.2096 96.2196C39.6628 91.0765 49.9043 82.7857 57.0372 81.0018Z" fill="url(#paint4_linear_1129_4656)"/>
<path d="M83.2962 118.036C82.5395 110.808 83.479 78.8525 88.6312 77.5495C93.7833 76.2466 101.192 106.088 101.95 113.306C102.709 120.525 98.9924 132.743 94.5209 133.877C90.0495 135.011 84.0528 125.263 83.2962 118.036Z" fill="url(#paint5_linear_1129_4656)"/>
<path d="M68.2944 107.177C72.0383 100.583 91.5332 74.5465 95.838 77.19C100.143 79.8335 87.6243 110.166 83.8814 116.755C80.1384 123.344 70.3804 130.867 66.6554 128.575C62.9304 126.283 64.5424 113.77 68.2944 107.177Z" fill="url(#paint6_linear_1129_4656)"/>
<path d="M92.3575 53.4475C93.1161 60.6753 92.1726 92.6306 87.0244 93.9341C81.8763 95.2376 74.4616 65.3953 73.7015 58.1744C72.9414 50.9534 76.6596 38.7372 81.1306 37.6058C85.6016 36.4744 91.5999 46.2245 92.3575 53.4475Z" fill="url(#paint7_linear_1129_4656)"/>
<path d="M102.579 61.6512C101.26 68.0105 92.1543 94.7169 87.8763 94.1281C83.5983 93.5393 85.7659 65.878 87.0846 59.5187C88.4032 53.1594 94.4459 44.0522 98.1539 44.5626C101.862 45.0729 103.897 55.2919 102.579 61.6512Z" fill="url(#paint8_linear_1129_4656)"/>
<path d="M77.5999 111.678C78.9185 105.319 88.0218 78.6144 92.3018 79.2035C96.5818 79.7925 94.4127 107.451 93.0941 113.811C91.7754 120.17 85.7288 129.277 82.0246 128.767C78.3205 128.257 76.2808 118.04 77.5999 111.678Z" fill="url(#paint9_linear_1129_4656)"/>
<path d="M113.757 100.403C107.653 99.5791 82.481 91.7238 83.6115 86.3767C84.7421 81.0297 111.746 80.222 117.85 81.0458C123.953 81.8697 132.161 88.17 131.182 92.8001C130.203 97.4301 119.861 101.227 113.757 100.403Z" fill="url(#paint10_linear_1129_4656)"/>
<path d="M66.4191 72.9285C72.5227 73.7523 97.6974 81.6079 96.5673 86.9526C95.4373 92.2972 68.43 93.1095 62.3264 92.2856C56.2227 91.4618 48.0161 85.159 48.995 80.5289C49.974 75.8989 60.3198 72.1052 66.4191 72.9285Z" fill="url(#paint11_linear_1129_4656)"/>
<path d="M115.965 78.1669C110.797 82.2322 86.7217 96.3586 84.2676 92.3526C81.8135 88.3466 101.893 67.7251 107.059 63.6595C112.225 59.594 122.393 57.2027 124.523 60.675C126.653 64.1473 121.129 74.1011 115.965 78.1669Z" fill="url(#paint12_linear_1129_4656)"/>
<path d="M64.2132 95.1648C69.3772 91.099 93.4502 76.9723 95.9089 80.9766C98.3677 84.9808 78.2839 105.604 73.1199 109.67C67.9559 113.736 57.7841 116.126 55.6554 112.657C53.5268 109.187 59.0476 99.228 64.2132 95.1648Z" fill="url(#paint13_linear_1129_4656)"/>
<path d="M97.4163 113.804C94.2425 108.635 83.9226 83.9926 87.9274 80.841C91.9323 77.6893 108.738 97.2257 111.914 102.395C115.09 107.564 116.125 118.387 112.659 121.117C109.193 123.847 100.589 118.97 97.4163 113.804Z" fill="url(#paint14_linear_1129_4656)"/>
<path d="M82.7623 59.5255C85.9336 64.6963 96.2535 89.3389 92.2492 92.4883C88.2448 95.6376 71.4358 76.1056 68.264 70.9371C65.0923 65.7686 64.0517 54.9418 67.5174 52.2144C70.983 49.487 79.5885 54.3568 82.7623 59.5255Z" fill="url(#paint15_linear_1129_4656)"/>
<path d="M102.316 88.3644C101.711 91.1692 100.369 93.8118 98.4589 95.9579C96.5487 98.1041 94.1565 99.6574 91.5847 100.421C89.0129 101.186 86.3771 101.126 84.0107 100.251C81.6442 99.3751 79.6534 97.7228 78.2899 95.5028C76.9265 93.2828 76.2516 90.5947 76.3508 87.7785C76.45 84.9624 77.3186 82.1446 78.847 79.6815C80.3753 77.2185 82.4946 75.2208 84.937 73.9411C87.3793 72.6614 90.035 72.1573 92.568 72.4923C95.9643 72.9416 98.8992 74.8661 100.727 77.8426C102.555 80.8191 103.127 84.6039 102.316 88.3644Z" fill="#FFC58E"/>
<defs>
<filter id="filter0_d_1129_4656" x="39.8751" y="37.7598" width="103.901" height="103.964" filterUnits="userSpaceOnUse" color-interpolation-filters="sRGB">
<feFlood flood-opacity="0" result="BackgroundImageFix"/>
<feColorMatrix in="SourceAlpha" type="matrix" values="0 0 0 0 0 0 0 0 0 0 0 0 0 0 0 0 0 0 127 0" result="hardAlpha"/>
<feOffset dx="4" dy="4"/>
<feGaussianBlur stdDeviation="2"/>
<feComposite in2="hardAlpha" operator="out"/>
<feColorMatrix type="matrix" values="0 0 0 0 0 0 0 0 0 0 0 0 0 0 0 0 0 0 0.25 0"/>
<feBlend mode="normal" in2="BackgroundImageFix" result="effect1_dropShadow_1129_4656"/>
<feBlend mode="normal" in="SourceGraphic" in2="effect1_dropShadow_1129_4656" result="shape"/>
</filter>
<linearGradient id="paint0_linear_1129_4656" x1="98.7837" y1="72.7675" x2="142.543" y2="54.682" gradientUnits="userSpaceOnUse">
<stop stop-color="#FF7B00"/>
<stop offset="0.489583" stop-color="#FFD570" stop-opacity="0.53"/>
<stop offset="1" stop-color="#F5C58B" stop-opacity="0.38"/>
</linearGradient>
<linearGradient id="paint1_linear_1129_4656" x1="88.9938" y1="107.774" x2="123.65" y2="64.4677" gradientUnits="userSpaceOnUse">
<stop stop-color="#FF7B00"/>
<stop offset="0.489583" stop-color="#FFD570" stop-opacity="0.53"/>
<stop offset="1" stop-color="#F5C58B" stop-opacity="0.38"/>
</linearGradient>
<linearGradient id="paint2_linear_1129_4656" x1="55.8774" y1="82.6894" x2="90.533" y2="39.3823" gradientUnits="userSpaceOnUse">
<stop stop-color="#FF7B00"/>
<stop offset="0.489583" stop-color="#FFD570" stop-opacity="0.53"/>
<stop offset="1" stop-color="#F5C58B" stop-opacity="0.38"/>
</linearGradient>
<linearGradient id="paint3_linear_1129_4656" x1="92.3581" y1="89.146" x2="133.159" y2="40.5246" gradientUnits="userSpaceOnUse">
<stop offset="0.245508" stop-color="#FF7B00"/>
<stop offset="0.489583" stop-color="#FFC793" stop-opacity="0.78"/>
<stop offset="1" stop-color="#FFBA68" stop-opacity="0.38"/>
</linearGradient>
<linearGradient id="paint4_linear_1129_4656" x1="72.7101" y1="87.9677" x2="41.3062" y2="122.977" gradientUnits="userSpaceOnUse">
<stop stop-color="#FF7B00"/>
<stop offset="0.489583" stop-color="#FFD570" stop-opacity="0.53"/>
<stop offset="1" stop-color="#F5C58B" stop-opacity="0.38"/>
</linearGradient>
<linearGradient id="paint5_linear_1129_4656" x1="82.4667" y1="124.764" x2="128.063" y2="113.669" gradientUnits="userSpaceOnUse">
<stop stop-color="#FF7B00"/>
<stop offset="0.489583" stop-color="#FFD570" stop-opacity="0.53"/>
<stop offset="1" stop-color="#F5C58B" stop-opacity="0.38"/>
</linearGradient>
<linearGradient id="paint6_linear_1129_4656" x1="81.9576" y1="96.6603" x2="39.6411" y2="110.109" gradientUnits="userSpaceOnUse">
<stop stop-color="#FF7B00"/>
<stop offset="0.546844" stop-color="#FFD570" stop-opacity="0.53"/>
<stop offset="1" stop-color="#F5C58B" stop-opacity="0.38"/>
</linearGradient>
<linearGradient id="paint7_linear_1129_4656" x1="72.7088" y1="84.3946" x2="118.31" y2="73.2951" gradientUnits="userSpaceOnUse">
<stop stop-color="#FF7B00"/>
<stop offset="0.489583" stop-color="#FFD570" stop-opacity="0.53"/>
<stop offset="1" stop-color="#F5C58B" stop-opacity="0.38"/>
</linearGradient>
<linearGradient id="paint8_linear_1129_4656" x1="85.2342" y1="86.7343" x2="117.386" y2="82.5709" gradientUnits="userSpaceOnUse">
<stop stop-color="#FFBA68"/>
<stop offset="1" stop-color="#E24E74" stop-opacity="0.38"/>
</linearGradient>
<linearGradient id="paint9_linear_1129_4656" x1="79.3825" y1="121.373" x2="111.534" y2="117.209" gradientUnits="userSpaceOnUse">
<stop stop-color="#FFBA68"/>
<stop offset="1" stop-color="#E24E74" stop-opacity="0.38"/>
</linearGradient>
<linearGradient id="paint10_linear_1129_4656" x1="93.451" y1="94.9166" x2="111.294" y2="62.4104" gradientUnits="userSpaceOnUse">
<stop stop-color="#FFBA68"/>
<stop offset="1" stop-color="#E24E74" stop-opacity="0.38"/>
</linearGradient>
<linearGradient id="paint11_linear_1129_4656" x1="58.835" y1="89.0689" x2="76.6778" y2="56.5622" gradientUnits="userSpaceOnUse">
<stop stop-color="#FFBA68"/>
<stop offset="1" stop-color="#E24E74" stop-opacity="0.38"/>
</linearGradient>
<linearGradient id="paint12_linear_1129_4656" x1="92.9217" y1="88.6702" x2="138.091" y2="57.717" gradientUnits="userSpaceOnUse">
<stop stop-color="#FFBA68"/>
<stop offset="1" stop-color="#E24E74" stop-opacity="0.38"/>
</linearGradient>
<linearGradient id="paint13_linear_1129_4656" x1="63.5723" y1="109.554" x2="108.741" y2="78.6026" gradientUnits="userSpaceOnUse">
<stop stop-color="#FFBA68"/>
<stop offset="1" stop-color="#E24E74" stop-opacity="0.38"/>
</linearGradient>
<linearGradient id="paint14_linear_1129_4656" x1="88.6763" y1="113.794" x2="133.846" y2="82.8396" gradientUnits="userSpaceOnUse">
<stop stop-color="#FFBA68"/>
<stop offset="1" stop-color="#E24E74" stop-opacity="0.38"/>
</linearGradient>
<linearGradient id="paint15_linear_1129_4656" x1="67.8156" y1="84.429" x2="112.982" y2="53.4748" gradientUnits="userSpaceOnUse">
<stop stop-color="#FFBA68"/>
<stop offset="1" stop-color="#E24E74" stop-opacity="0.38"/>
</linearGradient>
</defs>
</svg>
