<svg width="117" height="56" viewBox="0 0 117 56" fill="none" xmlns="http://www.w3.org/2000/svg">
<path d="M87.1692 9.51005C80.0775 9.00337 50.0947 2.40531 50.487 -3.08436C50.8794 -8.57403 81.5001 -10.8819 88.589 -10.3765C95.6778 -9.87107 106.07 -3.92156 105.739 0.834892C105.408 5.59135 94.2573 10.0134 87.1692 9.51005Z" fill="url(#paint0_linear_1084_3963)"/>
<path d="M46.4247 26.1661C46.9329 19.0787 53.5508 -10.8922 59.0452 -10.5035C64.5396 -10.1148 66.8321 20.4895 66.3198 27.5785C65.8074 34.6675 59.8511 45.0545 55.0964 44.724C50.3416 44.3934 45.9225 33.2511 46.4247 26.1661Z" fill="url(#paint1_linear_1084_3963)"/>
<path d="M70.5247 -31.203C70.0193 -24.1143 63.3994 5.85739 57.905 5.46865C52.4105 5.07991 50.124 -25.5149 50.6255 -32.6138C51.1271 -39.7127 57.0922 -50.0891 61.8497 -49.7572C66.6073 -49.4254 71.0297 -38.2868 70.5247 -31.203Z" fill="url(#paint2_linear_1084_3963)"/>
<path d="M70.2465 26.2705C65.589 20.9032 49.0665 -4.95917 53.2297 -8.56462C57.3929 -12.1701 80.6696 7.84616 85.3211 13.2041C89.9726 18.5619 93.1143 30.1265 89.5009 33.2586C85.8875 36.3906 74.9093 31.6335 70.2465 26.2705Z" fill="url(#paint3_linear_1084_3963)"/>
<path d="M46.7078 -31.307C51.3632 -25.9389 67.8857 -0.0765473 63.7205 3.52969C59.5553 7.13592 36.2858 -12.8737 31.623 -18.2366C26.9602 -23.5995 23.8298 -35.1591 27.4432 -38.2912C31.0566 -41.4232 42.0512 -36.6723 46.7078 -31.307Z" fill="url(#paint4_linear_1084_3963)"/>
<path d="M29.6676 9.25856C35.0387 4.60385 60.9238 -11.925 64.53 -7.76372C68.1361 -3.60241 48.0967 19.6674 42.7338 24.319C37.3708 28.9706 25.7987 32.1162 22.6667 28.5061C19.5347 24.8961 24.2964 13.9133 29.6676 9.25856Z" fill="url(#paint5_linear_1084_3963)"/>
<path d="M31.0108 -9.31244C38.1183 -9.36939 68.5309 -5.1455 68.5737 0.359932C68.6164 5.86537 38.2638 10.5701 31.1604 10.6254C24.057 10.6808 13.2152 5.5644 13.1818 0.798023C13.1484 -3.96835 23.9002 -9.26366 31.0108 -9.31244Z" fill="url(#paint6_linear_1084_3963)"/>
<path d="M87.2908 -14.2966C81.9205 -9.63982 56.0338 6.88499 52.4292 2.72776C48.8246 -1.42947 68.8617 -24.7055 74.2259 -29.3598C79.5901 -34.0142 91.161 -37.157 94.2909 -33.5462C97.4209 -29.9354 92.6579 -18.9497 87.2908 -14.2966Z" fill="url(#paint7_linear_1084_3963)"/>
<path d="M85.8081 -1.2572C80.0497 0.952732 54.0465 6.7831 52.335 2.32339C50.6235 -2.13632 73.8509 -15.1994 79.6093 -17.4093C85.3677 -19.6193 95.7336 -18.7667 97.2171 -14.9012C98.7006 -11.0358 91.5665 -3.46714 85.8081 -1.2572Z" fill="url(#paint8_linear_1084_3963)"/>
<path d="M31.8438 0.921778C37.6023 -1.28816 63.6026 -7.11977 65.3149 -2.65802C67.0272 1.80373 43.801 14.864 38.0426 17.0739C32.2842 19.2839 21.9167 18.4272 20.4348 14.5658C18.9529 10.7044 26.0834 3.1325 31.8438 0.921778Z" fill="url(#paint9_linear_1084_3963)"/>
<path d="M59.9018 26.7991C57.6935 21.0447 51.8732 -4.93988 56.3381 -6.6534C60.803 -8.36693 73.8571 14.8415 76.0654 20.5959C78.2738 26.3502 77.4138 36.7118 73.5476 38.1956C69.6815 39.6793 62.1102 32.5534 59.9018 26.7991Z" fill="url(#paint10_linear_1084_3963)"/>
<path d="M57.7473 -27.1357C59.9556 -21.3814 65.7767 4.60527 61.3138 6.31801C56.851 8.03074 43.792 -15.1782 41.5837 -20.9325C39.3753 -26.6869 40.2373 -37.0493 44.1035 -38.533C47.9697 -40.0168 55.5405 -32.886 57.7473 -27.1357Z" fill="url(#paint11_linear_1084_3963)"/>
<path d="M78.6666 18.131C73.0314 15.6222 50.5286 1.36727 52.4773 -2.9931C54.426 -7.35347 80.0801 -0.183553 85.7146 2.32318C91.349 4.82991 98.0678 12.7586 96.3802 16.5408C94.6926 20.3231 84.3002 20.6357 78.6666 18.131Z" fill="url(#paint12_linear_1084_3963)"/>
<path d="M38.9833 -18.4656C44.6169 -15.9609 67.1189 -1.70802 65.1738 2.65565C63.2287 7.01932 37.571 -0.153902 31.9373 -2.65859C26.3037 -5.16329 19.5833 -13.096 21.2697 -16.8755C22.956 -20.6549 33.3509 -20.9731 38.9833 -18.4656Z" fill="url(#paint13_linear_1084_3963)"/>
<path d="M40.5075 19.6726C43.0183 14.0399 57.2865 -8.45822 61.6544 -6.51497C66.0223 -4.57172 58.8295 21.0726 56.3195 26.7073C53.8096 32.342 45.872 39.0569 42.0901 37.3761C38.3082 35.6952 37.9981 25.3024 40.5075 19.6726Z" fill="url(#paint14_linear_1084_3963)"/>
<path d="M77.1444 -20.0079C74.6309 -14.3765 60.3626 8.12163 55.9968 6.17759C51.6309 4.23355 58.8189 -21.4112 61.3304 -27.0418C63.8419 -32.6724 71.7792 -39.3943 75.559 -37.7127C79.3389 -36.031 79.6552 -25.6405 77.1444 -20.0079Z" fill="url(#paint15_linear_1084_3963)"/>
<path d="M63.3308 11.8483C60.857 12.7981 58.1573 12.9935 55.5732 12.4099C52.989 11.8262 50.6364 10.4897 48.8129 8.56923C46.9894 6.6488 45.7769 4.23078 45.3288 1.62095C44.8806 -0.988889 45.2169 -3.67331 46.2952 -6.09283C47.3734 -8.51234 49.1452 -10.5583 51.3864 -11.9719C53.6276 -13.3855 56.2376 -14.1033 58.8862 -14.0345C61.5349 -13.9657 64.1033 -13.1134 66.2666 -11.5854C68.43 -10.0574 70.0911 -7.92232 71.0398 -5.45017C72.3119 -2.13557 72.2143 1.54892 70.7686 4.79293C69.3229 8.03694 66.6475 10.5748 63.3308 11.8483Z" fill="#FFC58E"/>
<defs>
<linearGradient id="paint0_linear_1084_3963" x1="74.9275" y1="0.252907" x2="114.656" y2="25.4003" gradientUnits="userSpaceOnUse">
<stop stop-color="#FF7B00"/>
<stop offset="0.489583" stop-color="#FFD570" stop-opacity="0.53"/>
<stop offset="1" stop-color="#F5C58B" stop-opacity="0.38"/>
</linearGradient>
<linearGradient id="paint1_linear_1084_3963" x1="41.7882" y1="8.86523" x2="91.1188" y2="14.1789" gradientUnits="userSpaceOnUse">
<stop stop-color="#FF7B00"/>
<stop offset="0.489583" stop-color="#FFD570" stop-opacity="0.53"/>
<stop offset="1" stop-color="#F5C58B" stop-opacity="0.38"/>
</linearGradient>
<linearGradient id="paint2_linear_1084_3963" x1="46.4039" y1="-31.2787" x2="95.7343" y2="-25.9658" gradientUnits="userSpaceOnUse">
<stop stop-color="#FF7B00"/>
<stop offset="0.489583" stop-color="#FFD570" stop-opacity="0.53"/>
<stop offset="1" stop-color="#F5C58B" stop-opacity="0.38"/>
</linearGradient>
<linearGradient id="paint3_linear_1084_3963" x1="59.0495" y1="2.44558" x2="115.056" y2="9.53404" gradientUnits="userSpaceOnUse">
<stop offset="0.245508" stop-color="#FF7B00"/>
<stop offset="0.489583" stop-color="#FFC793" stop-opacity="0.78"/>
<stop offset="1" stop-color="#FFBA68" stop-opacity="0.38"/>
</linearGradient>
<linearGradient id="paint4_linear_1084_3963" x1="48.7541" y1="-13.9087" x2="7.33828" y2="-20.3759" gradientUnits="userSpaceOnUse">
<stop stop-color="#FF7B00"/>
<stop offset="0.489583" stop-color="#FFD570" stop-opacity="0.53"/>
<stop offset="1" stop-color="#F5C58B" stop-opacity="0.38"/>
</linearGradient>
<linearGradient id="paint5_linear_1084_3963" x1="23.9023" y1="12.1415" x2="60.232" y2="43.731" gradientUnits="userSpaceOnUse">
<stop stop-color="#FF7B00"/>
<stop offset="0.489583" stop-color="#FFD570" stop-opacity="0.53"/>
<stop offset="1" stop-color="#F5C58B" stop-opacity="0.38"/>
</linearGradient>
<linearGradient id="paint6_linear_1084_3963" x1="46.1788" y1="-2.13968" x2="10.2291" y2="-29.2309" gradientUnits="userSpaceOnUse">
<stop stop-color="#FF7B00"/>
<stop offset="0.546844" stop-color="#FFD570" stop-opacity="0.53"/>
<stop offset="1" stop-color="#F5C58B" stop-opacity="0.38"/>
</linearGradient>
<linearGradient id="paint7_linear_1084_3963" x1="52.8761" y1="-16.0074" x2="89.2114" y2="15.5832" gradientUnits="userSpaceOnUse">
<stop stop-color="#FF7B00"/>
<stop offset="0.489583" stop-color="#FFD570" stop-opacity="0.53"/>
<stop offset="1" stop-color="#F5C58B" stop-opacity="0.38"/>
</linearGradient>
<linearGradient id="paint8_linear_1084_3963" x1="56.9002" y1="-4.28371" x2="80.2725" y2="21.186" gradientUnits="userSpaceOnUse">
<stop stop-color="#FFBA68"/>
<stop offset="1" stop-color="#E24E74" stop-opacity="0.38"/>
</linearGradient>
<linearGradient id="paint9_linear_1084_3963" x1="24.9998" y1="7.95883" x2="48.3723" y2="33.428" gradientUnits="userSpaceOnUse">
<stop stop-color="#FFBA68"/>
<stop offset="1" stop-color="#E24E74" stop-opacity="0.38"/>
</linearGradient>
<linearGradient id="paint10_linear_1084_3963" x1="54.5796" y1="6.26757" x2="86.747" y2="4.68868" gradientUnits="userSpaceOnUse">
<stop stop-color="#FFBA68"/>
<stop offset="1" stop-color="#E24E74" stop-opacity="0.38"/>
</linearGradient>
<linearGradient id="paint11_linear_1084_3963" x1="42.3452" y1="-25.6116" x2="74.5127" y2="-27.1909" gradientUnits="userSpaceOnUse">
<stop stop-color="#FFBA68"/>
<stop offset="1" stop-color="#E24E74" stop-opacity="0.38"/>
</linearGradient>
<linearGradient id="paint12_linear_1084_3963" x1="59.4791" y1="2.87605" x2="107.367" y2="21.6181" gradientUnits="userSpaceOnUse">
<stop stop-color="#FFBA68"/>
<stop offset="1" stop-color="#E24E74" stop-opacity="0.38"/>
</linearGradient>
<linearGradient id="paint13_linear_1084_3963" x1="27.4681" y1="-11.3646" x2="75.3546" y2="7.3785" gradientUnits="userSpaceOnUse">
<stop stop-color="#FFBA68"/>
<stop offset="1" stop-color="#E24E74" stop-opacity="0.38"/>
</linearGradient>
<linearGradient id="paint14_linear_1084_3963" x1="36.3411" y1="11.7546" x2="84.2303" y2="30.4966" gradientUnits="userSpaceOnUse">
<stop stop-color="#FFBA68"/>
<stop offset="1" stop-color="#E24E74" stop-opacity="0.38"/>
</linearGradient>
<linearGradient id="paint15_linear_1084_3963" x1="50.6059" y1="-20.2454" x2="98.4928" y2="-1.50571" gradientUnits="userSpaceOnUse">
<stop stop-color="#FFBA68"/>
<stop offset="1" stop-color="#E24E74" stop-opacity="0.38"/>
</linearGradient>
</defs>
</svg>
