<svg width="1282" height="99" viewBox="0 0 1282 99" fill="none" xmlns="http://www.w3.org/2000/svg">
<path opacity="0.2" d="M1282 98.9999C1151.11 55.0838 977.012 19.0023 821.456 14.437C793.038 13.5814 764.535 13.9827 736.243 15.6367C732.364 15.9366 723.933 16.5142 720.271 16.803C706.255 18.047 692.183 19.5466 678.419 21.3979C598.806 31.9317 526.394 52.8919 449.626 67.4208C395.723 77.6695 338.605 83.7343 281.256 81.9274C279.572 81.9274 277.873 81.8386 276.175 81.7719L271.079 81.5794L265.983 81.3869L263.431 81.2869L260.887 81.1573C181.49 77.3585 100.682 66.099 32.3026 43.928C27.9407 42.447 23.5787 40.966 19.4545 39.3295L19 39.6109C31.9111 45.783 46.4511 50.9481 61.2636 55.7392C88.1903 64.2996 116.949 71.2382 146.546 76.7476C179.652 82.8482 213.755 87.3104 248.416 90.0768C254.756 90.5692 263.096 91.1876 269.268 91.5578C274.979 91.9762 284.465 92.402 290.358 92.6501C293.888 92.8463 297.439 92.8833 300.983 92.9611C304.527 93.0388 308.246 93.161 311.636 93.1462C325.871 93.2279 340.103 92.9201 354.278 92.2243C359.08 92.0169 365.322 91.5356 370.16 91.2431C389.485 89.787 408.627 87.7134 427.48 85.0339C511.155 73.1153 587.643 50.6222 670.905 38.3482C683.613 36.4784 697.175 34.7678 710.086 33.4127C714.909 32.9314 720.068 32.487 724.905 32.0242C728.722 31.7354 736.013 31.206 739.746 30.9135C779.8 28.4661 820.603 28.8511 860.678 31.0023C938.719 35.2158 1015.55 45.3794 1090.05 58.3605C1102.54 60.5636 1116.61 63.1035 1129 65.4991C1180.73 74.9628 1232.52 87.8256 1282 98.9999Z" fill="#EB7864"/>
<path d="M1263 84.9999C1132.11 41.0838 958.012 5.00228 802.456 0.437029C774.038 -0.418562 745.535 -0.0172839 717.243 1.63668C713.364 1.93658 704.933 2.51418 701.271 2.80298C687.255 4.04705 673.183 5.54659 659.419 7.39787C579.806 17.9317 507.394 38.8919 430.626 53.4208C376.723 63.6695 319.605 69.7343 262.256 67.9274C260.572 67.9274 258.873 67.8386 257.175 67.7719L252.079 67.5794L246.983 67.3869L244.431 67.2869L241.887 67.1573C162.49 63.3585 81.6821 52.099 13.3026 29.928C8.94068 28.447 4.57874 26.966 0.45447 25.3295L2.23896e-06 25.6109C12.9111 31.783 27.4511 36.9481 42.2636 41.7392C69.1903 50.2996 97.9486 57.2382 127.546 62.7476C160.652 68.8482 194.755 73.3104 229.416 76.0768C235.756 76.5692 244.096 77.1876 250.268 77.5578C255.979 77.9762 265.465 78.402 271.358 78.6501C274.888 78.8463 278.439 78.8833 281.983 78.9611C285.527 79.0388 289.246 79.161 292.636 79.1462C306.871 79.2279 321.103 78.9201 335.278 78.2243C340.08 78.0169 346.322 77.5356 351.16 77.2431C370.485 75.787 389.627 73.7134 408.48 71.0339C492.155 59.1153 568.643 36.6222 651.905 24.3482C664.613 22.4784 678.175 20.7678 691.086 19.4127C695.909 18.9314 701.068 18.487 705.905 18.0242C709.722 17.7354 717.013 17.206 720.746 16.9135C760.8 14.4661 801.603 14.8511 841.678 17.0023C919.719 21.2158 996.549 31.3794 1071.05 44.3605C1083.54 46.5636 1097.61 49.1035 1110 51.4991C1161.73 60.9628 1213.52 73.8256 1263 84.9999Z" fill="#EB7864"/>
</svg>
