<svg width="195" height="217" viewBox="0 0 195 217" fill="none" xmlns="http://www.w3.org/2000/svg">
<path d="M93.3594 56.2266H115.766C118.737 56.2266 121.586 57.4069 123.687 59.5079C125.788 61.6089 126.969 64.4585 126.969 67.4297V127.18H82.1562V67.4297C82.1562 64.4585 83.3366 61.6089 85.4376 59.5079C87.5386 57.4069 90.3881 56.2266 93.3594 56.2266Z" fill="url(#paint0_linear_1125_2828)"/>
<path d="M97.2805 56.2266H93.3594C90.3881 56.2266 87.5386 57.4069 85.4376 59.5079C83.3366 61.6089 82.1563 64.4585 82.1562 67.4297V127.18H126.969V94.6907C118.844 91.8152 111.722 86.6568 106.456 79.8342C101.19 73.0117 98.0039 64.8147 97.2805 56.2266Z" fill="url(#paint1_linear_1125_2828)"/>
<path d="M93.3594 41.2891H115.766V56.2266H93.3594V41.2891ZM97.0938 26.3516H112.031V41.2891H97.0938V26.3516ZM82.1562 74.8985H126.969V89.836H82.1562V74.8985Z" fill="#FFA101"/>
<path d="M103.136 74.8985H82.1562V89.836H117.155C111.396 86.0002 106.599 80.8888 103.136 74.8985ZM108.297 48.7579C105.987 48.7537 103.735 48.0332 101.851 46.6955C99.9679 45.3579 98.5458 43.4689 97.7809 41.2891H93.3594V56.2266H115.766V48.7579H108.297ZM100.828 26.3516H97.0938V41.2891H112.031V37.5547C109.06 37.5547 106.21 36.3744 104.109 34.2734C102.008 32.1724 100.828 29.3229 100.828 26.3516Z" fill="url(#paint2_linear_1125_2828)"/>
<path d="M190.446 1.21554C192.161 2.20535 193.412 3.83569 193.926 5.74814C194.439 7.66058 194.172 9.69859 193.183 11.4141L101.691 169.879L88.7512 162.41L180.247 3.94537C180.738 3.09582 181.391 2.35128 182.17 1.75429C182.948 1.15729 183.837 0.719537 184.785 0.466033C185.732 0.212529 186.721 0.148242 187.693 0.276846C188.666 0.405449 189.604 0.724422 190.453 1.21554H190.446Z" fill="#FFA101"/>
<path d="M191.349 1.85785L142.773 85.9933C141.356 88.4386 139.273 90.4304 136.767 91.7363C134.261 93.0423 131.435 93.6084 128.619 93.3687L88.7586 162.417L101.695 169.886L193.187 11.4141C194.078 9.86573 194.382 8.04864 194.045 6.29433C193.708 4.54003 192.751 2.96545 191.349 1.85785Z" fill="url(#paint3_linear_1125_2828)"/>
<path d="M27.8734 67.1609L47.2772 55.9577L58.4803 75.3615L39.0765 86.5647L27.8734 67.1609Z" fill="#E9F1F2"/>
<path d="M52.5128 66.0256C51.2379 66.762 49.8304 67.24 48.3708 67.4321C46.9111 67.6242 45.4279 67.5267 44.0059 67.1452C42.5839 66.7637 41.2511 66.1056 40.0836 65.2087C38.9161 64.3117 37.9369 63.1935 37.2018 61.9178L37.1346 61.802L27.8659 67.1534L39.069 86.5721L58.4878 75.369L52.9534 65.7829L52.5128 66.0256Z" fill="#D0D8DA"/>
<path d="M105.026 126.108L59.75 152.249L33.0455 93.0737C31.9026 90.5416 31.7413 87.6752 32.5929 85.0309C33.4444 82.3866 35.2481 80.1529 37.6537 78.7636L52.4344 70.2305C54.8404 68.8413 57.6769 68.3957 60.393 68.9802C63.1091 69.5647 65.5112 71.1376 67.1329 73.3935L105.026 126.108Z" fill="#FFA101"/>
<path d="M0 48.7579L7.46875 61.6937C10.8996 59.713 14.9767 59.1762 18.8033 60.2015C22.6299 61.2268 25.8925 63.7301 27.8734 67.1609L47.2921 55.9577L39.8234 43.0219L46.2913 39.2875L38.8226 26.3516L0 48.7579Z" fill="#84D2F4"/>
<path d="M38.8039 26.3516L51.7398 18.8829L59.2085 31.8187L46.2726 39.2875L38.8039 26.3516Z" fill="url(#paint4_linear_1125_2828)"/>
<path d="M77.3688 87.6327C74.6585 89.1814 71.6545 90.1467 68.5495 90.4667C65.4444 90.7867 62.3067 90.4544 59.3375 89.491C56.3684 88.5277 53.6332 86.9546 51.3075 84.8725C48.9818 82.7905 47.1168 80.2454 45.832 77.4005L44.6295 74.7342L37.6537 78.7636C35.2481 80.153 33.4444 82.3866 32.5929 85.0309C31.7413 87.6752 31.9026 90.5416 33.0455 93.0737L59.75 152.249L105.026 126.108L77.3688 87.6327Z" fill="url(#paint5_linear_1125_2828)"/>
<path d="M25.8083 50.3039C23.6182 49.1129 21.1649 48.489 18.6719 48.489C14.6869 48.6176 10.8065 47.2006 7.84219 44.5343L7.64053 44.3401L0 48.7579L7.46875 61.6938C10.8996 59.713 14.9767 59.1762 18.8033 60.2015C22.6299 61.2268 25.8925 63.7301 27.8734 67.1609L47.2921 55.9578L43.3748 49.1724L36.862 51.5027C35.0396 52.0965 33.112 52.2968 31.2064 52.0901C29.3009 51.8835 27.461 51.2747 25.8083 50.3039Z" fill="url(#paint6_linear_1125_2828)"/>
<path d="M56.4787 28.0844C54.7633 29.0748 52.7247 29.3431 50.8114 28.8305C48.8981 28.3179 47.2668 27.0662 46.2764 25.3508L44.8424 22.8675L38.8076 26.3516L46.2764 39.2875L59.2122 31.8188L56.9119 27.8454L56.4787 28.0844Z" fill="url(#paint7_linear_1125_2828)"/>
<path d="M130.703 216.805H41.0781L26.1406 119.711H145.641L130.703 216.805Z" fill="url(#paint8_linear_1125_2828)"/>
<path d="M14.9375 104.773H156.844V119.711H14.9375V104.773Z" fill="url(#paint9_linear_1125_2828)"/>
<path opacity="0.2" d="M122.275 201.867C126.632 199.211 130.707 196.118 134.438 192.636L136.473 179.412C128.505 189.619 117.767 197.315 105.541 201.58C91.0243 200.242 77.4992 193.637 67.5175 183.012C68.9049 182.568 70.2087 181.895 71.3751 181.022C73.4639 179.458 75.9711 178.552 78.5769 178.419C81.1828 178.286 83.7693 178.932 86.0064 180.275C87.0053 180.873 88.1531 181.177 89.3171 181.15C90.4811 181.123 91.6137 180.767 92.5838 180.123C93.5539 179.479 94.3219 178.573 94.7988 177.511C95.2758 176.449 95.4422 175.274 95.2788 174.121L88.557 127.18H144.49L145.641 119.711H26.1406L41.0781 216.805H130.703L133 201.867H122.275Z" fill="url(#paint10_linear_1125_2828)"/>
<path d="M37.3438 112.242C35.0336 112.238 32.7817 111.518 30.8982 110.18C29.0148 108.842 27.5926 106.953 26.8278 104.773H14.9375V119.711H156.844V112.242H37.3438Z" fill="url(#paint11_linear_1125_2828)"/>
<path d="M156.844 130.914H143.915L142.769 138.383H152.994C150.94 171.656 121.625 198.133 85.8906 198.133C50.1564 198.133 20.8415 171.656 18.7876 138.383H29.0124L27.8659 130.914H14.9375C13.9471 130.914 12.9972 131.308 12.2969 132.008C11.5966 132.708 11.2031 133.658 11.2031 134.648C11.2031 173.774 44.7079 205.602 85.8906 205.602C127.073 205.602 160.578 173.774 160.578 134.648C160.578 133.658 160.185 132.708 159.484 132.008C158.784 131.308 157.834 130.914 156.844 130.914Z" fill="url(#paint12_linear_1125_2828)"/>
<path d="M76.5547 95.4376C75.0687 96.9226 73.0539 97.7568 70.9531 97.7568C68.8523 97.7568 66.8375 96.9226 65.3516 95.4376C63.8656 93.9526 61.8508 93.1184 59.75 93.1184C57.6492 93.1184 55.6344 93.9526 54.1484 95.4376C50.5126 99.0738 48.154 103.791 47.4266 108.881L37.3438 179.461L48.446 172.799C50.6832 171.456 53.2696 170.81 55.8755 170.943C58.4814 171.076 60.9886 171.982 63.0773 173.546C65.349 175.251 68.1127 176.173 70.9531 176.173C73.7936 176.173 76.5573 175.251 78.8289 173.546C80.9177 171.982 83.4249 171.076 86.0308 170.943C88.6366 170.81 91.2231 171.456 93.4602 172.799C94.4591 173.397 95.6069 173.7 96.7709 173.673C97.935 173.646 99.0675 173.29 100.038 172.647C101.008 172.003 101.776 171.097 102.253 170.035C102.73 168.973 102.896 167.797 102.733 166.645L94.4797 108.881C93.7522 103.791 91.3936 99.0738 87.7578 95.4376C86.2719 93.9526 84.257 93.1184 82.1563 93.1184C80.0555 93.1184 78.0406 93.9526 76.5547 95.4376Z" fill="#84D2F4"/>
<path d="M81.1405 129.443L80.6849 124.879C80.1855 119.832 78.0839 115.076 74.6875 111.309C73.2903 109.739 71.3305 108.783 69.2332 108.649C67.1359 108.515 65.0703 109.213 63.4844 110.592C61.9798 112.023 59.9736 112.806 57.8973 112.774C55.8211 112.741 53.8406 111.894 52.3821 110.416C51.1046 109.124 49.463 108.252 47.6768 107.918C47.617 108.243 47.5087 108.553 47.4602 108.881L37.3438 179.461L48.446 172.799C50.6832 171.456 53.2696 170.81 55.8755 170.943C58.4814 171.076 60.9886 171.982 63.0773 173.546C65.349 175.251 68.1127 176.173 70.9531 176.173C73.7936 176.173 76.5573 175.251 78.8289 173.546C80.9177 171.982 83.4249 171.076 86.0308 170.943C88.6366 170.81 91.2231 171.456 93.4602 172.799C94.4591 173.397 95.6069 173.7 96.7709 173.673C97.935 173.646 99.0675 173.29 100.038 172.647C101.008 172.003 101.776 171.097 102.253 170.035C102.73 168.973 102.896 167.797 102.733 166.645L101.452 157.682C95.8845 155.173 91.0761 151.243 87.5105 146.285C83.9449 141.328 81.7479 135.519 81.1405 129.443Z" fill="url(#paint13_linear_1125_2828)"/>
<defs>
<linearGradient id="paint0_linear_1125_2828" x1="89.4307" y1="93.3742" x2="128.137" y2="92.0645" gradientUnits="userSpaceOnUse">
<stop offset="0.140039" stop-color="#DEECF1"/>
<stop offset="1" stop-color="#74DAFF" stop-opacity="0.52"/>
</linearGradient>
<linearGradient id="paint1_linear_1125_2828" x1="104.562" y1="56.2266" x2="104.563" y2="127.18" gradientUnits="userSpaceOnUse">
<stop stop-color="#DEECF1"/>
<stop offset="1" stop-color="#74DAFF" stop-opacity="0.52"/>
</linearGradient>
<linearGradient id="paint2_linear_1125_2828" x1="99.6555" y1="26.3516" x2="99.6555" y2="89.836" gradientUnits="userSpaceOnUse">
<stop stop-color="#FAC600"/>
<stop offset="1" stop-color="#FF9900"/>
</linearGradient>
<linearGradient id="paint3_linear_1125_2828" x1="141.469" y1="1.85785" x2="141.469" y2="169.886" gradientUnits="userSpaceOnUse">
<stop stop-color="#FAC600"/>
<stop offset="1" stop-color="#FF9900"/>
</linearGradient>
<linearGradient id="paint4_linear_1125_2828" x1="49.0062" y1="18.8829" x2="49.0062" y2="39.2875" gradientUnits="userSpaceOnUse">
<stop stop-color="#FAC600"/>
<stop offset="1" stop-color="#FF9900"/>
</linearGradient>
<linearGradient id="paint5_linear_1125_2828" x1="68.5396" y1="74.7342" x2="68.5396" y2="152.249" gradientUnits="userSpaceOnUse">
<stop stop-color="#FAC600"/>
<stop offset="1" stop-color="#FF9900"/>
</linearGradient>
<linearGradient id="paint6_linear_1125_2828" x1="7.67701" y1="56.2879" x2="48.0742" y2="51.8031" gradientUnits="userSpaceOnUse">
<stop offset="0.140039" stop-color="#DEECF1"/>
<stop offset="1" stop-color="#74DAFF" stop-opacity="0.52"/>
</linearGradient>
<linearGradient id="paint7_linear_1125_2828" x1="49.0099" y1="22.8675" x2="49.0099" y2="39.2875" gradientUnits="userSpaceOnUse">
<stop stop-color="#FAC600"/>
<stop offset="1" stop-color="#FF9900"/>
</linearGradient>
<linearGradient id="paint8_linear_1125_2828" x1="112.156" y1="158.491" x2="5.04451" y2="136.763" gradientUnits="userSpaceOnUse">
<stop stop-color="#E24E74"/>
<stop offset="0.489583" stop-color="#FF5473" stop-opacity="0.78"/>
<stop offset="1" stop-color="#FF7134" stop-opacity="0.38"/>
</linearGradient>
<linearGradient id="paint9_linear_1125_2828" x1="16.8748" y1="112.216" x2="107.064" y2="181.876" gradientUnits="userSpaceOnUse">
<stop stop-color="#FF8357"/>
<stop offset="1" stop-color="#D56C74"/>
</linearGradient>
<linearGradient id="paint10_linear_1125_2828" x1="27.772" y1="168.085" x2="147.827" y2="180.098" gradientUnits="userSpaceOnUse">
<stop stop-color="#882E0E"/>
<stop offset="1" stop-color="#530006"/>
</linearGradient>
<linearGradient id="paint11_linear_1125_2828" x1="117.081" y1="110.74" x2="78.7151" y2="50.6663" gradientUnits="userSpaceOnUse">
<stop stop-color="#E24E74"/>
<stop offset="0.489583" stop-color="#FF5473" stop-opacity="0.78"/>
<stop offset="1" stop-color="#FF7134" stop-opacity="0.38"/>
</linearGradient>
<linearGradient id="paint12_linear_1125_2828" x1="85.8906" y1="130.914" x2="85.8906" y2="205.602" gradientUnits="userSpaceOnUse">
<stop stop-color="#FFC69D"/>
<stop offset="1" stop-color="#FFF0E6"/>
</linearGradient>
<linearGradient id="paint13_linear_1125_2828" x1="47.9683" y1="145.374" x2="104.429" y2="142.607" gradientUnits="userSpaceOnUse">
<stop offset="0.140039" stop-color="#DEECF1"/>
<stop offset="1" stop-color="#74DAFF" stop-opacity="0.52"/>
</linearGradient>
</defs>
</svg>
