<svg width="155" height="205" viewBox="0 0 155 205" fill="none" xmlns="http://www.w3.org/2000/svg">
<path d="M86.4274 15.2563C83.7718 16.8393 81.207 20.3511 78.7893 22.2325C77.8119 22.9935 76.8561 23.4868 75.9305 23.478C71.7438 23.4434 68.124 16.7831 65.4337 15.226L72.09 2.52783C72.8207 1.13489 74.1228 0.373878 75.4807 0.235621C77.133 0.0670818 78.8674 0.832479 79.7583 2.52783L86.4274 15.2563Z" fill="#C24040"/>
<path opacity="0.2" d="M86.4274 15.2563C83.7718 16.8393 81.207 20.3511 78.7893 22.2325L75.4807 0.235216C77.133 0.0666775 78.8674 0.832075 79.7583 2.52742L86.4274 15.2563Z" fill="#740101"/>
<path d="M91.4747 24.8837V105.247H60.3735V24.8837C60.3735 24.8837 67.6267 22.7254 75.9305 23.478C77.0724 23.5816 78.0542 23.7115 78.9969 23.8498C82.1629 24.3171 84.8487 24.8837 91.4747 24.8837Z" fill="#E0DFDF"/>
<path d="M91.4747 24.8837V105.247H60.3735V24.8837C60.3735 24.8837 67.6267 22.7254 75.9305 23.478C77.0724 23.5816 78.0542 23.7115 78.9969 23.8498C82.1629 24.3171 84.8487 24.8837 91.4747 24.8837Z" fill="url(#paint0_linear_1125_2935)"/>
<path opacity="0.2" d="M91.4748 24.8837V105.247H80.1129V31.2806L78.9969 23.8502C82.1629 24.3171 84.8488 24.8837 91.4748 24.8837Z" fill="#675DA5"/>
<path d="M91.4747 24.8837C87.5174 28.5728 83.6725 30.4933 80.1129 31.2806C68.816 33.7804 60.3735 24.8837 60.3735 24.8837L65.4337 15.226C68.5821 17.0469 73.0112 18.7119 78.1362 18.1366C80.7444 17.8469 83.5295 16.9775 86.4273 15.2559L91.4747 24.8837Z" fill="url(#paint1_linear_1125_2935)"/>
<path opacity="0.2" d="M91.4748 24.8837C87.5175 28.5728 83.6726 30.4933 80.1129 31.2806L78.1363 18.137C80.7445 17.8473 83.5295 16.9779 86.4274 15.2563L91.4748 24.8837Z" fill="#772E18"/>
<path d="M60.1672 118.452L27.9101 126.631L3.82822 31.6516L17.2324 16.8186L36.0849 23.4728L60.1672 118.452Z" fill="url(#paint2_linear_1125_2935)"/>
<path opacity="0.2" d="M60.1672 118.452L49.3532 121.194L25.2709 26.2145L27.9539 14.1L36.0848 23.4728L60.1672 118.452Z" fill="#FECE85"/>
<path d="M23.3273 3.83867L5.6893 8.31073C1.65234 9.33431 -0.790478 13.4366 0.233107 17.474L3.8278 31.6516L36.0848 23.4728L32.4902 9.29527C31.4666 5.2579 27.3643 2.81509 23.3273 3.83867Z" fill="url(#paint3_linear_1125_2935)"/>
<path opacity="0.2" d="M32.4906 9.29687L36.0848 23.4729L25.2729 26.2141L21.6786 12.0381C20.6554 8.00235 16.5507 5.55834 12.5149 6.58152L23.3269 3.84028C27.3627 2.81669 31.4674 5.2611 32.4906 9.29687Z" fill="#A51C26"/>
<path d="M105.341 90.5843C109.752 91.6936 114.228 89.0173 115.337 84.6062L125.971 42.3233L116.415 39.9199C112.871 39.0286 109.275 41.1794 108.383 44.7239L99.363 80.5892C98.2534 84.9999 100.93 89.4747 105.341 90.5843Z" fill="url(#paint4_linear_1125_2935)"/>
<path d="M119.463 47.3364L150.015 55.0215L126.228 149.583L95.6758 141.898L119.463 47.3364Z" fill="#C8EFFE"/>
<path d="M151.872 43.4807C151.396 46.6742 151.035 48.6281 151.035 48.6281L148.584 49.0059L134.715 51.1566L123.509 42.701L121.53 41.2069C121.53 41.2069 122.138 39.3147 123.226 36.2774C125.496 29.9646 129.863 18.7012 135.257 9.22753C136.517 7.01541 139.115 5.92768 141.586 6.54725L149.763 8.60398C152.234 9.22753 154.007 11.4114 154.073 13.9606C154.339 24.8538 152.861 36.8436 151.872 43.4807Z" fill="url(#paint5_linear_1125_2935)"/>
<path d="M151.872 43.4808C151.396 46.6742 151.035 48.6282 151.035 48.6282L148.584 49.0059L123.509 42.701L121.53 41.2069C121.53 41.2069 122.138 39.3147 123.225 36.2774L151.872 43.4808Z" fill="url(#paint6_linear_1125_2935)"/>
<path d="M147.899 61.1024L118.392 53.6811C117.755 53.5209 117.208 53.1144 116.871 52.5511C116.534 51.9877 116.435 51.3136 116.595 50.6769L118.524 43.0042C118.684 42.3676 119.091 41.8207 119.654 41.4838C120.218 41.1468 120.892 41.0473 121.528 41.2073L138.524 45.4801C139.85 45.8136 153.166 50.3068 152.833 51.6324L150.903 59.3051C150.824 59.6204 150.684 59.917 150.49 60.178C150.296 60.439 150.053 60.6593 149.774 60.8262C149.495 60.9931 149.185 61.1034 148.864 61.1508C148.542 61.1982 148.214 61.1818 147.899 61.1024Z" fill="url(#paint7_linear_1125_2935)"/>
<path d="M144.914 110.306L143.784 125.108L138.623 192.697C138.125 199.194 132.709 204.211 126.195 204.211H29.4907C22.9731 204.211 17.5567 199.194 17.0635 192.697L11.8977 125.108L10.7678 110.306L77.843 97.8662L144.914 110.306Z" fill="#E24E74"/>
<path d="M144.914 110.306L143.784 125.108L138.623 192.697C138.125 199.194 132.709 204.211 126.195 204.211H29.4907C22.9731 204.211 17.5567 199.194 17.0635 192.697L11.8977 125.108L10.7678 110.306L77.843 97.8662L144.914 110.306Z" fill="url(#paint8_linear_1125_2935)"/>
<path opacity="0.2" d="M144.914 110.306L143.784 125.108H11.8977L10.7674 110.306L77.8426 97.8662L144.914 110.306Z" fill="#252525"/>
<path d="M144.913 110.306L138.622 192.697C138.125 199.195 132.708 204.212 126.195 204.212H102.807C109.325 204.212 114.737 199.195 115.235 192.697L121.53 110.306L66.1509 100.036L77.8422 97.8666L144.913 110.306Z" fill="#E24E74"/>
<path d="M144.913 110.306L138.622 192.697C138.125 199.195 132.708 204.212 126.195 204.212H102.807C109.325 204.212 114.737 199.195 115.235 192.697L121.53 110.306L66.1509 100.036L77.8422 97.8666L144.913 110.306Z" fill="url(#paint9_linear_1125_2935)"/>
<path d="M147.903 110.307H7.78071C4.35574 110.307 1.57944 107.53 1.57944 104.105V91.6263C1.57944 88.2013 4.35574 85.425 7.78071 85.425H147.903C151.328 85.425 154.104 88.2013 154.104 91.6263V104.105C154.104 107.53 151.328 110.307 147.903 110.307Z" fill="#E24E74"/>
<path d="M147.903 110.307H7.78071C4.35574 110.307 1.57944 107.53 1.57944 104.105V91.6263C1.57944 88.2013 4.35574 85.425 7.78071 85.425H147.903C151.328 85.425 154.104 88.2013 154.104 91.6263V104.105C154.104 107.53 151.328 110.307 147.903 110.307Z" fill="url(#paint10_linear_1125_2935)"/>
<g opacity="0.2">
<path d="M154.104 91.6247V104.105C154.104 107.529 151.33 110.307 147.903 110.307H119.769C123.192 110.307 125.97 107.529 125.97 104.105V91.6247C125.97 88.2013 123.192 85.4234 119.769 85.4234H147.903C151.33 85.4238 154.104 88.2017 154.104 91.6247Z" fill="#E24E74"/>
<path d="M154.104 91.6247V104.105C154.104 107.529 151.33 110.307 147.903 110.307H119.769C123.192 110.307 125.97 107.529 125.97 104.105V91.6247C125.97 88.2013 123.192 85.4234 119.769 85.4234H147.903C151.33 85.4238 154.104 88.2017 154.104 91.6247Z" fill="url(#paint11_linear_1125_2935)"/>
</g>
<defs>
<linearGradient id="paint0_linear_1125_2935" x1="82.1942" y1="73.6026" x2="60.2449" y2="73.2858" gradientUnits="userSpaceOnUse">
<stop stop-color="#D7A4FF"/>
<stop offset="1" stop-color="#F372BF"/>
</linearGradient>
<linearGradient id="paint1_linear_1125_2935" x1="75.9241" y1="15.226" x2="75.9241" y2="31.7236" gradientUnits="userSpaceOnUse">
<stop stop-color="#FFC69D"/>
<stop offset="1" stop-color="#EC9354"/>
</linearGradient>
<linearGradient id="paint2_linear_1125_2935" x1="31.9977" y1="16.8186" x2="31.9977" y2="126.631" gradientUnits="userSpaceOnUse">
<stop stop-color="#FAC600"/>
<stop offset="1" stop-color="#FF9900"/>
</linearGradient>
<linearGradient id="paint3_linear_1125_2935" x1="25.9737" y1="14.8074" x2="-6.25205" y2="7.97348" gradientUnits="userSpaceOnUse">
<stop stop-color="#E24E74"/>
<stop offset="0.489583" stop-color="#FF5473" stop-opacity="0.78"/>
<stop offset="1" stop-color="#FF7134" stop-opacity="0.38"/>
</linearGradient>
<linearGradient id="paint4_linear_1125_2935" x1="112.542" y1="39.7185" x2="112.542" y2="90.835" gradientUnits="userSpaceOnUse">
<stop stop-color="#DEECF1"/>
<stop offset="1" stop-color="#74DAFF" stop-opacity="0.52"/>
</linearGradient>
<linearGradient id="paint5_linear_1125_2935" x1="137.817" y1="6.37496" x2="137.817" y2="51.1566" gradientUnits="userSpaceOnUse">
<stop stop-color="#DEECF1"/>
<stop offset="1" stop-color="#74DAFF" stop-opacity="0.52"/>
</linearGradient>
<linearGradient id="paint6_linear_1125_2935" x1="136.701" y1="36.2774" x2="136.701" y2="49.0059" gradientUnits="userSpaceOnUse">
<stop stop-color="#DEECF1"/>
<stop offset="1" stop-color="#74DAFF" stop-opacity="0.52"/>
</linearGradient>
<linearGradient id="paint7_linear_1125_2935" x1="134.68" y1="41.1327" x2="134.68" y2="61.1773" gradientUnits="userSpaceOnUse">
<stop stop-color="#6BD9E7"/>
<stop offset="1" stop-color="#A8F5FF"/>
</linearGradient>
<linearGradient id="paint8_linear_1125_2935" x1="104.885" y1="163.136" x2="10.4105" y2="158.605" gradientUnits="userSpaceOnUse">
<stop stop-color="#C3DC2B"/>
<stop offset="1" stop-color="#6DB84A"/>
</linearGradient>
<linearGradient id="paint9_linear_1125_2935" x1="125" y1="196.712" x2="121.578" y2="118.868" gradientUnits="userSpaceOnUse">
<stop stop-color="#D4F700"/>
<stop offset="1" stop-color="#C4DD2C"/>
</linearGradient>
<linearGradient id="paint10_linear_1125_2935" x1="108.591" y1="100.696" x2="6.47331" y2="76.8957" gradientUnits="userSpaceOnUse">
<stop stop-color="#C3DC2B"/>
<stop offset="1" stop-color="#6DB84A"/>
</linearGradient>
<linearGradient id="paint11_linear_1125_2935" x1="145.423" y1="108.552" x2="144.993" y2="90.3125" gradientUnits="userSpaceOnUse">
<stop stop-color="#D4F700"/>
<stop offset="1" stop-color="#C4DD2C"/>
</linearGradient>
</defs>
</svg>
