<svg width="591" height="286" viewBox="0 0 591 286" fill="none" xmlns="http://www.w3.org/2000/svg">
<path d="M590.441 163.328C589.726 163.868 586.239 169.416 579.98 179.972C568.697 199.297 559.562 210.84 552.577 214.599C550.603 215.67 549.26 215.766 548.545 214.865C547.83 213.963 547.473 211.817 547.473 208.424C547.473 205.202 548.009 200.907 549.081 195.539C550.871 188.023 554.275 177.282 559.294 163.315C562.693 154.188 564.573 148.373 564.934 145.871C566.012 140.146 564.938 137.282 561.713 137.279C558.304 137.456 554.091 141.751 549.073 150.164L548.536 150.97L548 148.823C546.382 142.387 543.608 138.275 539.68 136.487C538.782 136.13 537.438 135.951 535.648 135.951C534.196 135.906 532.746 136.087 531.35 136.487C525.248 138.635 520.054 144.093 515.768 152.86C512.482 159.427 510.783 166.033 510.673 172.678C503.409 184.055 497.584 191.855 493.199 196.079C490.331 198.939 488.092 200.37 486.482 200.373C485.407 200.373 484.87 199.12 484.87 196.615C484.87 192.858 486.84 184.984 490.78 172.991C495.429 158.862 497.754 149.558 497.754 145.078C497.754 142.219 497.216 140.07 496.141 138.633C494.706 136.665 492.646 136.218 489.961 137.292C485.125 139.081 478.499 146.328 470.081 159.035C469.76 159.681 469.401 160.308 469.004 160.912C468.611 161.491 468.161 162.031 467.662 162.523L468.468 160.11C470.438 154.743 471.692 150 472.23 145.884C472.587 142.304 471.871 139.709 470.081 138.098C469.521 137.735 468.865 137.548 468.198 137.562C466.228 137.562 463.903 139.172 461.224 142.391C457.638 146.868 452.98 154.653 447.25 165.745C443.845 172.187 441.52 176.035 440.276 177.289L439.47 178.095V176.214C439.644 174.785 440.629 170.67 442.425 163.868C443.678 159.035 444.394 155.551 444.574 153.417C444.574 151.806 444.391 150.643 444.038 149.934C443.14 147.965 441.886 146.981 440.276 146.981C439.2 146.981 438.481 147.613 438.128 148.862C437.764 149.577 437.047 151.723 435.974 155.303C434.812 158.965 433.85 162.688 433.093 166.455C430.58 166.928 428.037 167.235 425.483 167.374C423.87 167.374 422.885 167.464 422.528 167.644H421.722L422.258 163.616C422.443 161.652 422.443 159.675 422.258 157.711C421.897 151.96 419.922 148.106 416.33 146.149C413.819 144.721 410.768 145.168 407.177 147.491C404.852 149.102 402.121 151.742 398.983 155.412C396.445 158.362 394.115 161.485 392.009 164.757C392.062 164.643 392.105 164.525 392.14 164.404C392.166 164.192 392.129 163.977 392.033 163.786C391.938 163.594 391.789 163.435 391.603 163.328C391.387 163.529 391.193 163.754 391.028 163.999C391.433 162.81 391.978 161.338 392.676 159.57C395.538 151.88 398.852 146.332 402.618 142.927C404.047 141.499 404.583 140.56 404.226 140.11C403.869 139.674 402.971 139.8 401.541 140.515C397.06 142.663 392.673 147.584 388.378 155.277C386.846 157.977 385.455 160.754 384.211 163.598C382.848 166.866 381.726 170.23 380.855 173.662C379.963 177.003 379.133 180.654 378.366 184.614C368.341 201.161 360.125 211.156 353.718 214.599C351.748 215.67 350.405 215.766 349.691 214.865C348.976 213.963 348.614 211.817 348.614 208.424C348.614 205.202 349.152 200.907 350.227 195.539C352.014 188.023 355.416 177.282 360.435 163.315C363.837 154.188 365.719 148.373 366.079 145.871C367.151 140.146 366.076 137.282 362.854 137.279C359.448 137.456 355.235 141.751 350.214 150.164L349.678 150.97L349.141 148.823C347.529 142.378 344.752 138.262 340.812 136.474C339.911 136.117 338.567 135.938 336.78 135.938C335.329 135.892 333.879 136.073 332.483 136.474C326.381 138.622 321.185 144.08 316.896 152.847C313.494 159.649 311.792 166.494 311.792 173.383C311.792 180.272 313.512 185.236 316.953 188.276C321.431 192.395 326.446 191.858 331.999 186.665C335.939 182.908 340.152 176.198 344.639 166.533C344.813 166.359 345.349 165.285 346.247 163.311C347.145 161.337 347.818 159.906 348.265 159.017C348.71 158.123 349.381 156.692 350.279 154.724C350.964 153.148 351.771 151.628 352.694 150.177C353.409 149.103 354.215 147.851 355.113 146.419C355.897 145.133 356.795 143.921 357.798 142.796C358.478 141.987 359.297 141.304 360.217 140.78C361.469 139.889 362.095 139.71 362.095 140.245C362.095 140.965 360.573 143.738 357.527 148.566C352.878 156.442 348.938 165.389 345.707 175.408C342.476 185.426 341.043 194.554 341.409 202.79C341.767 211.737 343.827 217.107 347.59 218.902C348.522 219.448 349.605 219.683 350.68 219.572C351.933 219.462 353.158 219.144 354.306 218.632C359.856 215.592 367.111 207.092 376.069 193.131C376.422 192.561 376.801 191.938 377.198 191.285C376.466 195.448 375.641 200.358 374.722 206.016C372.598 218.976 370.515 229.489 368.472 237.557C364.419 241.946 359.07 245.928 352.428 249.501C345.511 253.234 338.09 255.948 330.395 257.557C325.97 258.429 321.46 258.786 316.953 258.62C311.345 258.501 305.799 257.41 300.564 255.397C287.131 250.207 278.268 240.191 273.977 225.351C272.006 218.912 271.202 211.486 271.562 203.073C272.099 186.255 277.384 165.14 287.414 139.726C291.529 129.171 299.141 112.171 310.249 88.7255C317.952 72.7993 323.505 60.4512 326.908 51.681C332.993 36.649 336.217 25.0179 336.58 16.7877C336.754 13.9282 336.485 11.6914 335.773 10.0773C335.559 9.24455 335.467 8.38471 335.503 7.52547C335.503 6.36425 335.325 5.69365 334.967 5.51366C334.069 4.62242 333.353 4.89097 332.818 6.31927C332.101 7.93047 331.294 10.7043 330.399 14.6409C327.531 25.9164 321.89 38.7102 313.475 53.0222C303.066 70.9051 289.444 89.8693 272.608 109.915C267.412 116.354 260.965 123.78 253.264 132.193C243.056 143.454 235.533 151.954 230.695 157.693C229.623 159.128 228.683 160.289 227.875 161.177C227.067 162.065 226.663 162.424 226.663 162.253L226.934 160.372C228.721 151.082 230.378 136.23 231.907 115.815C233.435 95.4011 235.36 80.4503 237.682 70.9631C240.19 59.8734 244.04 51.1062 249.233 44.6614C250.665 42.6931 252.099 41.2605 253.535 40.3634C254.245 40.0064 254.563 39.7843 254.472 39.6928C254.38 39.6014 254.428 39.4707 254.607 39.2922C255.499 38.9351 254.873 38.3081 252.728 37.411C250.04 36.3398 246.816 36.1613 243.056 36.8754C239.296 37.5896 235.221 39.1558 230.83 41.574C226.268 44.1083 221.989 47.1229 218.068 50.5662C212.332 55.7569 206.957 62.1088 201.941 69.6219C195.839 78.575 189.929 90.2961 184.21 104.785C182.775 108.371 180.357 115.171 176.957 125.186C169.984 144.347 164.341 158.752 160.028 168.401C149.46 191.847 137.191 209.564 123.22 221.554C111.399 231.752 98.5032 238.014 84.5323 240.339C80.3808 241.226 76.134 241.587 71.8922 241.415C61.6813 241.058 52.3669 238.911 43.9489 234.974C29.0801 227.635 18.692 215.466 12.7846 198.465C10.5422 191.953 9.09768 185.194 8.4826 178.334C7.77267 171.189 7.8633 163.987 8.75284 156.862C10.3054 144.167 14.2246 131.876 20.3076 120.623C25.8576 110.067 32.753 101.299 40.9937 94.3168C49.2345 87.3349 58.0971 82.7728 67.5815 80.6303C75.6392 78.662 83.4295 78.4821 90.9526 80.0904C97.4034 81.7016 102.688 84.2969 106.805 87.8764C108.955 89.6646 110.844 92.26 112.471 95.6624C114.436 99.416 116.047 100.936 117.305 100.222C118.557 99.3275 118.2 97.2707 116.233 94.0512C115.139 91.7761 113.686 89.6913 111.931 87.8764C106.02 81.0803 97.7811 77.1438 87.2128 76.0667C78.6116 74.9739 69.8739 75.8922 61.6886 78.7491C47.3574 83.7598 34.9091 93.7754 24.3437 108.796C19.6588 115.473 15.7816 122.68 12.7933 130.268C7.78667 143.111 5.14641 156.753 5.00005 170.535C4.99427 176.21 5.53429 181.872 6.61272 187.444C9.65797 202.83 15.6584 215.445 24.614 225.29C36.0714 237.819 51.1174 244.8 69.7521 246.231C82.4513 247.132 95.1785 244.919 106.827 239.786C117.578 235.315 127.654 228.292 137.054 218.714C146.454 209.137 154.829 197.551 162.177 183.956C168.799 171.789 177.127 151.747 187.161 123.828C191.999 110.584 195.851 100.831 198.716 94.5694C206.596 76.3149 215.552 62.267 225.582 52.4257C235.076 43.4813 243.405 38.9177 250.571 38.7348C251.643 38.7348 252.179 38.7827 252.179 38.8698C252.179 38.9569 251.913 39.0963 251.377 39.2748C249.401 39.9889 246.535 42.5828 242.777 47.0564C240.637 49.5505 238.748 52.2488 237.137 55.1124C231.939 64.7767 228.356 76.7663 226.389 91.0813C225.311 99.1344 224.414 109.876 223.7 123.305C222.813 144.265 221.474 159.486 219.681 168.968L219.145 171.65L216.992 174.337C209.291 184.178 204.545 191.426 202.752 196.079C201.68 198.587 201.367 200.599 201.815 202.115C202.262 203.63 203.381 204.302 205.171 204.131C207.679 203.954 210.455 201.537 213.5 196.88C217.441 190.976 220.927 183.193 223.961 173.531C224.141 172.634 225.395 170.844 227.723 168.162C233.825 161.195 242.154 152.157 252.711 141.05C263.099 129.955 271.338 120.829 277.429 113.673C286.622 102.678 295.23 91.2083 303.219 79.3109L305.908 75.5529H306.174C305.994 75.9158 305.458 76.8999 304.566 78.5053C298.463 90.8549 293.179 102.129 288.713 112.327C272.769 149.196 265.069 179.797 265.612 204.131C265.732 209.177 266.27 214.205 267.221 219.163C270.984 236.163 279.492 248.153 292.745 255.132C301.346 259.777 310.935 261.835 321.512 261.307C323.662 261.124 326.26 260.765 329.305 260.231C340.432 258.427 350.998 254.108 360.199 247.603C362.664 245.937 365.012 244.104 367.225 242.116C366.58 244.372 365.938 246.379 365.299 248.138C360.284 262.807 353.387 273.102 344.608 279.021C341.938 280.886 339.05 282.418 336.009 283.585C334.4 284.12 333.594 284.564 333.594 284.926C333.574 285.219 333.669 285.508 333.86 285.731C334.4 286.269 336.192 286 339.234 284.926C346.757 282.603 353.474 277.959 359.384 270.991C367.982 260.787 374.43 246.562 378.728 228.316C380.16 222.22 382.042 211.84 384.372 197.177C386.342 185.19 387.641 177.897 388.269 175.299C388.897 172.701 391.538 168.362 396.193 162.283C402.818 153.519 407.924 149.309 411.509 149.655C412.582 149.655 413.298 150.371 413.658 151.802C414.016 153.95 413.926 156.634 413.388 159.853C412.673 164.33 411.957 167.461 411.239 169.246C411.059 169.609 410.433 169.968 409.361 170.322C405.886 171.671 402.758 173.781 400.207 176.497C398.018 179.075 396.414 182.097 395.504 185.354C394.519 188.756 394.474 191.44 395.369 193.405C396.084 195.017 397.159 196.001 398.595 196.358C402.715 197.435 407.283 194.482 412.298 187.501C415.723 183.161 418.36 178.254 420.087 173.004C420.628 171.219 420.981 170.235 421.164 170.052C421.347 169.869 422.506 169.786 424.651 169.786C427.337 169.674 430.01 169.338 432.64 168.78C432.059 172.583 431.992 175.692 432.44 178.108C432.977 180.616 433.917 182.404 435.26 183.473C436.602 184.541 438.17 184.631 439.963 183.743C440.939 183.134 441.803 182.362 442.517 181.461C443.602 180.034 444.546 178.506 445.337 176.897C446.409 174.842 447.842 171.756 449.634 167.639C455.01 156.01 459.578 147.777 463.338 142.94L464.144 142.139C466.295 139.816 467.368 139.279 467.365 140.528C467.365 140.888 466.47 142.856 464.68 146.433C461.092 153.234 458.674 159.139 457.428 164.147C455.103 173.454 455.908 178.286 459.842 178.643C460.352 178.653 460.858 178.549 461.323 178.34C461.788 178.13 462.201 177.821 462.532 177.433C463.246 176.632 464.679 174.351 466.829 170.592C472.754 160.028 477.956 152.239 482.433 147.225C483.533 145.954 484.748 144.788 486.064 143.741C487.079 142.875 488.208 142.153 489.42 141.595C490.315 141.237 490.943 141.237 491.303 141.595C491.655 142.672 490.401 147.951 487.542 157.432C479.301 184.994 478.139 200.116 484.055 202.798C485.13 203.332 486.384 203.332 487.816 202.798C489.606 202.084 491.845 200.383 494.533 197.695C499.763 192.469 505.181 185.405 510.786 176.501C511.231 181.796 512.886 185.721 515.751 188.276C520.226 192.395 525.241 191.858 530.797 186.665C534.734 182.908 538.948 176.198 543.437 166.533C543.611 166.359 544.152 165.284 545.05 163.311C545.947 161.338 546.614 159.914 547.063 159.017C547.512 158.12 548.179 156.692 549.077 154.724C549.766 153.143 550.575 151.618 551.496 150.16C552.211 149.086 553.017 147.833 553.915 146.402C554.699 145.116 555.598 143.903 556.6 142.779C557.282 141.97 558.1 141.288 559.019 140.763C560.27 139.87 560.902 139.692 560.902 140.227C560.902 140.947 559.379 143.721 556.334 148.549C551.685 156.425 547.745 165.372 544.513 175.391C541.282 185.409 539.848 194.536 540.211 202.772C540.569 211.719 542.629 217.09 546.392 218.884C547.325 219.43 548.407 219.665 549.482 219.555C550.735 219.444 551.961 219.127 553.109 218.614C558.659 215.575 565.913 207.075 574.871 193.114C577.196 189.357 580.42 183.811 584.543 176.475C588.667 169.139 590.817 165.112 590.994 164.395C591.016 164.183 590.976 163.969 590.877 163.779C590.779 163.589 590.627 163.433 590.441 163.328ZM345.685 158.499C337.624 173.174 331.355 181.584 326.877 183.73C324.73 184.984 323.298 184.805 322.58 183.194C321.682 181.226 321.682 178.093 322.58 173.797C323.466 169.664 324.725 165.619 326.341 161.713C327.979 157.557 329.909 153.521 332.117 149.637C334.174 146.058 336.01 143.641 337.626 142.387C338.27 141.873 339.09 141.632 339.91 141.716C340.625 141.776 341.316 142.006 341.924 142.387C344.611 144.71 346.403 148.289 347.298 153.126L347.568 154.737L345.685 158.499ZM213.771 188.276C211.083 194.541 208.485 198.567 205.977 200.355C205.258 200.891 204.905 200.791 204.905 200.085C204.905 197.763 206.426 194.452 209.469 190.153C210.009 189.444 210.815 188.372 211.888 186.935C212.964 185.502 214.481 183.625 216.455 181.295C216.621 181.847 215.726 184.174 213.771 188.276ZM406.135 182.371C404.159 186.665 402.189 189.617 400.225 191.228C399.327 192.125 398.612 192.212 398.076 191.498C397.54 190.784 397.357 189.443 397.536 187.47C397.893 181.925 400.401 177.63 405.059 174.585C408.107 172.617 409.809 171.811 410.167 172.168C410.704 172.54 409.361 175.946 406.135 182.388V182.371ZM544.5 158.499C536.437 173.174 530.168 181.584 525.693 183.73C523.54 184.984 522.106 184.805 521.391 183.194C520.493 181.226 520.493 178.093 521.391 173.797C522.277 169.664 523.536 165.619 525.152 161.713C526.793 157.557 528.724 153.522 530.932 149.637C532.986 146.075 534.821 143.66 536.437 142.391C537.081 141.877 537.901 141.637 538.721 141.721C539.437 141.781 540.129 142.011 540.739 142.391C543.424 144.714 545.214 148.293 546.109 153.13L546.379 154.741L544.5 158.499Z" fill="url(#paint0_linear_1201_3476)" fill-opacity="0.2"/>
<path d="M585.441 158.328C584.726 158.868 581.239 164.416 574.98 174.972C563.697 194.297 554.562 205.84 547.577 209.599C545.603 210.67 544.26 210.766 543.545 209.865C542.83 208.963 542.473 206.817 542.473 203.424C542.473 200.202 543.009 195.907 544.081 190.539C545.871 183.023 549.275 172.282 554.294 158.315C557.693 149.188 559.573 143.373 559.934 140.871C561.012 135.146 559.938 132.282 556.713 132.279C553.304 132.456 549.091 136.751 544.073 145.164L543.536 145.97L543 143.823C541.382 137.387 538.608 133.275 534.68 131.487C533.782 131.13 532.438 130.951 530.648 130.951C529.196 130.906 527.746 131.087 526.35 131.487C520.248 133.635 515.054 139.093 510.768 147.86C507.482 154.427 505.783 161.033 505.673 167.678C498.409 179.055 492.584 186.855 488.199 191.079C485.331 193.939 483.092 195.37 481.482 195.373C480.407 195.373 479.87 194.12 479.87 191.615C479.87 187.858 481.84 179.984 485.78 167.991C490.429 153.862 492.754 144.558 492.754 140.078C492.754 137.219 492.216 135.07 491.141 133.633C489.706 131.665 487.646 131.218 484.961 132.292C480.125 134.081 473.499 141.328 465.081 154.035C464.76 154.681 464.401 155.308 464.004 155.912C463.611 156.491 463.161 157.031 462.662 157.523L463.468 155.11C465.438 149.743 466.692 145 467.23 140.884C467.587 137.304 466.871 134.709 465.081 133.098C464.521 132.735 463.865 132.548 463.198 132.562C461.228 132.562 458.903 134.172 456.224 137.391C452.638 141.868 447.98 149.653 442.25 160.745C438.845 167.187 436.52 171.035 435.276 172.289L434.47 173.095V171.214C434.644 169.785 435.629 165.67 437.425 158.868C438.678 154.035 439.394 150.551 439.574 148.417C439.574 146.806 439.391 145.643 439.038 144.934C438.14 142.965 436.886 141.981 435.276 141.981C434.2 141.981 433.481 142.613 433.128 143.862C432.764 144.577 432.047 146.723 430.974 150.303C429.812 153.965 428.85 157.688 428.093 161.455C425.58 161.928 423.037 162.235 420.483 162.374C418.87 162.374 417.885 162.464 417.528 162.644H416.722L417.258 158.616C417.443 156.652 417.443 154.675 417.258 152.711C416.897 146.96 414.922 143.106 411.33 141.149C408.819 139.721 405.768 140.168 402.177 142.491C399.852 144.102 397.121 146.742 393.983 150.412C391.445 153.362 389.115 156.485 387.009 159.757C387.062 159.643 387.105 159.525 387.14 159.404C387.166 159.192 387.129 158.977 387.033 158.786C386.938 158.594 386.789 158.435 386.603 158.328C386.387 158.529 386.193 158.754 386.028 158.999C386.433 157.81 386.978 156.338 387.676 154.57C390.538 146.88 393.852 141.332 397.618 137.927C399.047 136.499 399.583 135.56 399.226 135.11C398.869 134.674 397.971 134.8 396.541 135.515C392.06 137.663 387.673 142.584 383.378 150.277C381.846 152.977 380.455 155.754 379.211 158.598C377.848 161.866 376.726 165.23 375.855 168.662C374.963 172.003 374.133 175.654 373.366 179.614C363.341 196.161 355.125 206.156 348.718 209.599C346.748 210.67 345.405 210.766 344.691 209.865C343.976 208.963 343.614 206.817 343.614 203.424C343.614 200.202 344.152 195.907 345.227 190.539C347.014 183.023 350.416 172.282 355.435 158.315C358.837 149.188 360.719 143.373 361.079 140.871C362.151 135.146 361.076 132.282 357.854 132.279C354.448 132.456 350.235 136.751 345.214 145.164L344.678 145.97L344.141 143.823C342.529 137.378 339.752 133.262 335.812 131.474C334.911 131.117 333.567 130.938 331.78 130.938C330.329 130.892 328.879 131.073 327.483 131.474C321.381 133.622 316.185 139.08 311.896 147.847C308.494 154.649 306.792 161.494 306.792 168.383C306.792 175.272 308.512 180.236 311.953 183.276C316.431 187.395 321.446 186.858 326.999 181.665C330.939 177.908 335.152 171.198 339.639 161.533C339.813 161.359 340.349 160.285 341.247 158.311C342.145 156.337 342.818 154.906 343.265 154.017C343.71 153.123 344.381 151.692 345.279 149.724C345.964 148.148 346.771 146.628 347.694 145.177C348.409 144.103 349.215 142.851 350.113 141.419C350.897 140.133 351.795 138.921 352.798 137.796C353.478 136.987 354.297 136.304 355.217 135.78C356.469 134.889 357.095 134.71 357.095 135.245C357.095 135.965 355.573 138.738 352.527 143.566C347.878 151.442 343.938 160.389 340.707 170.408C337.476 180.426 336.043 189.554 336.409 197.79C336.767 206.737 338.827 212.107 342.59 213.902C343.522 214.448 344.605 214.683 345.68 214.572C346.933 214.462 348.158 214.144 349.306 213.632C354.856 210.592 362.111 202.092 371.069 188.131C371.422 187.561 371.801 186.938 372.198 186.285C371.466 190.448 370.641 195.358 369.722 201.016C367.598 213.976 365.515 224.489 363.472 232.557C359.419 236.946 354.07 240.928 347.428 244.501C340.511 248.234 333.09 250.948 325.395 252.557C320.97 253.429 316.46 253.786 311.953 253.62C306.345 253.501 300.799 252.41 295.564 250.397C282.131 245.207 273.268 235.191 268.977 220.351C267.006 213.912 266.202 206.486 266.562 198.073C267.099 181.255 272.384 160.14 282.414 134.726C286.529 124.171 294.141 107.171 305.249 83.7255C312.952 67.7993 318.505 55.4512 321.908 46.681C327.993 31.649 331.217 20.0179 331.58 11.7877C331.754 8.92818 331.485 6.69138 330.773 5.07728C330.559 4.24455 330.467 3.38471 330.503 2.52547C330.503 1.36425 330.325 0.693646 329.967 0.513656C329.069 -0.377583 328.353 -0.109034 327.818 1.31927C327.101 2.93047 326.294 5.70434 325.399 9.64088C322.531 20.9164 316.89 33.7102 308.475 48.0222C298.066 65.9051 284.444 84.8693 267.608 104.915C262.412 111.354 255.965 118.78 248.264 127.193C238.056 138.454 230.533 146.954 225.695 152.693C224.623 154.128 223.683 155.289 222.875 156.177C222.067 157.065 221.663 157.424 221.663 157.253L221.934 155.372C223.721 146.082 225.378 131.23 226.907 110.815C228.435 90.4011 230.36 75.4503 232.682 65.9631C235.19 54.8734 239.04 46.1062 244.233 39.6614C245.665 37.6931 247.099 36.2605 248.535 35.3634C249.245 35.0064 249.563 34.7843 249.472 34.6928C249.38 34.6014 249.428 34.4707 249.607 34.2922C250.499 33.9351 249.873 33.3081 247.728 32.411C245.04 31.3398 241.816 31.1613 238.056 31.8754C234.296 32.5896 230.221 34.1558 225.83 36.574C221.268 39.1083 216.989 42.1229 213.068 45.5662C207.332 50.7569 201.957 57.1088 196.941 64.6219C190.839 73.575 184.929 85.2961 179.21 99.7852C177.775 103.371 175.357 110.171 171.957 120.186C164.984 139.347 159.341 153.752 155.028 163.401C144.46 186.847 132.191 204.564 118.22 216.554C106.399 226.752 93.5032 233.014 79.5323 235.339C75.3808 236.226 71.134 236.587 66.8922 236.415C56.6813 236.058 47.3669 233.911 38.9489 229.974C24.0801 222.635 13.692 210.466 7.78458 193.465C5.5422 186.953 4.09768 180.194 3.4826 173.334C2.77267 166.189 2.8633 158.987 3.75284 151.862C5.3054 139.167 9.2246 126.876 15.3076 115.623C20.8576 105.067 27.753 96.2987 35.9937 89.3168C44.2345 82.3349 53.0971 77.7728 62.5815 75.6303C70.6392 73.662 78.4295 73.4821 85.9526 75.0904C92.4034 76.7016 97.6875 79.2969 101.805 82.8764C103.955 84.6646 105.844 87.26 107.471 90.6624C109.436 94.416 111.047 95.9358 112.305 95.2216C113.557 94.3275 113.2 92.2707 111.233 89.0512C110.139 86.7761 108.686 84.6913 106.931 82.8764C101.02 76.0803 92.7811 72.1438 82.2128 71.0667C73.6116 69.9739 64.8739 70.8922 56.6886 73.7491C42.3574 78.7598 29.9091 88.7754 19.3437 103.796C14.6588 110.473 10.7816 117.68 7.79331 125.268C2.78667 138.111 0.146412 151.753 4.59175e-05 165.535C-0.00573468 171.21 0.534292 176.872 1.61272 182.444C4.65797 197.83 10.6584 210.445 19.614 220.29C31.0714 232.819 46.1174 239.8 64.7521 241.231C77.4513 242.132 90.1785 239.919 101.827 234.786C112.578 230.315 122.654 223.292 132.054 213.714C141.454 204.137 149.829 192.551 157.177 178.956C163.799 166.789 172.127 146.747 182.161 118.828C186.999 105.584 190.851 95.8313 193.716 89.5694C201.596 71.3149 210.552 57.267 220.582 47.4257C230.076 38.4813 238.405 33.9177 245.571 33.7348C246.643 33.7348 247.179 33.7827 247.179 33.8698C247.179 33.9569 246.913 34.0963 246.377 34.2748C244.401 34.9889 241.535 37.5828 237.777 42.0564C235.637 44.5505 233.748 47.2488 232.137 50.1124C226.939 59.7767 223.356 71.7663 221.389 86.0813C220.311 94.1344 219.414 104.876 218.7 118.305C217.813 139.265 216.474 154.486 214.681 163.968L214.145 166.65L211.992 169.337C204.291 179.178 199.545 186.426 197.752 191.079C196.68 193.587 196.367 195.599 196.815 197.115C197.262 198.63 198.381 199.302 200.171 199.131C202.679 198.954 205.455 196.537 208.5 191.88C212.441 185.976 215.927 178.193 218.961 168.531C219.141 167.634 220.395 165.844 222.723 163.162C228.825 156.195 237.154 147.157 247.711 136.05C258.099 124.955 266.338 115.829 272.429 108.673C281.622 97.6781 290.23 86.2083 298.219 74.3109L300.908 70.5529H301.174C300.994 70.9158 300.458 71.8999 299.566 73.5053C293.463 85.8549 288.179 97.1289 283.713 107.327C267.769 144.196 260.069 174.797 260.612 199.131C260.732 204.177 261.27 209.205 262.221 214.163C265.984 231.163 274.492 243.153 287.745 250.132C296.346 254.777 305.935 256.835 316.512 256.307C318.662 256.124 321.26 255.765 324.305 255.231C335.432 253.427 345.998 249.108 355.199 242.603C357.664 240.937 360.012 239.104 362.225 237.116C361.58 239.372 360.938 241.379 360.299 243.138C355.284 257.807 348.387 268.102 339.608 274.021C336.938 275.886 334.05 277.418 331.009 278.585C329.4 279.12 328.594 279.564 328.594 279.926C328.574 280.219 328.669 280.508 328.86 280.731C329.4 281.269 331.192 281 334.234 279.926C341.757 277.603 348.474 272.959 354.384 265.991C362.982 255.787 369.43 241.562 373.728 223.316C375.16 217.22 377.042 206.84 379.372 192.177C381.342 180.19 382.641 172.897 383.269 170.299C383.897 167.701 386.538 163.362 391.193 157.283C397.818 148.519 402.924 144.309 406.509 144.655C407.582 144.655 408.298 145.371 408.658 146.802C409.016 148.95 408.926 151.634 408.388 154.853C407.673 159.33 406.957 162.461 406.239 164.246C406.059 164.609 405.433 164.968 404.361 165.322C400.886 166.671 397.758 168.781 395.207 171.497C393.018 174.075 391.414 177.097 390.504 180.354C389.519 183.756 389.474 186.44 390.369 188.405C391.084 190.017 392.159 191.001 393.595 191.358C397.715 192.435 402.283 189.482 407.298 182.501C410.723 178.161 413.36 173.254 415.087 168.004C415.628 166.219 415.981 165.235 416.164 165.052C416.347 164.869 417.506 164.786 419.651 164.786C422.337 164.674 425.01 164.338 427.64 163.78C427.059 167.583 426.992 170.692 427.44 173.108C427.977 175.616 428.917 177.404 430.26 178.473C431.602 179.541 433.17 179.631 434.963 178.743C435.939 178.134 436.803 177.362 437.517 176.461C438.602 175.034 439.546 173.506 440.337 171.897C441.409 169.842 442.842 166.756 444.634 162.639C450.01 151.01 454.578 142.777 458.338 137.94L459.144 137.139C461.295 134.816 462.368 134.279 462.365 135.528C462.365 135.888 461.47 137.856 459.68 141.433C456.092 148.234 453.674 154.139 452.428 159.147C450.103 168.454 450.908 173.286 454.842 173.643C455.352 173.653 455.858 173.549 456.323 173.34C456.788 173.13 457.201 172.821 457.532 172.433C458.246 171.632 459.679 169.351 461.829 165.592C467.754 155.028 472.956 147.239 477.433 142.225C478.533 140.954 479.748 139.788 481.064 138.741C482.079 137.875 483.208 137.153 484.42 136.595C485.315 136.237 485.943 136.237 486.303 136.595C486.655 137.672 485.401 142.951 482.542 152.432C474.301 179.994 473.139 195.116 479.055 197.798C480.13 198.332 481.384 198.332 482.816 197.798C484.606 197.084 486.845 195.383 489.533 192.695C494.763 187.469 500.181 180.405 505.786 171.501C506.231 176.796 507.886 180.721 510.751 183.276C515.226 187.395 520.241 186.858 525.797 181.665C529.734 177.908 533.948 171.198 538.437 161.533C538.611 161.359 539.152 160.284 540.05 158.311C540.947 156.338 541.614 154.914 542.063 154.017C542.512 153.12 543.179 151.692 544.077 149.724C544.766 148.143 545.575 146.618 546.496 145.16C547.211 144.086 548.017 142.833 548.915 141.402C549.699 140.116 550.598 138.903 551.6 137.779C552.282 136.97 553.1 136.288 554.019 135.763C555.27 134.87 555.902 134.692 555.902 135.227C555.902 135.947 554.379 138.721 551.334 143.549C546.685 151.425 542.745 160.372 539.513 170.391C536.282 180.409 534.848 189.536 535.211 197.772C535.569 206.719 537.629 212.09 541.392 213.884C542.325 214.43 543.407 214.665 544.482 214.555C545.735 214.444 546.961 214.127 548.109 213.614C553.659 210.575 560.913 202.075 569.871 188.114C572.196 184.357 575.42 178.811 579.543 171.475C583.667 164.139 585.817 160.112 585.994 159.395C586.016 159.183 585.976 158.969 585.877 158.779C585.779 158.589 585.627 158.433 585.441 158.328ZM340.685 153.499C332.624 168.174 326.355 176.584 321.877 178.73C319.73 179.984 318.298 179.805 317.58 178.194C316.682 176.226 316.682 173.093 317.58 168.797C318.466 164.664 319.725 160.619 321.341 156.713C322.979 152.557 324.909 148.521 327.117 144.637C329.174 141.058 331.01 138.641 332.626 137.387C333.27 136.873 334.09 136.632 334.91 136.716C335.625 136.776 336.316 137.006 336.924 137.387C339.611 139.71 341.403 143.289 342.298 148.126L342.568 149.737L340.685 153.499ZM208.771 183.276C206.083 189.541 203.485 193.567 200.977 195.355C200.258 195.891 199.905 195.791 199.905 195.085C199.905 192.763 201.426 189.452 204.469 185.153C205.009 184.444 205.815 183.372 206.888 181.935C207.964 180.502 209.481 178.625 211.455 176.295C211.621 176.847 210.726 179.174 208.771 183.276ZM401.135 177.371C399.159 181.665 397.189 184.617 395.225 186.228C394.327 187.125 393.612 187.212 393.076 186.498C392.54 185.784 392.357 184.443 392.536 182.47C392.893 176.925 395.401 172.63 400.059 169.585C403.107 167.617 404.809 166.811 405.167 167.168C405.704 167.54 404.361 170.946 401.135 177.388V177.371ZM539.5 153.499C531.437 168.174 525.168 176.584 520.693 178.73C518.54 179.984 517.106 179.805 516.391 178.194C515.493 176.226 515.493 173.093 516.391 168.797C517.277 164.664 518.536 160.619 520.152 156.713C521.793 152.557 523.724 148.522 525.932 144.637C527.986 141.075 529.821 138.66 531.437 137.391C532.081 136.877 532.901 136.637 533.721 136.721C534.437 136.781 535.129 137.011 535.739 137.391C538.424 139.714 540.214 143.293 541.109 148.13L541.379 149.741L539.5 153.499Z" fill="url(#paint1_linear_1201_3476)"/>
<defs>
<linearGradient id="paint0_linear_1201_3476" x1="13" y1="145" x2="591" y2="243" gradientUnits="userSpaceOnUse">
<stop stop-color="#B94C25"/>
<stop offset="1" stop-color="#A41923"/>
</linearGradient>
<linearGradient id="paint1_linear_1201_3476" x1="8" y1="140" x2="586" y2="238" gradientUnits="userSpaceOnUse">
<stop stop-color="#FF8357"/>
<stop offset="1" stop-color="#D56C74"/>
</linearGradient>
</defs>
</svg>
