<svg width="218" height="219" viewBox="0 0 218 219" fill="none" xmlns="http://www.w3.org/2000/svg">
<path d="M64.2514 113.956V212.591C64.2514 215.695 66.7682 218.212 69.8726 218.212H115.495L148.296 198.424L165.98 218.212H207.216C210.321 218.212 212.837 215.695 212.837 212.591V116.149C212.837 115.861 212.781 115.576 212.671 115.31C212.56 115.044 212.399 114.802 212.195 114.599C211.992 114.395 211.75 114.233 211.484 114.123C211.217 114.013 210.932 113.956 210.644 113.956H165.98L138.544 129.406L115.495 113.956H64.2514Z" fill="#FE7AB6"/>
<path opacity="0.6" d="M211.03 113.956H197.871C198.159 113.956 198.445 114.013 198.711 114.123C198.977 114.233 199.219 114.395 199.422 114.599C199.626 114.802 199.788 115.044 199.898 115.31C200.008 115.576 200.065 115.861 200.065 116.149V212.591C200.065 215.695 197.548 218.212 194.443 218.212H207.602C210.707 218.212 213.223 215.695 213.223 212.591V116.149C213.223 115.861 213.167 115.576 213.057 115.31C212.946 115.044 212.785 114.802 212.581 114.599C212.377 114.395 212.136 114.233 211.87 114.123C211.603 114.013 211.318 113.956 211.03 113.956Z" fill="url(#paint0_linear_1129_3148)"/>
<path d="M115.495 113.956H165.98V218.212H115.495V113.956Z" fill="#FF992B"/>
<path d="M192.626 89.2559L182.543 94.5573C180.499 95.6319 178.109 93.896 178.5 91.6202L180.426 80.392C180.502 79.9467 180.469 79.4896 180.329 79.06C180.19 78.6304 179.948 78.2411 179.624 77.9258L171.466 69.9739C169.813 68.3619 170.725 65.5535 173.011 65.2214L184.285 63.583C184.732 63.518 185.156 63.3453 185.522 63.0797C185.887 62.8142 186.182 62.4638 186.382 62.0587L191.424 51.8429C192.446 49.7719 195.399 49.7719 196.421 51.8429L201.463 62.0587C201.663 62.4637 201.958 62.8141 202.324 63.0797C202.689 63.3452 203.114 63.5179 203.561 63.583L208.371 64.2821L213.518 65.6599C215.803 65.992 216.716 68.8005 215.063 70.4125L207.343 77.4873C207.02 77.8026 206.778 78.1918 206.638 78.6214C206.499 79.0511 206.466 79.5082 206.542 79.9534L208.029 89.8656C208.42 92.1418 206.03 93.8773 203.986 92.8026L199.28 91.3907L195.219 89.2559C194.819 89.0457 194.374 88.9358 193.923 88.9358C193.471 88.9358 193.026 89.0457 192.626 89.2559Z" fill="url(#paint1_linear_1129_3148)"/>
<path opacity="0.5" d="M216.379 69.9735C218.033 68.3615 217.12 65.5531 214.835 65.221L208.371 64.2817C208.579 65.1712 208.366 66.1624 207.606 66.9032L199.448 74.8551C199.125 75.1704 198.883 75.5597 198.743 75.9893C198.604 76.4189 198.571 76.876 198.647 77.3212L200.573 88.5495C200.782 89.7706 200.188 90.8313 199.28 91.3907L205.303 94.5569C207.347 95.6315 209.736 93.8956 209.346 91.6198L207.42 80.3916C207.343 79.9463 207.376 79.4892 207.516 79.0596C207.656 78.63 207.898 78.2407 208.221 77.9254L216.379 69.9735Z" fill="#FFC344"/>
<path d="M7.25809 80.7603L30.9021 71.4208L69.8687 96.9395L41.5539 108.918C35.9306 114.541 26.4301 112.873 23.0592 105.67L20.2423 99.6509C20.2143 99.5911 20.1723 99.5389 20.1199 99.4987C20.0674 99.4586 20.0061 99.4317 19.9411 99.4203C19.876 99.4089 19.8092 99.4133 19.7462 99.4332C19.6832 99.4531 19.626 99.4879 19.5793 99.5347C15.101 104.013 7.84055 104.013 3.36219 99.5347C-2.47399 93.6976 -0.418744 83.7923 7.25809 80.7603Z" fill="url(#paint2_linear_1129_3148)"/>
<path d="M30.9021 71.4203C31.3733 73.0422 32.2475 74.5182 33.4432 75.7109L57.2035 99.4716L71.2781 85.3974L41.8673 67.0893L30.9021 71.4203Z" fill="#FFC344"/>
<path d="M57.8881 77.7836C57.7192 77.9522 57.5326 78.1021 57.3316 78.2307L54.6952 79.9164L50.5 82.7124L44.2972 86.5649L34.296 92.9589C33.5609 93.4283 32.6695 93.5866 31.8177 93.399C30.9659 93.2113 30.2234 92.6931 29.7536 91.9583C29.2837 91.2234 29.1249 90.3321 29.312 89.4802C29.4991 88.6283 30.0168 87.8855 30.7514 87.4152L39.5331 81.8005L45 78.2307L49.9311 75.1523L53.787 72.687C54.4701 72.2495 55.2908 72.0798 56.0914 72.2104C56.892 72.3411 57.6162 72.7629 58.1247 73.3949C58.6333 74.0269 58.8904 74.8245 58.8468 75.6346C58.8031 76.4446 58.4617 77.21 57.8881 77.7836Z" fill="#FF7A00" fill-opacity="0.6"/>
<path d="M80.8581 7.78057L79.9099 9.08559L66.8768 42.0802L87.6344 69.0411L105.604 44.8686C111.227 39.2454 109.559 29.7449 102.356 26.374L96.337 23.557C96.2772 23.5291 96.225 23.4871 96.1848 23.4346C96.1447 23.3822 96.1178 23.3209 96.1063 23.2558C96.0949 23.1908 96.0994 23.1239 96.1193 23.061C96.1392 22.998 96.174 22.9408 96.2207 22.8941C100.699 18.4157 100.699 11.1549 96.2207 6.67695C90.3837 0.839919 83.8901 0.103743 80.8581 7.78057Z" fill="url(#paint3_linear_1129_3148)"/>
<path d="M80.5478 7.47018L79.9095 9.08516C83.6121 8.16207 87.7575 9.05621 90.7984 12.0971C95.2768 16.5755 95.2768 23.8359 90.7984 28.3143C90.7518 28.361 90.7171 28.4182 90.6972 28.4812C90.6774 28.5441 90.673 28.6109 90.6844 28.6759C90.6958 28.741 90.7226 28.8023 90.7627 28.8547C90.8028 28.9071 90.8549 28.9492 90.9147 28.9772L96.9339 31.7946C104.137 35.1655 105.805 44.666 100.182 50.2893L108.705 47.9692V41.7668C114.328 36.1435 112.66 26.6431 105.457 23.2722L99.438 20.4552C99.3781 20.4272 99.3259 20.3853 99.2858 20.3328C99.2456 20.2804 99.2187 20.219 99.2073 20.154C99.1959 20.0889 99.2004 20.0221 99.2203 19.9591C99.2402 19.8962 99.275 19.8389 99.3217 19.7923C103.8 15.3139 103.8 8.05307 99.3217 3.57513C93.4855 -2.2619 83.5802 -0.206227 80.5478 7.47018Z" fill="#FFC344"/>
<path d="M78.3405 56.8969C77.7666 57.4694 77.0015 57.8099 76.192 57.853C75.3825 57.8962 74.5855 57.639 73.954 57.1308C73.3224 56.6226 72.9007 55.8991 72.7696 55.0992C72.6386 54.2992 72.8075 53.479 73.2439 52.7958L87.2031 30.9639C87.4358 30.5999 87.738 30.2853 88.0923 30.0381C88.4466 29.7908 88.8461 29.6158 89.268 29.523C89.69 29.4301 90.1261 29.4213 90.5514 29.497C90.9768 29.5727 91.3831 29.7314 91.7471 29.9642C92.1111 30.1969 92.4257 30.499 92.6729 30.8533C92.9201 31.2076 93.0952 31.6071 93.188 32.0291C93.2808 32.451 93.2897 32.8871 93.214 33.3125C93.1383 33.7378 92.9795 34.1441 92.7468 34.5081L78.7876 56.34C78.656 56.5457 78.5057 56.7317 78.3405 56.8969Z" fill="#FF7A00" fill-opacity="0.6"/>
<path d="M44.2972 86.5645L54.6952 79.9164L49.9311 75.1523L39.5331 81.8009L44.2972 86.5645Z" fill="#FF7A00" fill-opacity="0.6"/>
<path d="M49.6688 45.2804L41.9665 52.9827C38.0437 56.9055 38.0437 63.2653 41.9665 67.1881L62.6254 87.847L87.6344 69.0411L63.8742 45.2808C59.9515 41.3576 53.5916 41.3576 49.6688 45.2804Z" fill="url(#paint4_linear_1129_3148)"/>
<path d="M52.7707 42.179L44.2474 50.7023C48.1701 46.7795 54.53 46.7795 58.4527 50.7023L82.213 74.4625L87.6344 62.8379L66.9756 42.179C63.0528 38.2563 56.693 38.2563 52.7707 42.179Z" fill="#FFC344"/>
<path d="M160.417 43.0855L119.494 84.0077L96.8015 95.4148L83.7956 119.706L39.7716 163.73C37.5762 165.926 34.0171 165.926 31.8222 163.73L13.2735 145.182C11.0782 142.986 11.0782 139.427 13.2735 137.232L57.2976 93.2084L81.8162 80.4294L92.9963 57.5096L133.919 16.5874C136.114 14.3921 139.673 14.3921 141.868 16.5874L160.417 35.1361C162.612 37.331 162.612 40.8901 160.417 43.0855Z" fill="#E0DFDF"/>
<path d="M160.417 43.0855L119.494 84.0077L96.8015 95.4148L83.7956 119.706L39.7716 163.73C37.5762 165.926 34.0171 165.926 31.8222 163.73L13.2735 145.182C11.0782 142.986 11.0782 139.427 13.2735 137.232L57.2976 93.2084L81.8162 80.4294L92.9963 57.5096L133.919 16.5874C136.114 14.3921 139.673 14.3921 141.868 16.5874L160.417 35.1361C162.612 37.331 162.612 40.8901 160.417 43.0855Z" fill="url(#paint5_linear_1129_3148)"/>
<path opacity="0.3" d="M133.523 16.8589L125 25.3818C127.195 23.1864 130.754 23.1864 132.949 25.3818L151.498 43.9305C153.693 46.1258 153.693 49.6849 151.498 51.8798L160.021 43.3565C162.216 41.1612 162.216 37.6021 160.021 35.4072L141.472 16.8589C139.277 14.6636 135.718 14.6636 133.523 16.8589Z" fill="#E41E7F"/>
<path d="M57.2665 93.1909L92.9597 57.4977L119.471 84.0086L83.7773 119.702L57.2665 93.1909Z" fill="#FF992B"/>
<defs>
<linearGradient id="paint0_linear_1129_3148" x1="207.961" y1="155.597" x2="190.451" y2="155.077" gradientUnits="userSpaceOnUse">
<stop stop-color="#E24E74"/>
<stop offset="0.489583" stop-color="#FF5473" stop-opacity="0.78"/>
<stop offset="1" stop-color="#FF7134" stop-opacity="0.38"/>
</linearGradient>
<linearGradient id="paint1_linear_1129_3148" x1="193.264" y1="50.2897" x2="193.264" y2="94.8835" gradientUnits="userSpaceOnUse">
<stop stop-color="#FAC600"/>
<stop offset="1" stop-color="#FF9900"/>
</linearGradient>
<linearGradient id="paint2_linear_1129_3148" x1="34.9344" y1="71.4208" x2="34.9344" y2="112.279" gradientUnits="userSpaceOnUse">
<stop stop-color="#FAC600"/>
<stop offset="1" stop-color="#FF9900"/>
</linearGradient>
<linearGradient id="paint3_linear_1129_3148" x1="87.921" y1="2.16013" x2="87.921" y2="69.0411" gradientUnits="userSpaceOnUse">
<stop stop-color="#FAC600"/>
<stop offset="1" stop-color="#FF9900"/>
</linearGradient>
<linearGradient id="paint4_linear_1129_3148" x1="63.3294" y1="42.3384" x2="63.3294" y2="87.847" gradientUnits="userSpaceOnUse">
<stop stop-color="#FAC600"/>
<stop offset="1" stop-color="#FF9900"/>
</linearGradient>
<linearGradient id="paint5_linear_1129_3148" x1="117.173" y1="107.271" x2="11.136" y2="103.24" gradientUnits="userSpaceOnUse">
<stop stop-color="#D7A4FF"/>
<stop offset="1" stop-color="#F372BF"/>
</linearGradient>
</defs>
</svg>
