<svg width="228" height="222" viewBox="0 0 228 222" fill="none" xmlns="http://www.w3.org/2000/svg">
<path d="M140.654 65.2546C140.419 65.3395 140.172 65.3753 139.921 65.3615C139.67 65.3477 139.429 65.2852 139.204 65.1751C138.273 64.716 137.355 64.2292 136.453 63.7153L133.943 109.49L134.716 108.882C135.53 108.242 136.55 107.921 137.584 107.978C138.618 108.034 139.596 108.465 140.336 109.191L141.038 109.879L143.548 64.1044C142.595 64.5163 141.63 64.8999 140.654 65.2546Z" fill="url(#paint0_linear_1123_2596)"/>
<path d="M114.97 0.445122C114.436 0.41592 113.908 0.562193 113.465 0.861587C113.023 1.16098 112.691 1.59703 112.519 2.10311C111.012 6.57459 110.118 11.2301 109.864 15.9421C108.682 37.484 120.768 56.6735 138.996 65.6002C139.277 65.7375 139.583 65.8171 139.895 65.8342C140.207 65.8513 140.52 65.8057 140.814 65.6999C159.909 58.8199 174.02 41.0665 175.202 19.5251C175.463 14.7676 175.076 10.125 174.12 5.68276C173.993 5.10203 173.679 4.57899 173.226 4.194C172.773 3.80901 172.206 3.58338 171.613 3.55177L114.97 0.445122Z" fill="url(#paint1_linear_1123_2596)"/>
<path d="M125.292 16.7881C125.557 11.9578 126.472 7.31875 127.948 2.94956C128.119 2.4434 128.452 2.00725 128.894 1.70784C129.337 1.40842 129.865 1.26221 130.399 1.29158L114.97 0.445519C114.437 0.416317 113.908 0.562589 113.466 0.861983C113.023 1.16138 112.691 1.59743 112.52 2.1035C111.012 6.57483 110.119 11.2302 109.864 15.942C108.683 37.4839 120.768 56.6734 138.996 65.6001C139.277 65.7375 139.583 65.817 139.895 65.834C140.207 65.8511 140.52 65.8053 140.814 65.6994C143.22 64.8285 145.559 63.7818 147.812 62.5676C133.352 52.6126 124.261 35.6007 125.292 16.7881ZM157.975 125.828L140.668 108.852C139.846 108.046 138.759 107.567 137.61 107.504C136.461 107.441 135.328 107.798 134.423 108.51L115.363 123.491L157.975 125.828Z" fill="#CBE5E8"/>
<path d="M175.281 137.243C175.032 137.253 174.785 137.214 174.55 137.125C174.314 137.036 174.103 136.904 173.922 136.732C173.172 136.014 172.443 135.274 171.737 134.512L155.58 177.414L156.5 177.067C157.469 176.701 158.538 176.701 159.507 177.066C160.476 177.431 161.279 178.137 161.767 179.051L162.229 179.918L178.387 137.017C177.354 137.123 176.318 137.198 175.281 137.243Z" fill="url(#paint2_linear_1123_2596)"/>
<path d="M168.565 67.0673C165.34 71.1624 162.678 75.8154 160.743 80.9548C153.139 101.145 158.895 123.08 173.596 137.074C173.822 137.29 174.09 137.458 174.383 137.568C174.676 137.678 174.988 137.729 175.3 137.716C195.58 136.896 214.376 124.208 221.98 104.018C223.685 99.4908 224.718 94.8765 225.129 90.2828C225.177 89.7506 225.048 89.2175 224.764 88.7651C224.48 88.3126 224.055 87.9658 223.555 87.7775L168.565 67.0673Z" fill="url(#paint3_linear_1123_2596)"/>
<path d="M174.545 86.1531C176.481 81.0137 179.142 76.3607 182.368 72.2657L168.565 67.0673C165.34 71.1624 162.678 75.8154 160.743 80.9548C153.139 101.145 158.895 123.08 173.596 137.074C173.822 137.29 174.09 137.458 174.383 137.568C174.676 137.678 174.988 137.729 175.3 137.716C177.719 137.617 180.128 137.348 182.51 136.913C171.514 123.043 167.853 103.923 174.545 86.1531ZM173.587 200.222L162.185 178.827C161.644 177.812 160.751 177.028 159.674 176.622C158.597 176.217 157.409 176.217 156.332 176.623L133.65 185.18L173.587 200.222Z" fill="url(#paint4_linear_1123_2596)"/>
<path d="M98.1097 99.9022L18.8043 80.8476C17.2747 80.4801 15.7561 81.4877 15.4898 83.0383C13.266 95.9861 17.0521 108.744 24.9634 118.261L75.6262 130.434C86.9975 125.55 96.1664 115.904 100.068 103.36C100.535 101.857 99.6399 100.27 98.1097 99.9022Z" fill="url(#paint5_linear_1123_2596)"/>
<path d="M24.4685 117.654L44.386 122.44C36.8124 112.991 33.2302 100.498 35.4073 87.8233C35.6737 86.2727 37.1922 85.2651 38.7219 85.6327L18.8044 80.8472C17.2748 80.4796 15.7562 81.4872 15.4899 83.0378C13.3127 95.7127 16.8949 108.206 24.4685 117.654Z" fill="#C41926"/>
<path d="M34.9503 159.105L77.6327 155.053C89.3419 146.873 96.7134 133.157 96.277 118.078C96.2315 116.506 94.8698 115.295 93.3036 115.443L12.1063 123.151C10.5401 123.3 9.43067 124.746 9.68184 126.299C12.0899 141.19 21.9112 153.274 34.9503 159.105Z" fill="url(#paint6_linear_1123_2596)"/>
<path d="M34.093 158.71L54.4856 156.774C41.8748 150.804 32.4295 138.926 30.0744 124.363C29.8233 122.81 30.9327 121.364 32.4989 121.215L12.1063 123.151C10.5401 123.3 9.43067 124.746 9.68184 126.299C12.0369 140.862 21.4823 152.74 34.093 158.71Z" fill="#C24040"/>
<path d="M122.269 162.768C125.144 158.154 126.613 152.638 126.147 146.906C126.072 145.977 125.21 145.314 124.288 145.45L1.6132 163.547C0.691387 163.683 0.0570401 164.567 0.253205 165.478C1.46273 171.1 4.46192 175.957 8.5469 179.544L122.269 162.768Z" fill="url(#paint7_linear_1123_2596)"/>
<path d="M33.8933 175.805C29.8083 172.218 26.8091 167.361 25.5996 161.739C25.4035 160.828 26.0378 159.944 26.9596 159.808L1.6132 163.547C0.691387 163.683 0.0570401 164.567 0.253205 165.478C1.46273 171.1 4.46192 175.957 8.5469 179.544L33.8933 175.805Z" fill="#FFA101"/>
<path d="M124.657 178.955C127.532 174.342 129.001 168.826 128.535 163.094C128.46 162.165 127.598 161.503 126.676 161.639L4.00131 179.736C3.07949 179.872 2.44515 180.755 2.64131 181.666C3.85084 187.288 6.84996 192.145 10.9345 195.732L124.657 178.955Z" fill="url(#paint8_linear_1123_2596)"/>
<path d="M31.0762 192.76C26.9912 189.174 23.9925 184.317 22.783 178.695C22.5868 177.784 23.2212 176.9 24.143 176.764L4.00131 179.736C3.07949 179.872 2.44515 180.755 2.64131 181.666C3.85084 187.288 6.84996 192.145 10.9345 195.732L31.0762 192.76Z" fill="#FED402"/>
<path d="M6.38934 195.923C5.46753 196.059 4.83318 196.943 5.02934 197.854C7.88816 211.141 20.7169 220.185 34.3454 218.174L108.723 207.202C122.352 205.191 132.023 192.828 130.923 179.282C130.848 178.353 129.985 177.69 129.063 177.826L6.38934 195.923Z" fill="url(#paint9_linear_1123_2596)"/>
<path d="M25.171 194.883C24.9749 193.972 25.6092 193.088 26.531 192.952L6.38934 195.923C5.46753 196.059 4.83318 196.943 5.02934 197.854C7.88816 211.141 20.7169 220.185 34.3454 218.174L54.4871 215.203C40.8586 217.213 28.0298 208.169 25.171 194.883Z" fill="#FFA101"/>
<defs>
<linearGradient id="paint0_linear_1123_2596" x1="140.001" y1="63.9099" x2="137.49" y2="109.685" gradientUnits="userSpaceOnUse">
<stop stop-color="#DEECF1"/>
<stop offset="1" stop-color="#74DAFF" stop-opacity="0.52"/>
</linearGradient>
<linearGradient id="paint1_linear_1123_2596" x1="119.5" y1="34.2124" x2="176" y2="34.2124" gradientUnits="userSpaceOnUse">
<stop offset="0.140039" stop-color="#DEECF1"/>
<stop offset="1" stop-color="#74DAFF" stop-opacity="0.52"/>
</linearGradient>
<linearGradient id="paint2_linear_1123_2596" x1="164.358" y1="157.38" x2="170.125" y2="159.498" gradientUnits="userSpaceOnUse">
<stop offset="0.140039" stop-color="#DEECF1"/>
<stop offset="1" stop-color="#74DAFF" stop-opacity="0.52"/>
</linearGradient>
<linearGradient id="paint3_linear_1123_2596" x1="164.44" y1="101.277" x2="218.325" y2="118.266" gradientUnits="userSpaceOnUse">
<stop offset="0.140039" stop-color="#DEECF1"/>
<stop offset="1" stop-color="#74DAFF" stop-opacity="0.52"/>
</linearGradient>
<linearGradient id="paint4_linear_1123_2596" x1="191.589" y1="75.7384" x2="148.294" y2="190.696" gradientUnits="userSpaceOnUse">
<stop stop-color="#DEECF1"/>
<stop offset="1" stop-color="#74DAFF" stop-opacity="0.52"/>
</linearGradient>
<linearGradient id="paint5_linear_1123_2596" x1="73.7894" y1="108.411" x2="12.8901" y2="64.4511" gradientUnits="userSpaceOnUse">
<stop stop-color="#E24E74"/>
<stop offset="0.489583" stop-color="#FF5473" stop-opacity="0.78"/>
<stop offset="1" stop-color="#FF7134" stop-opacity="0.38"/>
</linearGradient>
<linearGradient id="paint6_linear_1123_2596" x1="12.3706" y1="142.119" x2="98.8038" y2="149.886" gradientUnits="userSpaceOnUse">
<stop stop-color="#FF8357"/>
<stop offset="1" stop-color="#D56C74"/>
</linearGradient>
<linearGradient id="paint7_linear_1123_2596" x1="62.9505" y1="154.499" x2="65.4077" y2="171.156" gradientUnits="userSpaceOnUse">
<stop stop-color="#FAC600"/>
<stop offset="1" stop-color="#FF9900"/>
</linearGradient>
<linearGradient id="paint8_linear_1123_2596" x1="65.3386" y1="170.687" x2="67.7958" y2="187.344" gradientUnits="userSpaceOnUse">
<stop stop-color="#FEDF30"/>
<stop offset="1" stop-color="#FFF1A0" stop-opacity="0.74"/>
</linearGradient>
<linearGradient id="paint9_linear_1123_2596" x1="67.7264" y1="186.875" x2="71.5344" y2="212.688" gradientUnits="userSpaceOnUse">
<stop stop-color="#FAC600"/>
<stop offset="1" stop-color="#FF9900"/>
</linearGradient>
</defs>
</svg>
