<svg width="51" height="51" viewBox="0 0 51 51" fill="none" xmlns="http://www.w3.org/2000/svg">
<path d="M34.6482 38.228C35.6245 39.2043 37.2074 39.2043 38.1838 38.228C39.1601 37.2517 39.1601 35.6688 38.1838 34.6924L28.9914 25.5001L38.1838 16.3077C39.1601 15.3313 39.1601 13.7484 38.1838 12.7721C37.2075 11.7958 35.6246 11.7958 34.6482 12.7721L25.4558 21.9645L16.2635 12.7721C15.2871 11.7958 13.7043 11.7958 12.7279 12.7721C11.7516 13.7485 11.7516 15.3314 12.7279 16.3077L21.9203 25.5001L12.7279 34.6924C11.7516 35.6688 11.7516 37.2517 12.7279 38.228C13.7042 39.2043 15.2871 39.2043 16.2635 38.228L25.4558 29.0356L34.6482 38.228Z" fill="url(#paint0_linear_1129_3784)"/>
<defs>
<linearGradient id="paint0_linear_1129_3784" x1="13.0301" y1="37.8352" x2="40.7769" y2="14.2609" gradientUnits="userSpaceOnUse">
<stop stop-color="#FF8357"/>
<stop offset="1" stop-color="#D56C74"/>
</linearGradient>
</defs>
</svg>
