<svg width="199" height="211" viewBox="0 0 199 211" fill="none" xmlns="http://www.w3.org/2000/svg">
<path d="M43.2048 115.013C42.6434 112.023 42.7947 108.943 43.6464 106.022C46.6368 95.713 57.4186 89.7793 67.7284 92.7693C69.3661 93.244 70.9343 93.9322 72.3925 94.816C72.4824 94.3526 72.5927 93.8933 72.723 93.4395C75.1764 84.9804 84.023 80.1119 92.4826 82.5653C97.6479 84.0634 101.47 87.9466 103.109 92.6682C107.929 88.4419 114.734 86.6833 121.348 88.6013C127.258 90.3155 131.726 94.5921 133.903 99.8706C137.147 94.5588 143.65 91.8456 149.915 93.663C151.099 94.0061 152.234 94.5026 153.289 95.1399C153.281 93.4714 153.512 91.8105 153.977 90.2081C156.65 80.9918 166.289 75.6879 175.505 78.3607C184.721 81.0334 190.026 90.6714 187.353 99.8877C187.353 99.8877 170.415 126.337 107.977 126.337C52.6163 126.337 43.2048 115.013 43.2048 115.013Z" fill="url(#paint0_linear_1129_3089)"/>
<path d="M19.9662 111.861C19.1396 111.861 18.3467 111.533 17.7614 110.949C17.1762 110.365 16.8464 109.573 16.8443 108.747L16.6291 24.6844C16.6291 11.1869 27.6044 0.212402 41.0944 0.212402C54.5843 0.212402 65.5593 11.1869 65.5593 24.6765C65.5593 25.5044 65.2304 26.2985 64.6449 26.884C64.0594 27.4695 63.2653 27.7984 62.4374 27.7984C61.6094 27.7984 60.8153 27.4695 60.2298 26.884C59.6444 26.2985 59.3155 25.5044 59.3155 24.6765C59.3155 14.6298 51.1415 6.45621 41.0944 6.45621C31.0473 6.45621 22.8729 14.6298 22.8729 24.6765L23.0881 108.731C23.0891 109.141 23.0094 109.547 22.8535 109.926C22.6975 110.305 22.4684 110.65 22.1793 110.941C21.8901 111.231 21.5465 111.462 21.1682 111.62C20.7898 111.778 20.384 111.86 19.9741 111.861H19.9662Z" fill="#C24040"/>
<path d="M191.864 113.687L180.83 168.066C177.493 184.511 163.906 196.33 147.126 196.33H51.3476C34.5671 196.33 20.9802 184.511 17.6435 168.066L6.60944 113.687C6.60944 113.687 36.3824 134.246 96.3229 134.246C156.263 134.246 191.864 113.687 191.864 113.687Z" fill="url(#paint1_linear_1129_3089)"/>
<path d="M171.366 122.393L162.098 168.066C158.762 184.511 145.174 196.33 128.394 196.33H147.126C163.906 196.33 177.493 184.511 180.83 168.066L191.864 113.687C191.864 113.687 184.689 117.829 171.366 122.393Z" fill="url(#paint2_linear_1129_3089)"/>
<path d="M99.2367 136.087C63.0289 136.087 28.8752 127.191 3.06792 111.039C0.0092897 109.124 -0.918123 105.093 0.996228 102.035C2.23625 100.054 4.36414 98.9669 6.54031 98.9669C7.72455 98.9669 8.92295 99.2887 10.0006 99.963C34.6033 115.362 66.92 123.061 99.2367 123.061C131.553 123.061 163.87 115.362 188.473 99.963C189.509 99.312 190.709 98.9667 191.933 98.9669C194.11 98.9669 196.237 100.054 197.477 102.035C199.391 105.093 198.464 109.124 195.405 111.039C169.598 127.191 135.445 136.087 99.2367 136.087ZM87.6049 35.3709L45.0513 44.3274C45.0073 44.3367 44.9618 44.3373 44.9176 44.329C44.8734 44.3207 44.8313 44.3038 44.7936 44.2792C44.7559 44.2546 44.7235 44.2228 44.6981 44.1857C44.6728 44.1485 44.655 44.1067 44.6458 44.0627C42.9242 35.8841 48.159 27.8587 56.3376 26.1371L69.9445 23.2733C78.123 21.5521 86.148 26.7865 87.8696 34.9646C87.8789 35.0086 87.8794 35.0545 87.8711 35.0987C87.8628 35.1429 87.8459 35.1851 87.8213 35.2228C87.7967 35.2605 87.765 35.2929 87.7278 35.3184C87.6907 35.3438 87.6489 35.3616 87.6049 35.3709ZM9.58521 91.531C9.17516 91.5315 8.76904 91.451 8.39022 91.2941C8.01139 91.1371 7.66733 90.9069 7.37781 90.6165C6.79242 90.031 6.46355 89.237 6.46355 88.4091C6.46355 87.5812 6.79242 86.7871 7.37781 86.2017L27.7047 65.8756C27.9946 65.5856 28.3387 65.3556 28.7174 65.1987C29.0962 65.0418 29.5022 64.961 29.9121 64.961C30.3221 64.961 30.7281 65.0418 31.1068 65.1987C31.4856 65.3556 31.8297 65.5856 32.1195 65.8756C32.7049 66.4611 33.0338 67.2551 33.0338 68.083C33.0338 68.9109 32.7049 69.7049 32.1195 70.2904L11.7926 90.6165C11.503 90.9068 11.159 91.137 10.7801 91.294C10.4013 91.4509 9.99524 91.5314 9.58521 91.531Z" fill="#FFA101"/>
<path d="M29.9117 91.531C29.5017 91.5316 29.0955 91.451 28.7167 91.2941C28.3379 91.1372 27.9938 90.9069 27.7043 90.6165L7.37781 70.2904C6.15861 69.0712 6.15861 67.0948 7.37781 65.8756C8.59702 64.6564 10.5738 64.656 11.7926 65.8756L32.1195 86.2017C32.5561 86.6383 32.8534 87.1946 32.9738 87.8002C33.0943 88.4058 33.0324 89.0335 32.7961 89.604C32.5598 90.1744 32.1596 90.6619 31.6462 91.005C31.1328 91.348 30.5292 91.531 29.9117 91.531Z" fill="#FFA101"/>
<path d="M24.9724 83.4773C27.8639 80.5858 27.864 75.8976 24.9724 73.0061C22.0808 70.1145 17.3927 70.1145 14.5011 73.0061C11.6095 75.8976 11.6095 80.5858 14.5011 83.4773C17.3927 86.3689 22.0808 86.3689 24.9724 83.4773Z" fill="#EED05E"/>
<path d="M55.9284 192.658L65.168 183.419C67.2093 181.378 70.5185 181.378 72.5594 183.419C74.6007 185.46 74.6007 188.769 72.5594 190.81L60.1151 203.254C55.6594 207.71 49.6165 210.212 43.3155 210.212H25.5123C22.6256 210.212 20.2858 207.873 20.2858 204.986C20.2858 202.1 22.626 199.759 25.5123 199.759H40.3422C43.0918 199.759 45.8135 199.208 48.346 198.137C50.8785 197.066 53.1704 195.498 55.0859 193.525L55.9284 192.658ZM142.545 192.658L133.305 183.419C131.264 181.378 127.955 181.378 125.914 183.419C123.873 185.46 123.873 188.769 125.914 190.81L138.358 203.254C142.814 207.71 148.857 210.212 155.158 210.212H172.961C175.848 210.212 178.188 207.873 178.188 204.986C178.188 202.1 175.847 199.759 172.961 199.759H158.131C155.382 199.759 152.66 199.208 150.127 198.137C147.595 197.066 145.303 195.498 143.387 193.525L142.545 192.658Z" fill="#FFA101"/>
<path d="M140.38 79.2552C144.853 79.2552 148.479 75.6293 148.479 71.1566C148.479 66.6838 144.853 63.058 140.38 63.058C135.908 63.058 132.282 66.6838 132.282 71.1566C132.282 75.6293 135.908 79.2552 140.38 79.2552Z" fill="url(#paint3_linear_1129_3089)"/>
<path d="M166.92 58.4484C170.222 58.4484 172.9 55.7709 172.9 52.4681C172.9 49.1652 170.222 46.4877 166.92 46.4877C163.617 46.4877 160.939 49.1652 160.939 52.4681C160.939 55.7709 163.617 58.4484 166.92 58.4484Z" fill="url(#paint4_linear_1129_3089)"/>
<path d="M54.2983 113.349C53.8139 113.35 53.336 113.237 52.9025 113.021C52.469 112.804 52.0918 112.49 51.8008 112.103C51.5098 111.715 51.3129 111.266 51.2258 110.789C51.1387 110.313 51.1637 109.822 51.2988 109.357C52.2283 106.152 54.35 103.502 57.2733 101.892C60.1971 100.284 63.5725 99.9097 66.776 100.839C67.8276 101.144 68.8347 101.586 69.7713 102.153C70.4797 102.582 70.9887 103.274 71.1865 104.078C71.3842 104.882 71.2544 105.732 70.8257 106.44C70.397 107.149 69.7044 107.658 68.9004 107.855C68.0963 108.053 67.2466 107.923 66.5383 107.495C66.0688 107.21 65.564 106.989 65.0369 106.836C61.7276 105.876 58.2548 107.787 57.295 111.096C57.1068 111.745 56.7129 112.316 56.1725 112.723C55.6321 113.129 54.9744 113.349 54.2983 113.349ZM121.64 107.055C120.942 107.054 120.265 106.82 119.716 106.389C119.167 105.958 118.778 105.356 118.611 104.678C118.521 104.313 118.349 103.973 118.107 103.685C117.866 103.397 117.561 103.169 117.217 103.017C116.872 102.866 116.498 102.796 116.122 102.812C115.747 102.829 115.38 102.932 115.05 103.113C114.326 103.5 113.478 103.587 112.69 103.353C111.902 103.12 111.238 102.585 110.842 101.865C110.446 101.145 110.349 100.298 110.573 99.5078C110.798 98.7173 111.324 98.0471 112.039 97.6424C116.239 95.3313 121.535 96.8677 123.846 101.067C124.214 101.735 124.492 102.447 124.674 103.187C124.787 103.647 124.794 104.126 124.694 104.59C124.594 105.053 124.391 105.487 124.099 105.86C123.806 106.232 123.433 106.534 123.007 106.741C122.581 106.948 122.114 107.055 121.64 107.055Z" fill="#F5F5FC"/>
<defs>
<linearGradient id="paint0_linear_1129_3089" x1="115.459" y1="77.6685" x2="115.459" y2="126.337" gradientUnits="userSpaceOnUse">
<stop stop-color="#DEECF1"/>
<stop offset="1" stop-color="#74DAFF"/>
</linearGradient>
<linearGradient id="paint1_linear_1129_3089" x1="99.2367" y1="113.687" x2="99.2367" y2="196.33" gradientUnits="userSpaceOnUse">
<stop stop-color="#FEDF30"/>
<stop offset="1" stop-color="#FFF1A0" stop-opacity="0.74"/>
</linearGradient>
<linearGradient id="paint2_linear_1129_3089" x1="160.129" y1="113.687" x2="160.129" y2="196.33" gradientUnits="userSpaceOnUse">
<stop stop-color="#FEDF30"/>
<stop offset="1" stop-color="#FFF1A0" stop-opacity="0.74"/>
</linearGradient>
<linearGradient id="paint3_linear_1129_3089" x1="140.38" y1="63.058" x2="140.38" y2="79.2552" gradientUnits="userSpaceOnUse">
<stop stop-color="#DEECF1"/>
<stop offset="1" stop-color="#74DAFF"/>
</linearGradient>
<linearGradient id="paint4_linear_1129_3089" x1="166.92" y1="46.4877" x2="166.92" y2="58.4484" gradientUnits="userSpaceOnUse">
<stop stop-color="#DEECF1"/>
<stop offset="1" stop-color="#74DAFF"/>
</linearGradient>
</defs>
</svg>
