<svg width="230" height="239" viewBox="0 0 230 239" fill="none" xmlns="http://www.w3.org/2000/svg">
<path d="M161.001 116.881V116.886L149.584 141.611L143.133 142.028L134.609 140.206L148.12 110.954C151.995 113.737 156.367 115.749 161.001 116.881Z" fill="#FFA101"/>
<path d="M135.392 178.139V178.144L123.974 202.869L117.524 203.286L109 201.463L122.511 172.212C126.386 174.994 130.758 177.006 135.392 178.139Z" fill="#FFA101"/>
<path d="M217.179 60.5841L219.665 55.1836L208.561 50.0748L213.151 40.1331L216.39 41.6233L218.876 36.2228L215.643 34.736L217.174 31.4212L213.281 25.445L210.243 32.2509L198.081 26.6565L202.597 16.8776L197.199 14.3852L192.68 24.1705L180.521 18.5752L183.107 12.7686H176.652L175.118 16.092L171.895 14.6091L169.41 20.0096L172.626 21.4891L168.036 31.43L156.938 26.3236L154.453 31.7246L165.544 36.8271L160.953 46.7679L147.412 40.5377L144.926 45.9387L158.461 52.1655L153.87 62.1072L142.188 56.7324L139.703 62.1334L151.382 67.5058L146.792 77.4476L141.708 75.1084L139.224 80.5094L144.299 82.8447L141.59 88.7123L146.988 91.2042L149.701 85.3298L161.865 90.9251L156.171 103.257L161.568 105.749L167.266 93.4097L179.427 99.005L176.713 104.884L182.111 107.376L184.828 101.49L189.925 103.835L192.41 98.4341L187.321 96.0925L191.912 86.1507L203.736 91.5919L206.221 86.1914L194.402 80.7531L198.985 70.8113L212.526 77.0415L215.011 71.641L201.477 65.4142L206.068 55.472L217.179 60.5841ZM207.75 37.648L203.16 47.5917L190.996 41.9964L195.587 32.0546L207.75 37.648ZM178.027 23.9728L190.191 29.5681L185.6 39.5099L173.437 33.9146L178.027 23.9728ZM170.944 39.3121L183.108 44.9075L178.518 54.8492L166.354 49.2539L170.944 39.3121ZM163.861 54.651L176.025 60.2463L171.434 70.1881L159.271 64.5933L163.861 54.651ZM152.188 79.9322L156.779 69.9904L168.939 75.5857L164.349 85.5275L152.188 79.9322ZM181.911 93.6079L169.748 88.0126L174.338 78.0703L186.502 83.6656L181.911 93.6079ZM188.995 78.2675L176.831 72.6722L181.421 62.7304L193.585 68.3258L188.995 78.2675ZM196.077 62.9291L183.913 57.3338L188.504 47.392L200.668 52.9874L196.077 62.9291Z" fill="#EBEBF5"/>
<path d="M218.049 56.9641C218.938 50.786 218.679 44.497 217.284 38.4132C216.586 35.4522 215.552 32.5808 214.201 29.855C211.047 23.5454 206.235 18.5296 199.944 15.6317C199.939 15.6317 199.939 15.6268 199.935 15.6268C193.639 12.7337 186.69 12.3412 179.838 14.0518C176.889 14.797 174.036 15.8766 171.333 17.2697H171.328C165.791 20.1603 160.833 24.0454 156.702 28.7307C152.973 32.9172 149.84 37.5992 147.393 42.6438C147.19 43.0509 146.996 43.4677 146.802 43.8844C144.649 48.5277 143.083 53.4212 142.14 58.4518C140.996 64.3891 140.881 70.4789 141.801 76.4551C142.438 80.5823 143.697 84.5888 145.537 88.3377C148.692 94.6474 153.504 99.6631 159.794 102.561C159.799 102.561 159.799 102.566 159.804 102.566C166.089 105.459 173.034 105.856 179.891 104.155V104.151C183.947 103.117 187.821 101.472 191.381 99.2706H191.386C196.541 96.0788 201.111 92.027 204.897 87.291C208.106 83.3155 210.809 78.956 212.941 74.3131C213.135 73.8964 213.32 73.4796 213.499 73.0628C215.752 67.9326 217.283 62.5148 218.049 56.9641ZM205.469 3.66664C229.268 14.614 237.099 48.3089 222.963 78.9266C210.126 106.724 183.589 122.425 161.001 116.886V116.881C156.367 115.749 151.995 113.737 148.12 110.955C129.22 97.4145 123.943 67.073 136.78 39.2758C150.916 8.65812 181.67 -7.28071 205.469 3.66664Z" fill="url(#paint0_linear_1201_3477)"/>
<path d="M131.294 139.498L122.174 182.018L121.966 181.974C120.236 181.606 110.897 180.486 108.605 174.463C106.313 168.439 106.909 166.467 107.747 159.924C108.586 153.382 109.764 139.134 126.002 138.946C127.711 138.924 129.416 139.094 131.086 139.454L131.294 139.498Z" fill="url(#paint1_linear_1201_3477)"/>
<path d="M143.133 142.028L139.664 158.219L137.352 168.987L134.013 184.552L122.174 182.018L131.294 139.498L134.609 140.206L143.133 142.028Z" fill="url(#paint2_linear_1201_3477)"/>
<path d="M206.685 206.36C206.869 206.618 206.986 206.918 207.029 207.232C207.071 207.546 207.037 207.866 206.929 208.164C206.821 208.463 206.642 208.73 206.408 208.944C206.174 209.158 205.892 209.312 205.585 209.393L192.951 212.795C190.042 213.58 186.941 213.218 184.291 211.783L178.277 208.526L166.472 202.134L140.235 187.925V187.92L134.013 184.552L137.352 168.987L192.346 188.923C194.127 189.577 195.67 190.755 196.77 192.301L206.685 206.36Z" fill="url(#paint3_linear_1201_3477)"/>
<path d="M216.794 177.559C217.038 177.778 217.224 178.055 217.334 178.364C217.444 178.673 217.475 179.004 217.425 179.328C217.374 179.652 217.243 179.958 217.044 180.219C216.845 180.48 216.585 180.687 216.285 180.821L194.478 190.033C193.819 189.572 193.102 189.199 192.346 188.923L137.352 168.987L139.664 158.219L197.846 162.493C198.921 162.57 200.002 162.46 201.039 162.168L216.794 177.559Z" fill="url(#paint4_linear_1201_3477)"/>
<path d="M218.597 148.279C218.854 148.47 219.06 148.72 219.199 149.008C219.338 149.296 219.404 149.614 219.393 149.933C219.381 150.253 219.292 150.565 219.133 150.842C218.974 151.12 218.75 151.354 218.481 151.526L203.526 161.058C202.756 161.549 201.919 161.923 201.039 162.168C200.002 162.46 198.921 162.57 197.846 162.493L139.664 158.219L143.133 142.028L149.584 141.611L200.351 138.335C203.167 138.122 205.966 138.929 208.236 140.608L218.597 148.279Z" fill="url(#paint5_linear_1201_3477)"/>
<path d="M87.6763 223.995L82.9787 226.102C81.7328 226.661 80.3159 226.702 79.0397 226.217C77.7635 225.731 76.7326 224.758 76.1736 223.512L72.5257 215.381L86.6185 209.058L90.2665 217.19C90.8254 218.436 90.8665 219.853 90.3808 221.129C89.895 222.405 88.9222 223.436 87.6763 223.995Z" fill="#C24040"/>
<path d="M83.2615 195.286L64.471 203.715L32.6015 132.676L51.3919 124.246L83.2615 195.286Z" fill="#E24E74"/>
<path d="M83.2615 195.286L64.471 203.715L32.6015 132.676L51.3919 124.246L83.2615 195.286Z" fill="url(#paint6_linear_1201_3477)"/>
<path d="M43.3362 112.579L29.2434 118.901L25.5954 110.769C25.0365 109.524 24.9954 108.107 25.4812 106.83C25.9669 105.554 26.9398 104.523 28.1856 103.964L32.8832 101.857C34.1291 101.298 35.546 101.257 36.8222 101.743C38.0984 102.228 39.1294 103.201 39.6883 104.447L43.3362 112.579Z" fill="#C24040"/>
<path d="M49.434 214.222L101.108 191.041L104.842 199.365C105.401 200.611 105.442 202.028 104.956 203.304C104.471 204.58 103.498 205.611 102.252 206.17L59.9734 225.137C58.7275 225.696 57.3106 225.737 56.0344 225.251C54.7582 224.765 53.7273 223.792 53.1684 222.547L49.434 214.222Z" fill="#E24E74"/>
<path d="M49.434 214.222L101.108 191.041L104.842 199.365C105.401 200.611 105.442 202.028 104.956 203.304C104.471 204.58 103.498 205.611 102.252 206.17L59.9734 225.137C58.7275 225.696 57.3106 225.737 56.0344 225.251C54.7582 224.765 53.7273 223.792 53.1684 222.547L49.434 214.222Z" fill="url(#paint7_linear_1201_3477)"/>
<path d="M94.305 175.877L42.6312 199.058C40.0368 200.222 38.8772 203.269 40.041 205.864L44.2559 215.259C45.4198 217.853 48.4665 219.013 51.0609 217.849L102.735 194.667C105.329 193.503 106.489 190.457 105.325 187.862L101.11 178.467C99.9461 175.873 96.8994 174.713 94.305 175.877Z" fill="#E24E74"/>
<path d="M94.305 175.877L42.6312 199.058C40.0368 200.222 38.8772 203.269 40.041 205.864L44.2559 215.259C45.4198 217.853 48.4665 219.013 51.0609 217.849L102.735 194.667C105.329 193.503 106.489 190.457 105.325 187.862L101.11 178.467C99.9461 175.873 96.8994 174.713 94.305 175.877Z" fill="url(#paint8_linear_1201_3477)"/>
<path d="M13.61 121.789L55.8885 102.822C57.1344 102.264 58.5513 102.222 59.8275 102.708C61.1037 103.194 62.1347 104.167 62.6936 105.413L66.4279 113.737L14.7542 136.918L11.0198 128.594C10.4609 127.348 10.4198 125.932 10.9056 124.655C11.3913 123.379 12.3642 122.348 13.61 121.789Z" fill="#E24E74"/>
<path d="M13.61 121.789L55.8885 102.822C57.1344 102.264 58.5513 102.222 59.8275 102.708C61.1037 103.194 62.1347 104.167 62.6936 105.413L66.4279 113.737L14.7542 136.918L11.0198 128.594C10.4609 127.348 10.4198 125.932 10.9056 124.655C11.3913 123.379 12.3642 122.348 13.61 121.789Z" fill="url(#paint9_linear_1201_3477)"/>
<path d="M64.801 110.11L13.1273 133.292C10.5329 134.456 9.3732 137.503 10.5371 140.097L14.7519 149.492C15.9158 152.087 18.9626 153.246 21.557 152.082L73.2307 128.901C75.8251 127.737 76.9848 124.69 75.8209 122.096L71.606 112.7C70.4421 110.106 67.3954 108.946 64.801 110.11Z" fill="#E24E74"/>
<path d="M64.801 110.11L13.1273 133.292C10.5329 134.456 9.3732 137.503 10.5371 140.097L14.7519 149.492C15.9158 152.087 18.9626 153.246 21.557 152.082L73.2307 128.901C75.8251 127.737 76.9848 124.69 75.8209 122.096L71.606 112.7C70.4421 110.106 67.3954 108.946 64.801 110.11Z" fill="url(#paint10_linear_1201_3477)"/>
<defs>
<linearGradient id="paint0_linear_1201_3477" x1="179.871" y1="0.212646" x2="179.871" y2="117.991" gradientUnits="userSpaceOnUse">
<stop stop-color="#FAC600"/>
<stop offset="1" stop-color="#FF9900"/>
</linearGradient>
<linearGradient id="paint1_linear_1201_3477" x1="119.147" y1="138.944" x2="119.147" y2="182.018" gradientUnits="userSpaceOnUse">
<stop stop-color="#FF3888"/>
<stop offset="1" stop-color="#FFB9D5" stop-opacity="0.39"/>
</linearGradient>
<linearGradient id="paint2_linear_1201_3477" x1="132.654" y1="139.498" x2="132.654" y2="184.552" gradientUnits="userSpaceOnUse">
<stop stop-color="#6BD9E7"/>
<stop offset="1" stop-color="#A8F5FF"/>
</linearGradient>
<linearGradient id="paint3_linear_1201_3477" x1="170.53" y1="168.987" x2="170.53" y2="213.201" gradientUnits="userSpaceOnUse">
<stop stop-color="#DEECF1"/>
<stop offset="1" stop-color="#74DAFF" stop-opacity="0.52"/>
</linearGradient>
<linearGradient id="paint4_linear_1201_3477" x1="150.354" y1="174.875" x2="218.379" y2="165.7" gradientUnits="userSpaceOnUse">
<stop offset="0.140039" stop-color="#DEECF1"/>
<stop offset="1" stop-color="#74DAFF" stop-opacity="0.52"/>
</linearGradient>
<linearGradient id="paint5_linear_1201_3477" x1="179.529" y1="138.301" x2="179.529" y2="162.517" gradientUnits="userSpaceOnUse">
<stop stop-color="#DEECF1"/>
<stop offset="1" stop-color="#74DAFF" stop-opacity="0.52"/>
</linearGradient>
<linearGradient id="paint6_linear_1201_3477" x1="57.7388" y1="185.16" x2="71.4655" y2="178.86" gradientUnits="userSpaceOnUse">
<stop stop-color="#D4F700"/>
<stop offset="1" stop-color="#C4DD2C"/>
</linearGradient>
<linearGradient id="paint7_linear_1201_3477" x1="57.443" y1="222.317" x2="92.5578" y2="200.778" gradientUnits="userSpaceOnUse">
<stop stop-color="#D4F700"/>
<stop offset="1" stop-color="#C4DD2C"/>
</linearGradient>
<linearGradient id="paint8_linear_1201_3477" x1="85.9535" y1="193.477" x2="41.1404" y2="207.278" gradientUnits="userSpaceOnUse">
<stop stop-color="#C3DC2B"/>
<stop offset="1" stop-color="#6DB84A"/>
</linearGradient>
<linearGradient id="paint9_linear_1201_3477" x1="16.9214" y1="131.991" x2="52.0362" y2="110.453" gradientUnits="userSpaceOnUse">
<stop stop-color="#D4F700"/>
<stop offset="1" stop-color="#C4DD2C"/>
</linearGradient>
<linearGradient id="paint10_linear_1201_3477" x1="56.4496" y1="127.711" x2="11.6365" y2="141.512" gradientUnits="userSpaceOnUse">
<stop stop-color="#C3DC2B"/>
<stop offset="1" stop-color="#6DB84A"/>
</linearGradient>
</defs>
</svg>
