<svg width="182" height="179" viewBox="0 0 182 179" fill="none" xmlns="http://www.w3.org/2000/svg">
<path d="M39.7308 11.282L36.6546 10.5455C34.1062 9.93524 31.546 11.5063 30.9357 14.0547L16.5727 74.0374C15.9625 76.5858 17.5335 79.146 20.0819 79.7563L23.1581 80.4929C24.1564 80.7319 25.2052 80.6406 26.1475 80.233L46.4667 71.4383L56.4104 29.9119L42.2782 12.8678C41.623 12.0776 40.7291 11.5211 39.7308 11.282ZM87.5242 127.287L95.0862 109.972C93.1911 109.797 91.3443 110.771 90.4455 112.496L85.9288 121.172C85.596 121.812 85.4134 122.519 85.3947 123.239C85.3761 123.96 85.522 124.676 85.8212 125.332C86.1925 126.146 86.7974 126.803 87.5242 127.287ZM84.4804 134.257C82.5557 134.045 80.6669 135.017 79.7545 136.769L75.2378 145.444C74.905 146.084 74.7224 146.791 74.7037 147.512C74.6851 148.233 74.8309 148.948 75.1302 149.604C75.5135 150.445 76.1447 151.119 76.9041 151.606L84.4804 134.257Z" fill="url(#paint0_linear_1125_2854)"/>
<path d="M143.562 26.7522C132.151 22.4856 120.4 23.0676 110.288 27.2783C94.7661 33.7417 77.5641 34.9772 61.2124 31.0617L56.4104 29.9119L46.4667 71.4383L51.2633 72.5869C67.9581 76.5845 82.5505 86.1599 93.9845 98.9645C99.8893 105.577 107.8 110.518 117.074 112.739C142.949 118.934 168.955 101.458 172.331 74.2759C174.865 53.8784 162.814 33.9509 143.562 26.7522Z" fill="#FFA101"/>
<path d="M115.97 117.353C108.405 115.541 101.769 111.898 96.3677 107.036L75.196 155.518C74.9182 156.153 74.7832 156.842 74.8005 157.536C74.8178 158.229 74.987 158.911 75.2963 159.532C75.6055 160.153 76.0471 160.698 76.5901 161.13C77.1331 161.562 77.7642 161.869 78.4389 162.031L103.816 168.107C106.051 168.642 108.35 167.499 109.269 165.392L129.759 118.471C125.132 118.811 120.481 118.434 115.97 117.353Z" fill="url(#paint1_linear_1125_2854)"/>
<path d="M131.806 113.783C130.725 113.885 129.634 113.935 128.539 113.959C128.007 113.969 127.472 113.953 126.937 113.944C123.678 113.898 120.377 113.53 117.074 112.739C109.814 111 103.407 107.578 98.1264 103.009L96.3677 107.036C101.769 111.898 108.405 115.541 115.97 117.353C116.589 117.501 117.208 117.634 117.826 117.753C120.787 118.322 122.422 121.518 121.215 124.281L105.76 159.673C105.314 160.694 104.524 161.525 103.527 162.021C102.53 162.518 101.39 162.648 100.307 162.388L74.9476 156.316C74.6903 157.39 74.7977 158.527 75.2974 159.532C75.6068 160.153 76.0484 160.698 76.5911 161.13C77.1339 161.561 77.7646 161.869 78.4389 162.031L103.816 168.107C104.899 168.367 106.039 168.237 107.036 167.74C108.033 167.244 108.823 166.412 109.269 165.392L129.759 118.471L131.806 113.783Z" fill="#FFA101"/>
<path d="M101.757 65.1634C101.521 66.7843 101.451 68.3944 101.516 69.9842L150.31 81.6681C151.088 80.2802 151.756 78.8133 152.279 77.2609L101.757 65.1634ZM104.831 56.1421C104.052 57.53 103.385 58.9969 102.862 60.5493L153.384 72.6468C153.62 71.0259 153.69 69.4158 153.625 67.826L104.831 56.1421ZM102.224 75.0323C102.672 76.8807 103.298 78.6732 104.127 80.3668L143.28 89.7419C144.786 88.6076 146.156 87.2931 147.393 85.8483L102.224 75.0323ZM108.035 86.1812C111.466 90.067 116.07 92.9837 121.494 94.2824C126.917 95.5811 132.344 95.0662 137.162 93.1555L108.035 86.1812ZM147.105 51.629C143.675 47.7432 139.071 44.8265 133.647 43.5278C128.224 42.2291 122.797 42.744 117.979 44.6547L147.105 51.629ZM111.861 48.0684C110.355 49.2027 108.985 50.5171 107.748 51.962L152.917 62.778C152.469 60.9296 151.843 59.137 151.014 57.4435L111.861 48.0684Z" fill="#C24040"/>
<path d="M51.2439 31.114L45.7196 54.1843C45.2886 55.9844 44.4443 57.6595 43.2537 59.0768C42.0631 60.4941 40.5589 61.6147 38.8601 62.3499L29.4545 66.4207C28.5124 66.8285 27.4635 66.9197 26.4651 66.6806C22.2182 65.6637 17.9508 68.2822 16.9338 72.5294L16.5727 74.0374C15.9625 76.5858 17.5335 79.146 20.0819 79.7563L23.1577 80.4928C24.1561 80.7318 25.2052 80.6406 26.1474 80.2329L46.4667 71.4383L56.4104 29.9119C54.8508 28.0309 51.8129 28.7375 51.2439 31.114Z" fill="#C24040"/>
<path d="M166.802 46.7693C164.82 43.2709 159.449 45.5282 160.54 49.3978C162.555 56.5436 162.827 64.2869 160.974 72.025C160.39 74.4641 159.617 76.8084 158.676 79.0464C148.568 103.073 117.273 110.564 97.3839 93.7147C96.721 93.1532 96.134 92.5943 95.6421 92.0435C84.208 79.2389 69.6163 69.6636 52.922 65.6662L48.124 64.5173L46.4667 71.4383L51.2633 72.5869C67.9581 76.5845 82.5505 86.1599 93.9849 98.9643C95.4064 100.556 98.6442 103.447 98.6751 103.454C104.419 108.278 111.443 111.766 119.429 113.237C142.882 117.558 166.157 102.236 171.5 78.9941C174.119 67.5989 172.152 56.2138 166.802 46.7693Z" fill="url(#paint2_linear_1125_2854)"/>
<defs>
<linearGradient id="paint0_linear_1125_2854" x1="18.3369" y1="71.6368" x2="100.624" y2="96.0911" gradientUnits="userSpaceOnUse">
<stop stop-color="#FF8357"/>
<stop offset="1" stop-color="#D56C74"/>
</linearGradient>
<linearGradient id="paint1_linear_1125_2854" x1="108.895" y1="110.036" x2="95.4681" y2="166.108" gradientUnits="userSpaceOnUse">
<stop stop-color="#FEDF30"/>
<stop offset="1" stop-color="#FFF1A0" stop-opacity="0.74"/>
</linearGradient>
<linearGradient id="paint2_linear_1125_2854" x1="118.82" y1="34.1386" x2="100.925" y2="108.872" gradientUnits="userSpaceOnUse">
<stop stop-color="#FAC600"/>
<stop offset="1" stop-color="#FF9900"/>
</linearGradient>
</defs>
</svg>
