<svg width="180" height="181" viewBox="0 0 180 181" fill="none" xmlns="http://www.w3.org/2000/svg">
<mask id="mask0_1125_2862" style="mask-type:luminance" maskUnits="userSpaceOnUse" x="0" y="0" width="180" height="181">
<path d="M0 0.212234H179.999V180.212H0V0.212234Z" fill="white"/>
</mask>
<g mask="url(#mask0_1125_2862)">
<path d="M179.999 136.751C179.999 128.75 173.514 122.264 165.513 122.264H28.9739C12.9719 122.264 0 135.236 0 151.238C0 167.239 12.9719 180.212 28.9739 180.212H165.513C173.514 180.212 179.999 173.726 179.999 165.725C179.999 157.724 173.514 151.238 165.513 151.238C173.514 151.238 179.999 144.752 179.999 136.751Z" fill="#E0DFDF"/>
<path d="M179.999 136.751C179.999 128.75 173.514 122.264 165.513 122.264H28.9739C12.9719 122.264 0 135.236 0 151.238C0 167.239 12.9719 180.212 28.9739 180.212H165.513C173.514 180.212 179.999 173.726 179.999 165.725C179.999 157.724 173.514 151.238 165.513 151.238C173.514 151.238 179.999 144.752 179.999 136.751Z" fill="url(#paint0_linear_1125_2862)"/>
<path d="M14.4868 78.8035C14.4868 70.8026 20.9728 64.3167 28.974 64.3167H136.539C152.54 64.3167 165.513 77.2886 165.513 93.2906C165.513 109.292 152.54 122.264 136.539 122.264H28.974C20.9728 122.264 14.4868 115.778 14.4868 107.777C14.4868 99.7766 20.9728 93.2906 28.974 93.2906C20.9728 93.2906 14.4868 86.8046 14.4868 78.8035Z" fill="#F5F5FC"/>
<path d="M122.052 107.777C122.052 99.7766 128.538 93.2906 136.539 93.2906H28.9736C20.9728 93.2906 14.4868 99.7766 14.4868 107.777C14.4868 115.778 20.9728 122.264 28.9736 122.264H136.539C128.538 122.264 122.052 115.778 122.052 107.777Z" fill="#EBEBF5"/>
<path d="M43.4607 165.725C43.4607 157.724 36.9748 151.238 28.9739 151.238H165.513C173.513 151.238 179.999 157.724 179.999 165.725C179.999 173.726 173.513 180.212 165.513 180.212H28.9739C36.9748 180.212 43.4607 173.726 43.4607 165.725Z" fill="url(#paint1_linear_1125_2862)"/>
<path d="M70.9954 39.1333C70.9954 55.4949 78.382 70.129 89.9997 79.8901C101.617 70.129 109.004 55.4949 109.004 39.1333C109.004 24.554 103.139 11.3465 93.6415 1.73592C91.6338 -0.29541 88.3657 -0.29541 86.3575 1.73592C76.8605 11.3465 70.9954 24.554 70.9954 39.1333Z" fill="url(#paint2_linear_1125_2862)"/>
<path d="M58.0801 50.6402C64.108 65.1935 76.0698 75.4886 89.9998 79.8901C96.7371 66.9277 97.9159 51.1894 91.8876 36.6365C86.5161 23.6688 76.4333 14.082 64.4448 9.03257C61.9103 7.96523 59.0033 9.16933 57.9662 11.716C53.0594 23.7637 52.7086 37.6722 58.0801 50.6402Z" fill="url(#paint3_linear_1125_2862)"/>
<path d="M91.8876 36.6361C89.2952 30.378 85.6034 24.9102 81.1319 20.3567L81.0535 20.4369C75.8304 25.7708 68.0742 27.7016 60.9403 25.5015C58.8821 24.8667 56.7865 24.3597 54.6657 23.9835C53.4415 32.724 54.4579 41.8955 58.08 50.6399C64.1079 65.1931 76.0698 75.4883 89.9997 79.8898C96.737 66.9274 97.9155 51.1894 91.8876 36.6361Z" fill="url(#paint4_linear_1125_2862)"/>
<path d="M121.919 50.6402C115.892 65.1935 103.93 75.4886 89.9997 79.8901C83.2624 66.9277 82.0836 51.1894 88.1119 36.6365C93.4834 23.6688 103.566 14.082 115.555 9.03257C118.089 7.96523 120.996 9.16933 122.033 11.716C126.94 23.7637 127.291 37.6722 121.919 50.6402Z" fill="url(#paint5_linear_1125_2862)"/>
<path d="M98.8675 20.3567C94.396 24.9098 90.7043 30.378 88.1118 36.6361C82.084 51.189 83.2624 66.9274 89.9997 79.8898C103.93 75.4879 115.892 65.1928 121.919 50.6399C125.542 41.8955 126.558 32.724 125.334 23.9831C123.213 24.3597 121.118 24.8668 119.059 25.5015C111.926 27.7016 104.169 25.7704 98.9463 20.4369L98.8675 20.3567Z" fill="url(#paint6_linear_1125_2862)"/>
<path d="M54.4087 66.7664C64.1529 76.5106 77.2676 80.8267 89.9997 79.7214C91.1054 66.9889 86.7889 53.8743 77.0451 44.13C68.3622 35.4475 57.0036 31.0748 45.6235 31.0069C45.0527 31.0029 44.4868 31.1124 43.9587 31.329C43.4305 31.5456 42.9507 31.865 42.5471 32.2687C42.1435 32.6723 41.8241 33.1522 41.6075 33.6803C41.391 34.2085 41.2816 34.7744 41.2856 35.3452C41.3531 46.7249 45.7262 58.0839 54.4087 66.7664Z" fill="url(#paint7_linear_1125_2862)"/>
<path d="M102.955 44.13C93.2106 53.8742 88.8944 66.9889 90.0001 79.721C102.732 80.8267 115.847 76.5102 125.591 66.7664C134.274 58.0835 138.647 46.7249 138.714 35.3452C138.718 34.7744 138.609 34.2084 138.392 33.6802C138.176 33.152 137.856 32.6721 137.453 32.2684C137.049 31.8648 136.569 31.5454 136.041 31.3288C135.513 31.1122 134.947 31.0028 134.376 31.0069C122.996 31.0744 111.637 35.4475 102.955 44.13Z" fill="url(#paint8_linear_1125_2862)"/>
<path d="M89.9997 79.7214C98.2024 80.4333 106.562 78.8921 114.079 75.1015C117.366 70.3678 119.296 64.6233 119.296 58.4361C119.296 51.0618 116.217 43.628 112.168 37.039C108.802 38.993 105.705 41.3769 102.954 44.1304C93.2102 53.8743 88.8941 66.9889 89.9997 79.7214Z" fill="#FFA1C8"/>
<path d="M89.9997 79.7214C91.1054 66.9889 86.7893 53.8743 77.045 44.1304C74.2945 41.3769 71.1972 38.993 67.8313 37.039C63.7824 43.628 60.7041 51.0618 60.7041 58.4361C60.7041 64.6233 62.6338 70.3678 65.9206 75.1019C73.4373 78.8921 81.7971 80.4333 89.9997 79.7214Z" fill="#FFA1C8"/>
<path d="M89.9997 79.8901C101.849 79.8901 111.454 70.2848 111.454 58.4361C111.454 45.7736 98.973 31.6253 93.0502 25.6242C91.3722 23.924 88.6272 23.924 86.9492 25.6242C81.0265 31.6253 68.5453 45.7736 68.5453 58.4361C68.5453 70.2848 78.1507 79.8901 89.9997 79.8901Z" fill="url(#paint9_linear_1125_2862)"/>
</g>
<defs>
<linearGradient id="paint0_linear_1125_2862" x1="126.288" y1="144.646" x2="0.976934" y2="159.446" gradientUnits="userSpaceOnUse">
<stop stop-color="#D7A4FF"/>
<stop offset="1" stop-color="#F372BF"/>
</linearGradient>
<linearGradient id="paint1_linear_1125_2862" x1="104.487" y1="180.212" x2="104.487" y2="151.238" gradientUnits="userSpaceOnUse">
<stop stop-color="#D2A0F5"/>
<stop offset="1" stop-color="#FF67D4" stop-opacity="0.5"/>
</linearGradient>
<linearGradient id="paint2_linear_1125_2862" x1="89.9995" y1="79.8901" x2="89.9995" y2="0.212425" gradientUnits="userSpaceOnUse">
<stop stop-color="#FF3888"/>
<stop offset="1" stop-color="#FFB9D5" stop-opacity="0.39"/>
</linearGradient>
<linearGradient id="paint3_linear_1125_2862" x1="74.9839" y1="79.8901" x2="74.9839" y2="8.64341" gradientUnits="userSpaceOnUse">
<stop stop-color="#FF3888"/>
<stop offset="1" stop-color="#FFB9D5" stop-opacity="0.39"/>
</linearGradient>
<linearGradient id="paint4_linear_1125_2862" x1="74.9853" y1="79.8898" x2="74.9853" y2="20.3567" gradientUnits="userSpaceOnUse">
<stop stop-color="#FF3888"/>
<stop offset="1" stop-color="#FFB9D5" stop-opacity="0.39"/>
</linearGradient>
<linearGradient id="paint5_linear_1125_2862" x1="105.016" y1="79.8901" x2="105.016" y2="8.64341" gradientUnits="userSpaceOnUse">
<stop stop-color="#FF3888"/>
<stop offset="1" stop-color="#FFB9D5" stop-opacity="0.39"/>
</linearGradient>
<linearGradient id="paint6_linear_1125_2862" x1="105.014" y1="79.8898" x2="105.014" y2="20.3567" gradientUnits="userSpaceOnUse">
<stop stop-color="#FF3888"/>
<stop offset="1" stop-color="#FFB9D5" stop-opacity="0.39"/>
</linearGradient>
<linearGradient id="paint7_linear_1125_2862" x1="65.7272" y1="79.8904" x2="65.7272" y2="31.0068" gradientUnits="userSpaceOnUse">
<stop stop-color="#FF3888"/>
<stop offset="1" stop-color="#FFB9D5" stop-opacity="0.39"/>
</linearGradient>
<linearGradient id="paint8_linear_1125_2862" x1="114.272" y1="79.8901" x2="114.272" y2="31.0068" gradientUnits="userSpaceOnUse">
<stop stop-color="#FF3888"/>
<stop offset="1" stop-color="#FFB9D5" stop-opacity="0.39"/>
</linearGradient>
<linearGradient id="paint9_linear_1125_2862" x1="89.9997" y1="79.8901" x2="89.9997" y2="24.3491" gradientUnits="userSpaceOnUse">
<stop stop-color="#FF3888"/>
<stop offset="1" stop-color="#FFB9D5" stop-opacity="0.39"/>
</linearGradient>
</defs>
</svg>
